<svg xmlns="http://www.w3.org/2000/svg" viewBox="0 0 53 235"><defs><style>.cls-1{fill:#f7df66;}.cls-2,.cls-4{fill:none;}.cls-2,.cls-3,.cls-4,.cls-5{stroke:#1d1d1b;stroke-miterlimit:10;}.cls-2{stroke-width:0.25px;}.cls-3{fill:#333;}.cls-3,.cls-4{stroke-width:0.5px;}.cls-5{stroke-width:2px;}</style></defs><title>glodepare</title><g id="paere"><path id="pare" class="cls-1" d="M8.3,191.25c9.66-14.74,9.15-14.2,9.15-14.2l0-6a2.15,2.15,0,0,1,2.11-2.21l17.25.2a2.16,2.16,0,0,1,2.06,2.31l-.22,5.22A2.38,2.38,0,0,0,39,177.9l6.15,9.71c.07.12.15.23.23.35,1.15,1.67,12.42,18.73.11,32.41,0,0-15,18.36-34.45,1.53A10.59,10.59,0,0,1,9.39,220C6.83,216.4-.24,204.28,8.3,191.25Z"/></g><g id="lampeline"><path class="cls-2" d="M30,169l-.68,22.41S31,198.83,33,193s-6.33-6.74-6.33-6.74-4.82-.48-3.48,5.92c0,0,4.8,3.93,3-14l-.6-9.27Z"/><g id="outline"><path class="cls-3" d="M37.43,160.78s4,2.64-.07,5.27l-18.43-.21s-4.28-2.57.06-5.27Z"/><path class="cls-3" d="M37.81,158.74l-19.28-.23a.56.56,0,0,1-.55-.65,6.56,6.56,0,0,1,5.32-5.56h.12l9.82.12.17,0a7.76,7.76,0,0,1,5,5.64A.56.56,0,0,1,37.81,158.74Z"/><path class="cls-3" d="M32.65,152.4s-3.87-8.32-9.23-.11Z"/><path class="cls-4" d="M25.25,9.75c-2,16.07-6,25,0,37.49s10,32.14,4,44.64-2,20.53,0,33a67.59,67.59,0,0,1-1,24.22"/><ellipse class="cls-5" cx="24.25" cy="10" rx="10.99" ry="5"/></g></g></svg>