<svg xmlns="http://www.w3.org/2000/svg" viewBox="0 0 768 1024"><defs><style>.cls-1{fill:#d6c8b9;}.cls-2{fill:#fff;}.cls-3{fill:#f2f2f2;}.cls-4{fill:#a67c52;}.cls-5{fill:#606060;}.cls-6{fill:#262626;}.cls-7{fill:#534741;}.cls-8{fill:#070707;stroke:#2d2c2c;}.cls-10,.cls-16,.cls-17,.cls-23,.cls-8,.cls-9{stroke-miterlimit:10;}.cls-12,.cls-9{fill:#333;}.cls-10,.cls-17,.cls-9{stroke:#000;}.cls-10,.cls-17{fill:#1a1a1a;}.cls-11{fill:#ccb07b;}.cls-13{fill:#121422;}.cls-14{fill:#000d1a;}.cls-15{fill:#42210b;}.cls-16{fill:#331605;stroke:#42210b;}.cls-17{stroke-width:0.5px;}.cls-18{fill:#412102;}.cls-19{fill:#514435;}.cls-20{fill:#86715a;}.cls-21{fill:#604a3a;}.cls-22{fill:#0c0b08;}.cls-22,.cls-23{opacity:0.68;}.cls-23{stroke:#1d1d1b;}.cls-24{fill:#efea95;opacity:0.26;}</style></defs><title>glodepare</title><g id="scene"><polygon class="cls-1" points="91 416 91 662 383 493 383 249 91 416"/><ellipse class="cls-2" cx="299.5" cy="411" rx="9.5" ry="8"/><ellipse class="cls-3" cx="300" cy="411.11" rx="7" ry="5.89"/><ellipse class="cls-2" cx="278.5" cy="419" rx="9.5" ry="8"/><ellipse class="cls-3" cx="279" cy="419.11" rx="7" ry="5.89"/><polygon class="cls-4" points="92 662 384 493 676 662 385 831 92 662"/><polygon class="cls-1" points="384 252 384 493 676 662 676 422 384 252"/><polygon class="cls-5" points="676 422 676 665 699 651 699 407 676 422"/><polygon class="cls-5" points="69 406 92 419 383 252 676 422 699 407 384 225 69 406"/><polygon class="cls-6" points="385 831 69 649 69 676 385 859 385 831"/><polygon class="cls-6" points="385 831 385 859 699 677 699 649 385 831"/><polygon class="cls-7" points="380.55 659.3 380.69 721.8 385.69 721.76 385.23 659.27 380.55 659.3"/><polygon class="cls-7" points="444.98 627.32 445.01 632.32 384.27 667.77 259.77 599.69 259.72 592.69 384.24 662.77 444.98 627.32"/><polygon class="cls-7" points="440.32 627.85 440.46 690.35 445.46 690.31 445 627.82 440.32 627.85"/><polygon class="cls-7" points="260.07 597.19 260.21 659.69 265.21 659.65 264.75 597.16 260.07 597.19"/><path d="M496.64,519.55l54.81,22.12-8.6,56.22s-53.24-23.83-59-28.64-34.41-14.42-34.41-14.42-32.49-14.12-33-19.43,7.7-39.69,7.7-39.69l30.26,9.53s39.52,15.2,42.27,14.31"/><polygon points="542.58 597.52 577.68 588.18 583.04 536.04 551.18 541.3 542.58 597.52"/><path class="cls-8" d="M578.05,587.91l-1.4,22c-.13.83-10.06,7.23-10.84,7.52-5.45,2.06-26.82,9.93-28.71,7.36,0,0-10.51.35-54-27.22,0,0-22.07-13.84-39.47-19.77s-34.37-19-34.37-19l4.11-18.33s1.33-4.38,2.6-4.18,3.45,3.14,5.27,4.07,9,5.3,9,5.3,21.29,10.45,23.85,10.84,24,9.56,24,9.56,5.56,2.16,6,3.53,31.56,15.95,31.56,15.95l18.93,8.77,8,3.19Z"/><path class="cls-9" d="M552.5,536.92l-.78,5.11,41.47-6.5a1,1,0,0,0,.85-.86l.47-3.09Z"/><polygon class="cls-9" points="552.5 536.92 419.05 490.36 418.56 493.56 551.72 542.03 552.5 536.92"/><path class="cls-9" d="M494.81,529.41s23.49.32,41.34,16.13l-5.67,37.05-.68,4.48-40.66-20.61Z"/><path class="cls-9" d="M536.15,545.54l3.39-.79s-12.74-15-42.43-17.6l-2.21,1.62S522.67,531.05,536.15,545.54Z"/><path class="cls-10" d="M539.54,544.75l-1,6.39a4.64,4.64,0,0,0,4.47.68s.79,3.39-.68,4.47-4.67.6-4.47-.68-3.33,21.72-3.33,21.72,4.38,1.33,2.71,3.69c0,0,.25,2.65-1.67,2.36s-5.79,3.69-5.79,3.69l6.35-41.53Z"/><path class="cls-11" d="M504.35,543.94S515,538.38,518,548.65a3.47,3.47,0,0,1,3.54,2.5c.89,2.75-4,.69-4,.69s-1,2.46-3.83-.58-6.93-1.72-6.93-1.72-3.84-.58-2.91-2.4c0,0-5.65-1.52-2.8-3S504.35,543.94,504.35,543.94Z"/><path class="cls-9" d="M426.58,505.24s17.1-.65,25.95,9.86l-4.69,30.66-26.1-13.14Z"/><path class="cls-12" d="M452.53,515.1l2.31-2.27s-8.51-8.49-24.68-9.65l-3.58,2.06S444.32,504.69,452.53,515.1Z"/><path class="cls-10" d="M454.84,512.83l-.88,5.76s.86,1.78,1.92.29c1.67-2.36,1.33,4.12-.59,3.83l-2.55-.39L450,540.21s2.85-1.53,3.1,1.13,1.28.19-1,2.46-4.23,2-4.23,2l4.69-30.66Z"/><polygon points="594.51 531.58 550.33 549.27 419.05 490.36 458.07 480.54 594.51 531.58"/><path d="M542.26,435s2.68-30.32,6.71-31-25.27-5.83-25.27-5.83l-8.86,36.57,9.79,8.69Z"/><polygon points="570.66 484.45 548.69 478.48 543.38 515.2 564.9 522.15 570.66 484.45"/><ellipse class="cls-13" cx="580.53" cy="451.05" rx="10.66" ry="5.49" transform="translate(46.91 956.73) rotate(-81.31)"/><path d="M584.36,439.79l-46.64-7.13-11.4,6.11s4-1.95-.19-8.48c0,0-37.55-13.9-41-12.47s-8.45,16.62-6.29,19.56c0,0,.79,3.39,11.11,4.32s91.22,19.18,91.22,19.18-4.37-1.32-3.55-11S584.36,439.79,584.36,439.79Z"/><polygon points="549.18 475.28 552.36 454.47 574.76 457.62 572.43 481.45 549.18 475.28"/><polygon class="cls-14" points="495 500.34 497.56 500.73 504.98 443.68 502.07 441.27 495 500.34"/><polygon class="cls-9" points="564.9 522.15 568.26 523.64 577.94 460.39 574.76 457.62 564.9 522.15"/><polygon class="cls-15" points="587.33 490.92 457.67 458.02 471.57 456.87 598.43 486.74 587.33 490.92"/><path class="cls-15" d="M561.55,483.59s21.6,4.73,10.76,28.57l-3.55,12.53,5.23,2.12s14.13-24,5.77-37.7S561.55,483.59,561.55,483.59Z"/><path class="cls-16" d="M586.34,484.56l-7,43.4-6.83-2.36s14.86-33,1.84-37.64Z"/><path class="cls-15" d="M457.67,458s9.48,2.1,12.05,11l-3.3,21.53,8.08,2.74,3.31-30.15Z"/><polygon points="484.38 437.26 481.7 459.08 498.75 462.99 501.63 439.89 484.38 437.26"/><polygon points="479.98 466.01 476.6 493.61 494.47 499.53 497.87 468.74 480.19 463.73 479.98 466.01"/><polygon class="cls-9" points="550.63 587.64 570.87 583.54 576.1 545.11 556.05 547.93 550.63 587.64"/><polygon class="cls-9" points="550.35 602.31 548.59 613.81 565.84 607.94 567.4 597.72 550.35 602.31"/><polygon class="cls-9" points="487.51 583.54 523.99 601.54 522.13 613.68 485.65 595.68 487.51 583.54"/><polygon class="cls-9" points="523.72 601.17 527.94 599.21 490.82 581.11 487.24 583.17 523.72 601.17"/><path class="cls-11" d="M432.24,515.26s6.73-5.51,9.29,3.39c0,0,3.29-.15,3,1.76s-3.29.15-3.29.15.24,2.66-.94,1.82-2.51-5-8.65-3.28c0,0-.34-2,.3-1.92S426.49,514.38,432.24,515.26Z"/><path class="cls-10" d="M527.94,599.21l-.88,5.75s-.83,1.18,1.28.19,3.73,1.23.89,2.75-6.83,6.15-6.83,6.15l2-12.78Z"/><polygon class="cls-9" points="417.18 549.58 415.72 559.16 438.19 570.44 439.75 560.22 417.18 549.58"/><polygon class="cls-9" points="417.18 549.58 419.59 546.67 441.51 557.22 439.75 560.22 417.18 549.58"/><path class="cls-17" d="M441.47,557.51l-.83,5.42a.06.06,0,0,0,0,.06c.18.11,1.23.64,2.08-1s.24,2.7.16,3.23a.06.06,0,0,1-.07,0l-2.45-.38a.05.05,0,0,0-.06,0l-2,5a.06.06,0,0,1-.11,0l1.49-9.7v0l1.62-2.74A.05.05,0,0,1,441.47,557.51Z"/><path class="cls-11" d="M499,595.15s6.49-2,7.08,4.05a2,2,0,0,1,1.7,1.76c.2,1.62-2.31,0-2.31,0s-.83,1.25-2.06-.73a3.94,3.94,0,0,0-3.66-1.68s-2.07-.73-1.36-1.64c0,0-3-1.44-1.23-2S499,595.15,499,595.15Z"/><path class="cls-11" d="M423.75,558.69s3.49-2.86,4.82,1.76c0,0,1.71-.08,1.56.91s-1.71.08-1.71.08.13,1.38-.48.95-1.3-2.58-4.49-1.71c0,0-.18-1,.15-1S420.77,558.24,423.75,558.69Z"/><path class="cls-18" d="M383.36,598.09s-5.91.65,0,2Z"/><path class="cls-18" d="M397.13,598.09s5.25,1.31,0,2Z"/><polygon class="cls-5" points="92 418 69 406 69 649 91.57 662 92 418"/><path class="cls-19" d="M317.52,379.25c-.07-.86-.14-1.73-.22-2.6s-.15-1.48-.23-2.21l-.25-.05a2.63,2.63,0,0,1-2.33-.66,3.38,3.38,0,0,1-.56-.64,6.2,6.2,0,0,0-1.95-2l-.44-.09-.35.05-.29,0h-.24l-.49.35-.09-.06c-.08.18-.22.36-.21.51,0,1,.14,2,.19,3,.12,1.89,4.07,62.92,4.18,64.81H325.9"/><path class="cls-20" d="M314.7,372.3l-.37-.39-.29-.24-.65-.54h0l-1.4,0a6.2,6.2,0,0,1,1.95,2,3.38,3.38,0,0,0,.56.64,2.63,2.63,0,0,0,2.33.66l-.48-.25-1.14-.87-.08-.12-.39-.63Z"/><path class="cls-19" d="M265.8,400.62c-.07-.81-.13-1.61-.2-2.41s-.15-1.36-.22-2l-.24,0a2.61,2.61,0,0,1-2.3-.48,3.24,3.24,0,0,1-.55-.56,5.41,5.41,0,0,0-1.91-1.76l-.43-.05-.34.06-.29,0-.24,0-.49.36-.08-.06c-.08.18-.23.35-.22.49,0,.93.13,1.84.18,2.77.1,1.74,5.43,58.12,5.52,59.87,1.44-.09,8.31-2.95,9.75-3.05"/><path class="cls-20" d="M262.78,394.34l-.37-.39-.29-.24-.65-.54h0l-1.4,0a6.1,6.1,0,0,1,1.95,2,3.78,3.78,0,0,0,.56.64,2.63,2.63,0,0,0,2.33.66l-.48-.25-1.14-.87-.08-.12-.39-.63Z"/><polygon class="cls-19" points="263.11 456.72 314.24 435.19 325.9 439.68 272.98 462.1 263.11 456.72"/><polygon class="cls-19" points="325.9 439.68 325.9 441.47 272.98 463 272.98 462.1 325.9 439.68"/><polygon class="cls-19" points="263.11 456.72 263.11 457.62 272.98 463 272.98 462.1 263.11 456.72"/><path class="cls-19" d="M322.4,387.17c-.35-.93-14.87,5.63-33.2,12.58s-33.55,11.66-33.2,12.59,15.5-4,33.84-10.91S322.75,388.1,322.4,387.17Z"/><path class="cls-19" d="M326.09,412.71c-.35-.93-14.86,5.63-33.2,12.57s-33.55,11.65-33.2,12.57,15.5-4,33.84-10.89S326.44,413.64,326.09,412.71Z"/><path class="cls-19" d="M322.62,399.41c-.33-.93-15,5.37-33.41,12s-33.75,11.07-33.41,12,15.56-3.68,34-10.31S323,400.34,322.62,399.41Z"/><path class="cls-19" d="M327.45,421.37c-.37-.92-14.72,6-32.88,13.37s-33.26,12.46-32.89,13.37,15.4-4.32,33.56-11.71S327.83,422.29,327.45,421.37Z"/><polygon class="cls-21" points="259.72 592.69 320.46 557.24 444.98 627.32 384.24 662.77 259.72 592.69"/></g><g id="mork"><path class="cls-22" d="M92,662V418L383,252l1,65s-77.64-5.72-142.82,76.16S182,692.94,359.47,726.47L385,831Z"/><path class="cls-23" d="M384,317l-1-65L676,422V665L385,831,359.5,727.5s173.83,19.77,206-181S384,317,384,317Z"/></g><g id="lys"><ellipse class="cls-24" cx="379" cy="517.19" rx="196" ry="204.34"/></g></svg>