<?xml version="1.0" encoding="utf-8"?>
<!-- Generator: Adobe Illustrator 23.0.3, SVG Export Plug-In . SVG Version: 6.00 Build 0)  -->
<svg version="1.1" id="Lag_1" xmlns="http://www.w3.org/2000/svg" xmlns:xlink="http://www.w3.org/1999/xlink" x="0px" y="0px"
	 viewBox="0 0 133.9 221.2" style="enable-background:new 0 0 133.9 221.2;" xml:space="preserve">
<style type="text/css">
	.lamp1{fill:#F7DF66;stroke:#000000;stroke-width:2;stroke-miterlimit:10;}
	.lamp2{fill:none;stroke:#1D1D1B;stroke-miterlimit:10;}
	.lamp3{fill:#4D4D4D;stroke:#1D1D1B;stroke-width:0.5;stroke-miterlimit:10;}
</style>
<path id="pare" class="lamp1" d="M121.4,106.6c-27.2,41.2-25.6,39.8-25.6,39.8l0,16.8c0,3.4-2.5,6.2-5.9,6.2l-48.5-0.6
	c-3.4,0-5.9-3.1-5.9-6.5l0.6-14.6c0-1.4-0.3-2.5-1.1-3.6L17.8,117c-0.3-0.3-0.6-0.6-0.6-0.8c-3.4-4.8-34.8-52.5-0.2-90.9
	c0,0,42.1-51.6,96.5-4.1c1.7,1.4,3.4,3.4,4.8,5.3C125.6,35.9,145.3,69.9,121.4,106.6z"/>
<path class="lamp2" d="M60.5,168.9l2-62.8c0,0-4.8-20.8-10.1-4.5S70,120.4,70,120.4s13.5,1.4,9.8-16.5c0,0-13.5-11-8.4,39.3l1.7,26.1
	L60.5,168.9z"/>
<path class="lamp3" d="M39.7,186.9c0,0-11.2-7.3,0.3-14.9l51.6,0.6c0,0,12.1,7.3-0.3,14.9L39.7,186.9z"/>
<path class="lamp3" d="M38.6,189.8l54.2,0.6c0.8,0,1.7,0.8,1.4,1.7c-0.6,3.9-3.4,13.5-14.9,15.7l-0.3,0l-27.5-0.3c-0.3,0-0.3,0-0.6,0
	c-1.7-0.6-11.2-4.2-14-15.7C36.9,190.6,37.4,189.8,38.6,189.8z"/>
<path class="lamp3" d="M53.1,210.5c0,0,10.9,23.3,25.8,0.3L53.1,210.5z"/>
</svg>
