<?xml version="1.0" encoding="utf-8"?>
<!-- Generator: Adobe Illustrator 23.0.3, SVG Export Plug-In . SVG Version: 6.00 Build 0)  -->
<svg version="1.1" xmlns="http://www.w3.org/2000/svg" xmlns:xlink="http://www.w3.org/1999/xlink" x="0px" y="0px"
	 viewBox="0 0 47 225" style="enable-background:new 0 0 47 225;" xml:space="preserve">
<style type="text/css">
	.lampen0{fill:#F7DF66;}
	.lampen1{fill:none;stroke:#1D1D1B;stroke-width:0.25;stroke-miterlimit:10;}
	.lampen2{fill:#333333;stroke:#1D1D1B;stroke-width:0.5;stroke-miterlimit:10;}
	.lampen3{fill:none;stroke:#1D1D1B;stroke-width:0.5;stroke-miterlimit:10;}
	.lampen4{stroke:#1D1D1B;stroke-width:2;stroke-miterlimit:10;}
</style>
<g id="paere">
	<path id="pare" class="lampen0" d="M4.1,187.2c9.7-14.7,9.1-14.2,9.1-14.2l0-6c0-1.2,0.9-2.2,2.1-2.2l17.3,0.2c1.2,0,2.1,1.1,2.1,2.3
		l-0.2,5.2c0,0.5,0.1,0.9,0.4,1.3l6.1,9.7c0.1,0.1,0.2,0.2,0.2,0.3c1.2,1.7,12.4,18.7,0.1,32.4c0,0-15,18.4-34.4,1.5
		c-0.6-0.5-1.2-1.2-1.7-1.9C2.6,212.4-4.4,200.3,4.1,187.2z"/>
</g>
<g id="lampeline">
	<path class="lampen1" d="M25.8,165l-0.7,22.4c0,0,1.7,7.4,3.6,1.6s-6.3-6.7-6.3-6.7s-4.8-0.5-3.5,5.9c0,0,4.8,3.9,3-14l-0.6-9.3
		L25.8,165z"/>
	<g id="outline">
		<path class="lampen2" d="M33.2,156.8c0,0,4,2.6-0.1,5.3l-18.4-0.2c0,0-4.3-2.6,0.1-5.3L33.2,156.8z"/>
		<path class="lampen2" d="M33.6,154.7l-19.3-0.2c-0.3,0-0.6-0.3-0.5-0.6c0.2-1.4,1.2-4.8,5.3-5.6c0,0,0.1,0,0.1,0l9.8,0.1
			c0.1,0,0.1,0,0.2,0c0.6,0.2,4,1.5,5,5.6C34.2,154.4,34,154.7,33.6,154.7z"/>
		<path class="lampen2" d="M28.4,148.4c0,0-3.9-8.3-9.2-0.1L28.4,148.4z"/>
		<path class="lampen3" d="M21,5.7c-2,16.1-6,25,0,37.5s10,32.1,4,44.6s-2,20.5,0,33s-1,24.2-1,24.2"/>
		<ellipse class="lampen4" cx="20" cy="6" rx="11" ry="5"/>
	</g>
</g>
</svg>
