<?xml version="1.0" encoding="utf-8"?>
<!-- Generator: Adobe Illustrator 23.1.1, SVG Export Plug-In . SVG Version: 6.00 Build 0)  -->
<svg version="1.1" xmlns="http://www.w3.org/2000/svg" xmlns:xlink="http://www.w3.org/1999/xlink" x="0px" y="0px"
	 viewBox="0 0 630 634" style="enable-background:new 0 0 630 634;" xml:space="preserve">
<style type="text/css">
	.st0{fill:#F2EFDD;}
	.st1{fill:#F2F2F2;}
	.st2{fill:#DFDFDF;}
	.st3{fill:#E8D274;}
	.st4{fill:#594433;}
	.st5{fill:#262626;}
	.st6{fill:none;stroke:#4C3A2C;stroke-miterlimit:10;}
	.st7{fill:#AAA9A2;}
	.st8{fill:#EFEDE1;}
	.st9{fill:#E2DFD3;}
	.st10{fill:#E1E1E1;}
	.st11{fill:#FFFDFE;}
	.st12{fill:#FFFFFF;}
	.st13{fill:#DBEDEC;}
	.st14{fill:#C0D8DC;}
	.st15{fill:#FFD892;}
	.st16{fill:#FFE0AE;}
	.st17{fill:#B78B49;}
	.st18{fill:#F2DCB6;}
	.st19{fill:#736357;}
	.st20{fill:#EAD224;stroke:#000000;stroke-miterlimit:10;}
	.st21{fill:#49403A;}
	.st22{fill:#3D3531;}
	.st23{fill:#EFE8E4;}
	.st24{fill:none;stroke:#000000;stroke-width:0.25;stroke-linecap:round;stroke-linejoin:round;stroke-miterlimit:10;}
	.st25{fill:#494949;}
	.st26{fill:#AAA5A2;}
	.st27{fill:#333333;}
	.st28{fill:#A5A5A0;}
	.st29{fill:#B8B3A0;}
	.st30{fill:#827F6F;}
	.st31{fill:#77756A;}
	.st32{fill:#625D54;}
	.st33{fill:#989584;}
	.st34{fill:#A5A290;}
	.st35{fill:#ADA998;}
	.st36{fill:#C0BCA8;}
	.st37{fill:#8C887C;}
	.st38{fill:#C9B578;}
	.st39{fill:#565349;}
	.st40{fill:#4E4B43;}
	.st41{fill:#6F6B61;}
	.st42{fill:#D9D4BB;}
	.st43{fill:#D3CA55;}
	.st44{fill:#D1CCB6;}
	.st45{fill:#C7C3B0;}
	.st46{fill:#4F4F4F;}
	.st47{fill:#5A5A5A;}
	.st48{fill:#434343;}
	.st49{fill:#6F6F6F;}
	.st50{fill:#393939;}
	.st51{fill:#727272;}
	.st52{fill:#606060;}
	.st53{fill:#646464;}
	.st54{fill:#ECECEC;}
	.st55{fill:#DBDBDB;}
	.st56{fill:#FFBF3E;}
	.st57{fill:#CE9736;}
	.st58{fill:#A08B0B;}
	.st59{fill:#C1A310;}
	.st60{fill:#6F7883;}
	.st61{fill:#A6998C;}
	.st62{fill:#728092;}
	.st63{fill:#7C7B7E;}
	.st64{fill:#898485;}
	.st65{fill:#47423D;}
	.st66{fill:#38312F;}
	.st67{fill:#786D61;}
	.st68{fill:#544E4A;}
	.st69{fill:#1B1817;}
	.st70{fill:#4D4944;}
	.st71{fill:#706558;}
	.st72{fill:#556876;}
	.st73{fill:#B0ABAA;}
	.st74{fill:#595350;}
	.st75{fill:#7E6D58;}
	.st76{fill:#262120;}
	.st77{fill:#787D86;}
	.st78{fill:#090607;}
	.st79{fill:#C8B6A3;}
	.st80{fill:#13100F;}
	.st81{fill:#897865;}
	.st82{fill:#D1C1B1;}
	.st83{fill:#BAA895;}
	.st84{fill:#F2E7D4;}
	.st85{fill:#665848;}
	.st86{fill:#9A8D76;}
	.st87{fill:#E7D5B9;}
	.st88{fill:#BCBBB7;}
	.st89{fill:#D8D8D6;}
	.st90{fill:none;stroke:#000000;stroke-width:0.5;stroke-miterlimit:10;}
	.st91{fill:#0F682C;}
	.st92{fill:#0B5B28;}
	.st93{fill:#DDBA10;}
</style>
<g id="Lag_1">
</g>
<g id="væg">
	<polygon class="st0" points="315,27 315,268 607,437 607,197 	"/>
	<polygon class="st1" points="0,181 0,424 23,437 23,194 	"/>
	<polygon class="st2" points="607,197 607,438 630,424 630,182 	"/>
	<polygon class="st1" points="0,181 23,194 314,27 607,197 630,182 315,0 	"/>
	<polygon class="st3" points="23,194 23,437 315,268 315,225 315,188 315,27 	"/>
</g>
<g id="gulv">
	<polygon class="st4" points="23,437 316,268 607,437 316,606 	"/>
	<polygon class="st5" points="316,606 0,424 0,451 316,634 	"/>
	<polygon class="st5" points="316,606 316,634 630,452 630,424 	"/>
	<line class="st6" x1="63" y1="459.5" x2="354.4" y2="290.3"/>
	<line class="st6" x1="85.2" y1="472.7" x2="376.6" y2="303.5"/>
	<line class="st6" x1="42.2" y1="447.7" x2="333.6" y2="278.5"/>
	<line class="st6" x1="108.3" y1="486.7" x2="399.7" y2="317.4"/>
	<line class="st6" x1="133.3" y1="500.7" x2="424.7" y2="331.4"/>
	<line class="st6" x1="154.3" y1="513.7" x2="445.7" y2="344.4"/>
	<line class="st6" x1="177.3" y1="525.7" x2="468.7" y2="356.4"/>
	<line class="st6" x1="200.3" y1="539.7" x2="491.7" y2="370.4"/>
	<line class="st6" x1="223.3" y1="552.7" x2="514.7" y2="383.4"/>
	<line class="st6" x1="245.8" y1="565.5" x2="537.2" y2="396.2"/>
	<line class="st6" x1="272.8" y1="580.5" x2="564.2" y2="411.2"/>
	<line class="st6" x1="293.8" y1="593.5" x2="585.2" y2="424.2"/>
</g>
<g id="stikkontakt">
	<g>
		<path class="st7" d="M57,327.6v13.2c0,2.2,2.2,3.8,4.3,3l3.7-1.3c1.8-0.7,3-2.4,3-4.3v-13.1c0-2.7-2.8-4.5-5.2-3.4l-2.9,1.3
			C58.1,323.9,57,325.6,57,327.6z"/>
		<path class="st8" d="M58,328.2v13.2c0,2.2,2.2,3.8,4.3,3l3.7-1.3c1.8-0.7,3-2.4,3-4.3v-13.1c0-2.7-2.8-4.5-5.2-3.4l-2.9,1.3
			C59.1,324.5,58,326.2,58,328.2z"/>
		<path class="st7" d="M63,330.5v2.8c0,0.5,0.5,0.8,0.9,0.6l0.8-0.3c0.4-0.1,0.6-0.5,0.6-0.9V330c0-0.6-0.6-1-1.1-0.7l-0.6,0.3
			C63.2,329.8,63,330.1,63,330.5z"/>
		<path class="st9" d="M63.7,330.7v2.8c0,0.5,0.5,0.8,0.9,0.6l0.8-0.3c0.4-0.1,0.6-0.5,0.6-0.9v-2.8c0-0.6-0.6-1-1.1-0.7l-0.6,0.3
			C63.9,330,63.7,330.3,63.7,330.7z"/>
		<circle cx="61.5" cy="332.5" r="0.5"/>
		<circle cx="67.5" cy="330.5" r="0.5"/>
		<path class="st7" d="M61.2,337.1l5.2-2c0.7-0.3,1.5,0.2,1.5,1v3c0,0.9-0.6,1.8-1.5,2.1l-4.5,1.7c-1,0.4-2-0.3-2-1.3v-2.8
			C59.9,338.1,60.5,337.4,61.2,337.1z"/>
		<path class="st9" d="M62.3,337.4l4.4-1.8c0.6-0.3,1.3,0.2,1.3,0.9v2.8c0,0.9-0.5,1.6-1.3,1.9l-3.8,1.6c-0.8,0.3-1.7-0.3-1.7-1.2
			V339C61.3,338.3,61.7,337.6,62.3,337.4z"/>
		<circle cx="63.5" cy="338.5" r="0.5"/>
		<circle cx="66.5" cy="337.5" r="0.5"/>
		<circle cx="65.5" cy="339.5" r="0.5"/>
	</g>
	<g>
		<path class="st7" d="M586.2,319.6v13.2c0,2.2-2.2,3.8-4.3,3l-3.7-1.3c-1.8-0.7-3-2.4-3-4.3v-13.1c0-2.7,2.8-4.5,5.2-3.4l2.9,1.3
			C585,315.9,586.2,317.7,586.2,319.6z"/>
		<path class="st8" d="M585.2,320.2v13.2c0,2.2-2.2,3.8-4.3,3l-3.7-1.3c-1.8-0.7-3-2.4-3-4.3v-13.1c0-2.7,2.8-4.5,5.2-3.4l2.9,1.3
			C584,316.5,585.2,318.3,585.2,320.2z"/>
		<path class="st7" d="M580.2,322.6v2.8c0,0.5-0.5,0.8-0.9,0.6l-0.8-0.3c-0.4-0.1-0.6-0.5-0.6-0.9v-2.8c0-0.6,0.6-1,1.1-0.7l0.6,0.3
			C579.9,321.8,580.2,322.2,580.2,322.6z"/>
		<path class="st9" d="M579.5,322.8v2.8c0,0.5-0.5,0.8-0.9,0.6l-0.8-0.3c-0.4-0.1-0.6-0.5-0.6-0.9v-2.8c0-0.6,0.6-1,1.1-0.7l0.6,0.3
			C579.3,322,579.5,322.4,579.5,322.8z"/>
		<circle cx="581.7" cy="324.5" r="0.5"/>
		<circle cx="575.7" cy="322.5" r="0.5"/>
		<path class="st7" d="M582,329.1l-5.2-2c-0.7-0.3-1.5,0.2-1.5,1v3c0,0.9,0.6,1.8,1.5,2.1l4.5,1.7c1,0.4,2-0.3,2-1.3v-2.8
			C583.2,330.1,582.7,329.4,582,329.1z"/>
		<path class="st9" d="M580.8,329.4l-4.4-1.8c-0.6-0.3-1.3,0.2-1.3,0.9v2.8c0,0.9,0.5,1.6,1.3,1.9l3.8,1.6c0.8,0.3,1.7-0.3,1.7-1.2
			V331C581.9,330.3,581.5,329.7,580.8,329.4z"/>
		<circle cx="579.7" cy="330.5" r="0.5"/>
		<circle cx="576.7" cy="329.5" r="0.5"/>
		<circle cx="577.7" cy="331.5" r="0.5"/>
	</g>
</g>
<g id="vindue">
	<g>
		<polygon class="st10" points="108,188 241,112 241,116 111,190 		"/>
		<polygon class="st10" points="108,188 108,319 112,317 112,312.4 111,190 		"/>
		<polygon class="st10" points="237,239 112,312 112,317 242,241 		"/>
		<polygon class="st10" points="239,117 237,239 242,241 241,116 		"/>
		<polygon class="st10" points="111.8,288 218,228 218,129 222,127 222,229 112,294.3 		"/>
		<polygon class="st10" points="160,261 158,162 161,159 163,261 		"/>
		<polygon class="st11" points="160,261 154,259 153,166 158,163 		"/>
		<polygon class="st11" points="154,259 111.7,282.8 111.8,288 160,261 		"/>
		<polygon class="st12" points="163,253.5 213,225 212,133 218,129 218,228 163,259 		"/>
		<polygon class="st13" points="154,250 154,259 112,283 111.8,273.5 		"/>
		<polygon class="st13" points="162.7,245 163,254 213,225 205,220 		"/>
		<polygon class="st13" points="205,220 204,137 212,133 213,225 		"/>
		<polygon class="st14" points="154,250 112,273 112,190 153,166 		"/>
		<polygon class="st14" points="160,162 204,137 204,220 162.7,245 		"/>
		<polygon class="st11" points="108,319 101,317 101,186 237,107 241,112 108,188 		"/>
	</g>
	<polygon class="st11" points="112,294 222,229 222,127 240,116 237,239 112,312 	"/>
</g>
<g id="gardin">
	<path class="st15" d="M111,244l119-73c0,0,6,69,4,71s-7.9-3.8-13,0c-4,3-2,7.7-4,9c-6,4-8-3-14,1s1.2,7.5-4,11c-5.3,3.5-12-4-14-2
		s3,6-1,9s-8-5-12-2s1,9-2,11s-9.4-7.2-15-3c-4,3,4.1,7.1-2,12c-5,4-9.9-3.9-16,1c-5,4,0.9,8.1-3,10s-9-2-13,1s-5,10-6,12s-4,3-4,3
		V244z"/>
	<path class="st16" d="M220,188c-1,3,1,54,1,49c0-3,5-3,9,0C232.8,239.1,221.1,184.6,220,188z"/>
	<path class="st16" d="M199,205c-1,3,2,49,3,43c0.5-2.8,5-3,8.1-1.2C214.2,249.2,200.1,201.6,199,205z"/>
	<path class="st16" d="M184,214c-1,3,1,47.9,1,45c0-4,1.9-4.8,6-1C194.5,261.2,185.1,210.6,184,214z"/>
	<path class="st16" d="M172,264c0-3,2-3,5-1c4,2.6-5.9-41.4-7-38"/>
	<path class="st16" d="M153,235c-1,3,0.1,39.7,1,37c1-3,7.1-3.9,11,0C167,274,154.1,231.6,153,235z"/>
	<path class="st16" d="M136,247c-1,3,0,43,0,39c0-3.2,6-6,11-3C149.4,284.5,137.1,243.6,136,247z"/>
	<path class="st16" d="M119.2,259.5c-1,3,0,43,0,39c0-3.2,5.2-6.3,10.8-4.5C133,295,120.4,256,119.2,259.5z"/>
	<path class="st17" d="M111,241l117.8-70c0.6-0.4,1.4-0.2,1.7,0.5l0.3,0.7c0,0.1-0.1,0.2-0.2,0.3c0,0-119.7,71.8-119.7,71.5V241z"/>
</g>
<g id="koekkenbord">
	<polygon class="st18" points="552,328 501,351 502,430 552,404.5 	"/>
	<polygon class="st19" points="270.5,220.5 502,352 552,328 315,198 	"/>
	<polygon class="st18" points="273.5,293.5 502,430 501.5,351.5 270.5,219.5 	"/>
	<g>
		<polygon class="st19" points="292.4,252 324.4,270 324.5,314.5 293.5,296.5 		"/>
	</g>
	<g>
		<polygon class="st19" points="330.2,273.6 362.2,292.2 362.5,336.5 330.5,317.5 		"/>
	</g>
	<polygon class="st19" points="370.5,295.9 402.5,314.4 402.5,359.5 370.5,340.8 	"/>
	<polygon class="st19" points="458.5,346.7 490.5,365.3 489.5,410.8 458.5,392.8 	"/>
	<polygon class="st19" points="292.5,246.5 292.5,238.5 324.5,256.5 324.5,264.5 	"/>
	<polygon class="st19" points="330.5,267.4 330.5,259.4 362.5,277.4 362.5,285.4 	"/>
	<polygon class="st19" points="370.5,290.4 370.4,282.4 402.4,300.4 402.5,308.4 	"/>
	<polygon class="st19" points="458.5,341.3 458.5,333.3 490.5,351.3 490.5,359.3 	"/>
	<g>
		
			<ellipse transform="matrix(0.6193 -0.7851 0.7851 0.6193 -91.6328 503.6129)" class="st21" cx="473.5" cy="346.3" rx="2" ry="2.5"/>
		<path class="st22" d="M474.7,347.4c-0.4,0.5-1.3,0.5-1.9,0c-0.7-0.5-0.9-1.4-0.4-1.9c0.4-0.5,1.3-0.5,1.9,0
			C474.9,346,475.1,346.8,474.7,347.4z"/>
	</g>
	<g>
		
			<ellipse transform="matrix(0.6193 -0.7851 0.7851 0.6193 -84.7497 413.7576)" class="st21" cx="384.3" cy="294.3" rx="2" ry="2.5"/>
		<path class="st22" d="M385.5,295.3c-0.4,0.5-1.3,0.5-1.9,0c-0.7-0.5-0.9-1.4-0.4-1.9c0.4-0.5,1.3-0.5,1.9,0
			C385.7,294,385.9,294.8,385.5,295.3z"/>
	</g>
	<g>
		
			<ellipse transform="matrix(0.6193 -0.7851 0.7851 0.6193 -82.2901 375.2533)" class="st21" cx="345.8" cy="272.5" rx="2" ry="2.5"/>
		<path class="st22" d="M347,273.6c-0.4,0.5-1.3,0.5-1.9,0c-0.7-0.5-0.9-1.4-0.4-1.9c0.4-0.5,1.3-0.5,1.9,0
			C347.2,272.2,347.4,273,347,273.6z"/>
	</g>
	<g>
		
			<ellipse transform="matrix(0.6193 -0.7851 0.7851 0.6193 -80.1177 337.2733)" class="st21" cx="307.7" cy="251.3" rx="2" ry="2.5"/>
		<path class="st22" d="M308.9,252.3c-0.4,0.5-1.3,0.5-1.9,0c-0.7-0.5-0.9-1.4-0.4-1.9c0.4-0.5,1.3-0.5,1.9,0
			C309.2,250.9,309.4,251.8,308.9,252.3z"/>
	</g>
	<g>
		
			<ellipse transform="matrix(0.6193 -0.7851 0.7851 0.6193 -105.4416 360.7161)" class="st21" cx="319.3" cy="289.1" rx="2" ry="2.5"/>
		<path class="st22" d="M320.5,290.2c-0.4,0.5-1.3,0.5-1.9,0c-0.7-0.5-0.9-1.4-0.4-1.9c0.4-0.5,1.3-0.5,1.9,0
			C320.7,288.8,320.9,289.6,320.5,290.2z"/>
	</g>
	<g>
		
			<ellipse transform="matrix(0.6193 -0.7851 0.7851 0.6193 -107.4635 398.5462)" class="st21" cx="357.3" cy="310.1" rx="2" ry="2.5"/>
		<path class="st22" d="M358.5,311.2c-0.4,0.5-1.3,0.5-1.9,0c-0.7-0.5-0.9-1.4-0.4-1.9c0.4-0.5,1.3-0.5,1.9,0
			C358.7,309.8,358.9,310.6,358.5,311.2z"/>
	</g>
	<g>
		
			<ellipse transform="matrix(0.6193 -0.7851 0.7851 0.6193 -108.3562 416.2433)" class="st21" cx="375.1" cy="319.9" rx="2" ry="2.5"/>
		<path class="st22" d="M376.3,320.9c-0.4,0.5-1.3,0.5-1.9,0c-0.7-0.5-0.9-1.4-0.4-1.9c0.4-0.5,1.3-0.5,1.9,0
			C376.5,319.6,376.7,320.4,376.3,320.9z"/>
	</g>
	<g>
		
			<ellipse transform="matrix(0.6193 -0.7851 0.7851 0.6193 -116.1665 505.5462)" class="st21" cx="463.2" cy="372.6" rx="2" ry="2.5"/>
		<path class="st22" d="M464.4,373.6c-0.4,0.5-1.3,0.5-1.9,0c-0.7-0.5-0.9-1.4-0.4-1.9c0.4-0.5,1.3-0.5,1.9,0
			C464.7,372.3,464.9,373.1,464.4,373.6z"/>
	</g>
</g>
<g id="komfur">
</g>
<g id="vacumcleaner">
</g>
<g id="stole">
	<g>
		<path class="st46" d="M309.2,459.3c0-7,0.9-39.3,0.8-40c-0.3-4.4-0.4-8.9,2.2-12.8c1.1-0.5,2.2-1.1,3.3-1.6c0.2-0.3,0.3-0.6,0.5-1
			c-1.9-0.4-3.8-0.7-5.7-1.1c-0.4,0.8-0.7,1.7-1.1,2.5c-0.3,0.7-0.6,1.4-0.9,2c0.7-0.5,1.4-1,2.7-2c-0.7,2.3-1.2,3.9-1.8,5.6
			c-0.5,1.4-1.2,0.9-2,0.2c-0.1,2.2-0.3,11.4-0.4,14.2c-0.2,6.6-0.3,27.5-0.5,34.1C306.4,462.2,309.1,462.1,309.2,459.3z"/>
		<path class="st47" d="M268,406.8c-0.3,1.3-1.2,4.3-1.4,5c-0.4,1.2-0.7,2.5-0.8,3.6c0.5-0.6,1.3-1.2,1.6-2c1.3-4.5,2.4-9,3.8-13.4
			c0.5-1.6,1.6-3,2.4-4.4c1.5-2.9,2.9-5.7,6.3-6.8c-0.8-0.5-1.6-1-2.4-1.4c-0.6,0.1-1.2,0.1-1.9,0.4c-1.8,1.2-2.9,2.7-3.9,4.4
			c-0.8,2.1-0.8,3.3-0.8,4.1C270.4,398.4,269.7,399.5,268,406.8z"/>
		<path class="st46" d="M273.5,395.7c-0.8,1.5-1.9,2.9-2.4,4.4c-1.4,4.4-2.5,9-3.8,13.4c-0.2,0.7-1,1.3-1.6,2
			c-1.3,4.4-2.5,8.8-3.9,13.2c-0.6,2-1.4,3.9-1.9,6c-0.5,1.9,0.8,1.5,1.2,1.1c0.9-1.1,5-12,6.1-16.2c1.4-5.2,2.8-10.4,4.3-15.6
			C272.7,400.3,273.2,397.4,273.5,395.7z"/>
		<path class="st48" d="M292.9,418c-0.4,1.5-1.4,4,0.5,3.7c1.1-0.2,3.5-10.7,4.2-13.1c0.9-2.9,1.4-5.9,2.1-8.9c-0.7-0.3-1.4-0.7-2-1
			c-0.8,3.8-1.7,7.6-2.6,11.4C295,410.2,293.3,416.1,292.9,418z"/>
		<path class="st46" d="M338.3,442.1c0.8,1.5,1.6,1.4,1.6-0.2c0.1-7.1-0.6-19.6-0.5-19.5l0-2.2c-0.2-2.8-0.3-5.7-0.5-8.5
			c0-1.6,0-2.5-0.1-4c0-1-0.1-1.5-0.2-2.7c-0.3-4.3-0.7-4.4-2.2-6.3c-1.7-1.5-3.7-5.7-3.9-5.4c0.4,1.7,0.8,3.5,1.3,5.2
			c-0.2,0.1-0.4,0.2-0.6,0.4c-0.9-0.8-1.8-1.7-3.1-2.8c-0.9,0.8-1.9,1.7-2.8,2.6c0,0.3,1.9,0.9,3.2,1c2.5-0.5,4.6,2.6,4.9,5.1
			c0.3,2.6,0.4,5.3,0.6,7.9c0.2,2.4,0.3,4.8,0.5,7.2C336.8,425.5,337.8,436.5,338.3,442.1z"/>
		<path class="st49" d="M299.7,399.6c2.8,1.2,5.7,2.4,8.4,3.8c0.6,0.3,0.8,1.3,1.1,2c0.4-0.8,0.7-1.7,1.1-2.5
			c-6-2.8-12.1-5.5-18.1-8.5c-4.9-2.5-9.6-5.3-14.3-8c-0.2,0.4-0.4,0.7-0.5,1.1c0.8,0.5,1.6,1,2.4,1.4c6,3.2,11.9,6.4,17.9,9.7
			C298.3,398.9,299,399.2,299.7,399.6z"/>
		<path class="st50" d="M315.6,404.9c1-0.2,2-0.3,3-0.5c2.5-1.6,5.1-3.2,7.6-4.8c0.3-0.3,0.7-0.7,1-1c1-0.9,1.9-1.8,2.8-2.6
			c1.2,1.1,2.1,1.9,3.1,2.8c0.2-0.1,0.4-0.2,0.6-0.4c-0.4-1.7-0.8-3.5-1.3-5.2c-3.2,2.5-6.4,5.2-9.7,7.5c-2,1.4-4.4,2.2-6.6,3.3
			C315.9,404.2,315.7,404.5,315.6,404.9z"/>
		<path class="st51" d="M308.4,407.4c-0.4,1.3-0.7,2.5-1.1,3.8c0.7,0.7,1.5,1.2,2-0.2c0.6-1.6,1.1-3.3,1.8-5.6
			C309.8,406.3,309.1,406.8,308.4,407.4z"/>
		<path class="st52" d="M332.5,390.8c0.5-0.8,1-1.6,1.4-2.4c0.2-2.4,0.3-4.8,0.5-7.2c0.3-4.3,0.8-8.6,1.1-13.2l0.1-1.4
			c0.1-1.1,0.2-2.1,0.2-3.3c-0.8-0.3-1.6-0.6-2.4-1c-0.3,1.5-0.6,2.9-0.9,4.4c-0.3,5-0.6,10-0.9,15.1c-0.2,1.9-0.4,3.8-0.6,5.7
			c-0.2,0.8-0.3,1.7-0.5,2.5C331.2,390.2,331.9,390.5,332.5,390.8z"/>
		<path class="st53" d="M312.3,369c-1.6,3.5-3.2,7.1-4.8,10.6c0.8,0.3,1.6,0.7,2.3,1c0.9-1.6,1.9-3.3,2.8-4.9
			c0.2-0.5,0.4-0.9,0.6-1.4c0.5-1.3,0.9-2.6,1.4-3.9c0.2-0.5,0.3-1,0.5-1.5c1.2-3.2,3.3-8.2,4.6-11.4c1,0.4-0.8-0.3-2.2-0.8
			c-1,2-1.9,4-2.9,6C313.8,364.8,313.1,366.9,312.3,369z"/>
		<path class="st54" d="M309.2,350.5c0.5,4.9,0.2,4.9,4.7,6.6c2,0.7,3.9,1.4,5.9,2.1c1.5,0.5,2.9,1.1,4.4,1.6
			c1.6,0.6,3.3,1.2,4.9,1.8c0.1,0,0.1,0,0.2,0.1c2.1,0.6,4.3,1.3,6.4,1.9c0.1,0,0.2,0.1,0.3,0.1c1.2,0.5,2.4,1,3.6,1.4
			c0.9,0.4,1.6,0.5,2.6,0.5c0.4,0,0.8,0,1.2,0c1.3,0,2.4-0.8,3-1.9c1.8-3.8,3.6-7.6,5.3-11.4c0.3-0.7,0.8-1.7,0.2-2.4
			c-1-0.9-2.2-1.1-3.3-1.5c-4.8-1.6-9.8-2.9-14.6-4.5c-4.5-1.3-9-2.6-13.5-3.8c-0.1,0-0.1,0-0.2,0c-1.6-0.4-3.2-0.7-4.8-1.1
			C311.2,338.7,308.9,347.8,309.2,350.5z"/>
		<path class="st55" d="M332.5,393.2c0.2-0.2,0.3-0.4,0.5-0.6c-0.2-0.7-0.2-1-0.4-1.7c-0.6-0.3-1.3-0.6-1.9-1
			c-5.8-2.4-11.6-4.9-17.4-7.3c-1.1-0.6-2.3-1.2-3.4-1.9c-0.8-0.3-1.6-0.7-2.3-1c-1-0.3-1.9-0.8-2.9-1c-1.8-0.4-6.6-1.1-7.8-0.3
			c-2.9,0.6-5.9,1.2-8.8,1.8c-4,0.6-8.9,2.2-11.1,3.2c-0.9,0.4-0.7,1.3-0.2,2.1c0.2,0.3,0.5,0.5,1.2,0.9c4.8,2.7,9.4,5.5,14.3,8
			c6.1,3.1,12.3,5.8,18.4,8.7c2.2,1.2,5.6,1.6,7.4,0.3c2-1.2,3.2-1.7,4.7-2.7C326.1,398.3,329.2,395.7,332.5,393.2z"/>
	</g>
	<g>
		<path class="st46" d="M365.4,495.2c0-7,0.9-39.3,0.8-40c-0.3-4.4-0.4-8.9,2.2-12.8c1.1-0.5,2.2-1.1,3.3-1.6c0.2-0.3,0.3-0.6,0.5-1
			c-1.9-0.4-3.8-0.7-5.7-1.1c-0.4,0.8-0.7,1.7-1.1,2.5c-0.3,0.7-0.6,1.4-0.9,2c0.7-0.5,1.4-1,2.7-2c-0.7,2.3-1.2,3.9-1.8,5.6
			c-0.5,1.4-1.2,0.9-2,0.2c-0.1,2.2-0.3,11.4-0.4,14.2c-0.2,6.6-0.3,27.5-0.5,34.1C362.6,498.1,365.3,498,365.4,495.2z"/>
		<path class="st47" d="M324.2,442.7c-0.3,1.3-1.2,4.3-1.4,5c-0.4,1.2-0.7,2.5-0.8,3.6c0.5-0.6,1.3-1.2,1.6-2
			c1.3-4.5,2.4-9,3.8-13.4c0.5-1.6,1.6-3,2.4-4.4c1.5-2.9,2.9-5.7,6.3-6.8c-0.8-0.5-1.6-1-2.4-1.4c-0.6,0.1-1.2,0.1-1.9,0.4
			c-1.8,1.2-2.9,2.7-3.9,4.4c-0.8,2.1-0.8,3.3-0.8,4.1C326.6,434.3,325.9,435.3,324.2,442.7z"/>
		<path class="st46" d="M329.7,431.5c-0.8,1.5-1.9,2.9-2.4,4.4c-1.4,4.4-2.5,9-3.8,13.4c-0.2,0.7-1,1.3-1.6,2
			c-1.3,4.4-2.5,8.8-3.9,13.2c-0.6,2-1.4,3.9-1.9,6c-0.5,1.9,0.8,1.5,1.2,1.1c0.9-1.1,5-12,6.1-16.2c1.4-5.2,2.8-10.4,4.3-15.6
			C328.9,436.1,329.4,433.3,329.7,431.5z"/>
		<path class="st48" d="M349.1,453.8c-0.4,1.5-1.4,4,0.5,3.7c1.1-0.2,3.5-10.7,4.2-13.1c0.9-2.9,1.4-5.9,2.1-8.9
			c-0.7-0.3-1.4-0.7-2-1c-0.8,3.8-1.7,7.6-2.6,11.4C351.2,446.1,349.6,451.9,349.1,453.8z"/>
		<path class="st46" d="M394.5,477.9c0.8,1.5,1.6,1.4,1.6-0.2c0.1-7.1-0.6-19.6-0.5-19.5l0-2.2c-0.2-2.8-0.3-5.7-0.5-8.5
			c0-1.6,0-2.5-0.1-4c0-1-0.1-1.5-0.2-2.7c-0.3-4.3-0.7-4.4-2.2-6.3c-1.7-1.5-3.7-5.7-3.9-5.4c0.4,1.7,0.8,3.5,1.3,5.2
			c-0.2,0.1-0.4,0.2-0.6,0.4c-0.9-0.8-1.8-1.7-3.1-2.8c-0.9,0.8-1.9,1.7-2.8,2.6c0,0.3,1.9,0.9,3.2,1c2.5-0.5,4.6,2.6,4.9,5.1
			c0.3,2.6,0.4,5.3,0.6,7.9c0.2,2.4,0.3,4.8,0.5,7.2C393,461.3,394,472.3,394.5,477.9z"/>
		<path class="st49" d="M355.9,435.4c2.8,1.2,5.7,2.4,8.4,3.8c0.6,0.3,0.8,1.3,1.1,2c0.4-0.8,0.7-1.7,1.1-2.5
			c-6-2.8-12.1-5.5-18.1-8.5c-4.9-2.5-9.6-5.3-14.3-8c-0.2,0.4-0.4,0.7-0.5,1.1c0.8,0.5,1.6,1,2.4,1.4c6,3.2,11.9,6.4,17.9,9.7
			C354.5,434.7,355.2,435.1,355.9,435.4z"/>
		<path class="st50" d="M371.8,440.7c1-0.2,2-0.3,3-0.5c2.5-1.6,5.1-3.2,7.6-4.8c0.3-0.3,0.7-0.7,1-1c1-0.9,1.9-1.8,2.8-2.6
			c1.2,1.1,2.1,1.9,3.1,2.8c0.2-0.1,0.4-0.2,0.6-0.4c-0.4-1.7-0.8-3.5-1.3-5.2c-3.2,2.5-6.4,5.2-9.7,7.5c-2,1.4-4.4,2.2-6.6,3.3
			C372.1,440.1,371.9,440.4,371.8,440.7z"/>
		<path class="st51" d="M364.6,443.2c-0.4,1.3-0.7,2.5-1.1,3.8c0.7,0.7,1.5,1.2,2-0.2c0.6-1.6,1.1-3.3,1.8-5.6
			C366,442.1,365.3,442.7,364.6,443.2z"/>
		<path class="st52" d="M388.7,426.6c0.5-0.8,1-1.6,1.4-2.4c0.2-2.4,0.3-4.8,0.5-7.2c0.3-4.3,0.8-8.6,1.1-13.2l0.1-1.4
			c0.1-1.1,0.2-2.1,0.2-3.3c-0.8-0.3-1.6-0.6-2.4-1c-0.3,1.5-0.6,2.9-0.9,4.4c-0.3,5-0.6,10-0.9,15.1c-0.2,1.9-0.4,3.8-0.6,5.7
			c-0.2,0.8-0.3,1.7-0.5,2.5C387.4,426,388.1,426.3,388.7,426.6z"/>
		<path class="st53" d="M368.5,404.8c-1.6,3.5-3.2,7.1-4.8,10.6c0.8,0.3,1.6,0.7,2.3,1c0.9-1.6,1.9-3.3,2.8-4.9
			c0.2-0.5,0.4-0.9,0.6-1.4c0.5-1.3,0.9-2.6,1.4-3.9c0.2-0.5,0.3-1,0.5-1.5c1.2-3.2,3.3-8.2,4.6-11.4c1,0.4-0.8-0.3-2.2-0.8
			c-1,2-1.9,4-2.9,6C370.1,400.7,369.3,402.8,368.5,404.8z"/>
		<path class="st54" d="M365.4,386.3c0.5,4.9,0.2,4.9,4.7,6.6c2,0.7,3.9,1.4,5.9,2.1c1.5,0.5,2.9,1.1,4.4,1.6
			c1.6,0.6,3.3,1.2,4.9,1.8c0.1,0,0.1,0,0.2,0.1c2.1,0.6,4.3,1.3,6.4,1.9c0.1,0,0.2,0.1,0.3,0.1c1.2,0.5,2.4,1,3.6,1.4
			c0.9,0.4,1.6,0.5,2.6,0.5c0.4,0,0.8,0,1.2,0c1.3,0,2.4-0.8,3-1.9c1.8-3.8,3.6-7.6,5.3-11.4c0.3-0.7,0.8-1.7,0.2-2.4
			c-1-0.9-2.2-1.1-3.3-1.5c-4.8-1.6-9.8-2.9-14.6-4.5c-4.5-1.3-9-2.6-13.5-3.8c-0.1,0-0.1,0-0.2,0c-1.6-0.4-3.2-0.7-4.8-1.1
			C367.4,374.6,365.1,383.6,365.4,386.3z"/>
		<path class="st55" d="M388.7,429c0.2-0.2,0.3-0.4,0.5-0.6c-0.2-0.7-0.2-1-0.4-1.7c-0.6-0.3-1.3-0.6-1.9-1
			c-5.8-2.4-11.6-4.9-17.4-7.3c-1.1-0.6-2.3-1.2-3.4-1.9c-0.8-0.3-1.6-0.7-2.3-1c-1-0.3-1.9-0.8-2.9-1c-1.8-0.4-6.6-1.1-7.8-0.3
			c-2.9,0.6-5.9,1.2-8.8,1.8c-4,0.6-8.9,2.2-11.1,3.2c-0.9,0.4-0.7,1.3-0.2,2.1c0.2,0.3,0.5,0.5,1.2,0.9c4.8,2.7,9.4,5.5,14.3,8
			c6.1,3.1,12.3,5.8,18.4,8.7c2.2,1.2,5.6,1.6,7.4,0.3c2-1.2,3.2-1.7,4.7-2.7C382.3,434.2,385.4,431.5,388.7,429z"/>
	</g>
	<g>
		<path class="st46" d="M187.9,458.2c0-7-0.9-39.3-0.8-40c0.3-4.4,0.4-8.9-2.2-12.8c-1.1-0.5-2.2-1.1-3.3-1.6
			c-0.2-0.3-0.3-0.6-0.5-1c1.9-0.4,3.8-0.7,5.7-1.1c0.4,0.8,0.7,1.7,1.1,2.5c0.3,0.7,0.6,1.4,0.9,2c-0.7-0.5-1.4-1-2.7-2
			c0.7,2.3,1.2,3.9,1.8,5.6c0.5,1.4,1.2,0.9,2,0.2c0.1,2.2,0.3,11.4,0.4,14.2c0.2,6.6,0.3,27.5,0.5,34.1
			C190.7,461.1,188,461,187.9,458.2z"/>
		<path class="st47" d="M229.2,405.7c0.3,1.3,1.2,4.3,1.4,5c0.4,1.2,0.7,2.5,0.8,3.6c-0.5-0.6-1.3-1.2-1.6-2
			c-1.3-4.5-2.4-9-3.8-13.4c-0.5-1.6-1.6-3-2.4-4.4c-1.5-2.9-2.9-5.7-6.3-6.8c0.8-0.5,1.6-1,2.4-1.4c0.6,0.1,1.2,0.1,1.9,0.4
			c1.8,1.2,2.9,2.7,3.9,4.4c0.8,2.1,0.8,3.3,0.8,4.1C226.7,397.3,227.4,398.3,229.2,405.7z"/>
		<path class="st46" d="M223.6,394.5c0.8,1.5,1.9,2.9,2.4,4.4c1.4,4.4,2.5,9,3.8,13.4c0.2,0.7,1,1.3,1.6,2c1.3,4.4,2.5,8.8,3.9,13.2
			c0.6,2,1.4,3.9,1.9,6c0.5,1.9-0.8,1.5-1.2,1.1c-0.9-1.1-5-12-6.1-16.2c-1.4-5.2-2.8-10.4-4.3-15.6
			C224.4,399.1,223.9,396.3,223.6,394.5z"/>
		<path class="st48" d="M204.2,416.8c0.4,1.5,1.4,4-0.5,3.7c-1.1-0.2-3.5-10.7-4.2-13.1c-0.9-2.9-1.4-5.9-2.1-8.9
			c0.7-0.3,1.4-0.7,2-1c0.8,3.8,1.7,7.6,2.6,11.4C202.1,409.1,203.8,414.9,204.2,416.8z"/>
		<path class="st46" d="M158.8,440.9c-0.8,1.5-1.6,1.4-1.6-0.2c-0.1-7.1,0.6-19.6,0.5-19.5l0-2.2c0.2-2.8,0.3-5.7,0.5-8.5
			c0-1.6,0-2.5,0.1-4c0-1,0.1-1.5,0.2-2.7c0.3-4.3,0.7-4.4,2.2-6.3c1.7-1.5,3.7-5.7,3.9-5.4c-0.4,1.7-0.8,3.5-1.3,5.2
			c0.2,0.1,0.4,0.2,0.6,0.4c0.9-0.8,1.8-1.7,3.1-2.8c0.9,0.8,1.9,1.7,2.8,2.6c0,0.3-1.9,0.9-3.2,1c-2.5-0.5-4.6,2.6-4.9,5.1
			c-0.3,2.6-0.4,5.3-0.6,7.9c-0.2,2.4-0.3,4.8-0.5,7.2C160.3,424.3,159.3,435.3,158.8,440.9z"/>
		<path class="st49" d="M197.4,398.4c-2.8,1.2-5.7,2.4-8.4,3.8c-0.6,0.3-0.8,1.3-1.1,2c-0.4-0.8-0.7-1.7-1.1-2.5
			c6-2.8,12.1-5.5,18.1-8.5c4.9-2.5,9.6-5.3,14.3-8c0.2,0.4,0.4,0.7,0.5,1.1c-0.8,0.5-1.6,1-2.4,1.4c-6,3.2-11.9,6.4-17.9,9.7
			C198.8,397.7,198.1,398.1,197.4,398.4z"/>
		<path class="st50" d="M181.5,403.7c-1-0.2-2-0.3-3-0.5c-2.5-1.6-5.1-3.2-7.6-4.8c-0.3-0.3-0.7-0.7-1-1c-1-0.9-1.9-1.8-2.8-2.6
			c-1.2,1.1-2.1,1.9-3.1,2.8c-0.2-0.1-0.4-0.2-0.6-0.4c0.4-1.7,0.8-3.5,1.3-5.2c3.2,2.5,6.4,5.2,9.7,7.5c2,1.4,4.4,2.2,6.6,3.3
			C181.2,403.1,181.4,403.4,181.5,403.7z"/>
		<path class="st51" d="M188.7,406.2c0.4,1.3,0.7,2.5,1.1,3.8c-0.7,0.7-1.5,1.2-2-0.2c-0.6-1.6-1.1-3.3-1.8-5.6
			C187.3,405.1,188,405.7,188.7,406.2z"/>
		<path class="st52" d="M164.6,389.6c-0.5-0.8-1-1.6-1.4-2.4c-0.2-2.4-0.3-4.8-0.5-7.2c-0.3-4.3-0.8-8.6-1.1-13.2l-0.1-1.4
			c-0.1-1.1-0.2-2.1-0.2-3.3c0.8-0.3,1.6-0.6,2.4-1c0.3,1.5,0.6,2.9,0.9,4.4c0.3,5,0.6,10,0.9,15.1c0.2,1.9,0.4,3.8,0.6,5.7
			c0.2,0.8,0.3,1.7,0.5,2.5C165.9,389,165.2,389.3,164.6,389.6z"/>
		<path class="st53" d="M184.8,367.8c1.6,3.5,3.2,7.1,4.8,10.6c-0.8,0.3-1.6,0.7-2.3,1c-0.9-1.6-1.9-3.3-2.8-4.9
			c-0.2-0.5-0.4-0.9-0.6-1.4c-0.5-1.3-0.9-2.6-1.4-3.9c-0.2-0.5-0.3-1-0.5-1.5c-1.2-3.2-3.3-8.2-4.6-11.4c-1,0.4,0.8-0.3,2.2-0.8
			c1,2,1.9,4,2.9,6C183.3,363.7,184,365.8,184.8,367.8z"/>
		<path class="st54" d="M187.9,349.3c-0.5,4.9-0.2,4.9-4.7,6.6c-2,0.7-3.9,1.4-5.9,2.1c-1.5,0.5-2.9,1.1-4.4,1.6
			c-1.6,0.6-3.3,1.2-4.9,1.8c-0.1,0-0.1,0-0.2,0.1c-2.1,0.6-4.3,1.3-6.4,1.9c-0.1,0-0.2,0.1-0.3,0.1c-1.2,0.5-2.4,1-3.6,1.4
			c-0.9,0.4-1.6,0.5-2.6,0.5c-0.4,0-0.8,0-1.2,0c-1.3,0-2.4-0.8-3-1.9c-1.8-3.8-3.6-7.6-5.3-11.4c-0.3-0.7-0.8-1.7-0.2-2.4
			c1-0.9,2.2-1.1,3.3-1.5c4.8-1.6,9.8-2.9,14.6-4.5c4.5-1.3,9-2.6,13.5-3.8c0.1,0,0.1,0,0.2,0c1.6-0.4,3.2-0.7,4.8-1.1
			C185.9,337.6,188.2,346.6,187.9,349.3z"/>
		<path class="st55" d="M164.6,392c-0.2-0.2-0.3-0.4-0.5-0.6c0.2-0.7,0.2-1,0.4-1.7c0.6-0.3,1.3-0.6,1.9-1
			c5.8-2.4,11.6-4.9,17.4-7.3c1.1-0.6,2.3-1.2,3.4-1.9c0.8-0.3,1.6-0.7,2.3-1c1-0.3,1.9-0.8,2.9-1c1.8-0.4,6.6-1.1,7.8-0.3
			c2.9,0.6,5.9,1.2,8.8,1.8c4,0.6,8.9,2.2,11.1,3.2c0.9,0.4,0.7,1.3,0.2,2.1c-0.2,0.3-0.5,0.5-1.2,0.9c-4.8,2.7-9.4,5.5-14.3,8
			c-6.1,3.1-12.3,5.8-18.4,8.7c-2.2,1.2-5.6,1.6-7.4,0.3c-2-1.2-3.2-1.7-4.7-2.7C171,397.2,167.9,394.5,164.6,392z"/>
	</g>
</g>
<g id="bord">
	<g>
		<polygon class="st56" points="253.8,428.5 255.8,364.5 259.8,367.5 257.8,431.5 		"/>
		<polygon class="st57" points="261.8,428.5 257.8,431.5 259.8,367.5 263.6,365.5 		"/>
		<polygon class="st56" points="322,525 324,461 328,464 326,528 		"/>
		<polygon class="st57" points="330,525 326,528 328,464 331.8,462 		"/>
		<polygon class="st56" points="372.7,495.3 374.7,431.3 378.7,434.3 376.7,498.3 		"/>
		<polygon class="st57" points="380.7,495.3 376.7,498.3 378.7,434.3 382.5,432.3 		"/>
		<polygon class="st57" points="387,433 387,437 327,469 327,465 		"/>
		<polygon class="st56" points="205.8,451.8 207.8,387.8 211.8,390.8 209.8,454.8 		"/>
		<polygon class="st57" points="213.8,451.8 209.8,454.8 211.8,390.8 215.5,388.8 		"/>
		<polygon class="st57" points="200,392 200,388 327,465 327,469 323.1,466.6 		"/>
		<polygon class="st56" points="200,388 327,465 386.9,433.1 264,359 		"/>
	</g>
</g>
<g id="lampe">
	<g>
		<path class="st58" d="M335.3,158h9.5c5.4,0,10.5,3.3,13.2,8.6l2,3.9c3.9,7.7-1,17.3-8.9,17.3h-21.9c-7.7,0-12.6-9.2-9.1-16.9
			l1.7-3.7C324.3,161.6,329.6,158,335.3,158z"/>
		<ellipse transform="matrix(0.5 -0.866 0.866 0.5 22.8131 367.7455)" class="st59" cx="329.9" cy="164.1" rx="2.7" ry="1.7"/>
		<ellipse transform="matrix(0.5 -0.866 0.866 0.5 16.4603 366.2029)" class="st59" cx="325.4" cy="168.8" rx="2.7" ry="1.7"/>
		<ellipse transform="matrix(0.5 -0.866 0.866 0.5 27.3562 372.0777)" class="st59" cx="335.9" cy="162.3" rx="2.7" ry="1.7"/>
		<ellipse transform="matrix(0.5 -0.866 0.866 0.5 18.5711 372.0777)" class="st59" cx="331.5" cy="170" rx="2.7" ry="1.7"/>
		
			<ellipse transform="matrix(0.9945 -0.1046 0.1046 0.9945 -16.5785 35.2336)" class="st59" cx="327.6" cy="175.6" rx="1.7" ry="2.7"/>
		
			<ellipse transform="matrix(0.9945 -0.1046 0.1046 0.9945 -16.7065 35.7628)" class="st59" cx="332.5" cy="177.1" rx="1.7" ry="2.7"/>
		
			<ellipse transform="matrix(0.9945 -0.1046 0.1046 0.9945 -16.7244 34.617)" class="st59" cx="321.6" cy="176.7" rx="1.7" ry="2.7"/>
		
			<ellipse transform="matrix(0.8925 -0.451 0.451 0.8925 -47.221 166.3262)" class="st59" cx="325.4" cy="182.2" rx="1.7" ry="2.7"/>
		
			<ellipse transform="matrix(0.9241 -0.3822 0.3822 0.9241 -44.9874 141.3141)" class="st59" cx="333.2" cy="183.9" rx="1.7" ry="2.7"/>
		
			<ellipse transform="matrix(0.9241 -0.3822 0.3822 0.9241 -36.0652 143.5917)" class="st59" cx="343.4" cy="162.6" rx="1.7" ry="2.7"/>
		
			<ellipse transform="matrix(0.9241 -0.3822 0.3822 0.9241 -35.8141 146.2357)" class="st59" cx="350.2" cy="163.3" rx="1.7" ry="2.7"/>
		
			<ellipse transform="matrix(0.9241 -0.3822 0.3822 0.9241 -38.1514 145.6091)" class="st59" cx="347.5" cy="168.8" rx="1.7" ry="2.7"/>
		
			<ellipse transform="matrix(0.9241 -0.3822 0.3822 0.9241 -37.5896 148.4375)" class="st59" cx="354.9" cy="168.8" rx="1.7" ry="2.7"/>
		
			<ellipse transform="matrix(0.3464 -0.9381 0.9381 0.3464 68.2991 451.4739)" class="st59" cx="358.1" cy="176.7" rx="2.7" ry="1.7"/>
		<ellipse transform="matrix(0.3464 -0.9381 0.9381 0.3464 66.5278 445.446)" class="st59" cx="352.9" cy="175" rx="2.7" ry="1.7"/>
		
			<ellipse transform="matrix(0.5831 -0.8124 0.8124 0.5831 -0.3942 363.7139)" class="st59" cx="354.2" cy="182.2" rx="2.7" ry="1.7"/>
		
			<ellipse transform="matrix(0.5346 -0.8451 0.8451 0.5346 6.198 379.0706)" class="st59" cx="347.3" cy="183.9" rx="2.7" ry="1.7"/>
		
			<ellipse transform="matrix(0.2832 -0.9591 0.9591 0.2832 78.905 459.8267)" class="st59" cx="347.1" cy="177.1" rx="2.7" ry="1.7"/>
		<ellipse class="st59" cx="339.8" cy="168.2" rx="1.7" ry="2.7"/>
		<ellipse class="st59" cx="339.8" cy="175.9" rx="1.7" ry="2.7"/>
		<ellipse class="st59" cx="339.8" cy="183.4" rx="1.7" ry="2.7"/>
		<polygon points="341,63 340.4,159.5 341,158.8 342,64 		"/>
	</g>
	<g>
		<path class="st58" d="M406.8,193.2h9.5c5.4,0,10.5,3.3,13.2,8.6l2,3.9c3.9,7.7-1,17.3-8.9,17.3h-21.9c-7.7,0-12.6-9.2-9.1-16.9
			l1.7-3.7C395.9,196.8,401.1,193.2,406.8,193.2z"/>
		<ellipse transform="matrix(0.5 -0.866 0.866 0.5 28.0894 447.2747)" class="st59" cx="401.4" cy="199.3" rx="2.7" ry="1.7"/>
		<ellipse transform="matrix(0.5 -0.866 0.866 0.5 21.7366 445.7321)" class="st59" cx="396.9" cy="204" rx="2.7" ry="1.7"/>
		<ellipse transform="matrix(0.5 -0.866 0.866 0.5 32.6326 451.6068)" class="st59" cx="407.4" cy="197.5" rx="2.7" ry="1.7"/>
		<ellipse transform="matrix(0.5 -0.866 0.866 0.5 23.8474 451.6068)" class="st59" cx="403" cy="205.2" rx="2.7" ry="1.7"/>
		
			<ellipse transform="matrix(0.9945 -0.1046 0.1046 0.9945 -19.8683 42.9086)" class="st59" cx="399.1" cy="210.8" rx="1.7" ry="2.7"/>
		
			<ellipse transform="matrix(0.9945 -0.1046 0.1046 0.9945 -19.9962 43.4378)" class="st59" cx="404" cy="212.3" rx="1.7" ry="2.7"/>
		
			<ellipse transform="matrix(0.9945 -0.1046 0.1046 0.9945 -20.0141 42.292)" class="st59" cx="393.1" cy="211.9" rx="1.7" ry="2.7"/>
		
			<ellipse transform="matrix(0.8925 -0.451 0.451 0.8925 -55.4081 202.3604)" class="st59" cx="396.9" cy="217.4" rx="1.7" ry="2.7"/>
		
			<ellipse transform="matrix(0.9241 -0.3822 0.3822 0.9241 -53.0095 171.3148)" class="st59" cx="404.8" cy="219.1" rx="1.7" ry="2.7"/>
		
			<ellipse transform="matrix(0.9241 -0.3822 0.3822 0.9241 -44.0874 173.5924)" class="st59" cx="415" cy="197.8" rx="1.7" ry="2.7"/>
		
			<ellipse transform="matrix(0.9241 -0.3822 0.3822 0.9241 -43.8362 176.2364)" class="st59" cx="421.7" cy="198.5" rx="1.7" ry="2.7"/>
		<ellipse transform="matrix(0.9241 -0.3822 0.3822 0.9241 -46.1735 175.6098)" class="st59" cx="419" cy="204" rx="1.7" ry="2.7"/>
		
			<ellipse transform="matrix(0.9241 -0.3822 0.3822 0.9241 -45.6117 178.4383)" class="st59" cx="426.4" cy="204" rx="1.7" ry="2.7"/>
		
			<ellipse transform="matrix(0.3464 -0.9381 0.9381 0.3464 82.024 541.5629)" class="st59" cx="429.7" cy="211.9" rx="2.7" ry="1.7"/>
		
			<ellipse transform="matrix(0.3464 -0.9381 0.9381 0.3464 80.2527 535.5349)" class="st59" cx="424.4" cy="210.2" rx="2.7" ry="1.7"/>
		
			<ellipse transform="matrix(0.5831 -0.8124 0.8124 0.5831 0.8252 436.4805)" class="st59" cx="425.7" cy="217.4" rx="2.7" ry="1.7"/>
		
			<ellipse transform="matrix(0.5346 -0.8451 0.8451 0.5346 9.7354 455.8845)" class="st59" cx="418.8" cy="219.1" rx="2.7" ry="1.7"/>
		
			<ellipse transform="matrix(0.2832 -0.9591 0.9591 0.2832 96.4101 553.6387)" class="st59" cx="418.6" cy="212.3" rx="2.7" ry="1.7"/>
		<ellipse class="st59" cx="411.3" cy="203.3" rx="1.7" ry="2.7"/>
		<ellipse class="st59" cx="411.3" cy="211.1" rx="1.7" ry="2.7"/>
		<ellipse class="st59" cx="411.3" cy="218.6" rx="1.7" ry="2.7"/>
		<polygon points="412,120 412,194.7 412.5,194 413,121 		"/>
	</g>
</g>
<g id="skrivemaskine">
</g>
<g id="papir">
	<g>
		<polygon class="st12" points="298.2,397.6 274.8,420.2 304.9,427.3 325.9,402.6 		"/>
		<g>
			<polygon class="st88" points="325.9,402.6 325.9,402.9 304.9,427.6 304.9,427.3 			"/>
			<polygon class="st89" points="274.7,420.4 304.9,427.6 304.9,427.3 274.8,420.2 			"/>
		</g>
		<g>
			<polygon class="st88" points="325.8,403 325.8,403.3 304.8,428 304.9,427.7 			"/>
			<polygon class="st89" points="274.7,420.8 304.8,428 304.9,427.7 274.7,420.6 			"/>
		</g>
		<g>
			<polygon class="st88" points="325.8,403.4 325.7,403.7 304.8,428.5 304.8,428.1 			"/>
			<polygon class="st89" points="274.6,421.3 304.8,428.5 304.8,428.1 274.7,421 			"/>
		</g>
		<g>
			<polygon class="st88" points="325.7,403.8 325.7,404.1 304.7,428.9 304.8,428.6 			"/>
			<polygon class="st89" points="274.6,421.7 304.7,428.9 304.8,428.6 274.6,421.4 			"/>
		</g>
		<g>
			<polygon class="st88" points="325.7,404.9 325.7,405.2 304.6,429.6 304.7,429.3 			"/>
			<polygon class="st89" points="274.5,422.4 304.6,429.6 304.7,429.3 274.5,422.1 			"/>
		</g>
		<polygon class="st12" points="325.2,404.8 325.7,404.9 304.7,429.3 274.5,422.1 275.1,421.8 304.7,428.9 		"/>
		<polygon class="st89" points="274,423 304.9,430.4 305,430.1 274,422.8 		"/>
		<polygon class="st12" points="325.4,405.5 326,405.7 305,430.1 274,422.8 274.5,422.4 304.6,429.6 		"/>
		<polygon class="st12" points="325.8,403 325.8,403 304.9,427.6 274.7,420.4 274.7,420.6 304.9,427.7 		"/>
		<polygon class="st12" points="325.8,403.4 325.7,403.4 304.8,428 274.7,420.8 274.7,421 304.8,428.1 		"/>
		<polygon class="st12" points="325.7,403.8 325.6,403.8 304.8,428.5 274.6,421.2 274.6,421.4 304.8,428.6 		"/>
		<polygon class="st88" points="304.9,430.4 326,406 326,405.7 325.4,406.5 305,430.1 		"/>
	</g>
	<line class="st90" x1="299" y1="402" x2="305.5" y2="403.5"/>
	<line class="st90" x1="296.9" y1="403.7" x2="309.5" y2="406.5"/>
	<line class="st90" x1="294.9" y1="405.8" x2="315.5" y2="410.5"/>
	<line class="st90" x1="293" y1="407.9" x2="313.5" y2="412.6"/>
</g>
<g id="bog">
	<g>
		<polygon class="st91" points="324.7,416.1 304.4,434.4 330,440.1 347.4,419.7 		"/>
		<polygon class="st88" points="347.2,420.6 347.2,420.8 329.9,441.3 329.9,441 		"/>
		<polyline class="st89" points="329.9,441.3 329.9,441 304.9,435.2 304.9,435.4 		"/>
		<g>
			<polygon class="st88" points="347.2,420.9 347.1,421.2 329.8,441.7 329.9,441.4 			"/>
			<polygon class="st89" points="304.9,435.7 329.8,441.7 329.9,441.4 304.9,435.5 			"/>
		</g>
		<polygon class="st88" points="347.1,421.3 347.1,421.5 329.8,442 329.8,441.7 		"/>
		<polyline class="st89" points="329.8,442 329.8,441.7 304.9,435.9 304.8,436.1 		"/>
		<g>
			<polygon class="st88" points="347.1,421.6 347.1,421.9 329.7,442.4 329.8,442.1 			"/>
			<polygon class="st89" points="304.8,436.4 329.7,442.4 329.8,442.1 304.8,436.2 			"/>
		</g>
		<polygon class="st12" points="347.2,420.9 347.1,420.9 329.9,441.3 304.9,435.4 304.9,435.5 329.9,441.4 		"/>
		<polygon class="st12" points="347.1,421.3 347.1,421.2 329.8,441.7 304.9,435.7 304.9,435.9 329.8,441.7 		"/>
		<line class="st12" x1="329.8" y1="442.1" x2="347.1" y2="421.6"/>
		<line class="st12" x1="347" y1="421.6" x2="329.8" y2="442"/>
		<polygon class="st92" points="330,440.1 329.9,441 304.9,435.2 304.8,436.4 329.7,442.4 329.7,443.1 304.7,437.2 304.1,437.1 
			304.4,434.4 		"/>
		<polygon class="st92" points="347.1,422.5 329.7,443.1 329.7,442.4 347.2,421.7 		"/>
		<polygon class="st92" points="347.3,420.4 329.9,441 330,440.1 347.4,419.7 		"/>
		<polygon class="st92" points="347.1,421.7 347.2,421.7 347.1,421.8 		"/>
		<polygon class="st93" points="325.8,422.2 336.6,424.1 335.1,425.8 324.3,423.6 		"/>
	</g>
</g>
</svg>
