<?xml version="1.0" encoding="utf-8"?>
<!-- Generator: Adobe Illustrator 23.0.3, SVG Export Plug-In . SVG Version: 6.00 Build 0)  -->
<svg version="1.1" xmlns="http://www.w3.org/2000/svg" xmlns:xlink="http://www.w3.org/1999/xlink" x="0px" y="0px"
	 viewBox="0 0 630 634" style="enable-background:new 0 0 630 634;" xml:space="preserve">
<style type="text/css">
	.lampe0{fill:#D6C8B9;}
	.lampe1{fill:#FFFFFF;}
	.lampe2{fill:#F2F2F2;}
	.lampe3{fill:#A67C52;}
	.lampe4{fill:#606060;}
	.lampe5{fill:#262626;}
	.lampe6{fill:#534741;}
	.lampe7{fill:#070707;stroke:#2D2C2C;stroke-miterlimit:10;}
	.lampe8{fill:#333333;stroke:#000000;stroke-miterlimit:10;}
	.lampe9{fill:#1A1A1A;stroke:#000000;stroke-miterlimit:10;}
	.lampe10{fill:#CCB07B;}
	.lampe11{fill:none;stroke:#000000;stroke-miterlimit:10;}
	.lampe12{fill:#333333;}
	.lampe13{fill:#121422;}
	.lampe14{fill:#000D1A;}
	.lampe15{fill:#42210B;}
	.lampe16{fill:#331605;stroke:#42210B;stroke-miterlimit:10;}
	.lampe17{fill:#1A1A1A;stroke:#000000;stroke-width:0.5;stroke-miterlimit:10;}
	.lampe18{fill:#412102;}
	.lampe19{fill:none;stroke:#1D1D1B;stroke-width:0.75;stroke-miterlimit:10;}
	.lampe20{fill:#514435;}
	.lampe21{fill:#86715A;}
	.lampe22{fill:#604A3A;}
	.lampe23{opacity:0.68;fill:#0C0B08;}
	.lampe24{opacity:0.68;stroke:#1D1D1B;stroke-miterlimit:10;}
	.lampe25{opacity:0.71;fill:#0C0C0C;}
	.lampe26{fill:#F7DF66;}
	.lampe27{fill:none;stroke:#1D1D1B;stroke-width:0.25;stroke-miterlimit:10;}
	.lampe28{fill:#333333;stroke:#1D1D1B;stroke-width:0.5;stroke-miterlimit:10;}
	.lampe29{fill:none;stroke:#1D1D1B;stroke-width:0.5;stroke-miterlimit:10;}
	.lampe30{stroke:#1D1D1B;stroke-width:2;stroke-miterlimit:10;}
	.lampe31{opacity:0.26;fill:#EFEA95;}
</style>
<g id="scene">
	<g>
		<polygon class="lampe0" points="22,191 22,437 314,268 314,24 		"/>
		<ellipse class="lampe1" cx="230.5" cy="186" rx="9.5" ry="8"/>
		<ellipse class="lampe2" cx="231" cy="186.1" rx="7" ry="5.9"/>
		<ellipse class="lampe1" cx="209.5" cy="194" rx="9.5" ry="8"/>
		<ellipse class="lampe2" cx="210" cy="194.1" rx="7" ry="5.9"/>
		<polygon class="lampe3" points="23,437 315,268 607,437 316,606 		"/>
		<polygon class="lampe0" points="315,27 315,268 607,437 607,197 		"/>
		<polygon class="lampe4" points="607,197 607,440 630,426 630,182 		"/>
		<polygon class="lampe4" points="0,181 23,194 314,27 607,197 630,182 315,0 		"/>
		<polygon class="lampe5" points="316,606 0,424 0,451 316,634 		"/>
		<polygon class="lampe5" points="316,606 316,634 630,452 630,424 		"/>
		<polygon class="lampe6" points="311.5,434.3 311.7,496.8 316.7,496.8 316.2,434.3 		"/>
		<polygon class="lampe6" points="376,402.3 376,407.3 315.3,442.8 190.8,374.7 190.7,367.7 315.2,437.8 		"/>
		<polygon class="lampe6" points="371.3,402.9 371.5,465.3 376.5,465.3 376,402.8 		"/>
		<polygon class="lampe6" points="191.1,372.2 191.2,434.7 196.2,434.6 195.7,372.2 		"/>
		<g>
			<path d="M427.6,294.6l54.8,22.1l-8.6,56.2c0,0-53.2-23.8-59-28.6c-5.8-4.8-34.4-14.4-34.4-14.4s-32.5-14.1-33-19.4
				c-0.5-5.3,7.7-39.7,7.7-39.7l30.3,9.5C385.4,280.2,424.9,295.4,427.6,294.6"/>
			<polygon points="473.6,372.5 508.7,363.2 514,311 482.2,316.3 			"/>
			<path class="lampe7" d="M509.1,362.9l-1.4,22c-0.1,0.8-10.1,7.2-10.8,7.5c-5.5,2.1-26.8,9.9-28.7,7.4c0,0-10.5,0.4-54-27.2
				c0,0-22.1-13.8-39.5-19.8c-17.4-5.9-34.4-19-34.4-19l4.1-18.3c0,0,1.3-4.4,2.6-4.2s3.4,3.1,5.3,4.1c1.8,0.9,9,5.3,9,5.3
				s21.3,10.4,23.8,10.8c2.6,0.4,24,9.6,24,9.6s5.6,2.2,6,3.5c0.4,1.4,31.6,15.9,31.6,15.9l18.9,8.8l8,3.2L509.1,362.9z"/>
			<path class="lampe8" d="M483.5,311.9l-0.8,5.1l41.5-6.5c0.4-0.1,0.8-0.4,0.9-0.9l0.5-3.1L483.5,311.9z"/>
			<polygon class="lampe8" points="483.5,311.9 350,265.4 349.6,268.6 482.7,317 			"/>
			<path class="lampe8" d="M425.8,304.4c0,0,23.5,0.3,41.3,16.1l-5.7,37.1l-0.7,4.5l-40.7-20.6L425.8,304.4z"/>
			<path class="lampe8" d="M467.1,320.5l3.4-0.8c0,0-12.7-15-42.4-17.6l-2.2,1.6C425.9,303.8,453.7,306.1,467.1,320.5z"/>
			<path class="lampe9" d="M470.5,319.7l-1,6.4c0,0,1.7,1.6,4.5,0.7c0,0,0.8,3.4-0.7,4.5c-1.5,1.1-4.7,0.6-4.5-0.7
				c0.2-1.3-3.3,21.7-3.3,21.7s4.4,1.3,2.7,3.7c0,0,0.2,2.7-1.7,2.4c-1.9-0.3-5.8,3.7-5.8,3.7l6.4-41.5L470.5,319.7z"/>
			<path class="lampe10" d="M435.4,318.9c0,0,10.7-5.6,13.7,4.7c0,0,2.7-0.2,3.5,2.5s-4,0.7-4,0.7s-1,2.5-3.8-0.6
				c-2.8-3-6.9-1.7-6.9-1.7s-3.8-0.6-2.9-2.4c0,0-5.7-1.5-2.8-3S435.4,318.9,435.4,318.9z"/>
			<path class="lampe8" d="M357.6,280.2c0,0,17.1-0.7,26,9.9l-4.7,30.7l-26.1-13.1L357.6,280.2z"/>
			<path class="lampe12" d="M383.5,290.1l2.3-2.3c0,0-8.5-8.5-24.7-9.7l-3.6,2.1C357.6,280.2,375.3,279.7,383.5,290.1z"/>
			<path class="lampe9" d="M385.8,287.8l-0.9,5.8c0,0,0.9,1.8,1.9,0.3c1.7-2.4,1.3,4.1-0.6,3.8c-1.9-0.3-2.6-0.4-2.6-0.4l-2.7,17.9
				c0,0,2.8-1.5,3.1,1.1c0.2,2.7,1.3,0.2-1,2.5c-2.3,2.3-4.2,2-4.2,2l4.7-30.7L385.8,287.8z"/>
			<polygon points="525.5,306.6 481.3,324.3 350,265.4 389.1,255.5 			"/>
			<path d="M473.3,210c0,0,2.7-30.3,6.7-31c4-0.7-25.3-5.8-25.3-5.8l-8.9,36.6l9.8,8.7L473.3,210z"/>
			<polygon points="501.7,259.5 479.7,253.5 474.4,290.2 495.9,297.1 			"/>
			
				<ellipse transform="matrix(0.1512 -0.9885 0.9885 0.1512 210.7578 697.5349)" class="lampe13" cx="511.5" cy="226" rx="10.7" ry="5.5"/>
			<path d="M515.4,214.8l-46.6-7.1l-11.4,6.1c0,0,4-1.9-0.2-8.5c0,0-37.6-13.9-41-12.5c-3.5,1.4-8.5,16.6-6.3,19.6
				c0,0,0.8,3.4,11.1,4.3c10.3,0.9,91.2,19.2,91.2,19.2s-4.4-1.3-3.5-11C509.4,215.2,515.4,214.8,515.4,214.8z"/>
			<polygon points="480.2,250.3 483.4,229.5 505.8,232.6 503.4,256.5 			"/>
			<polygon class="lampe14" points="426,275.3 428.6,275.7 436,218.7 433.1,216.3 			"/>
			<polygon class="lampe8" points="495.9,297.1 499.3,298.6 508.9,235.4 505.8,232.6 			"/>
			<polygon class="lampe15" points="518.3,265.9 388.7,233 402.6,231.9 529.4,261.7 			"/>
			<path class="lampe15" d="M492.6,258.6c0,0,21.6,4.7,10.8,28.6l-3.6,12.5l5.2,2.1c0,0,14.1-24,5.8-37.7
				C502.4,250.4,492.6,258.6,492.6,258.6z"/>
			<path class="lampe16" d="M517.3,259.6l-7,43.4l-6.8-2.4c0,0,14.9-33,1.8-37.6L517.3,259.6z"/>
			<path class="lampe15" d="M388.7,233c0,0,9.5,2.1,12,11l-3.3,21.5l8.1,2.7l3.3-30.2L388.7,233z"/>
			<polygon points="415.4,212.3 412.7,234.1 429.8,238 432.6,214.9 			"/>
			<polygon points="411,241 407.6,268.6 425.5,274.5 428.9,243.7 411.2,238.7 			"/>
			<polygon class="lampe8" points="481.6,362.6 501.9,358.5 507.1,320.1 487.1,322.9 			"/>
			<polygon class="lampe8" points="481.4,377.3 479.6,388.8 496.8,382.9 498.4,372.7 			"/>
			<polygon class="lampe8" points="418.5,358.5 455,376.5 453.1,388.7 416.7,370.7 			"/>
			<polygon class="lampe8" points="454.7,376.2 458.9,374.2 421.8,356.1 418.2,358.2 			"/>
			<path class="lampe10" d="M363.2,290.3c0,0,6.7-5.5,9.3,3.4c0,0,3.3-0.2,3,1.8s-3.3,0.2-3.3,0.2s0.2,2.7-0.9,1.8
				c-1.2-0.8-2.5-5-8.7-3.3c0,0-0.3-2,0.3-1.9C363.6,292.3,357.5,289.4,363.2,290.3z"/>
			<path class="lampe9" d="M458.9,374.2l-0.9,5.8c0,0-0.8,1.2,1.3,0.2s3.7,1.2,0.9,2.8c-2.8,1.5-6.8,6.1-6.8,6.1l2-12.8L458.9,374.2z"
				/>
			<polygon class="lampe8" points="348.2,324.6 346.7,334.2 369.2,345.4 370.7,335.2 			"/>
			<polygon class="lampe8" points="348.2,324.6 350.6,321.7 372.5,332.2 370.7,335.2 			"/>
			<path class="lampe17" d="M372.5,332.5l-0.8,5.4c0,0,0,0,0,0.1c0.2,0.1,1.2,0.6,2.1-1c0.9-1.7,0.2,2.7,0.2,3.2c0,0,0,0-0.1,0
				l-2.5-0.4c0,0-0.1,0-0.1,0l-2,5c0,0.1-0.1,0-0.1,0l1.5-9.7c0,0,0,0,0,0l1.6-2.7C372.4,332.4,372.5,332.5,372.5,332.5z"/>
			<path class="lampe10" d="M430,370.1c0,0,6.5-2,7.1,4c0,0,1.5,0.1,1.7,1.8s-2.3,0-2.3,0s-0.8,1.3-2.1-0.7c-1.2-2-3.7-1.7-3.7-1.7
				s-2.1-0.7-1.4-1.6c0,0-3-1.4-1.2-2S430,370.1,430,370.1z"/>
			<path class="lampe10" d="M354.8,333.7c0,0,3.5-2.9,4.8,1.8c0,0,1.7-0.1,1.6,0.9c-0.2,1-1.7,0.1-1.7,0.1s0.1,1.4-0.5,0.9
				c-0.6-0.4-1.3-2.6-4.5-1.7c0,0-0.2-1,0.2-1C354.9,334.7,351.8,333.2,354.8,333.7z"/>
		</g>
		<path class="lampe18" d="M314.4,373.1c0,0-5.9,0.7,0,2V373.1z"/>
		<path class="lampe18" d="M328.1,373.1c0,0,5.2,1.3,0,2V373.1z"/>
		<polygon class="lampe4" points="23,193 0,181 0,424 22.6,437 		"/>
		<path class="lampe20" d="M248.5,154.3c-0.1-0.9-0.1-1.7-0.2-2.6c-0.1-0.7-0.2-1.5-0.2-2.2c-0.1,0-0.2,0-0.2-0.1
			c-1,0.1-1.7-0.1-2.3-0.7c-0.2-0.2-0.4-0.4-0.6-0.6c-0.5-0.8-1.1-1.5-1.9-2c-0.1,0-0.3-0.1-0.4-0.1c-0.1,0-0.2,0-0.3,0
			c-0.1,0-0.2,0-0.3,0c-0.1,0-0.2,0-0.2,0c-0.2,0.1-0.3,0.2-0.5,0.4c0,0,0,0-0.1-0.1c-0.1,0.2-0.2,0.4-0.2,0.5c0,1,0.1,2,0.2,3
			c0.1,1.9,4.1,62.9,4.2,64.8c1.5,0,10.2,0,11.7,0"/>
		<path class="lampe21" d="M245.7,147.3c-0.1-0.1-0.2-0.3-0.4-0.4c-0.1-0.1-0.2-0.2-0.3-0.2c-0.2-0.2-0.4-0.4-0.7-0.5c0,0,0,0,0,0
			c-0.5,0-0.9,0-1.4,0c0.8,0.5,1.4,1.2,1.9,2c0.2,0.2,0.4,0.4,0.6,0.6c0.6,0.6,1.4,0.8,2.3,0.7c-0.2-0.1-0.3-0.2-0.5-0.2
			c-0.4-0.3-0.8-0.6-1.1-0.9c0,0-0.1-0.1-0.1-0.1c-0.1-0.2-0.3-0.4-0.4-0.6C245.7,147.4,245.7,147.4,245.7,147.3z"/>
		<path class="lampe20" d="M196.8,175.6c-0.1-0.8-0.1-1.6-0.2-2.4c-0.1-0.7-0.1-1.4-0.2-2c-0.1,0-0.2,0-0.2,0c-0.9,0.2-1.7,0-2.3-0.5
			c-0.2-0.2-0.4-0.4-0.5-0.6c-0.5-0.7-1.1-1.3-1.9-1.8c-0.1,0-0.3,0-0.4-0.1c-0.1,0-0.2,0-0.3,0.1c-0.1,0-0.2,0-0.3,0
			c-0.1,0-0.2,0-0.2,0c-0.2,0.1-0.3,0.2-0.5,0.4c0,0,0,0-0.1-0.1c-0.1,0.2-0.2,0.3-0.2,0.5c0,0.9,0.1,1.8,0.2,2.8
			c0.1,1.7,5.4,58.1,5.5,59.9c1.4-0.1,8.3-3,9.7-3"/>
		<path class="lampe21" d="M193.8,169.3c-0.1-0.1-0.2-0.3-0.4-0.4c-0.1-0.1-0.2-0.2-0.3-0.2c-0.2-0.2-0.4-0.4-0.7-0.5c0,0,0,0,0,0
			c-0.5,0-0.9,0-1.4,0c0.8,0.5,1.4,1.2,1.9,2c0.2,0.2,0.4,0.4,0.6,0.6c0.6,0.6,1.4,0.8,2.3,0.7c-0.2-0.1-0.3-0.2-0.5-0.2
			c-0.4-0.3-0.8-0.6-1.1-0.9c0,0-0.1-0.1-0.1-0.1c-0.1-0.2-0.3-0.4-0.4-0.6C193.8,169.5,193.8,169.4,193.8,169.3z"/>
		<polygon class="lampe20" points="194.1,231.7 245.2,210.2 256.9,214.7 204,237.1 		"/>
		<polygon class="lampe20" points="256.9,214.7 256.9,216.5 204,238 204,237.1 		"/>
		<polygon class="lampe20" points="194.1,231.7 194.1,232.6 204,238 204,237.1 		"/>
		<path class="lampe20" d="M253.4,162.2c-0.4-0.9-14.9,5.6-33.2,12.6c-18.3,7-33.5,11.7-33.2,12.6c0.4,0.9,15.5-4,33.8-10.9
			C239.2,169.5,253.7,163.1,253.4,162.2z"/>
		<path class="lampe20" d="M257.1,187.7c-0.4-0.9-14.9,5.6-33.2,12.6s-33.6,11.6-33.2,12.6c0.4,0.9,15.5-4,33.8-10.9
			S257.4,188.6,257.1,187.7z"/>
		<path class="lampe20" d="M253.6,174.4c-0.3-0.9-15,5.4-33.4,12c-18.5,6.6-33.7,11.1-33.4,12c0.3,0.9,15.6-3.7,34-10.3
			C239.3,181.5,254,175.3,253.6,174.4z"/>
		<path class="lampe20" d="M258.5,196.4c-0.4-0.9-14.7,6-32.9,13.4s-33.3,12.5-32.9,13.4s15.4-4.3,33.6-11.7S258.8,197.3,258.5,196.4z"
			/>
		<polygon class="lampe22" points="190.7,367.7 251.5,332.2 376,402.3 315.2,437.8 		"/>
	</g>
</g>
<g id="mork">
	<path class="lampe23" d="M23,437V193L314,27l1,65c0,0-77.6-5.7-142.8,76.2s-59.2,299.8,118.3,333.3L316,606L23,437z"/>
	<path class="lampe24" d="M315,92l-1-65l293,170v243L316,606l-25.5-103.5c0,0,173.8,19.8,206-181S315,92,315,92z"/>
	<polygon class="lampe25" points="2,183 317,2 632,184 632,428 321,607 2,426 	"/>
	<path id="pare" class="lampe26" d="M287.2,287.1c5.1-7.8,4.9-7.6,4.9-7.6l0-3.2c0-0.7,0.5-1.2,1.1-1.2l9.2,0.1c0.6,0,1.1,0.6,1.1,1.2
		l-0.1,2.8c0,0.3,0.1,0.5,0.2,0.7l3.3,5.2c0,0.1,0.1,0.1,0.1,0.2c0.6,0.9,6.6,10,0.1,17.2c0,0-8,9.8-18.3,0.8
		c-0.3-0.3-0.6-0.6-0.9-1C286.4,300.5,282.6,294,287.2,287.1z"/>
	<path class="lampe27" d="M298.7,275.3l-0.4,11.9c0,0,0.9,3.9,1.9,0.9c1.1-3.1-3.4-3.6-3.4-3.6s-2.6-0.3-1.9,3.1c0,0,2.6,2.1,1.6-7.4
		l-0.3-4.9L298.7,275.3z"/>
	<g id="outline">
		<path class="lampe28" d="M302.7,270.9c0,0,2.1,1.4,0,2.8l-9.8-0.1c0,0-2.3-1.4,0-2.8L302.7,270.9z"/>
		<path class="lampe28" d="M302.9,269.8l-10.3-0.1c-0.2,0-0.3-0.2-0.3-0.3c0.1-0.8,0.7-2.5,2.8-3c0,0,0,0,0.1,0l5.2,0.1
			c0,0,0.1,0,0.1,0c0.3,0.1,2.2,0.8,2.6,3C303.2,269.6,303.1,269.8,302.9,269.8z"/>
		<path class="lampe28" d="M300.1,266.4c0,0-2.1-4.4-4.9-0.1L300.1,266.4z"/>
		<path class="lampe29" d="M296.2,190.5c-1.1,8.5-3.2,13.3,0,19.9c3.2,6.6,5.3,17.1,2.1,23.7c-3.2,6.6-1.1,10.9,0,17.6
			s-0.5,12.9-0.5,12.9"/>
		<ellipse class="lampe30" cx="295.7" cy="190.7" rx="5.8" ry="2.7"/>
	</g>
</g>
<g id="lys">
	<ellipse class="lampe31" cx="310" cy="292.2" rx="196" ry="204.3"/>
</g>
</svg>
