<?xml version="1.0" encoding="utf-8"?>
<!-- Generator: Adobe Illustrator 23.0.3, SVG Export Plug-In . SVG Version: 6.00 Build 0)  -->
<svg version="1.1" xmlns="http://www.w3.org/2000/svg" xmlns:xlink="http://www.w3.org/1999/xlink" x="0px" y="0px"
	 viewBox="0 0 631 635" style="enable-background:new 0 0 631 635;" xml:space="preserve">
<style type="text/css">
	.stearin0{fill:#534741;}
	.stearin1{fill:#333333;}
	.stearin2{fill:#606060;}
	.stearin3{fill:#262626;}
	.stearin4{fill:#604A3A;}
	.stearin5{fill:#070707;stroke:#2D2C2C;stroke-miterlimit:10;}
	.stearin6{fill:#333333;stroke:#000000;stroke-miterlimit:10;}
	.stearin7{fill:#1A1A1A;stroke:#000000;stroke-miterlimit:10;}
	.stearin8{fill:#CCB07B;}
	.stearin9{fill:none;stroke:#000000;stroke-miterlimit:10;}
	.stearin10{fill:#121422;}
	.stearin11{fill:#000D1A;}
	.stearin12{fill:#42210B;}
	.stearin13{fill:#331605;stroke:#42210B;stroke-miterlimit:10;}
	.stearin14{fill:#1A1A1A;stroke:#000000;stroke-width:0.5;stroke-miterlimit:10;}
	.stearin15{fill:#1A1A1A;}
	.stearin16{fill:#808080;}
	.stearin17{fill:#412102;}
	.stearin18{opacity:0.51;fill:none;}
	.stearin19{opacity:0.62;}
</style>
<g id="scene">
	<polygon class="stearin0" points="24,195 24,438 316,269 316,28 	"/>
	<polygon class="stearin1" points="24,438 317,269 608,438 317,607 	"/>
	<g>
		<polygon class="stearin0" points="316,28 316,269 608,438 608,198 		"/>
		<polygon class="stearin2" points="1,182 1,425 24,438 24,195 		"/>
		<polygon class="stearin2" points="608,198 608,441 631,427 631,183 		"/>
		<polygon class="stearin2" points="1,182 24,195 315,28 608,198 631,183 316,1 		"/>
		<polygon class="stearin3" points="317,607 1,425 1,452 317,635 		"/>
		<polygon class="stearin3" points="317,607 317,635 631,453 631,425 		"/>
		<g>
			<polygon class="stearin0" points="331.5,443.3 331.7,505.8 336.7,505.8 336.2,443.3 			"/>
			<polygon class="stearin4" points="210.7,376.7 271.5,341.2 396,411.3 335.2,446.8 			"/>
			<polygon class="stearin0" points="396,411.3 396,416.3 335.3,451.8 210.8,383.7 210.7,376.7 335.2,446.8 			"/>
			<polygon class="stearin0" points="393.3,414.9 393.5,477.3 398.5,477.3 398,414.8 			"/>
			<polygon class="stearin0" points="211.1,381.2 211.2,443.7 216.2,443.6 215.7,381.2 			"/>
		</g>
		<g>
			<path d="M428.6,295.6l54.8,22.1l-8.6,56.2c0,0-53.2-23.8-59-28.6c-5.8-4.8-34.4-14.4-34.4-14.4s-32.5-14.1-33-19.4
				c-0.5-5.3,7.7-39.7,7.7-39.7l30.3,9.5C386.4,281.2,425.9,296.4,428.6,295.6"/>
			<polygon points="474.6,373.5 509.7,364.2 515,312 483.2,317.3 			"/>
			<path class="stearin5" d="M510.1,363.9l-1.4,22c-0.1,0.8-10.1,7.2-10.8,7.5c-5.5,2.1-26.8,9.9-28.7,7.4c0,0-10.5,0.4-54-27.2
				c0,0-22.1-13.8-39.5-19.8c-17.4-5.9-34.4-19-34.4-19l4.1-18.3c0,0,1.3-4.4,2.6-4.2s3.4,3.1,5.3,4.1c1.8,0.9,9,5.3,9,5.3
				s21.3,10.4,23.8,10.8c2.6,0.4,24,9.6,24,9.6s5.6,2.2,6,3.5c0.4,1.4,31.6,15.9,31.6,15.9l18.9,8.8l8,3.2L510.1,363.9z"/>
			<path class="stearin6" d="M484.5,312.9l-0.8,5.1l41.5-6.5c0.4-0.1,0.8-0.4,0.9-0.9l0.5-3.1L484.5,312.9z"/>
			<polygon class="stearin6" points="484.5,312.9 351,266.4 350.6,269.6 483.7,318 			"/>
			<path class="stearin6" d="M426.8,305.4c0,0,23.5,0.3,41.3,16.1l-5.7,37.1l-0.7,4.5l-40.7-20.6L426.8,305.4z"/>
			<path class="stearin6" d="M468.1,321.5l3.4-0.8c0,0-12.7-15-42.4-17.6l-2.2,1.6C426.9,304.8,454.7,307.1,468.1,321.5z"/>
			<path class="stearin7" d="M471.5,320.7l-1,6.4c0,0,1.7,1.6,4.5,0.7c0,0,0.8,3.4-0.7,4.5c-1.5,1.1-4.7,0.6-4.5-0.7
				c0.2-1.3-3.3,21.7-3.3,21.7s4.4,1.3,2.7,3.7c0,0,0.2,2.7-1.7,2.4c-1.9-0.3-5.8,3.7-5.8,3.7l6.4-41.5L471.5,320.7z"/>
			<path class="stearin8" d="M436.4,319.9c0,0,10.7-5.6,13.7,4.7c0,0,2.7-0.2,3.5,2.5s-4,0.7-4,0.7s-1,2.5-3.8-0.6
				c-2.8-3-6.9-1.7-6.9-1.7s-3.8-0.6-2.9-2.4c0,0-5.7-1.5-2.8-3S436.4,319.9,436.4,319.9z"/>
			<path class="stearin6" d="M358.6,281.2c0,0,17.1-0.7,26,9.9l-4.7,30.7l-26.1-13.1L358.6,281.2z"/>
			<path class="stearin1" d="M384.5,291.1l2.3-2.3c0,0-8.5-8.5-24.7-9.7l-3.6,2.1C358.6,281.2,376.3,280.7,384.5,291.1z"/>
			<path class="stearin7" d="M386.8,288.8l-0.9,5.8c0,0,0.9,1.8,1.9,0.3c1.7-2.4,1.3,4.1-0.6,3.8c-1.9-0.3-2.6-0.4-2.6-0.4l-2.7,17.9
				c0,0,2.8-1.5,3.1,1.1c0.2,2.7,1.3,0.2-1,2.5c-2.3,2.3-4.2,2-4.2,2l4.7-30.7L386.8,288.8z"/>
			<polygon points="526.5,307.6 482.3,325.3 351,266.4 390.1,256.5 			"/>
			<path d="M474.3,211c0,0,2.7-30.3,6.7-31c4-0.7-25.3-5.8-25.3-5.8l-8.9,36.6l9.8,8.7L474.3,211z"/>
			<polygon points="502.7,260.5 480.7,254.5 475.4,291.2 496.9,298.1 			"/>
			
				<ellipse transform="matrix(0.1512 -0.9885 0.9885 0.1512 210.6181 699.3722)" class="stearin10" cx="512.5" cy="227" rx="10.7" ry="5.5"/>
			<path d="M516.4,215.8l-46.6-7.1l-11.4,6.1c0,0,4-1.9-0.2-8.5c0,0-37.6-13.9-41-12.5c-3.5,1.4-8.5,16.6-6.3,19.6
				c0,0,0.8,3.4,11.1,4.3c10.3,0.9,91.2,19.2,91.2,19.2s-4.4-1.3-3.5-11C510.4,216.2,516.4,215.8,516.4,215.8z"/>
			<polygon points="481.2,251.3 484.4,230.5 506.8,233.6 504.4,257.5 			"/>
			<polygon class="stearin11" points="427,276.3 429.6,276.7 437,219.7 434.1,217.3 			"/>
			<polygon class="stearin6" points="496.9,298.1 500.3,299.6 509.9,236.4 506.8,233.6 			"/>
			<polygon class="stearin12" points="519.3,266.9 389.7,234 403.6,232.9 530.4,262.7 			"/>
			<path class="stearin12" d="M493.6,259.6c0,0,21.6,4.7,10.8,28.6l-3.6,12.5l5.2,2.1c0,0,14.1-24,5.8-37.7
				C503.4,251.4,493.6,259.6,493.6,259.6z"/>
			<path class="stearin13" d="M518.3,260.6l-7,43.4l-6.8-2.4c0,0,14.9-33,1.8-37.6L518.3,260.6z"/>
			<path class="stearin12" d="M389.7,234c0,0,9.5,2.1,12,11l-3.3,21.5l8.1,2.7l3.3-30.2L389.7,234z"/>
			<polygon points="416.4,213.3 413.7,235.1 430.8,239 433.6,215.9 			"/>
			<polygon points="412,242 408.6,269.6 426.5,275.5 429.9,244.7 412.2,239.7 			"/>
			<polygon class="stearin6" points="482.6,363.6 502.9,359.5 508.1,321.1 488.1,323.9 			"/>
			<polygon class="stearin6" points="482.4,378.3 480.6,389.8 497.8,383.9 499.4,373.7 			"/>
			<polygon class="stearin6" points="419.5,359.5 456,377.5 454.1,389.7 417.7,371.7 			"/>
			<polygon class="stearin6" points="455.7,377.2 459.9,375.2 422.8,357.1 419.2,359.2 			"/>
			<path class="stearin8" d="M364.2,291.3c0,0,6.7-5.5,9.3,3.4c0,0,3.3-0.2,3,1.8s-3.3,0.2-3.3,0.2s0.2,2.7-0.9,1.8
				c-1.2-0.8-2.5-5-8.7-3.3c0,0-0.3-2,0.3-1.9C364.6,293.3,358.5,290.4,364.2,291.3z"/>
			<path class="stearin7" d="M459.9,375.2l-0.9,5.8c0,0-0.8,1.2,1.3,0.2s3.7,1.2,0.9,2.8c-2.8,1.5-6.8,6.1-6.8,6.1l2-12.8L459.9,375.2z"
				/>
			<polygon class="stearin6" points="349.2,325.6 347.7,335.2 370.2,346.4 371.7,336.2 			"/>
			<polygon class="stearin6" points="349.2,325.6 351.6,322.7 373.5,333.2 371.7,336.2 			"/>
			<path class="stearin14" d="M373.5,333.5l-0.8,5.4c0,0,0,0,0,0.1c0.2,0.1,1.2,0.6,2.1-1c0.9-1.7,0.2,2.7,0.2,3.2c0,0,0,0-0.1,0
				l-2.5-0.4c0,0-0.1,0-0.1,0l-2,5c0,0.1-0.1,0-0.1,0l1.5-9.7c0,0,0,0,0,0l1.6-2.7C373.4,333.4,373.5,333.5,373.5,333.5z"/>
			<path class="stearin8" d="M431,371.1c0,0,6.5-2,7.1,4c0,0,1.5,0.1,1.7,1.8s-2.3,0-2.3,0s-0.8,1.3-2.1-0.7c-1.2-2-3.7-1.7-3.7-1.7
				s-2.1-0.7-1.4-1.6c0,0-3-1.4-1.2-2S431,371.1,431,371.1z"/>
			<path class="stearin8" d="M355.8,334.7c0,0,3.5-2.9,4.8,1.8c0,0,1.7-0.1,1.6,0.9c-0.2,1-1.7,0.1-1.7,0.1s0.1,1.4-0.5,0.9
				c-0.6-0.4-1.3-2.6-4.5-1.7c0,0-0.2-1,0.2-1C355.9,335.7,352.8,334.2,355.8,334.7z"/>
		</g>
		<path class="stearin15" d="M236.5,214.5c0,0,0.8-4.2,4.7,0.7l2.6,25.7c0,0,17,4.1,14.3,18.1c-2.7,14-19.3,12.7-19.3,12.7
			s-14.3-7.6-8.3-20.8c0,0,3.1-7.7,9.7-9.1L236.5,214.5z"/>
		<circle cx="278.1" cy="230.1" r="17.2"/>
		<path class="stearin16" d="M274.5,213.8c0,0-2.1-1.9-1.6-3.8l4.4-0.8c0,0,1,3,0.7,3.6c-0.4,0.5,3.3,0.6,3.3,0.6s0.5-7.3-3.6-7
			c-4.1,0.3-6.7,0.8-6.7,0.8s-4.3,3.6,0.6,8L274.5,213.8z"/>
		<path class="stearin16" d="M279.6,247.2c0,0-1.9,7.7,4.6,7.1s7.8-4.9,7.8-4.9s-0.5-4-3.9-5.5l-1.9,1.4c0,0,2.5,1.5,2.4,3.9
			c0,0-3.5,2.3-5.5,2.1c0,0-1.6-2.8-1.2-4.4C282,247,279.9,247.9,279.6,247.2z"/>
		<path class="stearin17" d="M316.4,377.1c0,0-5.9,0.7,0,2V377.1z"/>
		<path class="stearin17" d="M330.1,377.1c0,0,5.2,1.3,0,2V377.1z"/>
	</g>
</g>
<g id="morke">
	<path class="stearin18" d="M316.5,27.5l292,171L608,441L318.5,606.5l2-146c0,0,86.3-12.7,97.2-88.8c0,0,23.8-116.4-97.2-139.3
		L316.5,27.5z"/>
	<path class="stearin18" d="M316,28L24,194v244l296,168V461c0,0-106,4-118-115c0,0-2-111,118-114L316,28z"/>
</g>
<g id="lyskeglestearin">
	<polygon class="stearin19" points="0,181 315,0 630,182 630,426 319,605 0,424 	"/>
</g>
</svg>
