<?xml version="1.0" encoding="utf-8"?>
<!-- Generator: Adobe Illustrator 23.1.1, SVG Export Plug-In . SVG Version: 6.00 Build 0)  -->
<svg version="1.1" xmlns="http://www.w3.org/2000/svg" xmlns:xlink="http://www.w3.org/1999/xlink" x="0px" y="0px"
	 viewBox="0 0 53.6 124.8" style="enable-background:new 0 0 53.6 124.8;" xml:space="preserve">
<style type="text/css">
	.st0{fill:#F2EFDD;}
	.st1{fill:#F2F2F2;}
	.st2{fill:#DFDFDF;}
	.st3{fill:#E8D274;}
	.st4{fill:#594433;}
	.st5{fill:#262626;}
	.st6{fill:none;stroke:#4C3A2C;stroke-miterlimit:10;}
	.st7{fill:#AAA9A2;}
	.st8{fill:#EFEDE1;}
	.st9{fill:#E2DFD3;}
	.st10{fill:#E1E1E1;}
	.st11{fill:#FFFDFE;}
	.st12{fill:#FFFFFF;}
	.st13{fill:#DBEDEC;}
	.st14{fill:#C0D8DC;}
	.st15{fill:#FFD892;}
	.st16{fill:#FFE0AE;}
	.st17{fill:#B78B49;}
	.st18{fill:#F2DCB6;}
	.st19{fill:#736357;}
	.st20{fill:#EAD224;stroke:#000000;stroke-miterlimit:10;}
	.st21{fill:#49403A;}
	.st22{fill:#3D3531;}
	.st23{fill:#EFE8E4;}
	.st24{fill:none;stroke:#000000;stroke-width:0.25;stroke-linecap:round;stroke-linejoin:round;stroke-miterlimit:10;}
	.st25{fill:#494949;}
	.st26{fill:#AAA5A2;}
	.st27{fill:#333333;}
	.st28{fill:#A5A5A0;}
	.st29{fill:#B8B3A0;}
	.st30{fill:#827F6F;}
	.st31{fill:#77756A;}
	.st32{fill:#625D54;}
	.st33{fill:#989584;}
	.st34{fill:#A5A290;}
	.st35{fill:#ADA998;}
	.st36{fill:#C0BCA8;}
	.st37{fill:#8C887C;}
	.st38{fill:#C9B578;}
	.st39{fill:#565349;}
	.st40{fill:#4E4B43;}
	.st41{fill:#6F6B61;}
	.st42{fill:#D9D4BB;}
	.st43{fill:#D3CA55;}
	.st44{fill:#D1CCB6;}
	.st45{fill:#C7C3B0;}
	.st46{fill:#4F4F4F;}
	.st47{fill:#5A5A5A;}
	.st48{fill:#434343;}
	.st49{fill:#6F6F6F;}
	.st50{fill:#393939;}
	.st51{fill:#727272;}
	.st52{fill:#606060;}
	.st53{fill:#646464;}
	.st54{fill:#ECECEC;}
	.st55{fill:#DBDBDB;}
	.st56{fill:#FFBF3E;}
	.st57{fill:#CE9736;}
	.st58{fill:#A08B0B;}
	.st59{fill:#C1A310;}
	.st60{fill:#6F7883;}
	.st61{fill:#A6998C;}
	.st62{fill:#728092;}
	.st63{fill:#7C7B7E;}
	.st64{fill:#898485;}
	.st65{fill:#47423D;}
	.st66{fill:#38312F;}
	.st67{fill:#786D61;}
	.st68{fill:#544E4A;}
	.st69{fill:#1B1817;}
	.st70{fill:#4D4944;}
	.st71{fill:#706558;}
	.st72{fill:#556876;}
	.st73{fill:#B0ABAA;}
	.st74{fill:#595350;}
	.st75{fill:#7E6D58;}
	.st76{fill:#262120;}
	.st77{fill:#787D86;}
	.st78{fill:#090607;}
	.st79{fill:#C8B6A3;}
	.st80{fill:#13100F;}
	.st81{fill:#897865;}
	.st82{fill:#D1C1B1;}
	.st83{fill:#BAA895;}
	.st84{fill:#F2E7D4;}
	.st85{fill:#665848;}
	.st86{fill:#9A8D76;}
	.st87{fill:#E7D5B9;}
	.st88{fill:#BCBBB7;}
	.st89{fill:#D8D8D6;}
	.st90{fill:none;stroke:#000000;stroke-width:0.5;stroke-miterlimit:10;}
	.st91{fill:#0F682C;}
	.st92{fill:#0B5B28;}
	.st93{fill:#DDBA10;}
</style>
<g id="Lag_1">
</g>
<g id="væg">
</g>
<g id="gulv">
</g>
<g id="stikkontakt">
</g>
<g id="vindue">
</g>
<g id="gardin">
</g>
<g id="koekkenbord">
</g>
<g id="komfur">
</g>
<g id="vacumcleaner">
	<g>
		<polygon class="st28" points="40.7,12.4 39.4,54.2 42.4,56.2 46.2,10 42.5,8.9 		"/>
		<path class="st29" d="M20.1,54.2c1.2-0.3,2.4-0.7,3.6-1c0.3,0.3,0.5,0.5,0.8,0.8c1,0.4,1.9,0.8,2.9,0.2c0.2,0,0.3,0,0.5,0
			c0.5,0.2,1,0.5,1.5,0.7c0.7,0,1.3,0.1,2,0.1c-0.1,0.1-0.3,0.4-0.4,0.4c-1.8-0.1-3.6-0.1-5.4-0.2c-1.5-0.1-3-1-4.5,0.1
			c-0.4-0.2-0.9-0.3-1.3-0.5c0-0.2,0-0.3,0-0.5C19.8,54.2,19.9,54.2,20.1,54.2z"/>
		<path class="st30" d="M34,114.6c-0.1,0.8-1.1,1.2-2.4,1.2c-2.8,0.3-2.6-1.4-1.3-2.4c1.4-1.2,2.1-1.8,3.3-2.2c0,0.2,0.4,1,0.1,1.5
			C33.4,113.6,33.4,114.1,34,114.6z"/>
		<path class="st31" d="M19.6,54.7c0.4,0.2,0.9,0.3,1.3,0.5c0.3,0.1,0.7,0.3,1,0.4c4.4,0.9,8.9,1,13.4,0.7c2-0.1,3.9-0.7,5.9-1.1
			c0.4-0.2,0.8-0.4,1.2-0.5c0.3,0.4,0.7,0.9,1,1.3c0,0.1,0,0.1,0,0.2c0,0.2,0,0.3,0,0.5c0.5,0.5,0.9,1-0.3,1.2c-0.1,0-0.2,0-0.2,0
			c-0.3-2.4-0.4-2.5-2.4-1.6c-4.2,0.8-8.4,0.7-12.6,0.7c-2.7,0-5.3-0.7-8-1.1c-0.3-0.2-0.6-0.3-0.9-0.5c0-0.1,0-0.2,0.1-0.2
			c0.1-0.1,0.1-0.1,0.2-0.2C19.4,54.9,19.5,54.8,19.6,54.7z"/>
		<path class="st30" d="M52,94.8c0,0.1,0,0.1,0,0.2c-0.1,0.7-0.2,1.4-0.2,2.1c-0.3,1.2-0.2,2.3,0.2,3.6c0.7,2,0.4,4.1,0.2,6.1
			c0,0.2-0.3,0.4-0.4,0.5c0.1-1.6,0.7-3.2-0.3-4.8c-0.3,0.8-0.5,1.3-0.7,1.8c-0.1-0.4-0.2-0.9-0.3-1.3c0-0.1,0-0.2,0-0.4
			c0-0.4,0-0.8,0.1-1.2c0-0.2,0-0.5,0.1-0.7c0.1-1,0.3-2,0.4-2.9c0.1-0.6,0.1-1.1,0.2-1.7C51.5,95.7,51.7,95.3,52,94.8z"/>
		<path class="st32" d="M50.7,104.3c0.2-0.5,0.4-1.1,0.7-1.8c1,1.6,0.4,3.3,0.3,4.8c-0.4,0.1-0.8,0.3-1.2,0.4c0-0.7-0.1-1.4,0-2.1
			C50.5,105.2,50.7,104.8,50.7,104.3z"/>
		<path class="st33" d="M50.7,104.3c-0.1,0.4-0.2,0.8-0.2,1.3c0,0.7,0,1.4,0,2.1c-0.6,0.9-1.1,1.8-1.7,2.8c-0.1-0.1-0.2-0.2-0.3-0.3
			c0.1-0.2,0.2-0.5,0.3-0.7c0-0.2,0-0.3,0.1-0.5c0.2-0.7,0.5-1.4,0.7-2.1c0.3-1.3,0.6-2.5,0.9-3.8C50.5,103.5,50.6,103.9,50.7,104.3
			z"/>
		<path class="st34" d="M45.4,60.5c1.6,0.4,3.1,0.8,4.7,1.2c-0.1,0.4-0.3,0.7-0.2,1.1c0.1,1,0.3,1.9,0.4,2.8
			c-0.2,0.4-0.5,0.8-0.4,1.2c0.1,1.1,0.4,2.3,0.7,3.4c-0.1,0.2-0.1,0.5-0.2,0.7c-0.2-0.1-0.4-0.2-0.5-0.3c-0.2-1.4-0.3-2.9-0.5-4.3
			c0.2-1.3-0.8-1.1-1.5-1.2c0.3-0.2,0.8-0.4,0.9-0.7c0.1-0.3-0.1-0.8-0.1-1.1c0.5-1-0.3-0.7-0.7-0.8c-0.2-1.3-0.9-1.1-1.7-0.7
			c-0.2,0-0.5,0-0.7,0c-0.3-0.1-0.6-0.2-0.8-0.3c-0.1-0.3-0.2-0.6-0.2-0.8c-0.4-0.1-0.8-0.1-1.1-0.2C43.9,58.9,44.7,60.3,45.4,60.5z
			"/>
		<path class="st35" d="M45.4,60.5c-0.7-0.2-1.5-1.5-2.2,0c-0.2,0.1-0.5,0.2-0.7,0.3c-0.6,0.3-1.1,0.6-1.7,0.9
			c-0.1-1.3-0.2-1.4-1.5-1.1c-0.2,0.1-0.5,0.1-0.7,0.1c0-0.1,0-0.1,0-0.2c0.7-0.2,1.3-0.4,2.1-0.6c-0.1-0.3-0.3-0.6-0.4-0.9
			c0.7,0,1.3,0,2.3,0c0.1-0.2,0.4-0.7,0.7-1.1c1.1-0.2,0.7-0.7,0.3-1.2c1.1-0.2,1.5,0.3,1.5,1.4C45,58.8,45.3,59.7,45.4,60.5z"/>
		<path class="st36" d="M50.3,65.7c-0.1-0.9-0.3-1.9-0.4-2.8c0-0.4,0.1-0.7,0.2-1.1c0.8,0.6,1.6,1.3,1.4,2.5c0,0.4,0,0.9,0,1.3
			c-0.1-0.2-0.1-0.4-0.2-0.6c-0.1,0-0.1,0-0.2,0c-0.1,0.4-0.2,0.8-0.3,1.2C50.6,66,50.5,65.8,50.3,65.7z"/>
		<path class="st37" d="M51.5,65.6c0-0.4,0-0.9,0-1.3c0.2,0.4,0.5,0.8,0.7,1.2c0.2,1.3,0.3,2.6,0.5,3.9c-0.1-0.5-0.2-0.9-0.4-1.4
			c-0.2-0.5-0.5-0.9-0.8-1.3C51.5,66.3,51.5,65.9,51.5,65.6z"/>
		<path class="st37" d="M53.2,83.4c0.8,1.7,0.3,4.7-0.9,5.6c-0.2-0.5-0.3-1-0.5-1.6c-0.1-0.3-0.1-0.6-0.1-1c0.3-0.6,0.7-1.2,1.2-2.1
			c-0.8,0.4-1.3,0.7-1.8,0.9c0.1-0.4,0.3-0.8,0.4-1.2c1-0.6,0.1-1.5,0.2-2.2c0.1,0,0.2,0,0.3,0c0.3,0.4,0.6,0.7,0.9,1.1
			C53.1,83.1,53.1,83.3,53.2,83.4z"/>
		<path class="st38" d="M53.2,92.2C53.3,92.2,53.3,92.2,53.2,92.2C53.3,92.2,53.3,92.2,53.2,92.2C53.2,92.2,53.2,92.2,53.2,92.2z"/>
		<path class="st33" d="M52,89.5c0.1,0.9,0.2,1.8,0.3,2.7c-0.1,0.9-0.2,1.8-0.2,2.7c-0.3,0.4-0.6,0.8-0.8,1.3c-0.1,0-0.2,0-0.2,0
			c0-0.3,0.1-0.7,0.1-1c0.1-0.2,0.1-0.5,0.2-0.7c0-0.5,0-1,0.1-1.5c0.1-0.5,0.2-1.1,0.2-1.6c0-0.3-0.3-0.7-0.4-1
			c-0.3,0.2-0.7,0.5-1,0.7c-0.1,0-0.2,0-0.3,0c-0.2-0.2-0.3-0.3-0.5-0.5c0.2-0.2,0.5-0.4,0.7-0.7C50.7,89.7,51.4,89.6,52,89.5z"/>
		<path class="st39" d="M11.1,63.5c0-0.3,0-0.6,0-1c0.2-0.3,0.5-0.6,0.7-0.9c0.9-0.2,1.8-0.4,2.6-0.5c0.1,0.1,0.2,0.3,0.3,0.4
			c0,0.1-0.1,0.1-0.1,0.2c-0.6,0.1-1.1,0.1-1.7,0.2C12.4,62.4,11.7,63,11.1,63.5z"/>
		<path class="st35" d="M14.7,61.5c-0.1-0.1-0.2-0.3-0.3-0.4c0.9-0.5,1.8-1,2.7-1.5c0,0,0,0,0,0c0.1-0.1,0.2-0.1,0.4-0.2
			c-0.1-0.1-0.2-0.3-0.4-0.4c0-0.1,0-0.3,0-0.4c0.2-0.5,0.5-1,0.7-1.5c0.3,0.2,0.6,0.3,0.9,0.5c0.1,0.2,0.2,0.3,0.3,0.5
			c0,0.1,0,0.2,0,0.2c-0.4,0.6-0.5,1.1,0.5,1.2c-0.1,0.5-0.1,0.9-0.2,1.4c-0.4-0.1-0.9-0.1-1.3-0.2C17,61,15.9,61.2,14.7,61.5z"/>
		<path class="st34" d="M18.8,57.6c-0.3-0.2-0.6-0.3-0.9-0.5c0.3-0.5,0.7-1,1-1.5c0.1-0.1,0.1-0.1,0.2-0.2c0,0,0,0,0,0
			c0.3,0.2,0.6,0.3,0.9,0.5c0.3,0.7,0.7,1.2,1.6,1.1c0.2,0,0.5,0.3,0.7,0.6c0.3,0.4,0.5,0.9,0.7,1.3c-0.3,0-0.5,0-0.8,0
			c-0.2,0-0.3,0-0.5-0.1c-0.5-0.4-1.3-0.6-1.5-1.1C19.7,56.3,19.3,56.9,18.8,57.6z"/>
		<path class="st34" d="M19.3,54.9c-0.1,0.1-0.1,0.1-0.2,0.2C19.2,55.1,19.3,55,19.3,54.9z"/>
		<path class="st31" d="M19.1,55.4c-0.1,0.1-0.1,0.1-0.2,0.2C19,55.5,19,55.4,19.1,55.4z"/>
		<path class="st40" d="M31.3,55c-0.7,0-1.3-0.1-2-0.1c-0.2-0.6-0.3-1.1-0.5-1.7c0.9,0,1.8-0.1,2.7-0.1c0-0.1,0-0.2,0-0.3
			c-0.9-0.1-1.8-0.2-2.7-0.3c-0.2,0.2-0.5,0.5-0.7,0.7l0,0c-0.8-0.1-0.7,0.5-0.8,1c-1,0.6-2,0.2-2.9-0.2c0.2-0.7,0.4-1.5,1.5-1.1
			c0.2,0,0.6-0.2,0.6-0.3c-0.1-0.8,0.5-0.8,1-0.9c0.9-0.2,1.9-0.4,2.8-0.6c2.1,0.2,4.2,0.3,6.4,0.5c0,0.3,0,0.6,0,0.9l0,0
			c-0.3,0-0.5,0.1-0.5,0.1c0.4,0.6,0.7,1.1,1.1,1.7c-0.1,0-0.1,0.1-0.2,0c-0.2,0.1-0.4,0.2-0.6,0.3c-0.5-0.1-0.9-0.2-1.4-0.2
			c0-0.2,0-0.5,0-0.7c-0.1-0.4-0.2-0.9-0.4-1c-0.2-0.1-0.9,0.1-1,0.3c-0.2,0.5-0.2,1.2-0.3,1.8c-0.1,0.1-0.1,0.1-0.1,0.2
			C32.6,54.9,32,54.9,31.3,55z"/>
		<path class="st29" d="M35,54.4c0.5,0.1,0.9,0.2,1.4,0.2c0.2-0.1,0.4-0.2,0.6-0.3c0.1,0,0.1,0,0.2,0c0.8,0.1,1-0.4,1-1.1
			c1.5,0.3,3.1,0.3,4.3,1.5c-0.4,0.2-0.8,0.4-1.2,0.5c-0.3-0.2-0.7-0.7-1-0.7c-0.7,0-1.5,0.3-2.2,0.4c-1.6,0.3-3.2,0.9-4.8,0
			c0-0.1,0-0.1,0.1-0.2C33.9,54.6,34.4,54.5,35,54.4z"/>
		<path class="st32" d="M30.3,51.1c-0.9,0.2-1.8,0.4-2.8,0.6c-0.5,0.1-1.1,0.1-1,0.9c0,0.1-0.4,0.3-0.6,0.3
			c-1.1-0.3-1.2,0.5-1.5,1.1c-0.3-0.3-0.5-0.5-0.8-0.8c0.4-1.5,1.4-1.9,2.8-2C27.7,51.2,29,51.1,30.3,51.1z"/>
		<path class="st41" d="M38.2,53.2c0,0.7-0.2,1.1-1,1.1c-0.3-0.6-0.7-1.1-1.1-1.7c0,0,0.2,0,0.5-0.1c0.1,0.1,0.2,0.1,0.2,0.2
			c0,0,0-0.1,0.1-0.1c-0.1,0-0.2-0.1-0.3-0.1c0-0.3,0-0.6,0-0.9c0.5,0.3,1.1,0.7,1.6,1c0,0.1,0,0.2,0,0.3
			C38.2,53,38.2,53.1,38.2,53.2z"/>
		<path class="st29" d="M38.2,52.9c0-0.1,0-0.2,0-0.3C38.3,52.7,38.3,52.7,38.2,52.9C38.3,52.8,38.2,52.8,38.2,52.9z"/>
		<path class="st42" d="M33.2,54.9c1.6,0.9,3.2,0.3,4.8,0c0.7-0.1,1.5-0.4,2.2-0.4c0.3,0,0.7,0.4,1,0.7c-2,0.4-3.9,1-5.9,1.1
			c-4.5,0.3-9,0.2-13.4-0.7c-0.4-0.1-0.7-0.2-1-0.4c1.5-1.1,3-0.2,4.5-0.1c1.8,0.1,3.6,0.2,5.4,0.2c0.1,0,0.3-0.2,0.4-0.4
			C32,54.9,32.6,54.9,33.2,54.9z"/>
		<path class="st32" d="M28.9,53.2c0.2,0.6,0.3,1.1,0.5,1.7c-0.5-0.2-1-0.5-1.5-0.7c0.1-0.3,0.2-0.7,0.2-1c0,0,0,0,0,0
			c0.2,0,0.4-0.1,0.6-0.1C28.8,53.1,28.8,53.2,28.9,53.2z"/>
		<path class="st33" d="M28.1,53.2c-0.1,0.3-0.2,0.7-0.2,1c-0.2,0-0.3,0-0.5,0C27.4,53.7,27.3,53.1,28.1,53.2z"/>
		<path class="st43" d="M27.1,118c0.1-0.2,0.2-0.3,0.3-0.5C27.3,117.7,27.2,117.8,27.1,118z"/>
		<path class="st43" d="M26.4,118.7c0.1-0.1,0.2-0.2,0.3-0.3C26.5,118.5,26.5,118.6,26.4,118.7z"/>
		<path class="st43" d="M26.6,118.5c0.1-0.1,0.2-0.2,0.3-0.3C26.8,118.3,26.7,118.4,26.6,118.5z"/>
		<path class="st43" d="M26.9,118.2c0.1-0.1,0.2-0.2,0.3-0.3C27,118,26.9,118.1,26.9,118.2z"/>
		<path class="st44" d="M48.5,110.2c-1.8,1-3.7,2-5.5,3c-1.3,0.4-2.6,0.8-3.9,1.2c-0.3,0-0.6,0-1,0c-0.4-0.1-0.8-0.2-1.2-0.2
			c0.2-0.6,0.3-1.2,0.5-1.9c0.4,0,0.8,0,1.4,0c-1-1,1.4-1.7-0.1-2.8c1.1-1.3,1-2.9,1.1-4.4c0-0.2,0-0.3,0-0.5c0.2-0.5,0.5-1,0.7-1.5
			c0.1,0.5,0.3,1.1,0.2,1.6c-0.3,1.5-0.9,3,1,3.9c0.2,0.1,0.3,0.4,0.5,0.7c0.2,0.4,0.5,0.9,0.7,1.3c0.6-1.7,1.9-3.1,1.4-5.1
			c-0.3-1.1,0.3-2.3,0.5-3.5c0.1-0.7,0.2-1.5,0.4-2.2c0.1-0.7,0.3-1.4,0.4-2.1c0.1,0.9,0.1,1.8,0.3,2.7c0.1,0.3,0.3,0.6,0.5,0.9
			c0,0.2,0,0.3,0,0.5c-1.1,0.7-0.8,1.9-0.8,2.9c0,0.1-0.2,0.4-0.1,0.4c1,1,0.4,2.3-0.1,2.8c-1,1.3-1.2,3.3-3,4.1
			c-0.1,0,0,0.2-0.1,0.5c1-0.4,1.9-0.7,2.7-1.2c0.7-0.4,1.2-1,1.8-1.6c0.6-0.5,1.1-1,1.9-0.5C48.7,109.7,48.6,110,48.5,110.2z"/>
		<path class="st29" d="M36.9,114.1c0.4,0.1,0.8,0.2,1.2,0.2c-1.4,0.1-2.8,0.2-4.2,0.3c-0.6-0.5-0.7-1.1-0.3-1.8
			c0.1-0.2,0-0.5,0-0.7c-0.1-0.3-0.1-0.6-0.2-0.8c-0.3-0.7,0.6-1.9-0.9-2c0-0.3-0.1-0.6-0.1-0.8c0,0,0,0,0,0
			c0.2-0.6,0.4-1.3,0.7-1.9c0.3-0.5,0.7-0.9,1-1.3c0.2,0,0.4,0,0.6-0.1c0.1,0.3,0.2,0.5,0.3,0.8c-1,0.6-0.7,1.6-0.6,2.4
			c0,0.5,0.1,1,0.2,1.5c0,0.2,0,0.3,0,0.5c-0.2,1-0.5,2.1-0.6,3.1c0,0.2,0.4,0.6,0.7,0.7c0.3,0.1,0.7,0,1.1,0
			C36.2,114.3,36.6,114.2,36.9,114.1z"/>
		<path class="st44" d="M23,58.8c-0.2-0.4-0.4-0.9-0.7-1.3c-0.2-0.2-0.5-0.6-0.7-0.6c-0.9,0.2-1.3-0.4-1.6-1.1
			c2.7,0.4,5.3,1.1,8,1.1c4.2,0,8.4,0.1,12.6-0.7c-0.6,0.4-1.2,0.7-1.8,1.1c0,0.4,0,0.9,0.1,1.4c0,0,0,0,0,0c-0.2,0-0.5,0-0.7,0
			c-0.4-0.5-0.9-0.9-1.3-1.4c-0.4,0.1-0.7,0.1-1.1,0.2c-0.2,0-0.3,0-0.5,0c-0.3,0.1-0.6,0.4-0.8,0.3c-1.3-0.6-1.6,0.5-2.1,1.2
			c-0.2,0-0.3,0-0.5,0c-0.2-0.6,0-1.7-1.2-1.2c-0.7,0-1.5,0-2.2,0c-0.4-0.1-0.8-0.2-1.2-0.3c-0.8-0.4-1.3-0.3-1.7,0.6
			c-0.1,0.3-0.6,0.6-1,0.6C24,58.9,23.5,58.8,23,58.8z"/>
		<path class="st45" d="M38.8,58.8c0-0.5-0.1-1-0.1-1.4c0.6-0.4,1.2-0.7,1.8-1.1c2-1,2.2-0.9,2.4,1.6c-0.4-0.4-0.9-0.7-1.4-1.1
			c-0.4,0.5,0.2,1.8-1.1,1.6c-0.2-0.3-0.3-0.6-0.5-0.9c-0.2,0.4-0.4,0.8-0.7,1.1C39.2,58.6,39,58.7,38.8,58.8z"/>
		<path class="st37" d="M38.8,58.8c0.2-0.1,0.3-0.1,0.5-0.2c0.4-0.1,0.8-0.2,1.2-0.2c1.4,0.2,0.8-1.1,1.1-1.6
			c0.5,0.4,0.9,0.7,1.4,1.1c0.1,0,0.2,0,0.2,0c-0.3,0.5-0.6,0.9-0.7,1.1c-0.9,0-1.6,0-2.3,0c-0.5,0-1,0-1.5,0.1
			C38.9,59,38.9,58.9,38.8,58.8L38.8,58.8z"/>
		<path class="st44" d="M50.4,103.1c-0.3,1.3-0.6,2.6-0.9,3.8c-0.2,0.7-0.5,1.4-0.7,2.1c-0.4-0.1-0.8-0.3-1.1-0.4
			c0.3-0.8,0.6-1.5,0.9-2.3c-0.1,0.5-0.1,1-0.2,1.5c0.1,0,0.2,0,0.4,0.1c0.2-0.8,0.3-1.6,0.6-2.4c0.3-1,0.6-2.1,0.9-3.1
			c0.1,0.1,0.2,0.2,0.2,0.3C50.5,102.8,50.4,102.9,50.4,103.1z"/>
		<path class="st44" d="M50.9,96.1c0.1,0,0.2,0,0.2,0c-0.1,0.6-0.1,1.1-0.2,1.7c-0.1,0-0.2,0-0.2,0c-0.3-0.2-0.6-0.5-0.9-0.7
			c-0.1,0-0.2,0-0.3,0c0-0.3,0.1-0.6,0.1-1c0.1,0,0.3,0,0.4,0C50.4,96.1,50.6,96.1,50.9,96.1z"/>
		<path class="st44" d="M50.6,100.7c0,0.2,0,0.5-0.1,0.7c-0.1,0-0.2,0-0.2,0c-0.4-0.2-0.8-0.5-1.1-0.7c0-0.2-0.1-0.5-0.1-0.7
			c0-0.2,0-0.3,0-0.5c0.1,0,0.2,0.1,0.2,0.1c0.4,0.2,0.8,0.4,1.1,0.6C50.5,100.4,50.6,100.6,50.6,100.7z"/>
		<path class="st33" d="M50.6,100.7c0-0.2-0.1-0.3-0.1-0.5c0-0.3,0-0.6,0.1-1c0.1-0.2,0.1-0.5,0.2-0.7c0-0.2,0-0.5,0-0.7
			c0.1,0,0.2,0,0.2,0C50.9,98.8,50.7,99.7,50.6,100.7z"/>
		<path class="st33" d="M50.3,101.4c0.1,0,0.2,0,0.2,0c0,0.4,0,0.8-0.1,1.2c-0.1-0.1-0.2-0.2-0.2-0.3
			C50.3,102.1,50.3,101.8,50.3,101.4z"/>
		<path class="st36" d="M48.6,106.3c-0.3,0.8-0.6,1.5-0.9,2.3c0.4,0.1,0.8,0.3,1.1,0.4c0,0.2,0,0.3-0.1,0.5c-0.8-0.5-1.4,0-1.9,0.5
			c-0.3,0.1-0.7,0.3-1,0.4c-0.1-0.1-0.2-0.2-0.3-0.2c0.2-0.4,0.5-0.8,0.7-1.2c0.2-0.3,0.6-0.8,0.5-0.9c-0.7-0.9-0.1-1.7,0.1-2.5
			c0.5,0.1,1.1,0.2,1.6,0.2C48.6,106,48.6,106.1,48.6,106.3z"/>
		<path class="st31" d="M52.1,80.8c0,0.4,0,0.8,0,1.2c-0.1,0-0.2,0-0.3,0c-0.1-1.4-0.1-2.7-0.3-4.1c-0.1-0.9-0.4-1.7-0.6-2.6
			c0-0.4,0-0.8,0-1.2c-0.1-0.3-0.1-0.5-0.2-0.8c0-0.2,0-0.4,0-0.7c-0.1-0.3-0.1-0.7-0.2-1c0-0.1-0.1-0.1-0.1-0.2
			c0-0.2,0.1-0.3,0.1-0.5c0.1-0.2,0.1-0.5,0.2-0.7c0.2-0.3,0.4-0.7,0.5-1c0.1,0.3,0.2,0.5,0.3,0.8c0.1,1.1,0.2,2.3,0.4,3.4
			c0.2,2.1,0.4,4.2,0.5,6.3c0,0.2,0,0.3,0,0.5c0,0.1,0,0.2,0,0.2c0,0-0.1,0-0.1,0C52.2,80.6,52.1,80.7,52.1,80.8z"/>
		<path class="st29" d="M51.4,70c-0.1-0.3-0.2-0.5-0.3-0.8c-0.1-1-0.2-2-0.3-3c0.2,0.1,0.5,0.2,0.7,0.3c0.3,0.4,0.6,0.9,0.8,1.3
			c0.2,0.4,0.3,0.9,0.4,1.4C52.7,69.3,51.6,69.9,51.4,70C51.5,70,51.4,70,51.4,70z"/>
		<path class="st32" d="M32.6,109.4c1.5,0.1,0.7,1.3,0.9,2c-0.2,0.1-0.5,0.3-0.7,0.4c-1.1,0.3-6.9,7.8-14.7,11.9
			C4.8,128-3.1,120.9,1.7,96.6C1.8,96.4,3,85.1,1.3,77.8c-2.5-10.9-1.2-19.2,2.3-27.9c1.6-4,8.6-9.6,10.4-12.7
			C23.5,21,21.3,20.7,26.1,7.3C27.6,2.9,29.2,0,35.5,0c2.2,0,9.7,2.7,10.7,10c0.1,0.9-4.6,4.5-5.4,2.4c-6.8-17.1-11.9-0.7-12.7,2.4
			c-3.2,13.4-3.2,16.7-10.1,26c-4.1,5.4-5,3-8.6,9.6c-2.7,5-4.3,14.8-3.6,18.4c4,20,1.5,25.9,0.4,38.3c-1.5,17.3,9.8,13.3,12.6,9.6
			c1.8-2,3.2-3.6,3.3-3.8c0.6-0.9,1.3-1.8,1.9-2.7c0.4-0.8,0.7-1.6,1.1-2.5c0-0.2,0-0.5,0.1-0.7l0,0c1.1-0.9,2.1-1.8,3.7-1.5
			c0.2,0,0.5-0.1,0.7-0.1c0.1,0,0.2,0,0.2-0.1c0.2,0.1,0.3,0.2,0.5,0.3c0.2,0.2,0.4,0.4,0.5,0.6c0.3,0.3,0.6,0.5,1,0.8
			c0.3,0.5,0.5,1,0.8,1.5c0,0,0,0,0,0c-0.2-0.1-0.3-0.3-0.6-0.5c-0.1,1-0.2,1.8-0.3,2.7C32,110.2,32.3,109.8,32.6,109.4z"/>
		<path class="st29" d="M24,110.3c-0.6,0.9-1.3,1.8-1.9,2.7c-1.6-0.6-3.1-1.2-4.7-1.7c-0.5-0.2-1.1-0.1-1.7-0.1
			c-0.5-0.3-1-0.7-1.4-1c0.2-0.3,0.6-0.6,0.6-1c0-0.8-0.1-1.6-0.2-2.4c0-0.2,0-0.3,0-0.5c0.2-0.2,0.3-0.3,0.5-0.5c0-0.3,0-0.6,0-1
			c-0.1-0.3-0.3-0.7-0.4-1c0-0.5,0-1,0-1.4c0.2-0.1,0.3-0.2,0.5-0.2c0.7,1.9,0.6,3.9,0.5,5.8c0.4,0.7,0.8,1.4,1.3,2
			c1.1,1.4,3.9,1.5,5.3-0.1v0C22.9,110.1,23.5,110.2,24,110.3z"/>
		<path class="st39" d="M12.2,107.3c-0.4,0.1-0.9,0.3-1.3,0.4c-0.2-1.1-0.5-2.1-0.5-3.2c0-1.4,0.2-2.9,0.3-4.3
			c0-0.1,0.2-0.2,0.4-0.3c0.1,0,0.3,0.1,0.4,0.1c0,0.1,0,0.3,0,0.4c0.1,0.2,0.1,0.4,0.2,0.5c0.3,1.6,0.6,3.2,0.9,4.8
			c-0.1,0.3-0.2,0.7-0.3,1C12.3,107,12.2,107.1,12.2,107.3z"/>
		<path class="st45" d="M15.7,111.2c0.6,0,1.2-0.1,1.7,0.1c1.6,0.5,3.2,1.1,4.7,1.7c-0.2,0.2-0.3,0.4-0.5,0.6
			c-1.5-0.4-3-0.9-4.5-1.3c-0.6-0.2-1.1-0.4-1.7-0.6C15.6,111.5,15.6,111.3,15.7,111.2z"/>
		<path class="st34" d="M14.7,106.8c0.1,0.8,0.2,1.6,0.2,2.4c0,0.3-0.4,0.6-0.6,1c-0.2-0.2-0.3-0.5-0.5-0.7c0-0.2,0-0.5,0-0.7
			C14.1,108.1,14.4,107.4,14.7,106.8z"/>
		<path class="st30" d="M11.1,99.9c-0.1-0.8-0.1-1.6-0.2-2.4c0-0.2,0-0.3,0-0.5c0-0.9,0-1.8,0-2.7c0-1.1,0-2.1,0-3.2
			c0.2,3,0.4,5.9,0.6,8.9C11.3,100,11.2,100,11.1,99.9z"/>
		<path class="st30" d="M13.7,108.8c0,0.2,0,0.5,0,0.7c-0.3-0.4-0.6-0.8-0.9-1.2c-0.2-0.3-0.4-0.6-0.6-1c0-0.2,0-0.3,0.1-0.5
			c0.9,0,1,0.7,1.1,1.4C13.5,108.4,13.6,108.6,13.7,108.8z"/>
		<path class="st42" d="M50.3,71.5c0,0.1,0.1,0.1,0.1,0.2c0,0.1-0.1,0.2-0.1,0.3c-0.2,0-0.5,0-0.7,0c-0.2-0.3-0.4-0.7-0.6-1
			c0-0.2,0-0.3,0-0.5c0-0.2-0.1-0.3-0.1-0.5c-0.1-0.3-0.1-0.7-0.2-1c0-0.2-0.1-0.3-0.1-0.5c0-0.2,0-0.3,0-0.5c0.3-1.2,0-1.6-1.2-1.3
			c-0.4,0.1-0.9,0.4-1.3,0.5c-0.1,0.1-0.2,0.2-0.2,0.2c-0.1,0-0.2,0-0.2,0c-1.4-0.4-0.8,0.7-1,1.2c-0.8,0.4-0.5,0.9-0.2,1.5
			c0,0.2,0,0.3,0,0.5c-0.3,0.4-0.5,0.7-1,1.3c-0.2-1.6-0.4-2.8-0.6-4.1c-0.5,0-1.1,0.1-1.7,0.2c-0.3,0-0.6,0-1,0c0-0.2,0-0.3,0-0.5
			c1.2-0.2,2.4-0.5,3.6-0.7c0.3-0.1,0.6-0.4,0.8-0.6c0.1,0,0.3,0,0.4,0c0.2,0.1,0.5,0.1,0.7,0.2c0.3,0,0.6,0,0.9-0.1
			c0.9-0.1,1.8-0.5,2.7,0.1c0.2,1.4,0.3,2.9,0.5,4.3C50,71,50.1,71.2,50.3,71.5z"/>
		<path class="st36" d="M45.4,61.7c0.2,0,0.5,0,0.7,0c0.3,0.2,0.7,0.5,1,0.7c-0.4,0.2-0.8,0.4-1.2,0.5c-4.9,1.3-9.9,1.7-14.9,1.5
			c0-0.2,0-0.4,0-0.5c0.4,0,0.9,0.1,1.3-0.1c0.3-0.1,0.6-0.4,0.9-0.6c1.3-0.1,2.7-0.1,4-0.2c1.4,0,2.8,0.1,4.2,0
			c0.3,0,0.5-0.4,0.8-0.6c0.2,0,0.3-0.1,0.5-0.1C43.6,62.2,44.5,62,45.4,61.7z"/>
		<path class="st32" d="M44.9,66.2c-0.1,0-0.3,0-0.4,0c-0.2,0-0.5-0.1-0.7-0.1c-0.5-0.1-1.1-0.2-1.6-0.2c-1,0.1-2,0.7-2.8-0.3
			c0.3-0.1,0.6-0.2,1-0.2c2.2-0.4,4.4-0.9,6.6-1.3c0.6-0.3,1.2-0.5,1.7-0.8c0.1,0.4,0.3,0.8,0.1,1.1c-0.1,0.3-0.6,0.5-0.9,0.7
			c-0.2,0.1-0.3,0.2-0.5,0.2c-0.7,0.2-1.3,0.4-2,0.6C45.2,66.1,45.1,66.1,44.9,66.2z"/>
		<path class="st32" d="M42.7,62.4c-0.2,0-0.3,0.1-0.5,0.1c-0.6,0-1.1,0.1-1.7,0.1c-0.2-0.2-0.3-0.4-0.5-0.7
			c0.2-0.1,0.5-0.2,0.7-0.2c0.6-0.3,1.1-0.6,1.7-0.9c0.2-0.1,0.5-0.2,0.7-0.3c0.4,0.1,0.7,0.1,1.1,0.2c0.1,0.2,0.1,0.5,0.2,0.8
			C44,61.8,43.4,62.1,42.7,62.4z"/>
		<path class="st30" d="M50.8,66.3c0.1,1,0.2,2,0.3,3c-0.2,0.3-0.4,0.7-0.5,1c-0.2-1.1-0.5-2.3-0.7-3.4c0-0.4,0.3-0.8,0.4-1.2
			c0.2,0.2,0.3,0.3,0.5,0.5C50.8,66.2,50.8,66.3,50.8,66.3z"/>
		<path class="st45" d="M47.4,65.3c0.2-0.1,0.3-0.2,0.5-0.2c0.7,0.2,1.7,0,1.5,1.2c-0.9-0.6-1.8-0.1-2.7-0.1
			C46.8,66,47.1,65.7,47.4,65.3z"/>
		<path class="st29" d="M48.6,63.2c-0.6,0.3-1.2,0.5-1.7,0.8c0.2-0.3,0.3-0.6,0.5-0.9c0.2-0.2,0.3-0.5,0.5-0.7l0,0
			C48.3,62.5,49.1,62.3,48.6,63.2z"/>
		<path class="st35" d="M42.7,62.4c0.6-0.3,1.2-0.6,1.8-0.9c0.3,0.1,0.6,0.2,0.8,0.3C44.5,62,43.6,62.2,42.7,62.4z"/>
		<path class="st35" d="M47.1,62.5c-0.3-0.2-0.7-0.5-1-0.7c0.8-0.4,1.6-0.6,1.7,0.7c0,0,0,0,0,0C47.6,62.5,47.4,62.5,47.1,62.5z"/>
		<path class="st44" d="M50.3,71.5c-0.2-0.3-0.3-0.5-0.5-0.8c0.2,0.1,0.4,0.2,0.5,0.3C50.3,71.1,50.3,71.3,50.3,71.5z"/>
		<path class="st34" d="M38.6,60.5c0,0.1,0,0.1,0,0.2c-1.4-0.2-1.2,0.9-1.4,1.6c-0.4,0-0.8,0-1.3,0c-0.2-0.5-0.3-1-0.5-1.4
			c0-0.1,0-0.1,0-0.2c0.1-0.5,0.1-0.9,0.2-1.4c0.6,0,1.2-0.1,1.8-0.1C37.2,60.3,37.7,60.6,38.6,60.5z"/>
		<path class="st36" d="M37.2,62.4c0.2-0.8,0.1-1.9,1.4-1.6c0.2,0,0.5,0,0.7-0.1c1.3-0.3,1.4-0.2,1.5,1.1c-0.2,0.1-0.5,0.2-0.7,0.2
			c-0.8,0.1-1.7,0.3-2.5,0.4C37.5,62.4,37.3,62.4,37.2,62.4z"/>
		<path class="st36" d="M38.6,60.5c-0.9,0.1-1.4-0.2-1.2-1.2c0.2,0,0.3,0,0.5,0c0.3-0.1,0.7-0.1,1-0.2c0.5,0,1,0,1.5-0.1
			c0.1,0.3,0.2,0.6,0.4,0.9C40,60.1,39.3,60.3,38.6,60.5z"/>
		<path class="st34" d="M50.8,66.3c0,0,0-0.1,0-0.1c0.1-0.4,0.2-0.8,0.3-1.2c0.1,0,0.1,0,0.2,0c0.1,0.2,0.1,0.4,0.2,0.6
			c0,0.3,0,0.7,0,1C51.3,66.5,51,66.4,50.8,66.3z"/>
		<path class="st32" d="M52,89.5c-0.7,0.1-1.3,0.2-2,0.3c-0.2-0.4-0.3-0.7-0.5-1.1c-0.2-0.3-0.5-0.6-0.7-1c0.8-0.4,1.6-0.8,2.5-1.2
			c0.1,0,0.3-0.1,0.4-0.1c0,0.3,0,0.7,0.1,1c0.1,0.5,0.3,1,0.5,1.6C52.2,89.2,52.1,89.3,52,89.5z"/>
		<path class="st44" d="M49.5,72c0.2,0,0.5,0,0.7,0c0.1,0.2,0.2,0.5,0.3,0.7c0,0.2,0,0.4,0,0.7c0.1,0.3,0.1,0.5,0.2,0.8
			c0,0.4,0,0.8,0,1.2c0,0.4-0.1,0.9,0,1.3c0.2,2.5,0.5,5,0.7,7.5c-0.1,0.4-0.3,0.8-0.4,1.2c-0.3,0.1-0.6,0.2-0.8,0.3
			c-0.1-0.1-0.3-0.2-0.4-0.3c0-0.8-0.1-1.6-0.1-2.4c0-0.6,0-1.3,0-1.9c0-0.3,0-0.7,0-1c0-0.4,0-0.8,0-1.2c0-0.4,0-0.8,0.1-1.2
			c-0.1-0.5-0.1-1-0.2-1.5c0-0.3-0.1-0.6-0.1-0.9c-0.1-0.2-0.1-0.5-0.2-0.7c0-0.2-0.1-0.5-0.1-0.7C49.4,73.1,49.5,72.5,49.5,72z"/>
		<path class="st34" d="M51.5,84.1c-0.2-2.5-0.5-5-0.7-7.5c0-0.4,0-0.9,0-1.3c0.2,0.9,0.5,1.7,0.6,2.6c0.2,1.3,0.2,2.7,0.3,4.1
			C51.6,82.7,52.6,83.5,51.5,84.1z"/>
		<path class="st35" d="M50.3,85.6c0.3-0.1,0.6-0.2,0.8-0.3c0.5-0.2,1-0.5,1.8-0.9c-0.5,0.9-0.8,1.5-1.2,2.1c-0.1,0-0.3,0.1-0.4,0.1
			c-0.3-0.3-0.7-0.5-1-0.8C50.3,85.8,50.3,85.7,50.3,85.6z"/>
		<path class="st37" d="M52.1,80.8c0-0.1,0.1-0.2,0.1-0.3C52.2,80.6,52.1,80.7,52.1,80.8z"/>
		<path class="st43" d="M52.3,80.5c0-0.1,0-0.2,0-0.2C52.3,80.3,52.3,80.4,52.3,80.5C52.3,80.4,52.3,80.5,52.3,80.5z"/>
		<path class="st41" d="M49.1,99.5c0,0.2,0,0.3,0,0.5c-0.3,0.3-0.5,0.7-1,1.3c0-2.1-0.1-3.8,0-5.4c0.1-1.7,0.4-3.4,0.5-5.1
			c0,0,0,0,0,0c0.2-0.1,0.5-0.2,0.7-0.3l0,0c0.2,0.2,0.3,0.3,0.5,0.5c-0.1,1.7-0.1,3.4-0.2,5.2c0,0.3-0.1,0.6-0.1,1
			c0,0.3-0.1,0.5-0.1,0.8c-0.1,0.2-0.1,0.5-0.2,0.7C49.2,98.8,49.2,99.2,49.1,99.5z"/>
		<path class="st31" d="M49.6,88.8c0.2,0.4,0.3,0.7,0.5,1.1c-0.2,0.2-0.5,0.4-0.7,0.7c0,0,0,0,0,0c-0.2,0.1-0.5,0.2-0.7,0.3
			c0,0,0,0,0,0c-0.5,0.1-1,0.1-1.5,0.2c0.1-0.6,0.2-1.1,0.3-1.7C48.2,89.4,48.7,88.1,49.6,88.8z"/>
		<path class="st44" d="M50.1,91c0.3-0.2,0.7-0.5,1-0.7c0.1,0.3,0.4,0.7,0.4,1c0,0.5-0.1,1.1-0.2,1.6c-0.2-0.3-0.3-0.5-0.5-0.8
			c-0.3,0.7-0.5,1.4-0.7,2.1C50.1,93.1,50.1,92,50.1,91z"/>
		<path class="st42" d="M50.1,94.1c0.2-0.7,0.5-1.3,0.7-2.1c0.1,0.3,0.3,0.5,0.5,0.8c0,0.5,0,1-0.1,1.5c-0.1,0.2-0.1,0.5-0.2,0.7
			c0,0.3-0.1,0.7-0.1,1c-0.3,0-0.6,0-0.9,0C50.1,95.4,50.1,94.8,50.1,94.1z"/>
		<path class="st29" d="M50.1,94.1c0,0.6,0,1.3,0,1.9c-0.1,0-0.3,0-0.4,0c0.1-1.7,0.1-3.4,0.2-5.2c0.1,0,0.2,0,0.3,0
			C50.1,92,50.1,93.1,50.1,94.1z"/>
		<path class="st44" d="M51,95.1c0.1-0.2,0.1-0.5,0.2-0.7C51.1,94.6,51.1,94.9,51,95.1z"/>
		<path class="st30" d="M10.8,70.8c-0.2,0-0.4,0-0.6,0c0-0.2,0.1-0.3,0.1-0.5c0.5,0,1,0,1.4,0c-0.1,1.3-0.1,2.6-0.2,3.9
			c-0.1,0.2-0.3,0.4-0.3,0.6c-0.2,1.1-0.3,2.2-0.5,3.3c0-0.7,0-1.5,0-2.2c0.1-1.4,0.3-2.8,0.4-4.2C11.2,71.4,11,71.1,10.8,70.8z"/>
		<path class="st29" d="M10.4,70.2c0,0.2-0.1,0.3-0.1,0.5c-0.1-0.1-0.4-0.2-0.4-0.3c0.4-2.3,0.8-4.6,1.2-7c0.6-0.5,1.3-1,1.9-1.6
			c0.2,0.3,0.4,0.6,0.6,0.8c-0.2,0.5-0.3,0.9-0.5,1.4c-0.2,0.4-0.4,0.8-0.5,1.2c-0.2,0.1-0.3,0.2-0.5,0.3c-0.2,0.1-0.3,0.2-0.5,0.3
			c-0.5-0.3-0.7-0.1-0.7,0.4C10.7,67.6,10.5,68.9,10.4,70.2z"/>
		<path class="st30" d="M13.5,62.7c-0.2-0.3-0.4-0.6-0.6-0.8c0.6-0.1,1.1-0.1,1.7-0.2c0.3,0.2,0.5,0.5,0.8,0.7
			c0.1,0,0.1,0.1,0.2,0.1c0.4,0.2,0.9,0.5,1.3,0.6c2.7,0.4,5.4,0.8,8,1.1c0.1,0,0.2,0,0.4,0c0.7,0.1,1.4,0.1,2,0.2
			c1.2,0,2.4,0.1,3.6,0.1c5,0.1,10-0.3,14.9-1.5c0.4-0.1,0.8-0.3,1.2-0.5c0.2,0,0.5,0,0.7,0c-0.2,0.2-0.3,0.5-0.5,0.7
			c-2,0.4-3.9,1.1-5.9,1.2c-4.4,0.3-8.9,0.4-13.3,0.6c-0.4,0-0.8,0-1.3,0c-3.8,0-7.4-0.8-11.1-1.6c-0.4-0.1-0.9,0.1-1.4,0.1
			C14.2,63.2,13.9,63,13.5,62.7z"/>
		<path class="st36" d="M15.5,62.4c-0.3-0.2-0.5-0.5-0.8-0.7c0-0.1,0-0.1,0.1-0.2c1.1-0.2,2.2-0.5,3.3-0.7c0.4,0.4,0.9,0.8,1.3,1.2
			c-0.2,0.2-0.5,0.3-0.7,0.5c-0.6-0.1-1.1-0.2-1.7-0.3C16.2,61.5,15.8,61.5,15.5,62.4z"/>
		<path class="st45" d="M21.8,58.8c0.2,0,0.3,0,0.5,0.1c-0.5,0.4-1.1,0.8-1.7,1.2c0.5,0.1,0.9,0.1,1.2,0.2c0.2,0.1,0.3,0.2,0.5,0.3
			c0,0.4,0,0.8,0,1.2c-1-0.3-1.9-0.5-2.9-0.8c0.1-0.5,0.1-0.9,0.2-1.4c0-0.4,0-0.8,0-1.2C20.3,58.4,21,58.6,21.8,58.8z"/>
		<path class="st41" d="M19.4,60.9c1,0.3,1.9,0.5,2.9,0.8c0,0-0.1,0.1-0.1,0.1c-0.3,0.2-0.6,0.4-0.9,0.6c-0.3,0-0.5-0.1-0.8-0.1
			c-0.4-0.1-0.8-0.2-1.2-0.3c-0.4-0.4-0.9-0.8-1.3-1.2C18.5,60.8,18.9,60.9,19.4,60.9z"/>
		<path class="st30" d="M21.8,58.8c-0.7-0.2-1.4-0.3-2.2-0.5l0,0c-0.2-0.1-0.3-0.2-0.5-0.2c-0.1-0.2-0.2-0.3-0.3-0.5
			c0.5-0.7,0.9-1.3,1.5,0.1C20.4,58.2,21.2,58.4,21.8,58.8z"/>
		<path class="st34" d="M19.6,58.3c0,0.4,0,0.8,0,1.2c-1-0.1-0.8-0.6-0.5-1.2C19.3,58.3,19.4,58.3,19.6,58.3L19.6,58.3z"/>
		<path class="st45" d="M19.6,58.3c-0.2,0-0.3,0-0.5,0c0-0.1,0-0.2,0-0.2C19.3,58.1,19.4,58.2,19.6,58.3z"/>
		<path class="st29" d="M21.8,60.3c-0.4-0.1-0.8-0.1-1.2-0.2c0.6-0.5,1.2-0.9,1.7-1.2c0.3,0,0.5,0,0.8,0c0.5,0,1,0.1,1.4,0
			c0.4-0.1,0.8-0.3,1-0.6c0.4-0.9,1-1,1.7-0.6c-0.2,1.1-1,1.5-1.9,1.7c-0.3,0.2-0.9,0.3-1,0.6c-0.1,0.7-0.1,1.4-0.1,2.1
			c-0.7-0.1-1.3-0.1-2-0.2c0,0,0.1-0.1,0.1-0.1c0-0.4,0-0.8,0-1.2c0.5,0,0.9-0.1,1.7-0.1c-0.4-0.5-0.8-1.1-0.8-1.1
			C22.7,59.6,22.2,59.9,21.8,60.3z"/>
		<path class="st33" d="M35,54.4c-0.6,0.1-1.1,0.2-1.7,0.3c0.1-0.6,0.1-1.2,0.3-1.8c0.1-0.2,0.8-0.4,1-0.3c0.3,0.2,0.3,0.7,0.4,1
			C35,53.9,35,54.1,35,54.4z"/>
		<path class="st32" d="M28.8,52.5c0.9,0.1,1.8,0.2,2.7,0.3c0,0.1,0,0.2,0,0.3c-0.9,0-1.8,0.1-2.7,0.1c0,0-0.1-0.1-0.1-0.1
			C28.8,52.9,28.8,52.7,28.8,52.5z"/>
		<path class="st33" d="M28.8,52.5c0,0.2,0,0.4-0.1,0.6c-0.2,0-0.4,0.1-0.6,0.1C28.4,53,28.6,52.7,28.8,52.5z"/>
		<path class="st41" d="M37,54.3c-0.2,0.1-0.4,0.2-0.6,0.3C36.6,54.5,36.8,54.4,37,54.3z"/>
		<path class="st40" d="M36.7,52.5c0.1,0,0.2,0.1,0.3,0.1c0,0,0,0.1-0.1,0.1C36.8,52.6,36.7,52.5,36.7,52.5
			C36.7,52.5,36.7,52.5,36.7,52.5z"/>
		<path class="st42" d="M45.7,97.8c-0.2,0.7-0.3,1.4-0.4,2.1c-0.1,0.7-0.2,1.5-0.4,2.2c-0.2,1.2-0.8,2.4-0.5,3.5
			c0.5,2-0.9,3.3-1.4,5.1c-0.2-0.4-0.4-0.9-0.7-1.3c-0.1-0.2-0.3-0.6-0.5-0.7c-1.9-0.9-1.3-2.5-1-3.9c0.1-0.5-0.1-1-0.2-1.6
			c0-0.2,0-0.5,0-0.7c0-0.6-0.2-1.7,0-1.8c0.9-0.4,0.7-1,0.7-1.6c0.1-1.2,0.1-2.4,0.3-3.5c0.1-0.6,0.3-1.2,0.5-1.8c0,0,0.1,0,0.1,0
			l0.1,0c0.4,0.1,0.8,0.3,1.1,0.2c0.5-0.1,1.1-0.3,1.8-0.5c0,1.1,0,2.1,0,3c0,0.2,0.3,0.4,0.4,0.7C45.7,97.3,45.7,97.5,45.7,97.8z"
			/>
		<path class="st45" d="M36.9,114.1c-0.3,0.1-0.6,0.2-1,0.2c-0.4-1.3-0.8-2.6-1.2-3.9c0-0.2,0-0.3,0-0.5c0.2-0.2,0.3-0.5,0.5-0.7
			c0.9,0.1,1.1-0.6,1.1-1.2c0-1.1-0.3-2.1-0.4-3.2c0.1-0.1,0.3-0.1,0.4-0.2c1.3,2,1.6,2.1,3.4,0.4c0,0,0.1,0,0.1,0
			c-0.1,1.5,0,3.1-1.1,4.4c1.6,1-0.9,1.7,0.1,2.8c-0.7,0-1.1,0-1.4,0C37.2,112.9,37.1,113.5,36.9,114.1z"/>
		<path class="st35" d="M48.5,105.8c-0.5-0.1-1.1-0.2-1.6-0.2c0-0.1,0-0.2,0-0.2c-0.2-1.1-0.3-2.3-0.5-3.4c0-0.2,0-0.3,0-0.5
			c0.1-1.9,0.1-3.7,0.2-5.6c-0.1-0.5-0.1-1-0.2-1.4c-0.2-0.5-0.3-1-0.5-1.5c0-0.2,0-0.5,0-0.7c0,0,0.1-0.1,0.1-0.1
			c0,0-0.1-0.1-0.1-0.1c-0.7,0.1-1.4,0.3-2.2,0.4c-0.6,0-1.1,0-1.7,0c-0.1-0.1-0.2-0.2-0.2-0.2c0-0.1,0-0.1,0-0.2
			c1.3-0.3,2.6-0.5,3.9-0.8c0.3,0,0.7,0,1,0c0,0.2-0.1,0.4,0,0.5c0.2,0.4,0.7,0.7,0.7,1.1c0.1,1,0,2.1,0.1,3.1
			c0,2.4,0.1,4.7,0.1,7.1c0,0.6,0.4,1,1,0.8c0,0.1,0,0.2,0.1,0.3c0,0.1,0,0.2,0,0.3C48.6,104.8,48.6,105.3,48.5,105.8z"/>
		<path class="st45" d="M46.9,105.3c0,0.1,0,0.2,0,0.2c-0.1,0.8-0.8,1.6-0.1,2.5c0.1,0.1-0.3,0.6-0.5,0.9c-0.2,0.4-0.5,0.8-0.7,1.2
			c0.1,0.1,0.2,0.2,0.3,0.2c0.3-0.1,0.7-0.3,1-0.4c-0.6,0.5-1.1,1.2-1.8,1.6c-0.8,0.5-1.7,0.8-2.7,1.2c0.1-0.3,0-0.5,0.1-0.5
			c1.8-0.8,1.9-2.8,3-4.1c0.5-0.6,1.1-1.9,0.1-2.8c-0.1-0.1,0.1-0.3,0.1-0.4C46.1,105,46.5,105.2,46.9,105.3z"/>
		<path class="st36" d="M39.8,105.1c0,0-0.1,0-0.1,0c-1.7,1.6-2,1.6-3.4-0.4c0.1-0.1,0.2-0.2,0.2-0.4c0.2,0.1,0.4,0.2,0.6,0.3
			c0.3,0.1,0.5,0.3,0.8,0.4c0.1-0.3,0.3-0.5,0.4-0.8c0.1-0.4,0-0.8,0-1.2c0.1-0.9-0.3-1.2-1.1-1c0-0.2,0-0.3,0-0.5
			c0.8,0.1,1-0.4,1.1-1.1c0.1-0.3,0.5-0.6,0.7-0.8c0.2,0.4,0.5,0.8,0.7,1.2c0,0.2,0,0.3,0,0.5c-1,0.9-1,1.9,0,3.4
			C39.8,104.8,39.8,104.9,39.8,105.1z"/>
		<path class="st36" d="M46.6,95.8c-0.1,1.9-0.1,3.7-0.2,5.6c-0.2-0.3-0.4-0.6-0.5-0.9c-0.1-0.9-0.2-1.8-0.3-2.7c0-0.2,0-0.5,0-0.7
			C46,96.6,46.3,96.2,46.6,95.8z"/>
		<path class="st45" d="M39.8,104.6c-1-1.5-1-2.5,0-3.4c0.2,0.4,0.5,0.8,0.7,1.2c0,0.2,0,0.5,0,0.7
			C40.3,103.6,40.1,104.1,39.8,104.6z"/>
		<path class="st36" d="M46.9,105.3c-0.4-0.2-0.8-0.3-1.2-0.5c-0.1-1.1-0.4-2.2,0.8-2.9C46.6,103.1,46.7,104.2,46.9,105.3z"/>
		<path class="st39" d="M37.3,101.4c0,0.2,0,0.3,0,0.5c-0.2,0.8-0.4,1.6-0.7,2.4c-0.1,0.1-0.2,0.2-0.2,0.4c-0.1,0.1-0.3,0.1-0.4,0.2
			c-0.4,0.1-0.7,0.3-1.1,0.4c-0.2,0-0.4,0-0.6,0.1c0-0.2,0-0.3,0-0.5c0.1-0.1,0.2-0.2,0.2-0.3l0,0c0.1-0.2,0.2-0.4,0.2-0.6
			c0,0,0.1-0.1,0.1-0.1c1.2-0.6,1.6-2.5,0.6-3.7l0,0c0-0.2,0-0.3,0-0.5c-0.7-0.6-1.5-1.2-2.2-1.8c0,0-0.1-0.1-0.1-0.1
			c0-0.1-0.1-0.2-0.1-0.3c-0.4-0.6-0.9-1.1-1.4-1.8c0.9,0,1.9,0,2.9-0.2c0.3,0,0.6-0.5,1-0.7c0.3,0.1,0.6,0.2,0.9,0.3
			c0.2,0.8,0.6,1.6,0.7,2.4C37.2,98.9,37.2,100.2,37.3,101.4z"/>
		<path class="st36" d="M34.7,110.5c0.4,1.3,0.8,2.6,1.2,3.9c-0.4,0-0.8,0.1-1.1,0c-0.3-0.1-0.8-0.5-0.7-0.7
			C34.2,112.5,34.5,111.5,34.7,110.5z"/>
		<path class="st44" d="M34.9,105.3c0.4-0.1,0.7-0.3,1.1-0.4c0.1,1.1,0.4,2.1,0.4,3.2c0,0.6-0.2,1.3-1.1,1.2c0-1.1,0-2.1,0-3.2
			C35.1,105.8,35,105.5,34.9,105.3z"/>
		<path class="st31" d="M34.2,104.9c0,0.2,0,0.3,0,0.5c-0.3,0.4-0.8,0.8-1,1.3c-0.3,0.6-0.5,1.3-0.7,1.9c-0.3-0.5-0.5-1-0.8-1.5
			c0.2-0.2,0.3-0.3,0.5-0.5c0.2-0.3,0.5-0.7,0.7-1c0.2-0.4,0.5-0.8,0.7-1.2c0.1,0.1,0.2,0.2,0.3,0.3
			C34.1,104.7,34.1,104.8,34.2,104.9z"/>
		<path class="st36" d="M35.2,106.1c0,1.1,0,2.1,0,3.2c-0.2,0.2-0.3,0.5-0.5,0.7c-0.1-0.5-0.1-1-0.2-1.5
			C34.5,107.6,34.2,106.7,35.2,106.1z"/>
		<path class="st31" d="M32.6,109.4c-0.3,0.4-0.6,0.9-1,1.4c0.1-0.9,0.2-1.8,0.3-2.7c0.3,0.2,0.5,0.4,0.6,0.5
			C32.6,108.8,32.6,109.1,32.6,109.4z"/>
		<path class="st33" d="M28.3,57.8c0.7,0,1.5,0,2.2,0c0.4,0.4,0.8,0.8,1.2,1.2c0.2,0,0.3,0,0.5,0c0.3,0,0.6,0.1,0.7-0.1
			c0.5-0.6,0.8-0.2,1.2,0.1c0,0.1,0,0.3,0,0.4c-0.1,0-0.2,0-0.2,0c-0.4,0-0.8,0-1,0c0.1,0.3,0.3,0.6,0.3,0.9c0.1,0.5,0.1,1,0.1,1.5
			c0.1,0.2,0.1,0.4,0.2,0.5c-0.5,0-1.1,0-1.6,0c0-0.4,0-0.9,0-1.3c0-0.2,0-0.3,0-0.5c0.1-0.9-0.1-1.4-1.1-1.3c-0.4,0.1-0.9,0-1.3,0
			c-0.3-0.1-0.7-0.1-1-0.2C28.5,58.8,28.4,58.3,28.3,57.8z"/>
		<path class="st30" d="M28.3,57.8c0.1,0.5,0.2,1,0.3,1.5c-0.7,0-1.3,0-2,0c-0.5,0-0.9,0-1.4-0.1c0.9-0.2,1.7-0.6,1.9-1.7
			C27.6,57.6,27.9,57.7,28.3,57.8z"/>
		<path class="st45" d="M34.2,59.1c-0.4-0.3-0.7-0.7-1.2-0.1c-0.1,0.1-0.5,0.1-0.7,0.1c0.5-0.7,0.8-1.8,2.1-1.2
			c0.2,0.1,0.6-0.2,0.8-0.3c-0.1,0.5-0.2,1-0.2,1.5c0,0,0,0,0,0C34.7,59.1,34.5,59.1,34.2,59.1z"/>
		<path class="st30" d="M37.9,59.3c-0.2,0-0.3,0-0.5,0c-0.6,0-1.2,0.1-1.8,0.1c-0.2,0-0.5,0-0.7-0.1c0-0.1,0-0.2,0-0.3c0,0,0,0,0,0
			c0.2-0.5,0.5-1,0.7-1.4c0.4-0.1,0.7-0.1,1.1-0.2c0,0.1,0,0.1,0,0.2c0.1,0.4,0.2,0.8,0.3,1.2c0.3,0.1,0.5,0.1,0.8,0.2
			C37.9,59.1,37.9,59.2,37.9,59.3z"/>
		<path class="st45" d="M36.8,57.6c0-0.1,0-0.1,0-0.2c0.4,0.5,0.9,0.9,1.3,1.4C38,58.9,38,58.9,37.9,59c-0.3-0.1-0.5-0.1-0.8-0.2
			C37,58.4,36.9,58,36.8,57.6z"/>
		<path class="st45" d="M31.8,59c-0.4-0.4-0.8-0.8-1.2-1.2C31.8,57.4,31.6,58.4,31.8,59z"/>
		<path class="st34" d="M35.7,57.6c-0.2,0.5-0.5,1-0.7,1.4c0.1-0.5,0.2-1,0.2-1.5C35.4,57.6,35.5,57.6,35.7,57.6z"/>
		<path class="st34" d="M37.9,59c0.1-0.1,0.2-0.1,0.2-0.2c0.2,0,0.5,0,0.7,0c0,0.1,0,0.2,0,0.2c-0.3,0.1-0.7,0.1-1,0.2
			C37.9,59.2,37.9,59.1,37.9,59z"/>
		<path class="st35" d="M40.5,58.3c-0.4,0.1-0.8,0.2-1.2,0.2c0.2-0.4,0.4-0.8,0.7-1.1C40.2,57.7,40.4,58,40.5,58.3z"/>
		<path class="st42" d="M48.5,105.8c0-0.5,0-1,0.1-1.4c0,0,0.1-0.1,0.1-0.1c0-0.1,0-0.1-0.1-0.2c0-0.1,0-0.2-0.1-0.3
			c0-0.1,0-0.1,0-0.2c0.7-0.4,0.7-1,0.4-1.7c0.1-0.4,0.1-0.8,0.2-1.2c0.4,0.2,0.8,0.5,1.1,0.7c0,0.3,0,0.7-0.1,1
			c-0.3,1-0.6,2.1-0.9,3.1c-0.2,0.8-0.4,1.6-0.6,2.4c-0.1,0-0.2,0-0.4-0.1c0.1-0.5,0.1-1,0.2-1.5C48.6,106.1,48.6,106,48.5,105.8z"
			/>
		<path class="st42" d="M49.3,98.5c0.1-0.2,0.1-0.5,0.2-0.7c0.1-0.3,0.3-0.5,0.4-0.8c0.3,0.2,0.6,0.5,0.9,0.7c0,0.2,0,0.5,0,0.7
			c-0.1,0.2-0.1,0.5-0.2,0.7c0,0.3,0,0.6-0.1,1c-0.4-0.2-0.8-0.4-1.1-0.6C49.3,99.2,49.3,98.9,49.3,98.5z"/>
		<path class="st29" d="M49.8,97.1c-0.1,0.3-0.3,0.5-0.4,0.8c0-0.3,0.1-0.5,0.1-0.8C49.7,97.1,49.7,97.1,49.8,97.1z"/>
		<path class="st30" d="M49.2,100.7c-0.1,0.4-0.1,0.8-0.2,1.2c-0.1,0.6-0.2,1.1-0.4,1.7c0,0.1,0,0.1,0,0.2c-0.7,0.2-1-0.2-1-0.8
			c-0.1-2.4-0.1-4.7-0.1-7.1c0-1,0.1-2.1-0.1-3.1c0-0.4-0.5-0.7-0.7-1.1c-0.1-0.1,0-0.3,0-0.5c0.1-0.1,0.3-0.2,0.4-0.2
			c0.5-0.1,1-0.1,1.5-0.2c-0.2,1.7-0.5,3.4-0.5,5.1c-0.1,1.7,0,3.4,0,5.4c0.5-0.6,0.8-1,1-1.3C49.1,100.2,49.1,100.5,49.2,100.7z"/>
		<path class="st30" d="M49.3,98.5c0,0.4,0,0.7,0.1,1.1c-0.1,0-0.2-0.1-0.2-0.1C49.2,99.2,49.2,98.8,49.3,98.5z"/>
		<path class="st44" d="M50.6,99.2c0.1-0.2,0.1-0.5,0.2-0.7C50.7,98.8,50.6,99,50.6,99.2z"/>
		<path class="st34" d="M50.6,72.7c-0.1-0.2-0.2-0.5-0.3-0.7c0-0.1,0.1-0.2,0.1-0.3C50.5,72,50.5,72.3,50.6,72.7z"/>
		<path class="st34" d="M50.8,74.1c-0.1-0.3-0.1-0.5-0.2-0.8C50.7,73.6,50.8,73.9,50.8,74.1z"/>
		<path class="st45" d="M24,110.3c-0.6-0.1-1.2-0.2-1.8-0.3c0.3-0.4,0.6-1,1-1.2c0.8-0.4,1-0.8,0.8-1.6c-0.3-1.3-0.7-2.6-0.8-3.9
			c-0.1-1.5,0-3.1,0-4.7c0-0.3-0.1-0.5-0.2-0.8c0.1-0.1,0.2-0.2,0.3-0.2c0.2,0.3,0.5,0.5,0.5,0.8c0.2,2.2,0.3,4.4,0.5,6.6
			c0,0.1,0.4,0.3,0.6,0.4c0,0.1,0,0.2,0,0.2c-0.2,0.3-1,0.7,0,1c0,0.2,0,0.3,0,0.5c0,0,0,0,0,0c-0.1,0.1-0.3,0.3-0.4,0.4
			c0.1,0.1,0.3,0.2,0.4,0.3C24.8,108.6,24.4,109.4,24,110.3z"/>
		<path class="st44" d="M30.3,105.7c-0.2-0.1-0.3-0.2-0.5-0.3c0.1-0.4,0.2-0.8,0.3-1.2c0.3-1.1,0.6-2.2,1-3.4c0.3,0,0.5-0.1,0.8-0.1
			c0.2,0.3,0.5,0.5,0.7,0.8c-0.1,0.4-0.2,0.8-0.3,1.1c-0.3,1-0.7,2-1.1,3.1l0,0.1C30.8,105.7,30.6,105.7,30.3,105.7z"/>
		<path class="st41" d="M32.3,106.6c-0.2,0.2-0.3,0.3-0.5,0.5c-0.3-0.3-0.6-0.5-1-0.8c0.1-0.2,0.2-0.4,0.3-0.6c0,0,0-0.1,0-0.1
			c0.4-0.5,0.7-1.1,1.1-1.7c0.3-0.6,0.6-1.2,0.8-1.8c0.2,0.2,0.3,0.4,0.5,0.6C33.1,104.1,32.7,105.3,32.3,106.6z"/>
		<path class="st37" d="M25.3,107.1c0-0.2,0-0.3,0-0.5c0.2-0.3,0.5-0.6,0.7-1c0.1,0,0.3,0,0.4,0c0.6-0.2,1.2-0.3,1.8-0.5
			c0.2,0,0.4,0,0.6,0c0.2,0.1,0.5,0.2,0.7,0.4c-0.2,0.1-0.5,0.2-0.7,0.1C27.3,105.2,26.3,106.2,25.3,107.1z"/>
		<path class="st36" d="M29.6,105.4c-0.2-0.1-0.5-0.2-0.7-0.4c0.2-0.3,0.3-0.6,0.5-0.9c0.2,0,0.5,0,0.7,0c-0.1,0.4-0.2,0.8-0.3,1.2
			C29.8,105.4,29.7,105.4,29.6,105.4z"/>
		<path class="st37" d="M31.1,105.7c-0.1,0.2-0.2,0.4-0.3,0.6c-0.2-0.2-0.4-0.4-0.5-0.6C30.6,105.7,30.8,105.7,31.1,105.7z"/>
		<path class="st29" d="M25.1,107.8c-0.1-0.1-0.3-0.2-0.4-0.3c0.1-0.1,0.3-0.3,0.4-0.4C25.2,107.3,25.2,107.5,25.1,107.8z"/>
		<path class="st44" d="M23.3,97.8c0.1,0.3,0.2,0.5,0.2,0.8c0,1.6-0.2,3.1,0,4.7c0.1,1.3,0.5,2.6,0.8,3.9c0.2,0.8-0.1,1.3-0.8,1.6
			c-0.4,0.2-0.7,0.8-1,1.2v0c-1.1,0.4-2.1-0.3-3.1-0.3c-1.2,0-1.9-0.6-2.7-1.2c-0.2-0.2-0.6-0.3-0.8-0.4c0.1-2,0.2-3.9-0.5-5.8
			c0-0.2,0-0.3,0-0.5c0.1-0.3,0.2-0.6,0.2-0.9c-0.1-2.5-0.3-5-0.4-7.5c0-0.3,0.3-0.5,0.5-0.8c0.2,0.2,0.3,0.5,0.5,0.7
			c0.1,0.3,0.2,0.6,0.4,0.9c0.3-0.1,0.7-0.2,0.9-0.4c0.3-0.3,0.6-0.6,0.9-1c0.4,0.1,0.8,0.2,1.2,0.2c0.6,0.2,1.1,0.3,1.7,0.5
			c0.1,0.1,0.2,0.2,0.2,0.3c0.3,0.3,0.6,0.7,0.9,1c0.2,0.3,0.4,0.6,0.6,0.9c-0.6-0.2-1.3-0.5-1.9-0.7c-0.8-0.3-1.6-0.7-2.5-0.9
			c-0.2,0-0.9,0.6-0.8,0.8c0.1,1.1,0.3,2.1,0.6,3.1c0.1,0.6,0.5,1.1,0.7,1.7c0.3,1.2,1.4,1.7,2.5,1.2C21.5,98.2,21.6,97.8,23.3,97.8
			z M17.2,106.6c1.2-1,1-2,0.7-3c-0.1-0.3-0.2-0.7-0.2-1.1c-0.1-1.5-0.1-3-0.3-4.4c-0.1-0.4-0.6-0.8-0.9-1.2
			c-0.2,0.4-0.4,0.8-0.4,1.2c0,0.8,0.1,1.5,0.2,2.3c0.2,1.3,0.3,2.6,0.5,3.9C16.8,105,17,105.7,17.2,106.6z"/>
		<path class="st45" d="M15.7,108c0.3,0.1,0.6,0.2,0.8,0.4c0.8,0.6,1.4,1.2,2.7,1.2c1,0,2,0.7,3.1,0.3c-1.4,1.6-4.2,1.5-5.3,0.1
			C16.5,109.4,16.1,108.7,15.7,108z"/>
		<path class="st33" d="M13.7,108.8c-0.1-0.2-0.3-0.4-0.3-0.6c-0.1-0.7-0.2-1.3-1.1-1.4c0.1-0.3,0.2-0.7,0.3-1c0.1,0,0.3,0,0.4,0
			c0.3,0.3,0.5,0.6,1,1.3c0.2-1,0.4-1.6,0.5-2.3c0.2,0,0.5,0,0.7,0c0,0.3,0,0.6,0,1c-0.2,0.2-0.3,0.3-0.5,0.5c0,0.2,0,0.3,0,0.5
			C14.4,107.4,14.1,108.1,13.7,108.8z"/>
		<path class="st34" d="M15.2,101.7c0,0.2,0,0.3,0,0.5c-0.2,0.1-0.3,0.2-0.5,0.2c-0.1-0.1-0.2-0.2-0.3-0.3c0-0.4,0-0.8,0-1.2
			c0.1-0.2,0.2-0.3,0.3-0.5C14.9,100.9,15,101.3,15.2,101.7z"/>
		<path class="st34" d="M15.2,104.9c-0.2,0-0.5,0-0.7,0c0-0.3,0-0.6,0-1c0.1,0,0.2,0,0.3,0C14.9,104.2,15.1,104.5,15.2,104.9z"/>
		<path class="st33" d="M14.8,103.9c-0.1,0-0.2,0-0.3,0c-0.1-0.2-0.2-0.5-0.3-0.7c0-0.3,0-0.7,0-1c0.1,0,0.2,0,0.3,0
			c0.1,0.1,0.2,0.2,0.3,0.3C14.7,102.9,14.8,103.4,14.8,103.9z"/>
		<path class="st34" d="M14.7,106.3c0.2-0.2,0.3-0.3,0.5-0.5C15,106,14.9,106.2,14.7,106.3z"/>
		<path class="st30" d="M10.3,82.2c0.2,0,0.3,0,0.5,0c0.2,0.1,0.4,0.2,0.5,0.3c0.1,0.5,0.1,1,0.2,1.4c-0.2,0.2-0.4,0.5-0.6,0.7
			c-0.6-0.5-1.1-0.7-1.4,0.2c-0.1,0.6-0.3,1.2-0.2,1.7c0.2,0.7,0.6,1.3,0.9,1.9c0,0.1,0,0.1,0,0.2C8.6,87,8.6,83.8,10.3,82.2z"/>
		<path class="st35" d="M10.8,91.2c0-0.6,0-1.2,0-1.8c0.2,0,0.3,0.1,0.5,0.1c0,0.2,0.1,0.3,0.1,0.5c0,0.2,0.1,0.3,0.1,0.5
			c0,0.4,0,0.8,0.1,1.2c0,0.4-0.1,0.9,0,1.3c0.5,4.2,1,8.4,1.4,12.6c0,0.1,0,0.1-0.1,0.2c-0.1,0-0.3,0-0.4,0
			c-0.3-1.6-0.6-3.2-0.9-4.8c-0.1-0.2-0.1-0.4-0.2-0.5c0-0.1,0-0.3,0-0.4C11.3,97.1,11.1,94.1,10.8,91.2z"/>
		<path class="st30" d="M11.5,100.5c0.1,0.2,0.1,0.4,0.2,0.5C11.6,100.8,11.6,100.6,11.5,100.5z"/>
		<path class="st44" d="M41,68.1c0.6-0.1,1.1-0.1,1.7-0.2c0.2,1.3,0.3,2.5,0.6,4.1c0.4-0.6,0.7-0.9,1-1.3c0.2,0.3,0.4,0.7,0.5,1
			c0.1,0.6,0,1.3,0,1.9c0,1.5,0,2.9,0,4.4c-0.4-0.2-0.7-0.3-1.3-0.6c0,1.6-1.2,2.6-1.1,4.3c0.2,1.5,0,2.9,1.3,4.3
			c-1.7,0.2-1.1,1-0.7,1.7c0,0.1,0,0.1,0,0.2c-0.7,0-1.5,0.1-2.2,0.1c0.7-1-0.1-2.1,0-3.1c0.1-1.5-0.1-3-0.2-4.5
			c0-0.1,0.1-0.3,0.2-0.4c0.3-0.7,0.7-1.4,0.7-2.2c0-1.2,0.3-1.7,1.5-1.5c0.4,0,0.7,0.1,1.5,0.2c-0.2-0.6-0.3-1-0.5-1.4
			c0.3-1,0.3-2-1-2.4c-0.6-0.1-1.3-0.2-1.9-0.3C40.5,71,40.2,69.5,41,68.1z"/>
		<path class="st29" d="M45.9,67.3c0.4-0.2,0.9-0.4,1.3-0.5c1.2-0.3,1.5,0,1.2,1.3c-0.1-0.1-0.2-0.2-0.3-0.2
			c-0.2-0.5-0.5-0.7-0.7-0.1c0,0,0,0,0,0c-0.2,0.4-0.7,0.9-0.7,1.3c0.1,2.8,0.3,5.5,0.4,8.3c0.1,3.1,0.2,6.2,0.3,9.4
			c-0.6,0.2-1.1,0.4-1.7,0.5c0,0,0-0.1,0-0.1c-0.1-0.6-0.2-1.3-0.2-1.9c0-0.1,0-0.2,0-0.2c0.2-0.4,0.6-0.9,0.7-1.3
			c0-1-0.1-2.1-0.2-3.1c-0.1-2.4,0-4.8-0.3-7.1c-0.3-2-0.3-4-0.2-6c0.1,0,0.2,0,0.2,0C45.8,67.5,45.8,67.4,45.9,67.3z"/>
		<path class="st45" d="M45.4,67.6c-0.1,2-0.2,4,0.2,6c0.4,2.3,0.2,4.7,0.3,7.1c0,1,0.2,2.1,0.2,3.1c0,0.4-0.4,0.9-0.7,1.3
			c-0.1-0.2-0.2-0.5-0.3-0.7c0-0.9,0-1.8,0-2.7c0-0.5,0-1,0-1.5c-0.1-0.3-0.2-0.6-0.2-1c-0.1-0.4-0.2-0.8-0.2-1.2c0-1.5,0-2.9,0-4.4
			c0-0.6,0-1.3,0-1.9c0-0.4-0.3-0.7-0.5-1c0-0.2,0-0.3,0-0.5c0.9-0.4,0.4-0.9,0.2-1.5C44.6,68.2,44.1,67.1,45.4,67.6z"/>
		<path class="st36" d="M43.7,66.1c0.2,0,0.5,0.1,0.7,0.1c-0.3,0.2-0.5,0.5-0.8,0.6c-1.2,0.3-2.4,0.5-3.6,0.7
			c-0.5,0.1-1,0.2-1.5,0.2c-1.2,0-2.4,0-3.6,0c0-0.2,0-0.5-0.1-0.7c0.5-0.1,1-0.1,1.5-0.2C38.9,66.6,41.3,66.4,43.7,66.1z"/>
		<path class="st45" d="M41,68.1c-0.8,1.5-0.6,2.9,0,4.4c-0.5,0-1,0-1.4-0.1c-0.1-0.7-0.1-1.3-0.3-2c-0.1-0.8-0.4-1.5-0.6-2.3
			c0.4,0,0.8,0,1.3-0.1C40.4,68.1,40.7,68.1,41,68.1z"/>
		<path class="st41" d="M48.1,67.8c0.1,0.1,0.2,0.2,0.3,0.2c0,0.2,0,0.3,0,0.5c0,0.2,0.1,0.3,0.1,0.5c0.1,0.3,0.1,0.7,0.2,1
			c-0.1,0-0.1,0-0.2,0c-0.3,0.5-0.6,1-0.9,1.5c-0.1-1.2-0.2-2.5-0.3-3.7c0,0,0,0,0,0C47.6,67.8,47.8,67.8,48.1,67.8z"/>
		<path class="st29" d="M49.5,72c-0.1,0.6-0.2,1.1-0.2,1.7c-0.1-0.3-0.3-0.5-0.4-0.8c0-0.1,0-0.1,0-0.2c0-0.1,0-0.2,0-0.3
			c0-0.2,0-0.3-0.1-0.5c0-0.2-0.1-0.3-0.1-0.5c0-0.2,0.1-0.4,0.1-0.5C49.1,71.3,49.3,71.6,49.5,72z"/>
		<path class="st34" d="M47.4,65.3c-0.3,0.3-0.5,0.6-0.8,0.9c-0.3,0-0.6,0-0.9,0.1c-0.1-0.1-0.2-0.2-0.3-0.3
			C46,65.8,46.7,65.6,47.4,65.3z"/>
		<path class="st44" d="M44.4,68.8c0.2,0.5,0.6,1.1-0.2,1.5C43.9,69.7,43.6,69.2,44.4,68.8z"/>
		<path class="st44" d="M40.1,68.1c-0.4,0-0.8,0-1.3,0.1c-0.1,0-0.1,0-0.2,0c0-0.1,0-0.2,0-0.3c0.5-0.1,1-0.2,1.5-0.2
			C40.1,67.7,40.1,67.9,40.1,68.1z"/>
		<path class="st36" d="M45.4,66c0.1,0.1,0.2,0.2,0.3,0.3c-0.2-0.1-0.5-0.1-0.7-0.2C45.1,66.1,45.2,66.1,45.4,66z"/>
		<path class="st30" d="M48.9,71c0,0.2-0.1,0.4-0.1,0.5c-0.1-0.3-0.1-0.7-0.2-1c0.1,0,0.2,0,0.3,0C48.9,70.6,48.9,70.8,48.9,71z"/>
		<path class="st29" d="M48.6,69c0-0.2-0.1-0.3-0.1-0.5C48.5,68.7,48.5,68.9,48.6,69z"/>
		<path class="st29" d="M48.9,70.5c-0.1,0-0.2,0-0.3,0c0-0.2-0.1-0.3-0.1-0.5c0.1,0,0.1,0,0.2,0C48.8,70.2,48.8,70.3,48.9,70.5z"/>
		<path class="st45" d="M45.9,67.3c-0.1,0.1-0.2,0.2-0.2,0.2C45.8,67.5,45.8,67.4,45.9,67.3z"/>
		<path class="st32" d="M32,62.5c0.5,0,1.1,0,1.6,0c0.7,0,1.5-0.1,2.2-0.1c0.4,0,0.8,0,1.3,0c0.1,0,0.3,0,0.4,0
			c0.1,0.1,0.2,0.2,0.3,0.3c-0.2,0.1-0.4,0.3-0.6,0.4c-1.3,0.1-2.7,0.1-4,0.2c-1.7,0-3.4-0.1-5.1-0.1c-1-0.1-1.9-0.2-2.9-0.3
			c0.1-0.2,0.2-0.4,0.2-0.7c0.5,0,1,0,1.4,0c0.7,0.1,1.5,0.1,2.2,0.2c0.2,0,0.3,0,0.5,0C30.4,62.5,31.2,62.5,32,62.5z"/>
		<path class="st35" d="M28.1,63.2c1.7,0,3.4,0.1,5.1,0.1c-0.3,0.2-0.6,0.5-0.9,0.6c-0.4,0.1-0.9,0-1.3,0.1c-1,0-2.1,0-3.1,0
			C28,63.7,28,63.4,28.1,63.2z"/>
		<path class="st35" d="M37.3,63.1c0.2-0.1,0.4-0.3,0.6-0.4c0.9,0,1.8,0,2.7,0c0.6,0,1.1-0.1,1.7-0.1c-0.3,0.2-0.5,0.6-0.8,0.6
			C40.1,63.2,38.7,63.1,37.3,63.1z"/>
		<path class="st44" d="M27.9,63.9c1,0,2.1,0,3.1,0c0,0.2,0,0.4,0,0.5c-1.2,0-2.4-0.1-3.6-0.1c0-0.2,0-0.3,0-0.5
			C27.6,63.9,27.7,63.9,27.9,63.9z"/>
		<path class="st42" d="M28.2,65c4.4-0.2,8.9-0.3,13.3-0.6c2-0.1,3.9-0.8,5.9-1.2c-0.2,0.3-0.3,0.6-0.5,0.9
			c-2.2,0.4-4.4,0.9-6.6,1.3c-0.7,0-1.5,0.1-2.2,0.1c-0.3,0-0.6,0.1-1,0.1c-0.3,0-0.7,0.1-1,0.1c-0.4,0.1-0.8,0.1-1.2,0.2
			c-1.3,0-2.6,0-3.9,0c-0.6,0-1.1-0.1-1.7-0.1c-0.3-0.1-0.6-0.2-0.9-0.3c-0.1,0-0.2,0-0.4,0C28.1,65.3,28.1,65.1,28.2,65z"/>
		<path class="st40" d="M35,65.9c0.4-0.1,0.8-0.1,1.2-0.2c0.3,0,0.7-0.1,1-0.1c0.3,0,0.6-0.1,1-0.1c0.4,0,0.8,0.1,1.2,0.1
			c0.8,1,1.8,0.4,2.8,0.3c0.5,0,1.1,0.1,1.6,0.2c-2.4,0.2-4.9,0.5-7.3,0.7c-0.5,0.1-1,0.1-1.5,0.2c0,0,0-0.1,0-0.1
			C34.9,66.6,34.9,66.2,35,65.9z"/>
		<path class="st29" d="M39.3,65.6c-0.4,0-0.8-0.1-1.2-0.1c0.7,0,1.5-0.1,2.2-0.1C40,65.5,39.7,65.5,39.3,65.6z"/>
		<path class="st30" d="M40.6,62.7c-0.9,0-1.8,0-2.7,0c-0.1-0.1-0.2-0.2-0.3-0.3c0.8-0.1,1.7-0.3,2.5-0.4
			C40.3,62.2,40.4,62.4,40.6,62.7z"/>
		<path class="st45" d="M35.9,62.4c-0.7,0-1.5,0.1-2.2,0.1c-0.1-0.2-0.1-0.4-0.2-0.5c0.7-0.3,1.3-0.7,2-1
			C35.6,61.5,35.8,61.9,35.9,62.4z"/>
		<path class="st45" d="M34.9,59.3c0.2,0,0.5,0,0.7,0.1c-0.1,0.5-0.1,0.9-0.2,1.4c-0.9,0-1.7,0.1-1.5-1.2c0.1,0,0.2,0,0.2,0
			C34.5,59.4,34.7,59.4,34.9,59.3z"/>
		<path class="st29" d="M34,59.5c-0.2,1.3,0.6,1.3,1.5,1.2c0,0.1,0,0.1,0,0.2c-0.7,0.3-1.3,0.7-2,1c0-0.5-0.1-1-0.1-1.5
			c-0.1-0.3-0.2-0.6-0.3-0.9C33.2,59.5,33.6,59.5,34,59.5z"/>
		<path class="st37" d="M43,87.9c0-0.1,0-0.1,0-0.2c0.6-0.1,1.1-0.2,1.7-0.3c0.3-0.1,0.7-0.2,1-0.2c0,0,0,0.1,0,0.1
			c1.6,0.6,3,0.2,3.9-1l0,0c0.1-0.1,0.2-0.2,0.2-0.3c0-0.1,0-0.2,0-0.3c0.2,0,0.3,0,0.5,0c0.3,0.3,0.7,0.5,1,0.8
			c-0.8,0.4-1.6,0.8-2.5,1.2c-0.7,0.2-1.3,0.3-2,0.5c-0.3,0.1-0.7,0.1-1,0.2C45,87.3,44,88.2,43,88.3C43,88.1,43,88,43,87.9z"/>
		<path class="st41" d="M46.9,88.3c0.7-0.2,1.3-0.4,2-0.5c0.2,0.3,0.5,0.6,0.7,1c-0.9-0.7-1.4,0.6-2.2,0.5
			C46.5,89.3,46.8,88.8,46.9,88.3z"/>
		<path class="st30" d="M49.8,85.8c0,0.1,0,0.2,0,0.3c-0.1,0.1-0.2,0.2-0.2,0.3c0,0,0,0,0,0c-0.7,0.2-1.5,0.3-2.2,0.5
			c-0.1-3.1-0.2-6.2-0.3-9.4c-0.1-2.8-0.3-5.5-0.4-8.3c0-0.4,0.4-0.9,0.7-1.3c0.1,1.2,0.2,2.5,0.3,3.7c0.2,2,0.3,4.1,0.5,6.1
			c0.2,1.8,0.5,3.6,0.7,5.5c0.4-0.1,0.6-0.1,0.9-0.2c0,0.8,0.1,1.6,0.1,2.4C49.9,85.5,49.8,85.7,49.8,85.8z"/>
		<path class="st32" d="M48.1,77.6c-0.2-2-0.3-4.1-0.5-6.1c0.3-0.5,0.6-1,0.9-1.5c0,0.2,0.1,0.3,0.1,0.5c0.1,0.3,0.1,0.7,0.2,1
			c0,0.2,0.1,0.3,0.1,0.5c0,0.2,0,0.3,0.1,0.5c0,0.1,0,0.2,0,0.3c0,0-0.1,0.1-0.1,0.1c0.1,0,0.1,0,0.2,0.1c0.1,0.3,0.3,0.5,0.4,0.8
			c0,0.2,0.1,0.5,0.1,0.7c0,0.3-0.1,0.5-0.1,0.8c-0.2,0.9-0.6,1.9,0.2,2.7c-0.1,0.2-0.2,0.5-0.3,0.7C48.9,78.2,48.5,77.9,48.1,77.6z
			"/>
		<path class="st41" d="M48.1,77.6c0.4,0.3,0.8,0.6,1.2,1c0.2,0.1,0.3,0.2,0.5,0.3c0,0.4,0,0.8,0,1.2c-0.7,0.3-0.7,0.7,0,1
			c0,0.6,0,1.3,0,1.9c-0.3,0-0.5,0.1-0.9,0.2C48.6,81.2,48.4,79.4,48.1,77.6z"/>
		<path class="st30" d="M49.5,77.8c-0.9-0.8-0.4-1.8-0.2-2.7c0.1,0,0.2,0,0.2,0c0,0.3,0.1,0.6,0.1,0.9c0,0.5,0,1,0,1.4
			C49.6,77.6,49.6,77.7,49.5,77.8z"/>
		<path class="st29" d="M49.6,77.5c0-0.5,0-1,0-1.4c0.1,0.5,0.1,1,0.2,1.5C49.8,77.6,49.7,77.5,49.6,77.5z"/>
		<path class="st37" d="M49.8,81c-0.7-0.3-0.7-0.7,0-1C49.8,80.3,49.8,80.6,49.8,81z"/>
		<path class="st37" d="M49.6,77.5c0.1,0,0.2,0,0.2,0c0,0.4,0,0.8-0.1,1.2c-0.2-0.1-0.3-0.2-0.5-0.3c0.1-0.2,0.2-0.5,0.3-0.7
			C49.6,77.7,49.6,77.6,49.6,77.5z"/>
		<path class="st29" d="M49.6,75.1c-0.1,0-0.2,0-0.2,0c0-0.3,0.1-0.5,0.1-0.8C49.4,74.6,49.5,74.9,49.6,75.1z"/>
		<path class="st29" d="M49.8,85.8c0-0.2,0-0.3,0-0.5c0.1,0.1,0.3,0.2,0.4,0.3c0,0.1,0,0.1,0,0.2C50.1,85.8,50,85.8,49.8,85.8z"/>
		<path class="st33" d="M48.6,90.7c0.2-0.1,0.5-0.2,0.7-0.3C49.1,90.6,48.8,90.6,48.6,90.7z"/>
		<path class="st32" d="M46.9,88.3c-0.1,0.4-0.4,1,0.5,0.9c-0.1,0.6-0.2,1.1-0.3,1.7c-0.1,0.1-0.3,0.2-0.4,0.2c-0.3,0-0.7,0-1,0
			c-0.4-0.8-1.5-1.2-1.2-2.4c0.5-0.1,1-0.2,1.4-0.4C46.2,88.4,46.5,88.4,46.9,88.3z"/>
		<path class="st35" d="M12.5,65.3c0.2-0.4,0.4-0.8,0.5-1.2c0.3,0.3,0.6,0.5,0.9,0.8c-0.2,0.3-0.5,0.7-0.7,1c0,0.2,0,0.5,0,0.7
			c-0.1,0.3-0.1,0.6-0.2,1c-0.1,0.4-0.2,0.9-0.3,1.3c-0.3,1.8-0.6,3.5-1,5.3c-0.1,0-0.1,0-0.2,0c0.1-1.3,0.1-2.6,0.2-3.9
			c0.3-1.5,0.6-3.1,0.9-4.6C12.7,65.6,12.6,65.4,12.5,65.3z"/>
		<path class="st31" d="M12.5,65.3c0.1,0.1,0.2,0.2,0.2,0.3c-0.3,1.5-0.6,3.1-0.9,4.6c-0.5,0-1,0-1.4,0c0.2-1.3,0.3-2.6,0.5-3.9
			c0-0.5,0.2-0.8,0.7-0.4c0.2-0.1,0.3-0.2,0.5-0.3C12.2,65.5,12.4,65.4,12.5,65.3z M11.5,69.5c-0.1,0-0.2-0.1-0.3-0.1
			c0,0-0.1,0.1-0.1,0.2c0,0.1,0.1,0.1,0.2,0.2C11.3,69.7,11.4,69.6,11.5,69.5z"/>
		<path class="st34" d="M11.6,74.1c0.1,0,0.1,0,0.2,0c-0.1,2.8-0.3,5.5-0.4,8.3c-0.2-0.1-0.4-0.2-0.5-0.3c0-1.4,0-2.7,0-4.1
			c0.2-1.1,0.3-2.2,0.5-3.3C11.4,74.6,11.5,74.4,11.6,74.1z"/>
		<path class="st40" d="M14,64.9c-0.3-0.3-0.6-0.5-0.9-0.8c0.2-0.5,0.3-0.9,0.5-1.4c0.3,0.2,0.6,0.5,0.9,0.7c1.2,0.5,2.4,1,3.6,1.4
			c0.8,0.2,1.7,0.3,2.5,0.4c0.4,0.1,0.8,0.2,1.2,0.4c0.4,0,0.9,0,1.3,0c0,0,0,0,0,0c0.3,0,0.6-0.1,0.8-0.1c0.4,0.1,0.9,0.1,1.3,0.2
			c1.1,0,2.2,0.1,3.3,0.1c0.2,0,0.5,0,0.7,0c0.6,0,1.1,0.1,1.7,0.1c0.3,0.2,0.7,0.5,1,0.6c0.8,0.2,1.6,0.2,2.4,0.3
			c-0.2,0.1-0.4,0.1-0.5,0.2c-0.2,0-0.4,0-0.6,0c-3.5-0.1-7-0.2-10.5-0.4c-1.6-0.1-3.1-0.3-4.7-0.5c-0.9-0.2-1.8-0.4-2.8-0.6
			c-0.2-0.1-0.4-0.2-0.6-0.3C14.5,65.1,14.2,65,14,64.9z"/>
		<path class="st35" d="M12,65.6c-0.2,0.1-0.3,0.2-0.5,0.3C11.7,65.8,11.9,65.7,12,65.6z"/>
		<path class="st44" d="M24,65.5c-0.3,0-0.6,0.1-0.8,0.1c0,0,0,0,0,0c-0.4,0-0.9,0-1.3,0c-0.4-0.1-0.8-0.2-1.2-0.4
			c-0.9-0.1-1.7-0.1-2.5-0.4c-1.2-0.4-2.4-0.9-3.6-1.4c0.5-0.1,0.9-0.2,1.4-0.1c3.6,0.8,7.3,1.6,11.1,1.6c0,0.1,0,0.3,0,0.4
			c-0.5,0-1,0-1.5,0C24.9,65.4,24.4,65.4,24,65.5z"/>
		<path class="st42" d="M16.9,62.2c0.6,0.1,1.1,0.2,1.7,0.3c0.7,0.2,1.3,0.3,2,0.5c0.5,0,1,0,1.5,0c0.3,0,0.6,0,0.9,0.1
			c0.4,0.2,0.8,0.4,1.2,0.6c0.3,0.2,0.6,0.4,0.9,0.6c-2.7-0.4-5.4-0.7-8-1.1c-0.5-0.1-0.9-0.4-1.3-0.6
			C16.1,62.4,16.5,62.3,16.9,62.2z"/>
		<path class="st29" d="M25,64.2c-0.3-0.2-0.6-0.4-0.9-0.6c-0.4-0.2-0.8-0.4-1.2-0.6c0.7,0,1.5,0,2.2-0.1c1,0.1,1.9,0.2,2.9,0.3
			c-0.1,0.2-0.2,0.5-0.2,0.7c-0.2,0-0.3,0-0.5,0c-0.7,0.3-1.5-0.6-2,0.3C25.2,64.2,25.1,64.2,25,64.2z"/>
		<path class="st42" d="M25.4,64.2c0.6-0.9,1.4,0,2-0.3c0,0.2,0,0.3,0,0.5C26.7,64.3,26,64.3,25.4,64.2z"/>
		<path class="st29" d="M26.9,65.3c0-0.1,0-0.3,0-0.4c0.4,0,0.8,0,1.3,0c0,0.2,0,0.3,0,0.5C27.7,65.4,27.3,65.4,26.9,65.3z"/>
		<path class="st44" d="M16.9,62.2c-0.4,0.1-0.8,0.2-1.3,0.3c-0.1,0-0.1,0-0.2-0.1C15.8,61.5,16.2,61.5,16.9,62.2z"/>
		<path class="st44" d="M20.6,62.9c-0.7-0.2-1.3-0.3-2-0.5c0.2-0.2,0.5-0.3,0.7-0.5c0.4,0.1,0.8,0.2,1.2,0.3
			C20.6,62.5,20.6,62.7,20.6,62.9z"/>
		<path class="st34" d="M21.8,60.3c0.5-0.3,0.9-0.7,1.4-0.9c0.1,0,0.4,0.5,0.8,1.1c-0.8,0-1.3,0.1-1.7,0.1
			C22.1,60.4,21.9,60.4,21.8,60.3z"/>
		<path class="st37" d="M25.2,62.9c-0.7,0-1.5,0-2.2,0.1c-0.3,0-0.6,0-0.9-0.1c-0.2-0.2-0.5-0.4-0.7-0.5c0.3-0.2,0.6-0.4,0.9-0.6
			c0.7,0.1,1.3,0.1,2,0.2c0.4,0.1,0.8,0.2,1.2,0.3C25.4,62.5,25.3,62.7,25.2,62.9z"/>
		<path class="st36" d="M21.3,62.4c0.2,0.2,0.5,0.4,0.7,0.5c-0.5,0-1,0-1.5,0c0-0.2,0-0.4,0-0.6C20.8,62.3,21.1,62.3,21.3,62.4z"/>
		<path class="st45" d="M25.5,62.2c-0.4-0.1-0.8-0.2-1.2-0.3c0-0.7-0.1-1.4,0.1-2.1c0.1-0.3,0.6-0.4,1-0.6c0.5,0,0.9,0,1.4,0.1
			c0.1,0.5,0.2,1,0.3,1.4c0,0,0,0,0,0c0,0-0.1,0.1-0.1,0.1c0,0.1,0.1,0.1,0.1,0.2c0,0.4,0,0.9,0,1.3C26.4,62.3,26,62.3,25.5,62.2z"
			/>
		<path class="st44" d="M46.6,95.8c-0.3,0.4-0.6,0.8-0.9,1.2c-0.2-0.2-0.4-0.4-0.4-0.7c0-0.9,0-1.9,0-3c-0.8,0.2-1.3,0.5-1.8,0.5
			c-0.4,0-0.8-0.2-1.1-0.2c0.5-0.4,1-0.8,1.5-1.2c0.7-0.1,1.4-0.3,2.2-0.4c0,0.1,0,0.1,0,0.2c0,0.2,0,0.5,0,0.7
			c0.2,0.5,0.3,1,0.5,1.5C46.5,94.9,46.6,95.3,46.6,95.8z"/>
		<path class="st44" d="M40.5,102.4c-0.2-0.4-0.5-0.8-0.7-1.2c0-0.2,0-0.3,0-0.5c0.2-0.6,0.3-1.1,0.5-1.7c0-0.2,0-0.3,0-0.5
			c0.2-1.2,0.5-2.4,0.7-3.7c0-0.2,0-0.3,0-0.5c0.2-0.2,0.3-0.5,0.5-0.7c0.2,0,0.3,0,0.5,0c-0.2,0.6-0.4,1.2-0.5,1.8
			c-0.1,1.2-0.2,2.4-0.3,3.5c0,0.6,0.1,1.2-0.7,1.6C40.4,100.7,40.5,101.8,40.5,102.4z"/>
		<path class="st36" d="M42,93.7c-0.2,0-0.3,0-0.5,0c-0.2,0.2-0.3,0.5-0.5,0.7c0,0.2,0,0.3,0,0.5c-0.8,0.2-1.3,0.6-1.2,1.5
			c-0.6-0.8-0.4-1.6,0-2.4c0.2-0.4,0.5-0.9,0.7-1.3c0.1,0,0.1,0,0.2-0.1c0.2,0,0.4,0,0.5,0.1c0.1,0.1,0.2,0.2,0.2,0.4
			c0.2-0.2,0.3-0.4,0.5-0.6c0.6,0,1.1,0,1.7,0c-0.5,0.4-1,0.8-1.5,1.2c0,0-0.1,0-0.1,0L42,93.7z"/>
		<path class="st39" d="M44.4,88.8c-0.3,1.2,0.8,1.6,1.2,2.4c-1.3,0.3-2.6,0.5-3.9,0.8c-0.1,0-0.2,0-0.2,0c0-0.2,0-0.3,0-0.5
			c0.2-0.1,0.4-0.2,0.4-0.3c0.3-0.7,0.1-2,1.6-1.5c0.1-0.2,0.1-0.4,0.2-0.6C44,89,44.2,88.9,44.4,88.8z"/>
		<path class="st36" d="M46.4,94.4c-0.2-0.5-0.3-1-0.5-1.5C46.1,93.4,46.3,93.9,46.4,94.4z"/>
		<path class="st33" d="M41.5,91.9c0.1,0,0.2,0,0.2,0c0,0.1,0,0.1,0,0.2c-0.2,0.2-0.3,0.3-0.5,0.5c-0.2,0-0.4,0-0.5-0.1
			C41,92.4,41.3,92.1,41.5,91.9z"/>
		<path class="st29" d="M41.3,92.7c0.2-0.2,0.3-0.3,0.5-0.5c0.1,0.1,0.2,0.2,0.2,0.2c-0.2,0.2-0.3,0.4-0.5,0.6
			C41.4,92.9,41.4,92.8,41.3,92.7z"/>
		<path class="st29" d="M48.6,104.1c0,0.1,0.1,0.1,0.1,0.2c0,0-0.1,0-0.1,0.1C48.6,104.3,48.6,104.2,48.6,104.1z"/>
		<path class="st36" d="M45.9,92.2c0-0.1,0-0.1,0-0.2C45.9,92,46,92.1,45.9,92.2C46,92.1,45.9,92.2,45.9,92.2z"/>
		<path class="st29" d="M40.6,92.7c-0.2,0.4-0.5,0.9-0.7,1.3c-0.4,0.8-0.6,1.6,0,2.4c0,0.2,0,0.3,0,0.5c-1.5,0.2-1.7,0.7-0.7,2.4
			c0,0.1,0,0.2,0,0.2c-0.2,0.3-0.6,0.5-0.7,0.8c-0.1,0.7-0.3,1.2-1.1,1.1c-0.1-1.3-0.1-2.6-0.2-3.8c-0.1-0.8-0.4-1.6-0.7-2.4
			c0-0.5,0-1,0-1.5c0.6,0.2,1.2,0.3,1.9,0.5c0.4-0.3,1-0.8,1.5-1.2c0.1-0.1,0.2-0.2,0.3-0.3C40.3,92.6,40.4,92.6,40.6,92.7z"/>
		<path class="st29" d="M36.6,104.3c0.2-0.8,0.4-1.6,0.7-2.4c0.8-0.2,1.2,0.1,1.1,1c0,0.4,0,0.8,0,1.2c0,0.3-0.2,0.6-0.4,0.8
			c-0.3-0.1-0.5-0.3-0.8-0.4C37,104.5,36.8,104.4,36.6,104.3z"/>
		<path class="st45" d="M39.1,99.5c0-0.1,0-0.2,0-0.2c0.4-0.1,0.8-0.2,1.2-0.2c-0.2,0.6-0.3,1.1-0.5,1.7
			C39.6,100.3,39.3,99.9,39.1,99.5z"/>
		<path class="st40" d="M35.4,94.9c-0.3,0.2-0.6,0.7-1,0.7c-1,0.1-1.9,0.1-2.9,0.2c0.5,0.7,1,1.3,1.4,1.8c-1.3,0.1-2.6-0.3-3.7,0.7
			c-1.4,0.7-2,1.9-1.9,3.4c0.1,0.9,0.1,1.8-0.8,2.3c-0.1-0.1-0.2-0.3-0.4-0.4c0-2.2-0.1-4.5-0.1-6.7c0.4-1.3,1-2.3,2.5-2.4
			c0.7,0,1.5-0.1,2.2-0.1c0.7,0,1.3,0,2,0c0.8,0.1,1.6,0.2,2.4,0.3C35.3,94.7,35.4,94.8,35.4,94.9z"/>
		<path class="st40" d="M33.5,102.8c-0.2-0.2-0.3-0.4-0.5-0.6c-0.2-0.2-0.3-0.5-0.5-0.7c-0.2-0.3-0.5-0.5-0.7-0.8
			c-0.3,0-0.5-0.1-0.8-0.1c-0.2,0-0.5,0.1-0.7,0.1c-0.2,0-0.4,0.1-0.6,0.1c-0.6,0.1-1.2,0.3-1.8,0.4c0.6-0.9,1.1-1.8,1.7-2.7
			c1-0.1,1.9-0.2,2.9-0.3c0.2,0,0.4-0.2,0.7-0.4c0,0,0.1,0.1,0.1,0.1c0.6,0.6,1.3,1.2,1.9,1.8c0.1,0.2,0.2,0.3,0.3,0.5c0,0,0,0,0,0
			c-0.2,1.2-0.4,2.4-0.6,3.7c0,0-0.1,0.1-0.1,0.1c-0.1,0.2-0.2,0.4-0.2,0.6c0,0,0,0,0,0c-0.2,0-0.3,0-0.5,0
			c-0.1-0.1-0.2-0.2-0.3-0.3C33.6,103.8,33.6,103.3,33.5,102.8z"/>
		<path class="st30" d="M33.1,97.8c-0.2,0.1-0.4,0.3-0.7,0.4c-1,0.1-1.9,0.2-2.9,0.3c-0.1-0.1-0.2-0.2-0.3-0.2
			c1.1-1,2.4-0.7,3.7-0.7C33,97.6,33.1,97.7,33.1,97.8z"/>
		<path class="st36" d="M35.4,94.9c-0.1-0.1-0.2-0.2-0.2-0.2c0.1-0.5,0.2-1,0.3-1.4c0.2,0,0.5,0,0.7,0c0.1,0.2,0.2,0.3,0.2,0.5
			c0,0.5,0,1,0,1.5C36.1,95.1,35.8,95,35.4,94.9z"/>
		<path class="st30" d="M34.8,103.9c0.2-1.2,0.4-2.4,0.6-3.7C36.4,101.4,36.1,103.3,34.8,103.9z"/>
		<path class="st31" d="M35.1,99.8c-0.6-0.6-1.3-1.2-1.9-1.8c0.7,0.6,1.5,1.2,2.2,1.8C35.3,99.7,35.2,99.7,35.1,99.8z"/>
		<path class="st30" d="M34.5,104.6c0.1-0.2,0.2-0.4,0.2-0.6C34.6,104.2,34.5,104.4,34.5,104.6z"/>
		<path class="st30" d="M35.1,99.8c0.1,0,0.2,0,0.3,0c0,0.2,0,0.3,0,0.5C35.3,100.1,35.2,99.9,35.1,99.8z"/>
		<path class="st30" d="M34,104.6c0.2,0,0.3,0,0.5,0c-0.1,0.1-0.2,0.2-0.2,0.3C34.1,104.8,34.1,104.7,34,104.6z"/>
		<path class="st33" d="M33.5,102.8c0.1,0.5,0.1,1,0.2,1.5c-0.2,0.4-0.4,0.8-0.7,1.2c-0.2,0.4-0.5,0.7-0.7,1
			C32.7,105.3,33.1,104.1,33.5,102.8z"/>
		<path class="st45" d="M32,62.5c-0.8,0-1.6,0-2.4-0.1c-0.1-0.9,0.2-1.3,1.2-1.2c0.4,0.1,0.9,0,1.3,0C32,61.7,32,62.1,32,62.5z"/>
		<path class="st45" d="M29.6,59.5c0.4,0,0.9,0,1.3,0c1-0.1,1.3,0.4,1.1,1.3c-0.7,0-1.5,0-2.2,0c-0.1,0-0.1,0-0.2,0
			C29.6,60.3,29.6,59.9,29.6,59.5z"/>
		<path class="st29" d="M29.6,59.5c0,0.4,0,0.8,0,1.2c-0.1-0.1-0.3-0.1-0.4-0.2c-0.5-1.2-1-1-1.7-0.2c-0.1,0.2-0.4,0.3-0.6,0.4
			c-0.1-0.5-0.2-1-0.3-1.4c0.7,0,1.3,0,2,0C28.9,59.4,29.3,59.5,29.6,59.5z"/>
		<path class="st29" d="M29.8,60.8c0.7,0,1.5,0,2.2,0c0,0.2,0,0.3,0,0.5c-0.4,0-0.9,0.1-1.3,0c-1-0.1-1.3,0.3-1.2,1.2
			c-0.2,0-0.3,0-0.5,0C29.1,61.8,29,61.1,29.8,60.8z"/>
		<path class="st34" d="M34.9,59.3c-0.2,0.1-0.5,0.1-0.7,0.2c0-0.1,0-0.3,0-0.4c0.3,0,0.5,0,0.8,0C35,59.1,34.9,59.2,34.9,59.3z"/>
		<path class="st34" d="M36.8,57.6c0.1,0.4,0.2,0.8,0.3,1.2C37,58.4,36.9,58,36.8,57.6z"/>
		<path class="st29" d="M48.6,103.6c0.1-0.6,0.2-1.1,0.4-1.7C49.3,102.6,49.3,103.2,48.6,103.6z"/>
		<path class="st42" d="M23.3,97.8c-1.6,0-1.8,0.4-1.9,3c-1.2,0.5-2.2,0-2.5-1.2c-0.2-0.6-0.5-1.1-0.7-1.7c-0.3-1-0.5-2.1-0.6-3.1
			c0-0.3,0.6-0.9,0.8-0.8c0.8,0.2,1.7,0.6,2.5,0.9c0.6,0.2,1.3,0.5,1.9,0.7c0,0,0,0,0,0c0.2,0.2,0.3,0.3,0.5,0.5
			c0.1,0.3,0.2,0.6,0.3,1c0,0.2,0,0.3,0,0.5C23.4,97.6,23.3,97.7,23.3,97.8z"/>
		<path class="st34" d="M26.1,96.8c0,2.2,0.1,4.5,0.1,6.7c0.1,0.2,0.1,0.4,0.2,0.6c0,0.5,0,1,0,1.5c-0.1,0-0.3,0-0.4,0
			c-0.2,0-0.5,0-0.7,0c0-0.1,0-0.2,0-0.2c-0.1-0.8-0.2-1.5-0.2-2.3c-0.2-2.9-0.3-5.8-0.6-8.7c-0.1-0.5-0.9-1-1.3-1.5
			c0-0.2,0-0.5,0-0.7c1.1,0.1,2.1,0.1,3.2,0.2c0.3,0,0.6,0,1,0.1c-0.9,0.1-1.7,0.2-2.4,0.3c0.2,0.5,0.5,1,0.6,1.6
			C25.7,95.2,25.9,96,26.1,96.8z"/>
		<path class="st29" d="M23,92.9c0.5,0.5,1.3,0.9,1.3,1.5c0.3,2.9,0.4,5.8,0.6,8.7c0.1,0.8,0.2,1.5,0.2,2.3
			c-0.2-0.1-0.6-0.2-0.6-0.4c-0.2-2.2-0.3-4.4-0.5-6.6c0-0.3-0.4-0.5-0.5-0.8c0-0.2,0-0.3,0-0.5c0.2-0.3,0.8-0.7,0-1
			c0-0.2,0-0.3,0-0.5c0-1.4-0.9-2.2-2.2-1.9c-0.1-0.1-0.2-0.2-0.2-0.3c0-0.2,0-0.5,0-0.7C21.7,92.8,22.4,92.8,23,92.9z"/>
		<path class="st29" d="M25.2,105.6c0.2,0,0.5,0,0.7,0c-0.2,0.3-0.5,0.6-0.7,1C24.2,106.3,25,105.9,25.2,105.6z"/>
		<path class="st29" d="M30.3,100.6c0.2,0,0.5-0.1,0.7-0.1c0,0.1,0,0.1,0.1,0.2c-0.3,1.1-0.6,2.2-1,3.4c-0.2,0-0.5,0-0.7,0
			C29.7,103,30,101.8,30.3,100.6z"/>
		<path class="st37" d="M32.5,101.4c0.2,0.2,0.3,0.5,0.5,0.7c-0.3,0.6-0.5,1.2-0.8,1.8c-0.3,0.6-0.7,1.1-1.1,1.7c0.4-1,0.7-2,1.1-3
			C32.3,102.2,32.4,101.8,32.5,101.4z"/>
		<path class="st41" d="M31,100.8c0-0.1,0-0.2-0.1-0.2c0.3,0,0.5,0.1,0.8,0.1C31.5,100.7,31.3,100.7,31,100.8z"/>
		<path class="st41" d="M26.4,105.6c0-0.5,0-1,0-1.5c0.1-0.1,0.1-0.1,0.2-0.2c1-0.5,1-1.4,0.8-2.3c0.1-0.2,0.3-0.3,0.4-0.5
			c0.6-0.1,1.2-0.3,1.8-0.4c-0.5,1.4-0.9,2.9-1.4,4.3C27.6,105.3,27,105.4,26.4,105.6z"/>
		<path class="st45" d="M28.2,105.1c0.5-1.4,0.9-2.9,1.4-4.3c0.2,0,0.4-0.1,0.6-0.1c-0.3,1.2-0.6,2.3-1,3.5
			c-0.2,0.3-0.3,0.6-0.5,0.9C28.6,105.1,28.4,105.1,28.2,105.1z"/>
		<path class="st45" d="M17.2,106.6c-0.2-0.8-0.4-1.5-0.5-2.3c-0.2-1.3-0.4-2.6-0.5-3.9c-0.1-0.8-0.2-1.5-0.2-2.3
			c0-0.4,0.3-0.8,0.4-1.2c0.3,0.4,0.9,0.8,0.9,1.2c0.2,1.5,0.2,2.9,0.3,4.4c0,0.4,0.1,0.7,0.2,1.1C18.2,104.6,18.4,105.6,17.2,106.6
			z"/>
		<path class="st29" d="M15.2,101.7c-0.2-0.4-0.3-0.8-0.5-1.2c0-0.4,0-0.8,0-1.2c-0.2-0.6,0.5-1.5-0.6-1.7c0-0.1-0.1-0.1-0.1-0.2
			c0-1.7,0.1-3.4,0.1-5.1c0.3-0.3,0.6-0.5,0.9-0.8c1.6,0.3,3.2,0.6,4.9,1c-0.2,0.2-0.3,0.3-0.5,0.5c-0.4-0.1-0.8-0.2-1.2-0.2
			c-0.7,0.2-1.5,0.3-2.2,0.5c-0.2-0.2-0.3-0.5-0.5-0.7C15.3,92.7,15,93,15,93.3c0.1,2.5,0.2,5,0.4,7.5
			C15.4,101.1,15.3,101.4,15.2,101.7z"/>
		<path class="st45" d="M21.3,93.7c1.3-0.3,2.2,0.5,2.2,1.9c-0.2,0-0.5,0-0.7,0c0,0,0,0,0,0c-0.2-0.3-0.4-0.6-0.6-0.9
			C21.9,94.3,21.6,94,21.3,93.7z"/>
		<path class="st45" d="M15.9,93.2c0.7-0.2,1.5-0.3,2.2-0.5c-0.3,0.3-0.6,0.7-0.9,1c-0.3,0.2-0.6,0.3-0.9,0.4
			C16.2,93.8,16.1,93.5,15.9,93.2z"/>
		<path class="st45" d="M19.4,92.9c0.2-0.2,0.3-0.3,0.5-0.5c0.4,0.1,0.8,0.2,1.2,0.3c0,0.2,0,0.5,0,0.7
			C20.5,93.2,19.9,93.1,19.4,92.9z"/>
		<path class="st31" d="M13,105.8c0-0.1,0-0.2,0.1-0.2c0.2-0.3,0.5-0.5,0.6-0.8c0.2-0.5,0.4-1.1,0.6-1.6c0.1,0.2,0.2,0.5,0.3,0.7
			c0,0.3,0,0.6,0,1c-0.1,0.6-0.3,1.3-0.5,2.3C13.5,106.4,13.2,106.1,13,105.8z"/>
		<path class="st33" d="M14.7,99.3c0,0.4,0,0.8,0,1.2c-0.1,0.2-0.2,0.3-0.3,0.5c-0.2-0.2-0.3-0.3-0.5-0.5c0-0.2,0-0.3,0-0.5
			c0-0.2,0-0.5,0-0.7c0,0,0.1,0,0.1,0C14.2,99.3,14.5,99.3,14.7,99.3z"/>
		<path class="st31" d="M14,100.5c0.2,0.2,0.3,0.3,0.5,0.5c0,0.4,0,0.8,0,1.2c-0.1,0-0.2,0-0.3,0C13.3,101.7,14,101,14,100.5z"/>
		<path class="st41" d="M14,100.5c0,0.6-0.7,1.2,0.2,1.7c0,0.3,0,0.7,0,1c-0.2,0.5-0.3,1.1-0.6,1.6c-0.1,0.3-0.4,0.6-0.6,0.8
			c-0.5-4.2-1-8.4-1.4-12.6c0-0.4,0-0.9,0-1.3c0.3-0.2,0.6-0.4,0.9-0.6c0.3-0.2,0.7-0.4,1-0.6c0,1.9,0,3.8,0,5.7
			c0,0.4,0.3,0.7,0.5,1.1c0,0.1,0.1,0.1,0.1,0.2c0,0.1-0.1,0.2-0.1,0.3c-0.1,0.1-0.3,0.3-0.4,0.4c0.1,0.1,0.3,0.2,0.4,0.3
			c0,0.2,0,0.5,0,0.7c0,0-0.1,0-0.1,0c-0.2,0.1-0.4,0.3-0.6,0.4c0.2,0.1,0.4,0.2,0.7,0.4C14,100.1,14,100.3,14,100.5z"/>
		<path class="st32" d="M11.4,82.4c0.1-2.8,0.3-5.5,0.4-8.3c0.3-1.8,0.6-3.5,1-5.3c0.1-0.4,0.2-0.9,0.3-1.3c0.5-0.1,1-0.2,1.4-0.3
			l0,0c0.1,0.5,0.1,1,0.2,1.5c0,0.2,0,0.5,0,0.7c-0.7,0.8-0.9,1.7-0.5,2.7c0,0.2,0,0.3,0,0.5c-0.2,0.1-0.6,0.2-0.6,0.4
			c-0.2,1.7-0.2,3.5-0.4,5.2c0,0.4,0.1,0.9-0.1,1.2c-0.8,1.1-0.8,2.4-0.9,3.7c0,0.3-0.4,0.5-0.7,0.7C11.5,83.4,11.4,82.9,11.4,82.4z
			"/>
		<path class="st41" d="M11.6,83.9c0.2-0.2,0.7-0.5,0.7-0.7c0.1-1.3,0-2.6,0.9-3.7c0.2-0.3,0.1-0.8,0.1-1.2c0.1-1.7,0.2-3.5,0.4-5.2
			c0-0.2,0.4-0.3,0.6-0.4c-0.1,1.4-0.1,2.7-0.2,4.1c-0.2,2.6-0.4,5.2-0.7,7.8c-0.1,0.6-0.2,1.2,0.6,1.5c-0.6,0.2-1.3,0.5-1.9,0.7
			c-0.4-0.3-0.8-0.6-1.2-0.9c0.1-0.4,0.1-0.8,0.2-1.3C11.2,84.4,11.4,84.1,11.6,83.9z"/>
		<path class="st39" d="M10.8,85.9c0.4,0.3,0.8,0.6,1.2,0.9c0.1,0.1,0.2,0.2,0.3,0.3c0,0.6,0.1,1.3,0,1.9c0,0.2-0.3,0.4-0.5,0.5
			c-0.4-0.1-0.7-0.3-1.1-0.4c-0.1-0.2-0.3-0.4-0.4-0.6c-0.3-0.6-0.7-1.3-0.9-1.9c-0.1-0.5,0.1-1.1,0.2-1.7
			C10,85.2,10.4,85.6,10.8,85.9z"/>
		<path class="st34" d="M10.8,85.9c-0.4-0.3-0.8-0.7-1.2-1c0.3-0.9,0.8-0.7,1.4-0.2C10.9,85,10.9,85.5,10.8,85.9z"/>
		<path class="st41" d="M10.8,89.1c0.4,0.1,0.7,0.3,1.1,0.4c-0.2,0-0.3,0-0.5,0c-0.2,0-0.3-0.1-0.5-0.1
			C10.8,89.3,10.8,89.2,10.8,89.1z"/>
		<path class="st32" d="M11.3,89.5c0.2,0,0.3,0,0.5,0c0.2-0.2,0.5-0.3,0.5-0.5c0.1-0.6,0-1.2,0-1.9c0.4,0.1,0.8,0.2,1.2,0.3
			c0.4,0.2,0.9,0.4,1.3,0.6c-0.1,0.5-0.3,1.1-0.1,1.4c0.5,0.7-0.2,0.7-0.4,1c-0.2,0.1-0.5,0.2-0.7,0.2c-0.3,0.2-0.7,0.4-1,0.6
			c-0.3,0.2-0.6,0.4-0.9,0.6c0-0.4,0-0.8-0.1-1.2c0-0.2-0.1-0.3-0.1-0.5C11.4,89.8,11.4,89.7,11.3,89.5z"/>
		<path class="st41" d="M11.4,90c0,0.2,0.1,0.3,0.1,0.5C11.5,90.3,11.5,90.1,11.4,90z"/>
		<path class="st40" d="M43,72.8c1.3,0.4,1.3,1.3,1,2.4c-0.3,0.3-0.7,0.5-1,0.8c-0.9,0.1-1.8,0.1-2.7,0.2c-1.1,0.1-2.1,0.1-3.2,0.2
			c-0.7,0-1.3,0-2,0.1c-0.3,0-0.6,0-1,0c-0.2,0-0.3,0-0.5,0c-1.5,0-2.9,0-4.4,0c-0.2-0.2-0.5-0.3-0.7-0.5c0.2-0.1,0.4-0.1,0.6-0.2
			c-1.5,0.2-1.2-1.3-1.7-2c-0.1,0-0.3,0.1-0.4,0.1c0.1,0.6,0.1,1.2,0.2,1.8c-0.1,0.2-0.2,0.4-0.3,0.5c-0.5,0.1-1.1,0-1.6,0
			c-0.9-0.1-1.8-0.2-2.6-0.2c-1-0.2-2.1-0.4-3.1-0.5c-0.1-0.1-0.2-0.1-0.3-0.2c-0.1-0.2-0.2-0.3-0.2-0.5c0-0.3,0-0.7,0-1
			c0.5-0.7,1.1-1.2,2-0.9c0.2,0.1,0.4,0.2,0.6,0.2c4.3,0.2,8.6,0.3,12.9,0.5c0.5,0,1,0,1.4,0.1c0,0.1,0,0.1,0,0.2
			c-1,0.5,0.1,1.2-0.2,1.8c0.4,0.1,0.8,0.3,1.2,0.4c0.4-0.2,0.7-0.4,1.1-0.6c-0.2-0.2-0.4-0.4-0.6-0.6c-0.2-0.1-0.5-0.2-0.6-0.2
			c0.2-0.2,0.4-0.5,0.6-0.7c0-0.1,0-0.2,0-0.3c0.6-0.1,1.1-0.1,1.7-0.2c0,0.1,0,0.3,0,0.4c0,0.6,0,1.2,0,2c0.5-0.3,0.8-0.5,1-0.7
			c0.5,0.2,0.8,0.4,1.2,0.6c0.1-0.1,0.1-0.2,0.2-0.2c-0.3-0.3-0.6-0.6-0.8-0.9c0.2-0.4,0.3-0.7,0.5-1c0.2-0.1,0.3-0.3,0.5-0.4
			C42,72.9,42.5,72.8,43,72.8z M22,72.9c-0.1,1-0.2,1.7-0.2,2.3c0.1,0,0.2,0,0.4,0.1c0.2-0.3,0.4-0.6,0.6-0.9
			c0.4,0.4,0.8,0.8,1.5,1.3c0.1-1,0.1-1.6,0.2-2.3c-0.1,0-0.3,0-0.4-0.1c-0.1,0.2-0.3,0.5-0.4,0.8C23.1,73.9,22.7,73.6,22,72.9z
			 M32.7,74.1c-0.1-0.2-0.2-0.3-0.3-0.5c-0.7,0.1-1.5,0.1-2,0.4c-0.3,0.2-0.1,1.1-0.1,2C31.4,75.2,32,74.7,32.7,74.1z"/>
		<path class="st42" d="M44.7,87.5c-0.6,0.1-1.1,0.2-1.7,0.3c-0.4-0.7-1-1.4,0.7-1.7c-1.3-1.4-1.2-2.8-1.3-4.3
			c-0.2-1.7,1.1-2.7,1.1-4.3c0.6,0.3,0.9,0.4,1.3,0.6c0.1,0.4,0.2,0.8,0.2,1.2c0.1,0.3,0.2,0.6,0.2,1c0,0.5,0,1,0,1.5
			c-0.8,0.9-0.2,1.8,0,2.7c0.1,0.2,0.2,0.5,0.3,0.7c0,0.1,0,0.2,0,0.2C44.4,85.8,44.8,86.7,44.7,87.5z"/>
		<path class="st36" d="M40.3,76.1c0.9-0.1,1.8-0.1,2.7-0.2c0,0.2,0,0.3,0,0.5c-1.2-0.2-1.5,0.3-1.5,1.5c0,0.7-0.5,1.4-0.7,2.2
			c-0.1,0.1-0.2,0.3-0.2,0.4c0.1,1.5,0.3,3,0.2,4.5c-0.1,1.1,0.7,2.1,0,3.1c-0.3,0-0.6,0.1-1,0.1c0.1-1.4,0.2-2.7,0.2-4.1
			c0-1.2-0.1-2.4-0.2-3.7c0-0.3,0-0.6,0-1c0.6-0.8,0.4-1.6,0-2.4C40,76.8,40.2,76.4,40.3,76.1z"/>
		<path class="st37" d="M35.9,73.4c-0.5,0-1,0-1.4-0.1c-0.1-0.4-0.2-0.9-0.3-1.3c0.4,0,0.8,0,1.2,0c0.3,0.2,0.6,0.4,1,0.4
			c0.5,0,1-0.2,1.5-0.3c0.2,0,0.5,0,0.7,0c0.3,0.1,0.7,0.2,1,0.2c0.5,0,1,0,1.4,0.1c0.6,0.1,1.3,0.2,1.9,0.3c-0.5,0.1-1,0.1-1.5,0.2
			c-0.8,0.1-1.6,0.1-2.4,0.2c-0.6,0.1-1.1,0.1-1.7,0.2C36.9,73.4,36.4,73.4,35.9,73.4z"/>
		<path class="st31" d="M39.8,88.2c0.3,0,0.6-0.1,1-0.1c0.7,0,1.5-0.1,2.2-0.1c0,0.1,0,0.2,0,0.4c-0.2,0.1-0.3,0.2-0.5,0.3
			c-1.6,0.2-3.1,0.3-4.7,0.5c-0.1,0-0.1,0.1-0.2,0.2c-0.4-0.1-0.8-0.2-1.2-0.3c0-0.1,0-0.3,0-0.4C37.6,88.4,38.7,88.3,39.8,88.2z"/>
		<path class="st42" d="M43,76.3c0-0.2,0-0.3,0-0.5c0.3-0.3,0.7-0.5,1-0.8c0.1,0.4,0.3,0.8,0.5,1.4C43.7,76.4,43.3,76.4,43,76.3z"/>
		<path class="st41" d="M47.3,86.8c0.7-0.2,1.5-0.3,2.2-0.5c-0.9,1.2-2.3,1.6-3.9,1C46.2,87.2,46.8,87,47.3,86.8z"/>
		<path class="st45" d="M44.7,87.5c0.1-0.8-0.2-1.7,0.8-2.1c0.1,0.6,0.2,1.3,0.2,1.9C45.3,87.3,45,87.4,44.7,87.5z"/>
		<path class="st30" d="M48.1,67.8c-0.2,0-0.5,0-0.7-0.1C47.6,67.1,47.9,67.4,48.1,67.8z"/>
		<path class="st44" d="M45.2,84.4c-0.2-0.9-0.8-1.8,0-2.7C45.2,82.6,45.2,83.5,45.2,84.4z"/>
		<path class="st44" d="M45.2,80.2c-0.1-0.3-0.2-0.6-0.2-1C45,79.6,45.1,79.9,45.2,80.2z"/>
		<path class="st42" d="M38.6,67.8c0,0.1,0,0.2,0,0.3c-0.2,0.1-0.5,0.2-0.7,0.2c-0.7,0.1-1.3,0.1-2,0.2c-1.2,0.1-2.4,0.2-3.7,0.2
			c-0.7-0.1-1.3-0.1-2-0.2c-0.3,0-0.6,0-1,0c-0.2,0-0.3,0-0.5,0c-0.2,0-0.3,0-0.5,0c-0.2-0.2-0.5-0.5-0.7-0.5c-0.6,0-1.2,0-1.8,0.1
			c-0.2,0-0.4,0-0.6,0c-0.2,0-0.4,0-0.5-0.1c-2.7,0-5.3-0.4-7.8-1.5c0.6,0,1.1,0,1.7,0c3.7,0.3,7.5,0.7,11.2,1
			c0.1,0.1,0.2,0.2,0.2,0.4c0.1-0.1,0.2-0.2,0.2-0.3c1.1,0,2.1,0,3.2,0c0.5,0.1,1,0.2,1.5,0.2C36.2,67.8,37.4,67.8,38.6,67.8z"/>
		<path class="st44" d="M35,67.8c-0.5-0.1-1-0.2-1.5-0.2c0.2-0.2,0.3-0.3,0.5-0.5c0.2-0.1,0.4-0.1,0.5-0.2c0.1,0,0.3,0,0.4,0
			c0,0,0,0.1,0,0.1C34.9,67.3,35,67.5,35,67.8z"/>
		<path class="st35" d="M37.9,68.3c0.2-0.1,0.5-0.2,0.7-0.2c0.1,0,0.1,0,0.2,0c0.2,0.8,0.4,1.5,0.5,2.3c0.1,0.7,0.2,1.3,0.3,2
			c-0.3-0.1-0.7-0.2-1-0.2c-0.1-1-0.1-2-0.2-3c-0.2,0-0.3,0-0.5,0c-0.3,1-0.3,2,0,3c-0.5,0.1-1,0.3-1.5,0.3c-0.3,0-0.6-0.3-1-0.4
			c0.9-0.2,0.8-0.9,0.8-1.5C36.8,69.8,37.3,69.1,37.9,68.3z"/>
		<path class="st30" d="M48.9,72.4c0-0.2,0-0.3-0.1-0.5C48.9,72.1,48.9,72.3,48.9,72.4z"/>
		<path class="st30" d="M48.9,72.9c-0.1,0-0.1,0-0.2-0.1c0,0,0.1-0.1,0.1-0.1C48.9,72.8,48.9,72.8,48.9,72.9z"/>
		<path class="st34" d="M29.8,60.8c-0.8,0.3-0.7,1-0.7,1.7c-0.7-0.1-1.5-0.1-2.2-0.2c0-0.4,0-0.9,0-1.3c0-0.1,0-0.2,0-0.2
			c0,0,0,0,0,0c0.2-0.1,0.5-0.2,0.6-0.4c0.7-0.9,1.2-1,1.7,0.2c0,0.1,0.3,0.2,0.4,0.2C29.7,60.7,29.7,60.8,29.8,60.8z"/>
		<path class="st32" d="M34.9,66.9c-0.1,0-0.3,0-0.4,0c-0.8-0.1-1.6-0.1-2.4-0.3c-0.4-0.1-0.7-0.4-1-0.6c1.3,0,2.6,0,3.9,0
			C34.9,66.2,34.9,66.6,34.9,66.9z"/>
		<path class="st32" d="M26.9,65.3c0.4,0,0.8,0.1,1.2,0.1c0.1,0,0.2,0,0.4,0c0,0.1,0.1,0.2,0.1,0.4c-1.1,0-2.2-0.1-3.3-0.1
			c0-0.1,0.1-0.3,0.1-0.4C25.9,65.3,26.4,65.3,26.9,65.3z"/>
		<path class="st29" d="M37.1,65.6c-0.3,0-0.7,0.1-1,0.1C36.5,65.7,36.8,65.7,37.1,65.6z"/>
		<path class="st29" d="M28.6,65.9c0-0.1-0.1-0.2-0.1-0.4c0.3,0.1,0.6,0.2,0.9,0.3C29.1,65.8,28.9,65.8,28.6,65.9z"/>
		<path class="st34" d="M42.5,88.5c0.2-0.1,0.3-0.2,0.5-0.3c1,0,2-1,2.9,0.2c-0.5,0.1-1,0.2-1.4,0.4c-0.2,0.1-0.5,0.1-0.7,0.2
			c-0.4,0-0.8,0-1.2,0C42.5,88.9,42.5,88.7,42.5,88.5z"/>
		<path class="st41" d="M49.6,86.3c0.1-0.1,0.2-0.2,0.2-0.3C49.7,86.2,49.7,86.3,49.6,86.3z"/>
		<path class="st45" d="M18.6,66.6c-0.6,0-1.1,0-1.7,0c2.5,1.1,5.1,1.5,7.8,1.5c-0.3,0.2-0.7,0.3-1,0.5c-0.4,0.3-0.9,0.7-0.9,1
			c0,0.9,0.2,1.7,0.4,2.6c-0.3,0.1-0.6,0.2-1,0.3c-0.4-0.6-0.9-1.2-1.5-2.1c0,0.1,0.1-0.2,0.2-0.5c-1,0-1.8-1.6-2.9-0.2
			c-0.2-0.7-0.4-1.5-0.8-2.6c-0.2,1-0.3,1.5-0.4,2.1c-0.3,0-0.6,0-1,0c0.1-0.4,0.3-0.7,0.4-1.1c0.2-0.8,0.3-1.6-0.9-1.5
			c-0.7-0.2-1.4-0.5-2.1-0.7c0.2-0.3,0.5-0.7,0.7-1c0.2,0.1,0.5,0.2,0.7,0.3c0.2,0.1,0.4,0.2,0.6,0.3c0.9,0.2,1.8,0.4,2.8,0.6
			C18.3,66.3,18.5,66.4,18.6,66.6z"/>
		<path class="st33" d="M13.3,65.9c0.7,0.2,1.4,0.5,2.1,0.7c0,0.6,0.1,1.1,0.1,1.7c-0.2,3.3-0.5,6.7-0.8,10c-0.1,0.8,0,1.7,0,2.5
			c0,0.4,0,0.8,0,1.2c0,0.1,0,0.1,0,0.2c-0.2,0.2-0.4,0.4-0.4,0.6c-0.1,1.1-0.2,2.2-0.2,3.3l-0.1,0.1c-0.8-0.3-0.7-0.9-0.6-1.5
			c0.2-2.6,0.5-5.2,0.7-7.8c0.1-1.4,0.1-2.7,0.2-4.1c0-0.2,0-0.3,0-0.5c0.2-0.9,0.3-1.8,0.5-2.7c0-0.2,0-0.5,0-0.7
			c0.3-0.5,0.5-1.1-0.2-1.5c0,0,0,0,0,0c-0.4-0.2-0.8-0.5-1.2-0.7C13.3,66.4,13.3,66.1,13.3,65.9z"/>
		<path class="st41" d="M13.3,66.6c0.4,0.2,0.8,0.5,1.2,0.7c-0.5,0.1-1,0.2-1.4,0.3C13.1,67.3,13.2,66.9,13.3,66.6z"/>
		<path class="st30" d="M11.5,69.5c-0.1,0.1-0.2,0.2-0.2,0.3c-0.1-0.1-0.1-0.1-0.2-0.2c0,0,0.1-0.2,0.1-0.2
			C11.3,69.4,11.4,69.5,11.5,69.5z"/>
		<path class="st36" d="M18.6,66.6c-0.2-0.1-0.3-0.3-0.5-0.4c1.6,0.2,3.1,0.4,4.7,0.5c3.5,0.2,7,0.3,10.5,0.4c0.2,0,0.4,0,0.6,0
			c-0.2,0.2-0.3,0.3-0.5,0.5c-1.1,0-2.1,0-3.2,0c-0.2,0-0.3,0-0.5,0C26.1,67.2,22.4,66.9,18.6,66.6z"/>
		<path class="st29" d="M25.4,65.3c0,0.1-0.1,0.3-0.1,0.4c-0.4-0.1-0.9-0.1-1.3-0.2C24.4,65.4,24.9,65.4,25.4,65.3z"/>
		<path class="st29" d="M20.6,65.2c0.4,0.1,0.8,0.2,1.2,0.4C21.4,65.5,21,65.3,20.6,65.2z"/>
		<path class="st35" d="M15.4,65.5c-0.2-0.1-0.4-0.2-0.6-0.3C14.9,65.3,15.1,65.4,15.4,65.5z"/>
		<path class="st29" d="M23.1,65.6C23.1,65.6,23.1,65.6,23.1,65.6C23.1,65.6,23.1,65.6,23.1,65.6z"/>
		<path class="st29" d="M26.9,60.7c0,0.1,0,0.2,0,0.2C26.9,60.9,26.8,60.9,26.9,60.7C26.8,60.8,26.9,60.8,26.9,60.7z"/>
		<path class="st45" d="M39.8,96.8c0-0.2,0-0.3,0-0.5c-0.1-0.9,0.5-1.3,1.2-1.5c-0.2,1.2-0.5,2.4-0.7,3.7
			C39.2,98.2,39.9,97.4,39.8,96.8z"/>
		<path class="st36" d="M39.8,96.8c0.1,0.6-0.6,1.4,0.5,1.7c0,0.2,0,0.3,0,0.5c-0.4,0.1-0.8,0.2-1.2,0.2
			C38.1,97.5,38.3,97,39.8,96.8z"/>
		<path class="st45" d="M41,94.4c0.2-0.2,0.3-0.5,0.5-0.7C41.4,93.9,41.2,94.1,41,94.4z"/>
		<path class="st41" d="M40.6,92.7c-0.1,0-0.3,0-0.4,0c-0.3-0.1-0.7-0.3-1-0.4c-0.3-0.8-0.6-1.6-1-2.5c1.3-0.1,2.6-0.3,3.9-0.4
			c-0.2,0.3-0.2,0.7-0.5,0.9c-0.5,0.5-0.4,0.9,0,1.3c0,0.2,0,0.3,0,0.5c-0.3,0.2-0.5,0.5-0.8,0.7C40.7,92.6,40.6,92.6,40.6,92.7z"/>
		<path class="st32" d="M41.5,91.5c-0.4-0.4-0.5-0.8,0-1.3c0.2-0.2,0.3-0.6,0.5-0.9c0.2-0.1,0.3-0.1,0.5-0.2c0.4,0,0.8,0,1.2,0
			c-0.1,0.2-0.1,0.4-0.2,0.6c-1.4-0.5-1.2,0.8-1.6,1.5C41.9,91.3,41.7,91.3,41.5,91.5z"/>
		<path class="st33" d="M39.1,92.2c0.3,0.1,0.7,0.3,1,0.4c-0.1,0.1-0.2,0.2-0.3,0.3c-1.2,0.1-2.4,0.2-3.7,0.2c-0.2,0-0.5,0-0.7,0
			c-0.2,0-0.3,0-0.5,0c0-0.1,0-0.3,0-0.4c0.7,0,1.4,0,2.2-0.1C37.8,92.5,38.4,92.3,39.1,92.2z"/>
		<path class="st35" d="M36.2,93.2c1.2-0.1,2.4-0.2,3.7-0.2c-0.6,0.5-1.1,0.9-1.5,1.2c-0.7-0.2-1.3-0.3-1.9-0.5
			C36.3,93.5,36.2,93.3,36.2,93.2z"/>
		<path class="st31" d="M26.1,96.8c-0.2-0.8-0.4-1.7-0.7-2.5c-0.2-0.6-0.4-1.1-0.6-1.6c0.6-0.1,1.5-0.2,2.4-0.3c0,0,0-0.1,0-0.1
			c1.2,0,2.4,0,3.5,0c0,0.4-0.1,0.7-0.1,1.1c-1.5-0.5-1.8-0.4-1.9,1C27.2,94.6,26.5,95.5,26.1,96.8z"/>
		<path class="st35" d="M34.9,93.2c0.2,0,0.3,0,0.5,0c-0.1,0.5-0.2,1-0.3,1.4c-0.8-0.1-1.6-0.2-2.4-0.3c0.1-0.4,0.2-0.7,0.3-1.1
			C33.7,93.2,34.3,93.2,34.9,93.2z"/>
		<path class="st33" d="M33,93.2c-0.1,0.4-0.2,0.7-0.3,1.1c-0.7,0-1.3,0-2,0c-0.1-0.3-0.2-0.6-0.2-0.9c0-0.4,0.1-0.7,0.1-1.1
			c0-0.1,0.1-0.3,0.1-0.4c0.1,0.4,0.4,0.7,0.4,1.1c0,0.8,0.3,1,1,0.6c0.1-0.2,0.2-0.3,0.3-0.5C32.7,93.2,32.9,93.2,33,93.2z"/>
		<path class="st34" d="M30.6,93.4c0.1,0.3,0.2,0.6,0.2,0.9c-0.7,0-1.5,0.1-2.2,0.1C28.7,93.1,29.1,92.9,30.6,93.4z"/>
		<path class="st37" d="M27.9,101.2c-0.1,0.2-0.3,0.3-0.4,0.5c-0.1-1.5,0.5-2.7,1.9-3.4c0.1,0.1,0.2,0.2,0.3,0.2
			C29,99.4,28.5,100.3,27.9,101.2z"/>
		<path class="st37" d="M26.6,103.9c-0.1,0.1-0.1,0.1-0.2,0.2c-0.1-0.2-0.1-0.4-0.2-0.6C26.4,103.7,26.5,103.8,26.6,103.9z"/>
		<path class="st45" d="M23.5,96.1c0.9,0.3,0.2,0.6,0,1c-0.1-0.3-0.2-0.6-0.3-1C23.3,96.1,23.4,96.1,23.5,96.1z"/>
		<path class="st44" d="M23.5,96.1c-0.1,0-0.2,0-0.3,0c-0.2-0.2-0.3-0.3-0.5-0.5c0.2,0,0.5,0,0.7,0C23.5,95.8,23.5,95.9,23.5,96.1z"
			/>
		<path class="st33" d="M21.1,92.7c-0.4-0.1-0.8-0.2-1.2-0.3c-1.6-0.3-3.2-0.6-4.9-1c-0.3,0-0.6,0-0.9,0c0.1-0.3,0.2-0.7,0.2-1
			c2.9,0.5,5.8,1,8.7,1.6c0,0.1,0,0.1,0,0.2c0,0.2,0,0.5,0,0.7C22.4,92.8,21.7,92.8,21.1,92.7z"/>
		<path class="st32" d="M23,92.2c0-0.1,0-0.1,0-0.2c0.2-0.8,0.3-1.8,1.6-1.6c0.1,0,0.2-0.4,0.4-0.7c0.2,0,0.5,0,0.7,0
			c0.4,0.8,0.8,1.7,0.5,2.7C25.1,92.3,24.1,92.3,23,92.2z"/>
		<path class="st39" d="M26.2,92.4c0.3-1-0.1-1.8-0.5-2.7c0.3,0,0.6,0,1,0c0.2,0.1,0.5,0.2,0.7,0.3c-0.1,0.8-0.2,1.6-0.3,2.4
			c0,0,0,0.1,0,0.1C26.8,92.4,26.5,92.4,26.2,92.4z"/>
		<path class="st31" d="M14.3,90.4c-0.1,0.3-0.2,0.7-0.2,1c0,0.3,0,0.5,0.1,0.8c0,1.7-0.1,3.4-0.1,5.1c-0.2-0.4-0.5-0.7-0.5-1.1
			c0-1.9,0-3.8,0-5.7c0.2-0.1,0.5-0.2,0.7-0.2C14.2,90.3,14.2,90.4,14.3,90.4z"/>
		<path class="st34" d="M14,97.8c0-0.1,0.1-0.2,0.1-0.3c1.1,0.3,0.4,1.1,0.6,1.7c-0.2,0-0.5,0-0.7,0c0-0.2,0-0.5,0-0.7
			C14,98.3,14,98,14,97.8z"/>
		<path class="st34" d="M14.1,92.2c0-0.3,0-0.5-0.1-0.8c0.3,0,0.6,0,0.9,0C14.7,91.7,14.4,92,14.1,92.2z"/>
		<path class="st31" d="M14,100c-0.2-0.1-0.4-0.2-0.7-0.4c0.2-0.1,0.4-0.3,0.6-0.4C14,99.5,14,99.7,14,100z"/>
		<path class="st31" d="M14,97.8c0,0.2,0,0.5,0,0.7c-0.1-0.1-0.3-0.2-0.4-0.3C13.7,98.1,13.8,97.9,14,97.8z"/>
		<path class="st41" d="M14.7,69.5c-0.2,0.9-0.3,1.8-0.5,2.7C13.8,71.2,14,70.3,14.7,69.5z"/>
		<path class="st41" d="M14.5,67.3c0.8,0.4,0.5,0.9,0.2,1.5C14.6,68.3,14.6,67.8,14.5,67.3z"/>
		<path class="st37" d="M13.4,87.4c-0.4-0.1-0.8-0.2-1.2-0.3c-0.1-0.1-0.2-0.2-0.3-0.3c0.6-0.2,1.3-0.5,1.9-0.7c0,0,0.1-0.1,0.1-0.1
			c0.2,0.1,0.3,0.2,0.5,0.2c0.1,0,0.3,0.1,0.4,0.1c0.3,0.1,0.7,0.2,1,0.2c0.3,0.1,0.6,0.2,1,0.2c0.4,0.2,0.8,0.3,1.3,0.5
			c0,0.1,0,0.3,0,0.4c-1.2-0.3-2.4-0.6-3.6-1C14,86.6,13.6,86.6,13.4,87.4z"/>
		<path class="st39" d="M14.3,90.4c0-0.1,0-0.1,0-0.2c0.2-0.3,0.9-0.3,0.4-1c-0.2-0.3,0.1-0.9,0.1-1.4c1.3,0.3,2.6,0.6,3.9,0.8
			c0.6,0.1,1.1,0.2,1.7,0.3c1.5,0.2,3.1,0.5,4.6,0.7c-0.1,0.2-0.3,0.7-0.4,0.7c-1.3-0.2-1.4,0.8-1.6,1.6
			C20.1,91.5,17.2,91,14.3,90.4z"/>
		<path class="st34" d="M18.6,88.7c-1.3-0.3-2.6-0.6-3.9-0.8c-0.4-0.2-0.9-0.4-1.3-0.6c0.1-0.7,0.5-0.8,1.1-0.6
			c1.2,0.4,2.4,0.7,3.6,1c0.2,0,0.5,0,0.7,0.1C18.8,88.1,18.7,88.4,18.6,88.7z"/>
		<path class="st31" d="M22.3,72.4c0.3-0.1,0.6-0.2,1-0.3c0.2,0,0.5,0,0.7,0c1.2,0.1,2.1,0,2.1-1.6c0-0.4,0.8-0.9,1.2-1.3
			c0.4,0.4,0.8,0.7,1.1,1.1c0.3,0.5,0.5,1,0.8,1.5c0.2,0,0.3-0.1,0.5-0.1c0.1,0,0.3,0,0.4,0c0.2,0.1,0.5,0.2,0.7,0.2
			c0.2,0,0.3,0.1,0.5,0.1c0.3-0.1,0.6-0.1,1-0.2c0.6,0,1.3,0.1,1.9,0.1c0.1,0.4,0.2,0.9,0.3,1.3c-4.3-0.2-8.6-0.3-12.9-0.5
			c-0.2,0-0.4-0.1-0.6-0.2c0-0.1,0-0.1,0-0.2C21.5,72.5,21.9,72.5,22.3,72.4z"/>
		<path class="st42" d="M22.3,72.4c-0.4,0-0.8,0-1.2,0c-0.6-0.6-1.2-0.5-1.6,0c-0.2,0.3-0.3,0.7-0.4,1.1c0,0.3,0,0.7,0,1
			c0.1,0.2,0.2,0.3,0.2,0.5c0.1,0.1,0.2,0.1,0.3,0.2c0.1,0.2,0.2,0.5,0.3,0.7c-0.2,0.1-0.4,0.2-0.6,0.2c-1.3,0-1-1.2-1.4-1.9
			c0-0.6,0-1.3,0-1.9c0.1-0.2,0.2-0.5,0.2-0.7c0-0.5,0-1,0-1.5c0-0.2,0-0.3,0-0.5c1-1.5,1.9,0.2,2.9,0.2c-0.1,0.3-0.2,0.6-0.2,0.5
			C21.4,71.2,21.8,71.8,22.3,72.4z M19.8,70.4c0,0.1-0.1,0.1-0.1,0.2c0,0,0.1,0.1,0.1,0.1c0.1,0,0.1-0.1,0.2-0.1
			C19.9,70.5,19.9,70.4,19.8,70.4z"/>
		<path class="st41" d="M25.4,76.1c0.5,0,1.1,0,1.6,0c0.1,0,0.2-0.3,0.3-0.5c0.4,0.1,0.8,0.2,1.2,0.2c0.2,0.2,0.5,0.3,0.7,0.5
			c1.5,0,2.9,0,4.4,0c0.2,0,0.3,0,0.5,0c0,0.2,0,0.3,0,0.5c-0.7,0.1-1.8-0.5-1.7,1c-0.2,0-0.5,0.1-0.7,0.1c-0.2,0-0.3-0.1-0.5-0.1
			c0-0.1-0.1-0.2-0.1-0.3c0,0.1-0.1,0.2-0.1,0.3l0,0.1c-0.2,0-0.3,0-0.5,0c0,0,0-0.1,0-0.1c-0.3-0.3-0.6-0.9-0.8-0.9
			c-0.9,0-1.7,0.3-2.6,0.4c-0.6-0.2-1.1-0.3-1.7-0.5c-0.4-0.1-0.8-0.3-1.2-0.4C24.7,76.3,25,76.2,25.4,76.1z"/>
		<path class="st33" d="M32.5,77.8c-0.1-1.5,1.1-0.8,1.7-1c0.3-0.2,0.6-0.3,1-0.5c0.7,0,1.3,0,2-0.1c0.6,0.3,1.1,0.5,1.7,0.8
			c-0.3,0.1-0.7,0.2-1,0.3c-0.2,0.1-0.5,0.1-0.7,0.2c-0.3,0-0.7,0-1,0C35,78,33.8,78.3,32.5,77.8z"/>
		<path class="st37" d="M22,72.9c0.7,0.6,1.1,0.9,1.5,1.3c0.2-0.3,0.3-0.5,0.4-0.8c0.1,0,0.3,0,0.4,0.1c0,0.6-0.1,1.3-0.2,2.3
			c-0.6-0.6-1-0.9-1.5-1.3c-0.2,0.3-0.4,0.6-0.6,0.9c-0.1,0-0.2,0-0.4-0.1C21.9,74.6,21.9,74,22,72.9z"/>
		<path class="st37" d="M32.7,74.1c-0.7,0.6-1.3,1.1-2.3,1.9c0-0.9-0.2-1.8,0.1-2c0.5-0.4,1.3-0.3,2-0.4
			C32.5,73.8,32.6,73.9,32.7,74.1z"/>
		<path class="st33" d="M36.9,75.8c-0.4-0.1-0.8-0.3-1.2-0.4c0.3-0.6-0.8-1.3,0.2-1.8c0.5,0,1,0,1.5,0c-0.2,0.2-0.4,0.5-0.6,0.7
			c0.1,0,0.3,0.1,0.6,0.2C37.2,75,37.1,75.4,36.9,75.8z"/>
		<path class="st30" d="M41.1,73.4c-0.1,0.3-0.3,0.7-0.5,1c0.3,0.3,0.5,0.6,0.8,0.9c-0.1,0.1-0.1,0.2-0.2,0.2
			c-0.4-0.2-0.8-0.4-1.2-0.6c-0.2,0.1-0.5,0.3-1,0.7c0-0.8,0-1.4,0-2c0.3,0.2,0.5,0.4,0.7,0.5C40.3,73.9,40.7,73.6,41.1,73.4z"/>
		<path class="st31" d="M38.9,77c-0.6-0.3-1.1-0.5-1.7-0.8c1.1-0.1,2.1-0.1,3.2-0.2c-0.2,0.3-0.3,0.7-0.5,1c-0.2,0-0.3,0-0.5,0
			C39.2,77.1,39,77.1,38.9,77z"/>
		<path class="st37" d="M25.4,76.1c-0.4,0.1-0.7,0.2-1.1,0.3c0.4,0.1,0.8,0.3,1.2,0.4c-0.2,0.1-0.3,0.2-0.5,0.3c-0.2,0-0.3,0-0.5,0
			c-0.4-0.1-0.8-0.2-1.2-0.3c-0.1-0.1-0.2-0.3-0.3-0.4c-0.1-0.2-0.1-0.3-0.2-0.5C23.6,76,24.5,76,25.4,76.1z"/>
		<path class="st31" d="M28.6,75.8c-0.4-0.1-0.8-0.2-1.2-0.2c-0.1-0.6-0.1-1.2-0.2-1.8c0.1,0,0.3-0.1,0.4-0.1c0.5,0.7,0.2,2.2,1.7,2
			C29,75.7,28.8,75.8,28.6,75.8z"/>
		<path class="st33" d="M22.8,75.9c0.1,0.2,0.1,0.3,0.2,0.5c-0.2,0-0.3,0-0.5,0c-0.9-0.1-1.8-0.2-2.6-0.3c-0.1-0.2-0.2-0.5-0.3-0.7
			C20.7,75.5,21.7,75.7,22.8,75.9z"/>
		<path class="st39" d="M41.1,73.4c-0.4,0.2-0.8,0.5-1.3,0.7c-0.2-0.1-0.4-0.3-0.7-0.5c0-0.1,0-0.3,0-0.4c0.8-0.1,1.6-0.1,2.4-0.2
			C41.4,73.1,41.2,73.3,41.1,73.4z"/>
		<path class="st45" d="M19.1,73.6c0.1-0.4,0.1-0.8,0.4-1.1c0.5-0.5,1.1-0.6,1.6,0c0,0.1,0,0.1,0,0.2C20.1,72.5,19.6,73,19.1,73.6z"
			/>
		<path class="st37" d="M36.9,75.8c0.2-0.4,0.3-0.8,0.5-1.2c0.2,0.2,0.4,0.4,0.6,0.6C37.6,75.4,37.3,75.6,36.9,75.8z"/>
		<path class="st37" d="M33.7,76.3c-1.5,0-2.9,0-4.4,0C30.8,76.3,32.3,76.3,33.7,76.3z"/>
		<path class="st37" d="M35.2,76.3c-0.3,0.2-0.6,0.3-1,0.5c0-0.2,0-0.3,0-0.5C34.5,76.3,34.9,76.3,35.2,76.3z"/>
		<path class="st39" d="M37.4,73.7c-0.5,0-1,0-1.5,0c0-0.1,0-0.1,0-0.2c0.5,0,1,0,1.5,0C37.4,73.5,37.4,73.6,37.4,73.7z"/>
		<path class="st45" d="M19.3,75.1c-0.1-0.2-0.2-0.3-0.2-0.5C19.2,74.8,19.3,75,19.3,75.1z"/>
		<path class="st29" d="M36.2,77.6c0.3,0,0.7,0,1,0c0.2,0.2,0.3,0.3,0.5,0.5c0,0.2,0,0.3,0,0.5c-0.9,0.6-0.8,1.4-0.2,2.2
			c0.1,1.4,0.1,2.8,0.3,4.3c0,0.3,0.4,0.5,0.6,0.8c0.2-0.2,0.5-0.4,0.6-0.7c0.1-0.5,0.1-1.1,0.3-1.7c0.2-1,0.5-2,0.7-3
			c0.1,1.2,0.2,2.4,0.2,3.7c0,1.4-0.1,2.7-0.2,4.1c-1.1,0.1-2.3,0.2-3.4,0.3c0,0,0-0.1,0-0.1c0-1.2,0-2.5,0-3.7
			C36.3,82.4,36.2,80,36.2,77.6z"/>
		<path class="st34" d="M39.8,80.5c-0.2,1-0.5,2-0.7,3C39,84,39,84.6,38.8,85.1c-0.1,0.3-0.4,0.4-0.6,0.7c-0.2-0.3-0.6-0.5-0.6-0.8
			c-0.1-1.4-0.2-2.8-0.3-4.3c0.1-0.7,0.2-1.5,0.2-2.2c0-0.2,0-0.3,0-0.5c0.1-0.2,0.2-0.5,0.2-0.7c0.3-0.1,0.7-0.2,1-0.3
			c0.2,0,0.3,0,0.5,0c0.2,0.8,0.3,1.6,0.5,2.4C39.8,79.8,39.8,80.2,39.8,80.5z"/>
		<path class="st29" d="M39.8,79.5c-0.2-0.8-0.3-1.6-0.5-2.4c0.2,0,0.3,0,0.5,0C40.2,77.9,40.4,78.7,39.8,79.5z"/>
		<path class="st44" d="M34.2,72.1c-0.6,0-1.3-0.1-1.9-0.1c-0.5-1.1-0.5-2.1,0-3.2c1.2-0.1,2.4-0.2,3.7-0.2c0.1,0.6,0.2,1.3,0.3,1.9
			c0,0.6,0.1,1.3-0.8,1.5C35,72,34.6,72.1,34.2,72.1z"/>
		<path class="st34" d="M37.9,72.2c-0.3-1-0.3-2,0-3c0.2,0,0.3,0,0.5,0c0.1,1,0.1,2,0.2,3C38.4,72.2,38.1,72.2,37.9,72.2z"/>
		<path class="st37" d="M42.5,89c-0.2,0.1-0.3,0.1-0.5,0.2c-1.3,0.1-2.6,0.3-3.9,0.4c-0.1,0-0.2-0.1-0.3-0.1
			c-0.1-0.1-0.1-0.3-0.2-0.4c0.1-0.1,0.1-0.2,0.2-0.2c1.6-0.2,3.1-0.3,4.7-0.5C42.5,88.7,42.5,88.9,42.5,89z"/>
		<path class="st34" d="M37.7,89.2c0.1,0.1,0.1,0.3,0.2,0.4c-0.5,0-1,0.1-1.5,0.1c-0.5,0-1,0-1.4,0c0-0.1-0.1-0.2-0.1-0.3
			c0-0.1,0.1-0.3,0.1-0.4c0.5,0,1-0.1,1.5-0.1C36.9,89,37.3,89.1,37.7,89.2z"/>
		<path class="st37" d="M36.5,88.9C36,89,35.5,89,35,89c0-0.1,0-0.2,0-0.3c0.5-0.1,1-0.2,1.5-0.3c0,0,0,0.1,0,0.1
			C36.4,88.7,36.4,88.8,36.5,88.9z"/>
		<path class="st34" d="M29.1,71.9c-0.3-0.5-0.5-1.1-0.8-1.5c-0.3-0.4-0.7-0.7-1.1-1.1c-0.4,0.4-1.2,0.9-1.2,1.3
			c0,1.6-0.9,1.7-2.1,1.6c0-0.4,0.2-0.8,0.1-1.1c-0.6-1.1,0.1-1.7,0.8-2.3c0.2-0.2,0.3-0.4,0.4-0.7c0.2,0,0.4,0,0.6,0
			c0.8,0.1,1.7,0.3,2.5,0.4c0.2,0,0.3,0,0.5,0c0.1,0.1,0.1,0.1,0.2,0.2c0.1,0.9,0.2,1.8,0.3,2.7C29.3,71.6,29.2,71.8,29.1,71.9z"/>
		<path class="st45" d="M32.3,68.8c-0.5,1.1-0.5,2.1,0,3.2c-0.3,0.1-0.6,0.1-1,0.2c-0.2,0-0.3-0.1-0.5-0.1c-0.2-0.1-0.5-0.2-0.7-0.2
			c0.1-0.2,0.1-0.5,0.3-0.6c1.1-0.5,0.7-1.2,0.3-1.9c-0.1-0.2-0.2-0.5-0.4-0.7C31,68.6,31.6,68.7,32.3,68.8z"/>
		<path class="st36" d="M30.3,68.6c0.1,0.2,0.2,0.5,0.4,0.7c0.4,0.7,0.7,1.4-0.3,1.9c-0.2,0.1-0.2,0.4-0.3,0.6c-0.1,0-0.3,0-0.4,0
			c-0.1-0.1-0.2-0.2-0.3-0.3c-0.1-0.9-0.2-1.8-0.3-2.7c0.1-0.1,0.2-0.2,0.3-0.3C29.7,68.6,30,68.6,30.3,68.6z"/>
		<path class="st36" d="M25.3,68.1c-0.1,0.2-0.3,0.5-0.4,0.7c-0.6,0.7-1.4,1.2-0.8,2.3c0.1,0.3,0,0.7-0.1,1.1c-0.2,0-0.5,0-0.7,0
			c-0.1-0.9-0.4-1.7-0.4-2.6c0-0.3,0.5-0.7,0.9-1c0.3-0.2,0.6-0.3,1-0.5C24.9,68.1,25.1,68.1,25.3,68.1z"/>
		<path class="st45" d="M36.2,70.5c-0.1-0.6-0.2-1.3-0.3-1.9c0.7-0.1,1.3-0.1,2-0.2C37.3,69.1,36.8,69.8,36.2,70.5z"/>
		<path class="st45" d="M28.4,68.6c-0.8-0.1-1.7-0.3-2.5-0.4c0.6,0,1.2-0.1,1.8-0.1C27.9,68.1,28.1,68.4,28.4,68.6z"/>
		<path class="st44" d="M29.8,67.6c0.2,0,0.3,0,0.5,0c-0.1,0.1-0.2,0.2-0.2,0.3C30,67.8,29.9,67.7,29.8,67.6z"/>
		<path class="st45" d="M29.3,68.6c-0.1,0.1-0.2,0.2-0.3,0.3c-0.1-0.1-0.1-0.1-0.2-0.2C29,68.6,29.2,68.6,29.3,68.6z"/>
		<path class="st36" d="M14.7,80.8c0-0.8,0-1.7,0-2.5c0.2-3.3,0.5-6.7,0.8-10c0-0.5,0-1.1-0.1-1.7c1.3-0.1,1.1,0.8,0.9,1.5
			c-0.1,0.4-0.3,0.7-0.4,1.1c-0.2,0.9-0.3,1.8-0.5,2.7c0,0.5,0,1,0,1.5c0,1.8,0,3.5,0,5.3c0.1,0,0.2,0,0.4,0
			c0.1-1.7,0.2-3.4,0.4-5.1c0.3,0.2,0.7,0.5,1,0.7c0,0.2,0,0.5,0,0.7c-0.7,1.1-0.1,2.3,0,3.4c0,0.2,0,0.3,0,0.5
			c-0.3,0.6-0.6,1.2-0.9,1.8c-0.3-0.4-0.5-0.7-0.7-1C15.3,80.1,15,80.4,14.7,80.8C14.7,80.7,14.7,80.7,14.7,80.8z"/>
		<path class="st36" d="M18.1,69.8c0,0.2,0,0.3,0,0.5c-0.5,0.4-1,0.8-1.4,1.2c0.1-0.7,0.2-1.5,0.2-2.2c0.1-0.6,0.2-1.1,0.4-2.1
			C17.7,68.3,17.9,69,18.1,69.8z"/>
		<path class="st44" d="M16.9,69.3c-0.1,0.7-0.2,1.5-0.2,2.2c-0.4,0.2-0.8,0.3-1.2,0.5c0.2-0.9,0.3-1.8,0.5-2.7
			C16.3,69.3,16.6,69.3,16.9,69.3z"/>
		<path class="st45" d="M14.7,80.8C14.7,80.7,14.7,80.7,14.7,80.8c0.3-0.4,0.6-0.7,0.9-1c0.2,0.3,0.5,0.7,0.7,1
			c0.3-0.6,0.6-1.2,0.9-1.8c1.1,0.5,0.1,1.3,0.2,1.9c-0.2,0.4-0.4,0.8-0.5,1.2c-0.1,1.6,0,3.2-0.1,4.8c-0.3-0.1-0.6-0.2-1-0.2
			c-0.1-1.8-0.2-3.7-0.3-5.3c-0.3,0.2-0.6,0.4-1,0.6C14.7,81.5,14.7,81.1,14.7,80.8z"/>
		<path class="st44" d="M14.7,81.9c0.3-0.2,0.6-0.4,1-0.6c0.1,1.6,0.2,3.4,0.3,5.3c-0.3-0.1-0.7-0.2-1-0.2c-0.1-0.2-0.1-0.4-0.2-0.6
			c0-1,0-2,0-2.9c0.1-0.1,0.2-0.2,0.4-0.2c-0.1-0.1-0.2-0.2-0.3-0.3c0-0.1,0-0.2,0-0.3C14.7,82.1,14.7,82,14.7,81.9z"/>
		<path class="st36" d="M14.7,82.9c0,1,0,2,0,2.9c-0.1,0.2-0.2,0.3-0.2,0.5c-0.2-0.1-0.3-0.2-0.5-0.2c0.1-1.1,0.1-2.2,0.2-3.3
			c0-0.2,0.3-0.4,0.4-0.6c0,0.1,0,0.2,0,0.3C14.7,82.6,14.7,82.8,14.7,82.9z"/>
		<path class="st32" d="M36.4,89.8c0.5,0,1-0.1,1.5-0.1c0.1,0,0.2,0.1,0.3,0.1c0.3,0.8,0.6,1.6,1,2.5c-0.7,0.2-1.3,0.3-2,0.5
			C36.9,91.7,36.6,90.7,36.4,89.8z"/>
		<path class="st40" d="M36.4,89.8c0.2,1,0.5,1.9,0.7,2.9c-0.7,0-1.4,0-2.2,0.1c-0.7-0.1-1.4-0.2-2.3-0.3c0.2-0.7,0.3-1.6,0.5-2.4
			c0.4-0.1,0.8-0.1,1.2-0.2c0.2,0,0.3,0,0.5,0C35.4,89.7,35.9,89.8,36.4,89.8z"/>
		<path class="st31" d="M33.2,90c-0.2,0.8-0.3,1.7-0.5,2.4c0.9,0.1,1.6,0.2,2.3,0.3c0,0.1,0,0.3,0,0.4c-0.6,0-1.3,0-1.9,0.1
			c-0.2,0-0.3,0-0.5-0.1c0-1.8,0-3.5-0.1-5.3c-0.1-1.6-0.3-3.2-0.4-4.7c0-0.3,0-0.5,0-0.8c0.2-0.1,0.4-0.2,0.5-0.2
			c0.2,1.9,0.5,3.7,0.7,5.6c0,0.5,0,0.9,0,1.4C33.2,89.5,33.2,89.7,33.2,90z"/>
		<path class="st40" d="M27.1,92.4c0.1-0.8,0.2-1.6,0.3-2.4c0.6,0,1.3,0,1.9,0c1.2-0.4,0.8,1.1,1.4,1.2c0,0.2,0,0.5,0,0.7
			c0,0.1-0.1,0.3-0.1,0.4C29.5,92.4,28.3,92.4,27.1,92.4z"/>
		<path class="st42" d="M30.8,91.9c0-0.2,0-0.5,0-0.7c0-0.6,0-1.1,0-1.7c0-0.3,0-0.7,0-1c0.1-1.1,0.1-2.2,0.2-3.4c0.1-1,0.2-2,0.2-3
			c0.2,0,0.3,0,0.5,0c0.1,0.1,0.2,0.2,0.2,0.2c0,0.3,0,0.5,0,0.8c-0.1,0.7-0.4,1.3-0.4,2c0,2.4,0.2,4.8,0.1,7.2c0,0.7,0.1,1,0.6,1.3
			c-0.7,0.4-1,0.2-1-0.6C31.2,92.6,31,92.3,30.8,91.9z"/>
		<path class="st29" d="M32.2,93.6c-0.5-0.3-0.6-0.6-0.6-1.3c0.1-2.4-0.1-4.8-0.1-7.2c0-0.7,0.3-1.3,0.4-2c0.1,1.6,0.3,3.2,0.4,4.7
			c0.1,1.7,0.1,3.5,0.1,5.3C32.4,93.3,32.3,93.5,32.2,93.6z"/>
		<path class="st31" d="M18.8,87.8c-0.2,0-0.5,0-0.7-0.1c0-0.1,0-0.3,0-0.4c1.2,0.2,2.4,0.3,3.6,0.4c0.5,0.1,1,0.1,1.5,0.2
			c0,0.1,0,0.1,0,0.2c-0.3,0.6-0.2,1,0.5,1.1c0.9,0.1,1.9,0.2,2.8,0.3c0,0.1,0,0.2,0,0.2c-0.3,0-0.6,0-1,0c-0.2,0-0.5,0-0.7,0
			c-1.5-0.2-3.1-0.5-4.6-0.7C19.8,88.6,19.3,88.2,18.8,87.8z"/>
		<path class="st30" d="M26.7,89.7c0-0.1,0-0.2,0-0.2c0.3-0.2,0.6-0.3,1-0.5c0.7,0.2,1.8-0.5,1.7,1c-0.6,0-1.3,0-1.9,0
			C27.2,89.9,26.9,89.8,26.7,89.7z"/>
		<path class="st42" d="M21.8,87.8c-1.2-0.1-2.4-0.3-3.6-0.4c-0.4-0.2-0.8-0.3-1.3-0.5c0-1.6,0-3.2,0.1-4.8c0-0.4,0.3-0.8,0.5-1.2
			c1-0.4,1.9-0.7,3.1-1.1c0.3,1,0.5,2,0.9,3c0.1,0.3,0.3,0.5,0.5,0.7c0.2,0.2,0.4,0.5,0.7,0.7c-0.2,0.2-0.4,0.5-0.7,0.6
			c-0.8,0.2-0.8,0.6-0.5,1.3C21.5,86.7,21.6,87.3,21.8,87.8z"/>
		<path class="st45" d="M14.5,86.3c0.1-0.2,0.2-0.3,0.2-0.5c0.1,0.2,0.1,0.4,0.2,0.6C14.8,86.4,14.6,86.4,14.5,86.3z"/>
		<path class="st33" d="M18.8,87.8c0.5,0.4,1,0.8,1.5,1.2c-0.6-0.1-1.1-0.2-1.7-0.3C18.7,88.4,18.8,88.1,18.8,87.8z"/>
		<path class="st37" d="M30.8,72c0.2,0,0.3,0.1,0.5,0.1C31.1,72.1,31,72.1,30.8,72z"/>
		<path class="st35" d="M29.3,71.5c0.1,0.1,0.2,0.2,0.3,0.3c-0.2,0-0.3,0.1-0.5,0.1C29.2,71.8,29.3,71.6,29.3,71.5z"/>
		<path class="st44" d="M21.8,87.8c-0.2-0.6-0.3-1.2-0.5-1.7c-0.3-0.6-0.3-1.1,0.5-1.3c0.3-0.1,0.5-0.4,0.7-0.6
			c-0.2-0.2-0.5-0.4-0.7-0.7c-0.2-0.2-0.4-0.5-0.5-0.7c-0.3-1-0.6-2-0.9-3c-1.2,0.4-2.2,0.8-3.1,1.1c-0.2-0.6,0.8-1.4-0.2-1.9
			c0-0.2,0-0.3,0-0.5c0.1-0.1,0.4-0.2,0.4-0.3c0.1-0.8,0.1-1.7,0-2.5c0-0.2-0.3-0.4-0.5-0.6c0-0.2,0-0.5,0-0.7c0.2,0,0.5,0,0.7,0
			c0.4,0.7,0.1,1.9,1.4,1.9c0.2,0,0.4-0.1,0.6-0.2c0.9,0.1,1.8,0.2,2.6,0.3c-0.2,1.7,0.3,3.4-0.1,5.2c-0.1,0.4,0.6,1.1,0.9,1.6
			c0,1.6,0,3.2,0,4.9C22.8,88,22.3,87.9,21.8,87.8z"/>
		<path class="st45" d="M17.9,74.4c-0.2,0-0.5,0-0.7,0c-0.3-0.2-0.7-0.5-1-0.7c-0.2-0.1-0.5-0.2-0.7-0.2c0-0.5,0-1,0-1.5
			c0.4-0.2,0.8-0.3,1.2-0.5c0.5-0.4,1-0.8,1.4-1.2c0,0.5,0,1,0,1.5c-0.1,0.2-0.2,0.5-0.2,0.7C17.9,73.1,17.9,73.7,17.9,74.4z"/>
		<path class="st44" d="M17.9,72.4c0.1-0.2,0.2-0.5,0.2-0.7C18,72,18,72.2,17.9,72.4z"/>
		<path class="st45" d="M19.8,70.4c0,0,0.1,0.1,0.1,0.1c-0.1,0-0.1,0.1-0.2,0.1c0,0-0.1-0.1-0.1-0.1C19.7,70.5,19.8,70.4,19.8,70.4z
			"/>
		<path class="st44" d="M31.7,82.2c-0.2,0-0.3,0-0.5,0c0.2-0.5,0.5-1,0.7-1.4c0.7-0.4,0.7-0.9,0.3-1.5c-0.2-0.4-0.3-0.9-0.5-1.4
			c0.2,0,0.5-0.1,0.7-0.1c1.2,0.5,2.5,0.2,3.6-0.2c0.1,2.4,0.2,4.8,0.2,7.2c0,1.2,0,2.5,0,3.7c-0.5,0.1-1,0.2-1.5,0.3
			c-0.5,0-0.9,0-1.4,0c-0.1-0.3-0.2-0.6-0.4-0.9c-0.2-1.9-0.5-3.7-0.7-5.6c0-0.2,0-0.3-0.1-0.5C32.2,81.9,32,82,31.7,82.2z"/>
		<path class="st45" d="M31.8,77.9c0.2,0.5,0.2,1,0.5,1.4c0.4,0.6,0.4,1.1-0.3,1.5c-0.9,0-1.3,0.5-1.4,1.3c-0.2,2.1-0.4,4.3-0.5,6.4
			c-0.2,0.1-0.4,0.2-0.7,0.3c-0.1-0.8-0.1-1.6-0.3-2.5c-0.1-0.5-0.3-0.9-0.5-1.4c0-0.6,0-1.3,0-1.9c0.4-0.6,1.2-1.4,1-1.7
			c-0.7-1.2,0.2-2.3,0.2-3.4c0.2,0,0.5,0,0.7-0.1c0,0,0,0.1,0,0.1c0.1,0.1,0.2,0.2,0.3,0.3c0.1-0.1,0.2-0.2,0.3-0.3c0,0,0-0.1,0-0.1
			c0.1,0,0.2,0,0.3,0C31.5,77.8,31.6,77.9,31.8,77.9z"/>
		<path class="st30" d="M24.9,77.1c0.2-0.1,0.3-0.2,0.5-0.3c0.6,0.2,1.1,0.3,1.7,0.5c0,0.1,0,0.1,0,0.2c-0.6,0.5-1.2,0.9-0.9,2
			c0.3,0.9,0.2,2,0.2,3c0,1.2-0.2,2.4-0.3,3.6c0,0.3-0.3,0.7-0.5,1c-0.1-0.2-0.2-0.5-0.2-0.7c0-2.4,0-4.8,0-7.3c0-0.2,0-0.5,0.1-0.7
			C25.9,77.7,25.5,77.4,24.9,77.1z"/>
		<path class="st37" d="M27.2,77.5c0-0.1,0-0.1,0-0.2c0.9-0.2,1.7-0.4,2.6-0.4c0.3,0,0.6,0.6,0.8,0.9c-0.2,0-0.5,0-0.7,0.1
			c-0.3,0-0.6,0-0.9,0c-0.2,0-0.3,0-0.5,0c-0.1-0.1-0.2-0.2-0.3-0.2C27.8,77.6,27.5,77.5,27.2,77.5z"/>
		<path class="st29" d="M31.1,77.9c-0.1,0.1-0.2,0.2-0.3,0.3c-0.1-0.1-0.2-0.2-0.3-0.3C30.7,77.8,30.9,77.8,31.1,77.9z"/>
		<path class="st37" d="M31.3,77.8c-0.1,0-0.2,0-0.3,0c0-0.1,0.1-0.2,0.1-0.3C31.2,77.6,31.3,77.7,31.3,77.8z"/>
		<path class="st35" d="M37.9,77.3c-0.1,0.2-0.2,0.5-0.2,0.7c-0.2-0.2-0.3-0.3-0.5-0.5C37.4,77.5,37.6,77.4,37.9,77.3z"/>
		<path class="st36" d="M23.3,88c0-1.6,0-3.2,0-4.9c0-1.4,0-2.9,0-4.3c0-0.7,0-1.3,0-2c0.4,0.1,0.8,0.2,1.2,0.3
			c-0.5,1.9-0.1,3.7,0,5.6c0.2,1.8,0,3.7,0,5.5c-0.4,0-0.8,0-1.2,0C23.3,88.1,23.3,88.1,23.3,88z"/>
		<path class="st34" d="M24.5,88.2c0-1.8,0.2-3.7,0-5.5c-0.2-1.9-0.5-3.7,0-5.6c0.2,0,0.3,0,0.5,0c0.6,0.3,0.9,0.6,0.6,1.3
			c-0.1,0.2-0.1,0.5-0.1,0.7c0,2.4,0,4.8,0,7.3c0,0.2,0.1,0.5,0.2,0.7c0,0.2,0,0.3,0,0.5c-0.1,0.2-0.1,0.5-0.2,0.7
			C25.1,88.2,24.8,88.2,24.5,88.2z"/>
		<path class="st45" d="M23.2,76.8c0,0.7,0,1.3,0,2c0,1.4,0,2.9,0,4.3c-0.3-0.6-1-1.2-0.9-1.6c0.4-1.7-0.1-3.4,0.1-5.2
			c0.2,0,0.3,0,0.5,0C23.1,76.5,23.2,76.7,23.2,76.8z"/>
		<path class="st35" d="M37.6,78.5c-0.1,0.7-0.2,1.5-0.2,2.2C36.9,79.9,36.7,79.2,37.6,78.5z"/>
		<path class="st32" d="M33.5,88.7c0.5,0,0.9,0,1.4,0c0,0.1,0,0.2,0,0.3c0,0.1-0.1,0.3-0.1,0.4c-0.1,0.1-0.3,0.2-0.4,0.3
			c-0.4,0.1-0.8,0.1-1.2,0.2c0-0.2,0-0.5,0-0.7C33.3,89,33.4,88.9,33.5,88.7z"/>
		<path class="st37" d="M34.5,89.8c0.1-0.1,0.3-0.2,0.4-0.3c0,0.1,0.1,0.2,0.1,0.3C34.8,89.7,34.6,89.8,34.5,89.8z"/>
		<path class="st44" d="M15.5,73.4c0.2,0.1,0.5,0.2,0.7,0.2c-0.1,1.7-0.2,3.4-0.4,5.1c-0.1,0-0.2,0-0.4,0
			C15.5,76.9,15.5,75.2,15.5,73.4z"/>
		<path class="st45" d="M17.2,75.1c0.2,0.2,0.4,0.4,0.5,0.6c0,0.8,0,1.7,0,2.5c0,0.1-0.3,0.2-0.4,0.3C17.1,77.4,16.4,76.3,17.2,75.1
			z"/>
		<path class="st45" d="M14.7,82.9c0-0.2,0-0.3,0-0.5c0.1,0.1,0.2,0.2,0.3,0.3C15,82.8,14.8,82.8,14.7,82.9z"/>
		<path class="st29" d="M31.7,82.2c0.2-0.2,0.5-0.3,0.7-0.5c0,0.2,0,0.3,0.1,0.5c-0.2,0.1-0.4,0.2-0.5,0.2
			C31.9,82.3,31.8,82.3,31.7,82.2z"/>
		<path class="st37" d="M33.5,88.7c-0.1,0.2-0.2,0.4-0.3,0.5c0-0.5,0-0.9,0-1.4C33.3,88.1,33.4,88.4,33.5,88.7z"/>
		<path class="st41" d="M29.4,88.7c0.2-0.1,0.4-0.2,0.7-0.3c0.2,0.3,0.5,0.7,0.7,1c0,0.6,0,1.1,0,1.7c-0.7-0.2-0.3-1.6-1.4-1.2
			c0.1-1.5-1-0.8-1.7-1c0.1-0.2,0.2-0.3,0.3-0.5c0.2,0,0.5,0,0.7,0.1C28.8,88.6,29.1,88.7,29.4,88.7z"/>
		<path class="st37" d="M30.8,89.5c-0.2-0.3-0.5-0.7-0.7-1c0.2-2.1,0.3-4.3,0.5-6.4c0.1-0.8,0.5-1.3,1.4-1.3c-0.2,0.5-0.5,1-0.7,1.4
			c-0.1,1-0.2,2-0.2,3c-0.8,1.1-0.5,2.2-0.2,3.4C30.8,88.8,30.8,89.2,30.8,89.5z"/>
		<path class="st41" d="M30.8,88.5c-0.2-1.1-0.6-2.3,0.2-3.4C30.9,86.3,30.9,87.4,30.8,88.5z"/>
		<path class="st32" d="M27.9,88.5c-0.1,0.2-0.2,0.3-0.3,0.5c-0.3,0.2-0.6,0.3-1,0.5c-0.9-0.1-1.9-0.2-2.8-0.3
			c-0.8-0.1-0.9-0.4-0.5-1.1c0.4,0,0.8,0,1.2,0c0.3,0,0.6,0,1,0c0.2,0,0.3,0,0.5,0c0.6,0,1.1,0,1.7,0C27.7,88.3,27.8,88.4,27.9,88.5
			z"/>
		<path class="st29" d="M28.9,77.8c0.3,0,0.6,0,0.9,0c0.1,1.1-0.9,2.1-0.2,3.4c0.2,0.3-0.6,1.1-1,1.7C28.7,81.2,28.8,79.5,28.9,77.8
			z"/>
		<path class="st33" d="M28.9,77.8c-0.1,1.7-0.2,3.4-0.3,5.1c0,0.6,0,1.3,0,1.9c-0.1,0-0.2,0-0.3,0c-0.1-0.4-0.2-0.8-0.2-1.2
			c0-1.4,0.1-2.8,0.2-4.2c0-0.2,0-0.3,0-0.5c-0.1-0.2-0.1-0.5-0.2-0.7c0-0.1,0-0.3,0-0.4c0.1,0,0.2,0,0.2,0
			C28.6,77.8,28.7,77.8,28.9,77.8z"/>
		<path class="st29" d="M28.3,84.9c0.1,0,0.2,0,0.3,0c0.2,0.5,0.4,0.9,0.5,1.4c0.1,0.8,0.2,1.6,0.3,2.5c-0.3-0.1-0.5-0.1-0.8-0.2
			c-0.1-1.1-0.2-2.1-0.3-3.2C28.3,85.2,28.3,85,28.3,84.9z"/>
		<path class="st41" d="M28.4,79c0,0.2,0,0.3,0,0.5c-0.4,0.8-0.9,1.5-1.1,2.3c-0.2,0.5-0.1,1.2,0,1.8c0.3,1.3-0.5,2.8,0.7,4
			c-0.1,0.2-0.2,0.5-0.3,0.7c-0.6,0-1.1,0-1.7,0c-0.1-0.2-0.2-0.5-0.3-0.7c0-0.2,0-0.3,0-0.5c0.2-0.3,0.5-0.6,0.5-1
			c0.2-1.2,0.3-2.4,0.3-3.6c0-1,0.1-2.1-0.2-3c-0.3-1,0.2-1.5,0.9-2c0.3,0,0.6,0,1,0c0,0.1,0,0.2,0,0.3c0,0.1,0,0.3,0,0.4
			C28.2,78.5,28.3,78.8,28.4,79z"/>
		<path class="st31" d="M28.1,77.8c0-0.1,0-0.2,0-0.3c0.1,0.1,0.2,0.2,0.3,0.2C28.3,77.8,28.2,77.8,28.1,77.8z"/>
		<path class="st30" d="M25.6,87.5c0.1,0.2,0.2,0.5,0.3,0.7c-0.2,0-0.3,0-0.5,0C25.5,88,25.6,87.8,25.6,87.5z"/>
		<path class="st33" d="M27.6,88.3c0.1-0.2,0.2-0.5,0.3-0.7c0.1-0.7,0.3-1.5,0.4-2.2c0.1,1.1,0.2,2.1,0.3,3.2c-0.2,0-0.5,0-0.7-0.1
			C27.8,88.4,27.7,88.3,27.6,88.3z"/>
		<path class="st31" d="M28.3,85.4c-0.1,0.7-0.3,1.5-0.4,2.2c-1.2-1.2-0.4-2.7-0.7-4c-0.1-0.6-0.2-1.2,0-1.8
			c0.3-0.8,0.7-1.5,1.1-2.3c-0.1,1.4-0.2,2.8-0.2,4.2c0,0.4,0.1,0.8,0.2,1.2C28.3,85,28.3,85.2,28.3,85.4z"/>
		<path class="st31" d="M28.4,79c-0.1-0.2-0.1-0.5-0.2-0.7C28.2,78.5,28.3,78.8,28.4,79z"/>
	</g>
</g>
<g id="stole">
</g>
<g id="bord">
</g>
<g id="lampe">
</g>
<g id="skrivemaskine">
</g>
<g id="papir">
</g>
<g id="bog">
</g>
</svg>
