<?xml version="1.0" encoding="utf-8"?>
<!-- Generator: Adobe Illustrator 23.1.1, SVG Export Plug-In . SVG Version: 6.00 Build 0)  -->
<svg version="1.1" xmlns="http://www.w3.org/2000/svg" xmlns:xlink="http://www.w3.org/1999/xlink" x="0px" y="0px"
	 viewBox="0 0 92.8 123" style="enable-background:new 0 0 92.8 123;" xml:space="preserve">
<style type="text/css">
	.st0{fill:#F2EFDD;}
	.st1{fill:#F2F2F2;}
	.st2{fill:#DFDFDF;}
	.st3{fill:#E8D274;}
	.st4{fill:#594433;}
	.st5{fill:#262626;}
	.st6{fill:none;stroke:#4C3A2C;stroke-miterlimit:10;}
	.st7{fill:#AAA9A2;}
	.st8{fill:#EFEDE1;}
	.st9{fill:#E2DFD3;}
	.st10{fill:#E1E1E1;}
	.st11{fill:#FFFDFE;}
	.st12{fill:#FFFFFF;}
	.st13{fill:#DBEDEC;}
	.st14{fill:#C0D8DC;}
	.st15{fill:#FFD892;}
	.st16{fill:#FFE0AE;}
	.st17{fill:#B78B49;}
	.st18{fill:#F2DCB6;}
	.st19{fill:#736357;}
	.st20{fill:#EAD224;stroke:#000000;stroke-miterlimit:10;}
	.st21{fill:#49403A;}
	.st22{fill:#3D3531;}
	.st23{fill:#EFE8E4;}
	.st24{fill:none;stroke:#000000;stroke-width:0.25;stroke-linecap:round;stroke-linejoin:round;stroke-miterlimit:10;}
	.st25{fill:#494949;}
	.st26{fill:#AAA5A2;}
	.st27{fill:#333333;}
	.st28{fill:#A5A5A0;}
	.st29{fill:#B8B3A0;}
	.st30{fill:#827F6F;}
	.st31{fill:#77756A;}
	.st32{fill:#625D54;}
	.st33{fill:#989584;}
	.st34{fill:#A5A290;}
	.st35{fill:#ADA998;}
	.st36{fill:#C0BCA8;}
	.st37{fill:#8C887C;}
	.st38{fill:#C9B578;}
	.st39{fill:#565349;}
	.st40{fill:#4E4B43;}
	.st41{fill:#6F6B61;}
	.st42{fill:#D9D4BB;}
	.st43{fill:#D3CA55;}
	.st44{fill:#D1CCB6;}
	.st45{fill:#C7C3B0;}
	.st46{fill:#4F4F4F;}
	.st47{fill:#5A5A5A;}
	.st48{fill:#434343;}
	.st49{fill:#6F6F6F;}
	.st50{fill:#393939;}
	.st51{fill:#727272;}
	.st52{fill:#606060;}
	.st53{fill:#646464;}
	.st54{fill:#ECECEC;}
	.st55{fill:#DBDBDB;}
	.st56{fill:#FFBF3E;}
	.st57{fill:#CE9736;}
	.st58{fill:#A08B0B;}
	.st59{fill:#C1A310;}
	.st60{fill:#6F7883;}
	.st61{fill:#A6998C;}
	.st62{fill:#728092;}
	.st63{fill:#7C7B7E;}
	.st64{fill:#898485;}
	.st65{fill:#47423D;}
	.st66{fill:#38312F;}
	.st67{fill:#786D61;}
	.st68{fill:#544E4A;}
	.st69{fill:#1B1817;}
	.st70{fill:#4D4944;}
	.st71{fill:#706558;}
	.st72{fill:#556876;}
	.st73{fill:#B0ABAA;}
	.st74{fill:#595350;}
	.st75{fill:#7E6D58;}
	.st76{fill:#262120;}
	.st77{fill:#787D86;}
	.st78{fill:#090607;}
	.st79{fill:#C8B6A3;}
	.st80{fill:#13100F;}
	.st81{fill:#897865;}
	.st82{fill:#D1C1B1;}
	.st83{fill:#BAA895;}
	.st84{fill:#F2E7D4;}
	.st85{fill:#665848;}
	.st86{fill:#9A8D76;}
	.st87{fill:#E7D5B9;}
	.st88{fill:#BCBBB7;}
	.st89{fill:#D8D8D6;}
	.st90{fill:none;stroke:#000000;stroke-width:0.5;stroke-miterlimit:10;}
	.st91{fill:#0F682C;}
	.st92{fill:#0B5B28;}
	.st93{fill:#DDBA10;}
</style>
<g id="Lag_1">
</g>
<g id="væg">
</g>
<g id="gulv">
</g>
<g id="stikkontakt">
</g>
<g id="vindue">
</g>
<g id="gardin">
</g>
<g id="koekkenbord">
</g>
<g id="komfur">
	<g>
		<polygon class="st12" points="0,21 42,45 92,22 51,0 0,21 0,97.5 42,123 42,45 		"/>
		<polygon class="st23" points="43,121.5 41,122.5 41,45.1 43,44.5 		"/>
		<polygon class="st23" points="42,45.5 92.8,23 91,21.5 41,44.5 		"/>
		<ellipse transform="matrix(8.188828e-02 -0.9966 0.9966 8.188828e-02 -0.2823 43.2571)" cx="23.3" cy="21.8" rx="6.1" ry="10.2"/>
		<ellipse transform="matrix(8.188828e-02 -0.9966 0.9966 8.188828e-02 7.3209 71.7774)" cx="42.6" cy="31.9" rx="6.1" ry="10.2"/>
		<ellipse transform="matrix(8.188828e-02 -0.9966 0.9966 8.188828e-02 27.1752 55.3299)" cx="43.6" cy="12.9" rx="6.1" ry="10.2"/>
		<ellipse transform="matrix(8.188828e-02 -0.9966 0.9966 8.188828e-02 34.6529 83.4472)" cx="62.6" cy="22.9" rx="6.1" ry="10.2"/>
		<line class="st24" x1="54" y1="5.5" x2="78" y2="18.5"/>
		<polygon class="st1" points="5,63.5 33,79.5 33,109.5 5,91.5 		"/>
		<polygon class="st1" points="33,71.5 5,55.5 5,38.5 33,54.5 		"/>
		<polygon class="st23" points="33,54.5 33,54.5 34,53.5 34,70.5 33,71.5 		"/>
		<polygon class="st23" points="33,109.5 34,108.5 34,78.5 33,79.5 		"/>
		<polygon class="st23" points="5,63.5 6,62.5 34,78.5 33,79.5 		"/>
		<polygon class="st23" points="34,53.5 6,37.5 5,38.5 33,54.5 		"/>
		<path class="st25" d="M11.6,57.2L24,63.4c0.4,0.2,1-0.1,1-0.5V58c0-0.5-0.3-0.9-0.8-1.2l-12.3-6.6c-0.4-0.2-0.9,0-0.9,0.5v5.5
			C11,56.6,11.2,57,11.6,57.2z"/>
		<path class="st26" d="M14,45.9c0,0,0,0,0,0.1c0.2,0.6,1.2,3.4,4.1,4.9c2.7,1.3,5.8,0.8,5.8,0.8v0.8c0,0-2.5,0.8-5.8-0.8
			c-4-2-4.2-4.2-4.2-4.2v-0.8V45.9z"/>
		<path class="st26" d="M13,70.1c0,0,0,0,0,0.1c0.2,0.6,1.2,3.4,4.1,4.9c2.7,1.3,5.8,0.8,5.8,0.8v0.8c0,0-2.5,0.8-5.8-0.8
			c-4-2-4.2-4.2-4.2-4.2v-0.8V70.1z"/>
		<ellipse class="st27" cx="7" cy="32" rx="2" ry="2.5"/>
		<ellipse class="st27" cx="13" cy="35" rx="2" ry="2.5"/>
		<ellipse class="st27" cx="19" cy="38" rx="2" ry="2.5"/>
		<ellipse class="st27" cx="25" cy="41" rx="2" ry="2.5"/>
		<ellipse class="st27" cx="31" cy="44" rx="2" ry="2.5"/>
	</g>
</g>
<g id="vacumcleaner">
</g>
<g id="stole">
</g>
<g id="bord">
</g>
<g id="lampe">
</g>
<g id="skrivemaskine">
</g>
<g id="papir">
</g>
<g id="bog">
</g>
</svg>
