<?xml version="1.0" encoding="utf-8"?>
<!-- Generator: Adobe Illustrator 23.1.1, SVG Export Plug-In . SVG Version: 6.00 Build 0)  -->
<svg version="1.1" xmlns="http://www.w3.org/2000/svg" xmlns:xlink="http://www.w3.org/1999/xlink" x="0px" y="0px"
	 viewBox="0 0 1056 1056" style="enable-background:new 0 0 1056 1056;" xml:space="preserve">
<style type="text/css">
	.sol{fill:#FFEA29;}
	.sol1{fill:#FFC524;}
	.sol2{fill:none;stroke:#F7931E;stroke-width:4;stroke-miterlimit:10;}
</style>
<g id="Layer_1">
	<g>
		<path class="sol" d="M1056,528c0,0-100.1,43-105,72s75.8,101.6,75.8,101.6S924.9,709.1,909,737s22.8,131.3,22.8,131.3
			S817.3,846.8,791,868c-29.2,23.6-26.4,132.2-26.4,132.2S669.5,944.6,633,954c-42.2,10.9-105,102-105,102s-45.3-104.4-81-112
			s-132.6,67-132.6,67s-1.7-112.7-28.4-131s-131.1,21.6-131.1,21.6S183,809,159,766c-13.4-24.1-127.1-56.7-127.1-56.7
			S96.3,652.2,91,616c-3.6-25-91-88-91-88s83.8-36,94-77c4.6-18.4-58-124-58-124s116.7,3.6,134-25c17.3-28.6-25-121-25-121
			s103.2,5.7,127-13c27.8-21.9,37-121,37-121s77.7,38.5,117,29c40-9.7,102-76,102-76s54.5,78.3,88,85
			c34.8,6.9,115.9-44.2,115.9-44.2S763.8,135.1,791,153c29.5,19.5,126,20,126,20s-23.1,86.9-4,115c19.1,28.2,101.2,33.8,101.2,33.8
			S950,403.8,957,436C965,472.4,1056,528,1056,528z"/>
	</g>
	<circle class="sol1" cx="528" cy="528" r="310"/>
</g>
<g id="Layer_2">
	<path class="sol2" d="M676.2,670.5c-74.7,114.5-70.7,110.3-70.7,110.3l0,46.5c0,9.6-7.3,17.3-16.3,17.2l-133.9-1.3
		c-9.1-0.1-16.3-8.2-16-17.9l1.5-40.5c0.1-3.7-0.8-7.3-2.8-10.3l-47.9-75.2c-0.6-0.9-1.2-1.8-1.8-2.7c-9-12.9-96.7-145.1-1.4-251.4
		c0,0,115.9-142.7,267.2-12.5c4.9,4.3,9.4,9.1,13.1,14.4C687.2,475.3,742.3,569.2,676.2,670.5z"/>
	<path class="sol2" d="M508.3,850l3.2-172.5c0,0-13.4-56.8-28.2-12c-14.7,44.8,49.3,51.3,49.3,51.3s37.1,3.3,26.2-45.9
		c0,0-37.3-29.8-21.5,107.8l5.5,71.3H508.3z"/>
	<g>
		<path class="sol" d="M520,838c44,2,91-11,91-11l3,40l-183-5l5-38C436,824,476.5,836,520,838z"/>
	</g>
</g>
</svg>
