<svg xmlns="http://www.w3.org/2000/svg" viewBox="0 0 768 1024"><defs><style>.cls-1{fill:#fff;stroke:#000;stroke-miterlimit:10;}.cls-2{fill:#eea430;}.cls-3{fill:#ffdc0b;}.cls-4{fill:#fff1d3;}.cls-5{fill:#7f512d;}.cls-6{fill:#815335;}.cls-7{fill:#9b6442;}.cls-8{fill:#90683c;}.cls-9{fill:#412102;}.cls-10{fill:#e7d9d0;}</style></defs><title>stearinlys</title><g id="flamme"><polygon class="cls-1" points="379.32 363.48 379.32 354.76 377.58 354.76 377.58 365.22 379.32 365.22 379.32 363.48"/><path id="indre" class="cls-2" d="M382.81,302.5s-24.39,20.91-17.42,41.81c0,0,4.67,18.69,19.91,7.47a9.93,9.93,0,0,0,3.83-6.15,26.38,26.38,0,0,0-4.58-20.48C375.84,313,382.81,302.5,382.81,302.5Z"/><path id="ydre" class="cls-3" d="M377.58,354.76S388,353,381.07,340.83c0,0-3.49-3.49-3.49-10.46S367.13,347.8,377.58,354.76Z"/></g><g id="stearin"><path class="cls-4" d="M360.16,509.81l3.49-139.37s20.9,5.23,29.61,0l3.49,139.37S375.84,515,360.16,509.81Z"/><path class="cls-5" d="M327.45,538.71s-.39-16.7-21.29-20.18-22.65,19.16-22.65,19.16-1.74,27.87,29.61,26.13C313.12,563.82,327.84,553.67,327.45,538.71Z"/><path class="cls-6" d="M321.31,570.25s-4.7,19.7,42.34,21.45,74.36-3.82,70.28-21.07S321.31,570.25,321.31,570.25Z"/><path class="cls-7" d="M351.45,536s-31.36,0-38.33,10.45,0,17.42,0,17.42S323.58,576,342.74,576h74.91s29.62-3.49,26.13-24.39S351.45,536,351.45,536Z"/><polygon class="cls-5" points="355.81 517.65 351.45 558.59 405.46 558.59 399.36 517.65 355.81 517.65"/><path class="cls-8" d="M360.16,499.36s-20.9,0-15.68,12.2S363.65,522,363.65,522h36.58s33.1-15.68-3.48-22.65S360.16,499.36,360.16,499.36Z"/><path class="cls-9" d="M360.16,504.59s-15.68,1.74,0,5.22Z"/><path class="cls-9" d="M396.75,504.59s13.93,3.48,0,5.22Z"/><path class="cls-9" d="M351.45,544.18s-54,4,0,14.41Z"/><path class="cls-9" d="M404.08,544.18s53.64,7.45,1.38,14.41Z"/><path class="cls-10" d="M363.65,368.7s15.68-7,29.61,0C393.26,368.7,384.55,379.15,363.65,368.7Z"/></g></svg>