<?xml version="1.0" encoding="utf-8"?>
<!-- Generator: Adobe Illustrator 23.0.3, SVG Export Plug-In . SVG Version: 6.00 Build 0)  -->
<svg version="1.1" xmlns="http://www.w3.org/2000/svg" xmlns:xlink="http://www.w3.org/1999/xlink" x="0px" y="0px"
	 viewBox="0 0 160.6 289.5" style="enable-background:new 0 0 160.6 289.5;" xml:space="preserve">
<style type="text/css">
	.lys0{fill:#FFFFFF;stroke:#000000;stroke-miterlimit:10;}
	.lys1{fill:#EEA430;}
	.lys2{fill:#FFDC0B;}
	.lys3{fill:#FFF1D3;}
	.lys4{fill:#7F512D;}
	.lys5{fill:#815335;}
	.lys6{fill:#9B6442;}
	.lys7{fill:#90683C;}
	.lys8{fill:#412102;}
	.lys9{fill:#E7D9D0;}
</style>
<g id="flamme">
	<polygon class="lys0" points="95.8,61 95.8,52.3 94.1,52.3 94.1,62.7 95.8,62.7 	"/>
	<path id="indre" class="lys1" d="M99.3,0c0,0-24.4,20.9-17.4,41.8c0,0,4.7,18.7,19.9,7.5c2-1.5,3.4-3.7,3.8-6.2
		c0.9-4.6,1.1-12.5-4.6-20.5C92.4,10.5,99.3,0,99.3,0z"/>
	<path id="ydre" class="lys2" d="M94.1,52.3c0,0,10.5-1.7,3.5-13.9c0,0-3.5-3.5-3.5-10.5S83.6,45.3,94.1,52.3z"/>
</g>
<g id="stearin">
	<path class="lys3" d="M76.7,207.3l3.5-139.4c0,0,20.9,5.2,29.6,0l3.5,139.4C113.3,207.3,92.4,212.5,76.7,207.3z"/>
	<path class="lys4" d="M44,236.2c0,0-0.4-16.7-21.3-20.2S0,235.2,0,235.2s-1.7,27.9,29.6,26.1C29.6,261.3,44.3,251.2,44,236.2z"/>
	<path class="lys5" d="M37.8,267.8c0,0-4.7,19.7,42.3,21.4c47,1.7,74.4-3.8,70.3-21.1C146.4,250.9,37.8,267.8,37.8,267.8z"/>
	<path class="lys6" d="M68,233.4c0,0-31.4,0-38.3,10.5s0,17.4,0,17.4s10.5,12.2,29.6,12.2s74.9,0,74.9,0s29.6-3.5,26.1-24.4
		S68,233.4,68,233.4z"/>
	<polygon class="lys4" points="72.3,215.2 68,256.1 122,256.1 115.9,215.2 	"/>
	<path class="lys7" d="M76.7,196.9c0,0-20.9,0-15.7,12.2s19.2,10.5,19.2,10.5h36.6c0,0,33.1-15.7-3.5-22.6
		C76.7,189.9,76.7,196.9,76.7,196.9z"/>
	<path class="lys8" d="M76.7,202.1c0,0-15.7,1.7,0,5.2V202.1z"/>
	<path class="lys8" d="M113.3,202.1c0,0,13.9,3.5,0,5.2V202.1z"/>
	<path class="lys8" d="M68,241.7c0,0-54,4,0,14.4V241.7z"/>
	<path class="lys8" d="M120.6,241.7c0,0,53.6,7.4,1.4,14.4L120.6,241.7z"/>
	<path class="lys9" d="M80.2,66.2c0,0,15.7-7,29.6,0C109.8,66.2,101.1,76.7,80.2,66.2z"/>
</g>
</svg>
