<svg xmlns="http://www.w3.org/2000/svg" viewBox="0 0 630 653"><defs><style>.cls-1{fill:#534741;}.cls-2,.cls-7{fill:#333;}.cls-3{fill:#606060;}.cls-4{fill:#262626;}.cls-5{fill:#604a3a;}.cls-6{fill:#070707;stroke:#2d2c2c;}.cls-13,.cls-14,.cls-6,.cls-7,.cls-8{stroke-miterlimit:10;}.cls-14,.cls-7,.cls-8{stroke:#000;}.cls-14,.cls-15,.cls-8{fill:#1a1a1a;}.cls-9{fill:#ccb07b;}.cls-10{fill:#121422;}.cls-11{fill:#000d1a;}.cls-12{fill:#42210b;}.cls-13{fill:#331605;stroke:#42210b;}.cls-14{stroke-width:0.5px;}.cls-16{fill:gray;}.cls-17{fill:#412102;}.cls-18{fill:#0c0b08;opacity:0.51;}.cls-19{fill:#efea95;opacity:0.2;}</style></defs><title>stearin</title><g id="scene"><polygon class="cls-1" points="23 213 23 456 315 287 315 46 23 213"/><polygon class="cls-2" points="23 456 316 287 607 456 316 625 23 456"/><polygon class="cls-1" points="315 46 315 287 607 456 607 216 315 46"/><polygon class="cls-3" points="0 200 0 443 23 456 23 213 0 200"/><polygon class="cls-3" points="607 216 607 459 630 445 630 201 607 216"/><polygon class="cls-3" points="0 200 23 213 314 46 607 216 630 201 315 19 0 200"/><polygon class="cls-4" points="316 625 0 443 0 470 316 653 316 625"/><polygon class="cls-4" points="316 625 316 653 630 471 630 443 316 625"/><polygon class="cls-1" points="330.55 461.3 330.69 523.8 335.69 523.76 335.23 461.27 330.55 461.3"/><polygon class="cls-5" points="209.72 394.69 270.46 359.24 394.98 429.32 334.24 464.77 209.72 394.69"/><polygon class="cls-1" points="394.98 429.32 395.01 434.32 334.27 469.77 209.77 401.69 209.72 394.69 334.24 464.77 394.98 429.32"/><polygon class="cls-1" points="392.32 432.85 392.46 495.35 397.46 495.31 397 432.82 392.32 432.85"/><polygon class="cls-1" points="210.07 399.19 210.21 461.69 215.21 461.65 214.75 399.16 210.07 399.19"/><path d="M427.64,313.55l54.81,22.12-8.6,56.22s-53.24-23.83-59-28.64-34.41-14.42-34.41-14.42-32.49-14.12-33-19.43,7.7-39.69,7.7-39.69l30.26,9.53s39.52,15.2,42.27,14.31"/><polygon points="473.58 391.52 508.68 382.18 514.04 330.04 482.18 335.3 473.58 391.52"/><path class="cls-6" d="M509.05,381.91l-1.4,22c-.13.83-10.06,7.23-10.84,7.52-5.45,2.06-26.82,9.93-28.71,7.36,0,0-10.51.35-54-27.22,0,0-22.07-13.84-39.47-19.77s-34.37-19-34.37-19l4.11-18.33s1.33-4.38,2.6-4.18,3.45,3.14,5.27,4.07,9,5.3,9,5.3,21.29,10.45,23.85,10.84,24,9.56,24,9.56,5.56,2.16,6,3.53,31.56,15.95,31.56,15.95l18.93,8.77,8,3.19Z"/><path class="cls-7" d="M483.5,330.92l-.78,5.11,41.47-6.5a1,1,0,0,0,.85-.86l.47-3.09Z"/><polygon class="cls-7" points="483.5 330.92 350.05 284.36 349.56 287.56 482.72 336.04 483.5 330.92"/><path class="cls-7" d="M425.81,323.41s23.49.32,41.34,16.13l-5.67,37-.68,4.48-40.66-20.61Z"/><path class="cls-7" d="M467.15,339.54l3.39-.79s-12.74-15-42.43-17.6l-2.21,1.62S453.67,325.05,467.15,339.54Z"/><path class="cls-8" d="M470.54,338.75l-1,6.39a4.64,4.64,0,0,0,4.47.68s.79,3.39-.68,4.47-4.67.6-4.47-.68-3.33,21.72-3.33,21.72,4.38,1.33,2.71,3.69c0,0,.25,2.65-1.67,2.36s-5.79,3.69-5.79,3.69l6.35-41.53Z"/><path class="cls-9" d="M435.35,337.94S446,332.38,449,342.65a3.47,3.47,0,0,1,3.54,2.5c.89,2.75-4,.69-4,.69s-1,2.46-3.83-.58-6.93-1.72-6.93-1.72-3.84-.58-2.91-2.4c0,0-5.65-1.52-2.8-3S435.35,337.94,435.35,337.94Z"/><path class="cls-7" d="M357.58,299.24s17.1-.65,25.95,9.86l-4.69,30.66-26.1-13.14Z"/><path class="cls-2" d="M383.53,309.1l2.31-2.27s-8.51-8.49-24.68-9.65l-3.58,2.06S375.32,298.69,383.53,309.1Z"/><path class="cls-8" d="M385.84,306.83l-.88,5.76s.86,1.78,1.92.29c1.67-2.36,1.33,4.12-.59,3.83l-2.55-.39L381,334.21s2.85-1.53,3.1,1.13,1.28.19-1,2.46-4.23,2-4.23,2l4.69-30.66Z"/><polygon points="525.51 325.58 481.33 343.27 350.05 284.36 389.07 274.54 525.51 325.58"/><path d="M473.26,229s2.68-30.32,6.71-31-25.27-5.83-25.27-5.83l-8.86,36.57,9.79,8.69Z"/><polygon points="501.66 278.45 479.69 272.48 474.38 309.2 495.9 316.15 501.66 278.45"/><ellipse class="cls-10" cx="511.53" cy="245.05" rx="10.66" ry="5.49" transform="translate(191.98 713.66) rotate(-81.31)"/><path d="M515.36,233.79l-46.64-7.13-11.4,6.11s4.05-2-.19-8.48c0,0-37.55-13.9-41-12.47s-8.45,16.62-6.29,19.56c0,0,.79,3.39,11.11,4.32s91.22,19.18,91.22,19.18-4.37-1.32-3.55-11S515.36,233.79,515.36,233.79Z"/><polygon points="480.18 269.28 483.36 248.47 505.76 251.62 503.43 275.45 480.18 269.28"/><polygon class="cls-11" points="426 294.34 428.56 294.73 435.98 237.68 433.07 235.27 426 294.34"/><polygon class="cls-7" points="495.9 316.15 499.26 317.64 508.94 254.39 505.76 251.62 495.9 316.15"/><polygon class="cls-12" points="518.33 284.92 388.67 252.02 402.57 250.87 529.43 280.74 518.33 284.92"/><path class="cls-12" d="M492.55,277.59s21.6,4.73,10.76,28.57l-3.55,12.53,5.23,2.12s14.13-24,5.77-37.7S492.55,277.59,492.55,277.59Z"/><path class="cls-13" d="M517.34,278.56l-7,43.4-6.83-2.36s14.86-33,1.84-37.64Z"/><path class="cls-12" d="M388.67,252s9.48,2.1,12.05,11l-3.3,21.53,8.08,2.74,3.31-30.15Z"/><polygon points="415.38 231.26 412.7 253.08 429.75 256.99 432.63 233.89 415.38 231.26"/><polygon points="410.98 260.01 407.6 287.61 425.47 293.53 428.87 262.74 411.19 257.73 410.98 260.01"/><polygon class="cls-7" points="481.63 381.64 501.87 377.54 507.1 339.11 487.05 341.93 481.63 381.64"/><polygon class="cls-7" points="481.35 396.31 479.59 407.81 496.83 401.94 498.4 391.72 481.35 396.31"/><polygon class="cls-7" points="418.51 377.54 454.99 395.54 453.13 407.68 416.65 389.68 418.51 377.54"/><polygon class="cls-7" points="454.72 395.18 458.94 393.21 421.82 375.11 418.24 377.17 454.72 395.18"/><path class="cls-9" d="M363.24,309.26s6.73-5.51,9.29,3.39c0,0,3.29-.15,3,1.76s-3.29.15-3.29.15.24,2.66-.94,1.82-2.51-5-8.65-3.28c0,0-.34-2,.3-1.92S357.49,308.38,363.24,309.26Z"/><path class="cls-8" d="M458.94,393.21l-.88,5.75s-.83,1.18,1.28.19,3.73,1.23.89,2.75-6.83,6.15-6.83,6.15l2-12.78Z"/><polygon class="cls-7" points="348.18 343.58 346.72 353.16 369.19 364.44 370.75 354.22 348.18 343.58"/><polygon class="cls-7" points="348.18 343.58 350.59 340.68 372.51 351.22 370.75 354.22 348.18 343.58"/><path class="cls-14" d="M372.47,351.51l-.83,5.42a.06.06,0,0,0,0,.06c.18.11,1.23.64,2.08-1s.24,2.7.16,3.23a.06.06,0,0,1-.07,0l-2.45-.38a.05.05,0,0,0-.06,0l-2,5a.06.06,0,0,1-.11,0l1.49-9.7v0l1.62-2.74A.05.05,0,0,1,372.47,351.51Z"/><path class="cls-9" d="M430,389.15s6.49-2,7.08,4.05a2,2,0,0,1,1.7,1.76c.2,1.62-2.31,0-2.31,0s-.83,1.25-2.06-.73a3.94,3.94,0,0,0-3.66-1.68s-2.07-.73-1.36-1.64c0,0-3-1.44-1.23-2S430,389.15,430,389.15Z"/><path class="cls-9" d="M354.75,352.69s3.49-2.86,4.82,1.76c0,0,1.71-.08,1.56.91s-1.71.08-1.71.08.13,1.38-.48.95-1.3-2.58-4.49-1.71c0,0-.18-1,.15-1S351.77,352.24,354.75,352.69Z"/><path class="cls-15" d="M235.46,232.52s.79-4.22,4.66.73l2.57,25.65S259.66,263,257,277s-19.27,12.65-19.27,12.65-14.26-7.64-8.29-20.77c0,0,3.06-7.71,9.71-9.07Z"/><circle cx="277.12" cy="248.12" r="17.18"/><path class="cls-16" d="M273.5,231.8s-2.12-1.9-1.56-3.84l4.44-.84s1,3,.67,3.56,3.28.57,3.28.57.52-7.26-3.56-7-6.75.81-6.75.81-4.28,3.64.62,8Z"/><path class="cls-16" d="M278.63,265.24s-1.93,7.65,4.63,7.12,7.83-4.87,7.83-4.87-.47-4-3.94-5.45l-1.93,1.38s2.48,1.48,2.43,3.91c0,0-3.49,2.28-5.5,2.06,0,0-1.56-2.79-1.18-4.38C281,265,278.87,265.94,278.63,265.24Z"/><path class="cls-17" d="M315.36,395.09s-5.91.65,0,2Z"/><path class="cls-17" d="M329.13,395.09s5.25,1.31,0,2Z"/></g><g id="morke"><path class="cls-18" d="M315.5,45.5l292,171L607,459,317.5,624.5l2-146s86.35-12.66,97.19-88.84c0,0,23.77-116.43-97.19-139.31Z"/><path class="cls-18" d="M315,46,23,212V456L319,624V479s-106,4-118-115c0,0-2-111,118-114Z"/></g><g id="lyskegle"><ellipse class="cls-19" cx="310" cy="362.7" rx="116" ry="120.93"/></g></svg>