<?xml version="1.0" encoding="utf-8"?>
<!-- Generator: Adobe Illustrator 23.1.1, SVG Export Plug-In . SVG Version: 6.00 Build 0)  -->
<svg version="1.1" xmlns="http://www.w3.org/2000/svg" xmlns:xlink="http://www.w3.org/1999/xlink" x="0px" y="0px"
	 viewBox="0 0 12 23.2" style="enable-background:new 0 0 12 23.2;" xml:space="preserve">
<style type="text/css">
	.stik0{fill:#F2EFDD;}
	.stik1{fill:#F2F2F2;}
	.stik2{fill:#DFDFDF;}
	.stik3{fill:#E8D274;}
	.stik4{fill:#594433;}
	.stik5{fill:#262626;}
	.stik6{fill:none;stroke:#4C3A2C;stroke-miterlimit:10;}
	.stik7{fill:#AAA9A2;}
	.stik8{fill:#EFEDE1;}
	.stik9{fill:#E2DFD3;}
	.stik10{fill:#E1E1E1;}
	.stik11{fill:#FFFDFE;}
	.stik12{fill:#FFFFFF;}
	.stik13{fill:#DBEDEC;}
	.stik14{fill:#C0D8DC;}
	.stik15{fill:#FFD892;}
	.stik16{fill:#FFE0AE;}
	.stik17{fill:#B78B49;}
	.stik18{fill:#F2DCB6;}
	.stik19{fill:#736357;}
	.stik20{fill:#EAD224;stroke:#000000;stroke-miterlimit:10;}
	.stik21{fill:#49403A;}
	.stik22{fill:#3D3531;}
	.stik23{fill:#EFE8E4;}
	.stik24{fill:none;stroke:#000000;stroke-width:0.25;stroke-linecap:round;stroke-linejoin:round;stroke-miterlimit:10;}
	.stik25{fill:#494949;}
	.stik26{fill:#AAA5A2;}
	.stik27{fill:#333333;}
	.stik28{fill:#A5A5A0;}
	.stik29{fill:#B8B3A0;}
	.stik30{fill:#827F6F;}
	.stik31{fill:#77756A;}
	.stik32{fill:#625D54;}
	.stik33{fill:#989584;}
	.stik34{fill:#A5A290;}
	.stik35{fill:#ADA998;}
	.stik36{fill:#C0BCA8;}
	.st37{fill:#8C887C;}
	.st38{fill:#C9B578;}
	.st39{fill:#565349;}
	.st40{fill:#4E4B43;}
	.st41{fill:#6F6B61;}
	.st42{fill:#D9D4BB;}
	.st43{fill:#D3CA55;}
	.st44{fill:#D1CCB6;}
	.st45{fill:#C7C3B0;}
	.st46{fill:#4F4F4F;}
	.st47{fill:#5A5A5A;}
	.st48{fill:#434343;}
	.st49{fill:#6F6F6F;}
	.st50{fill:#393939;}
	.st51{fill:#727272;}
	.st52{fill:#606060;}
	.st53{fill:#646464;}
	.st54{fill:#ECECEC;}
	.st55{fill:#DBDBDB;}
	.st56{fill:#FFBF3E;}
	.st57{fill:#CE9736;}
	.st58{fill:#A08B0B;}
	.st59{fill:#C1A310;}
	.st60{fill:#6F7883;}
	.st61{fill:#A6998C;}
	.st62{fill:#728092;}
	.st63{fill:#7C7B7E;}
	.st64{fill:#898485;}
	.st65{fill:#47423D;}
	.st66{fill:#38312F;}
	.st67{fill:#786D61;}
	.st68{fill:#544E4A;}
	.st69{fill:#1B1817;}
	.st70{fill:#4D4944;}
	.st71{fill:#706558;}
	.st72{fill:#556876;}
	.st73{fill:#B0ABAA;}
	.st74{fill:#595350;}
	.st75{fill:#7E6D58;}
	.st76{fill:#262120;}
	.st77{fill:#787D86;}
	.st78{fill:#090607;}
	.st79{fill:#C8B6A3;}
	.st80{fill:#13100F;}
	.st81{fill:#897865;}
	.st82{fill:#D1C1B1;}
	.st83{fill:#BAA895;}
	.st84{fill:#F2E7D4;}
	.st85{fill:#665848;}
	.st86{fill:#9A8D76;}
	.st87{fill:#E7D5B9;}
	.st88{fill:#BCBBB7;}
	.st89{fill:#D8D8D6;}
	.st90{fill:none;stroke:#000000;stroke-width:0.5;stroke-miterlimit:10;}
	.st91{fill:#0F682C;}
	.st92{fill:#0B5B28;}
	.st93{fill:#DDBA10;}
</style>
<g id="Lag_1">
</g>
<g id="væg">
</g>
<g id="gulv">
</g>
<g id="stikkontakt">
	<g>
		<path class="stik7" d="M12,6.1v13.2c0,2.2-2.2,3.8-4.3,3L4,21c-1.8-0.7-3-2.4-3-4.3V3.7C1,1,3.8-0.8,6.2,0.3l2.9,1.3
			C10.9,2.4,12,4.2,12,6.1z"/>
		<path class="stik8" d="M11,6.7v13.2c0,2.2-2.2,3.8-4.3,3L3,21.6c-1.8-0.7-3-2.4-3-4.3V4.3c0-2.7,2.8-4.5,5.2-3.4l2.9,1.3
			C9.9,3.1,11,4.8,11,6.7z"/>
		<path class="stik7" d="M6,9.1v2.8c0,0.5-0.5,0.8-0.9,0.6l-0.8-0.3c-0.4-0.1-0.6-0.5-0.6-0.9V8.6c0-0.6,0.6-1,1.1-0.7l0.6,0.3
			C5.8,8.3,6,8.7,6,9.1z"/>
		<path class="stik9" d="M5.3,9.3v2.8c0,0.5-0.5,0.8-0.9,0.6l-0.8-0.3C3.3,12.3,3,12,3,11.6V8.8c0-0.6,0.6-1,1.1-0.7l0.6,0.3
			C5.1,8.5,5.3,8.9,5.3,9.3z"/>
		<circle cx="7.5" cy="11.1" r="0.5"/>
		<circle cx="1.5" cy="9.1" r="0.5"/>
		<path class="stik7" d="M7.8,15.6l-5.2-2c-0.7-0.3-1.5,0.2-1.5,1v3c0,0.9,0.6,1.8,1.5,2.1L7,21.5c1,0.4,2-0.3,2-1.3v-2.8
			C9.1,16.6,8.5,15.9,7.8,15.6z"/>
		<path class="stik9" d="M6.7,15.9l-4.4-1.8C1.7,13.8,1,14.3,1,15v2.8c0,0.9,0.5,1.6,1.3,1.9L6,21.3c0.8,0.3,1.7-0.3,1.7-1.2v-2.5
			C7.7,16.8,7.3,16.2,6.7,15.9z"/>
		<circle cx="5.5" cy="17.1" r="0.5"/>
		<circle cx="2.5" cy="16.1" r="0.5"/>
		<circle cx="3.5" cy="18.1" r="0.5"/>
	</g>
</g>
<g id="vindue">
</g>
<g id="gardin">
</g>
<g id="koekkenbord">
</g>
<g id="komfur">
</g>
<g id="vacumcleaner">
</g>
<g id="stole">
</g>
<g id="bord">
</g>
<g id="lampe">
</g>
<g id="skrivemaskine">
</g>
<g id="papir">
</g>
<g id="bog">
</g>
</svg>
