<?xml version="1.0" encoding="utf-8"?>
<!-- Generator: Adobe Illustrator 23.0.3, SVG Export Plug-In . SVG Version: 6.00 Build 0)  -->
<svg version="1.1" id="Lag_1" xmlns="http://www.w3.org/2000/svg" xmlns:xlink="http://www.w3.org/1999/xlink" x="0px" y="0px"
	 viewBox="0 0 769 478" style="enable-background:new 0 0 769 478;" xml:space="preserve">
<style type="text/css">
	.times0{stroke:#000000;stroke-miterlimit:10;}
	.times1{fill:#42423E;}
	.times2{fill:#333333;stroke:#C8C7BD;stroke-width:2;stroke-miterlimit:10;}
	.times3{fill:#111111;}
	.times4{fill:#F25898;stroke:#00FF00;stroke-miterlimit:10;}
	.times5{fill:#F4F66D;}
	.times6{fill:#00E7FC;}
	.times7{fill:#C8C7BD;stroke:#F3FF00;stroke-miterlimit:10;}
	.times8{fill:#F7FA00;}
	.times9{font-family:'AcierBATText-Gris';}
	.times10{font-size:8.0947px;}
	.times11{fill:#F3FF00;}
	.times12{font-family:'Kinescope';}
	.times13{font-size:10.4075px;}
	.times14{fill:#00F3D2;}
	.times15{font-family:'Shelby';}
	.times16{font-size:19.6585px;}
	.times17{fill:none;stroke:#000000;stroke-miterlimit:10;}
	.times18{fill:#00FF00;}
	.times19{fill:#C8C7BD;}
	.times20{fill:#C8C7BD;stroke:#C8C7BD;stroke-width:3;stroke-miterlimit:10;}
	.times21{fill:#282825;stroke:#F3FF00;stroke-miterlimit:10;}
	.times22{fill:none;stroke:#C8C7BD;stroke-miterlimit:10;}
	.times23{stroke:#C8C7BD;stroke-miterlimit:10;}
	.times24{fill:#EBFF00;}
	.times25{fill:#44212F;stroke:#FF0080;stroke-width:4;stroke-miterlimit:10;}
	.times26{fill:#F4FF00;}
	.times27{font-family:'Krungthep';}
	.times28{font-size:12.729px;}
	.times29{fill:#FF00DF;}
	.times30{fill:#1A1A1A;stroke:#C8C7BD;stroke-width:2;stroke-miterlimit:10;}
	.times31{fill:#FF0000;}
	.times32{stroke:#C8C7BD;stroke-width:2;stroke-miterlimit:10;}
	.times33{fill:none;stroke:#F3FF00;stroke-miterlimit:10;}
	.times34{fill:#C8C7BD;stroke:#C8C7BD;stroke-width:2;stroke-miterlimit:10;}
</style>
<rect x="0.5" y="0.5" class="times0" width="768" height="477"/>
<polygon class="times1" points="216.2,97.5 210.4,98.3 156.8,80.3 156.5,75.6 "/>
<polygon class="times1" points="43.7,161.9 29.5,156 33.6,16.7 47.9,13.3 "/>
<polygon class="times1" points="285.9,37 279.8,32.1 239.5,40.1 245.6,45 "/>
<polygon class="times1" points="549.8,73.9 554.7,67.8 739.9,58.5 733.9,62 "/>
<polygon class="times1" points="605.6,260.5 613.4,253.3 613.4,165.3 605.6,170.8 "/>
<polygon class="times1" points="551.6,166.9 559.4,161.4 613.6,165.3 605.9,170.8 "/>
<polygon class="times2" points="464.3,299.3 436.6,288.9 408.3,280.2 408.8,35.6 464.3,35.6 "/>
<polygon class="times3" points="187.5,212.7 280.5,218.7 280.4,226.2 187.3,225.4 "/>
<polygon class="times4" points="245.8,44.7 285.8,37.2 282.7,152.5 246.1,153.5 "/>
<g>
	<line class="times5" x1="302.4" y1="106.6" x2="302.5" y2="138.4"/>
	<line class="times5" x1="316.2" y1="114.9" x2="302.8" y2="122.8"/>
	<line class="times5" x1="328.8" y1="123.1" x2="302.8" y2="122.8"/>
	<line class="times5" x1="317.7" y1="132.2" x2="302.8" y2="122.8"/>
	<line class="times5" x1="288.8" y1="130.6" x2="302.8" y2="122.8"/>
	<line class="times5" x1="276.2" y1="122.4" x2="302.8" y2="122.8"/>
	<line class="times5" x1="289.6" y1="114.5" x2="302.8" y2="122.8"/>
	<line class="times5" x1="292.6" y1="104.7" x2="296.7" y2="101.8"/>
	<line class="times5" x1="292.7" y1="101.8" x2="297.8" y2="104.8"/>
	<line class="times5" x1="311.9" y1="94" x2="311.6" y2="110.7"/>
	<line class="times5" x1="311.7" y1="103.8" x2="318.1" y2="101"/>
	<line class="times5" x1="306" y1="99.7" x2="311.7" y2="103.8"/>
	<line class="times5" x1="301.9" y1="103.7" x2="321" y2="103.9"/>
	<line class="times5" x1="307.1" y1="107.2" x2="311.7" y2="103.8"/>
	<line class="times5" x1="317.4" y1="107.9" x2="311.7" y2="103.8"/>
	<line class="times5" x1="295" y1="97.8" x2="295.5" y2="108.2"/>
</g>
<g>
	<circle class="times6" cx="48" cy="161.8" r="1.7"/>
	
		<ellipse transform="matrix(1.483516e-02 -0.9999 0.9999 1.483516e-02 -107.1586 216.1774)" class="times6" cx="56.1" cy="162.5" rx="1.2" ry="1.7"/>
	<circle class="times6" cx="113.9" cy="168" r="1.2"/>
	<g>
		
			<ellipse transform="matrix(1.483516e-02 -0.9999 0.9999 1.483516e-02 26.3895 57.5604)" class="times6" cx="42.4" cy="15.4" rx="1.2" ry="2"/>
		
			<ellipse transform="matrix(1.483516e-02 -0.9999 0.9999 1.483516e-02 35.3651 66.9447)" class="times6" cx="51.7" cy="15.5" rx="1.2" ry="2"/>
		
			<ellipse transform="matrix(1.483516e-02 -0.9999 0.9999 1.483516e-02 32.3436 60.8501)" class="times6" cx="47.1" cy="14" rx="0.9" ry="1.4"/>
		<circle class="times6" cx="55.7" cy="17" r="0.9"/>
		
			<ellipse transform="matrix(1.483516e-02 -0.9999 0.9999 1.483516e-02 40.8599 77.9735)" class="times6" cx="60" cy="18.3" rx="0.9" ry="1.7"/>
		
			<ellipse transform="matrix(1.483516e-02 -0.9999 0.9999 1.483516e-02 43.5626 85.4961)" class="times6" cx="65.2" cy="20.6" rx="0.9" ry="2.9"/>
		<circle class="times6" cx="69.8" cy="22.2" r="1.2"/>
		<circle class="times6" cx="73.2" cy="23.9" r="1.2"/>
		
			<ellipse transform="matrix(1.483516e-02 -0.9999 0.9999 1.483516e-02 51.2503 101.166)" class="times6" cx="77" cy="24.6" rx="1.2" ry="1.4"/>
		
			<ellipse transform="matrix(1.483516e-02 -0.9999 0.9999 1.483516e-02 53.9913 106.9673)" class="times6" cx="81.3" cy="26.1" rx="1.4" ry="2.3"/>
		<circle class="times6" cx="85.3" cy="27.6" r="1.2"/>
		
			<ellipse transform="matrix(1.483516e-02 -0.9999 0.9999 1.483516e-02 59.1801 118.8504)" class="times6" cx="89.9" cy="29.4" rx="1.7" ry="2.3"/>
		
			<ellipse transform="matrix(1.483516e-02 -0.9999 0.9999 1.483516e-02 61.6023 126.0797)" class="times6" cx="94.8" cy="31.8" rx="1.2" ry="2"/>
		
			<ellipse transform="matrix(1.483516e-02 -0.9999 0.9999 1.483516e-02 65.172 133.3345)" class="times6" cx="100.2" cy="33.6" rx="1.2" ry="2.3"/>
		
			<ellipse transform="matrix(1.483516e-02 -0.9999 0.9999 1.483516e-02 67.9003 139.7095)" class="times6" cx="104.8" cy="35.4" rx="1.7" ry="1.2"/>
		<circle class="times6" cx="109.5" cy="36.6" r="1.7"/>
		
			<ellipse transform="matrix(1.483516e-02 -0.9999 0.9999 1.483516e-02 73.6501 152.1792)" class="times6" cx="114.1" cy="38.7" rx="1.4" ry="1.7"/>
		
			<ellipse transform="matrix(1.483516e-02 -0.9999 0.9999 1.483516e-02 77.2453 158.2865)" class="times6" cx="118.9" cy="39.9" rx="1.4" ry="2"/>
		<circle class="times6" cx="123" cy="41.2" r="1.4"/>
		
			<ellipse transform="matrix(1.483516e-02 -0.9999 0.9999 1.483516e-02 84.6142 175.3844)" class="times6" cx="131.3" cy="44.8" rx="1.4" ry="2.3"/>
		<circle class="times6" cx="126.4" cy="42.9" r="1.4"/>
		
			<ellipse transform="matrix(1.483516e-02 -0.9999 0.9999 1.483516e-02 87.6485 180.9052)" class="times6" cx="135.6" cy="46" rx="0.9" ry="1.4"/>
		<circle class="times6" cx="139.4" cy="47.5" r="1.2"/>
		<circle class="times6" cx="143.7" cy="49" r="1.4"/>
		
			<ellipse transform="matrix(1.483516e-02 -0.9999 0.9999 1.483516e-02 23.1509 61.2196)" class="times6" cx="42.6" cy="18.9" rx="1.2" ry="1.7"/>
		
			<ellipse transform="matrix(1.483516e-02 -0.9999 0.9999 1.483516e-02 20.2183 64.0244)" class="times6" cx="42.6" cy="21.8" rx="1.2" ry="1.7"/>
		
			<ellipse transform="matrix(1.483516e-02 -0.9999 0.9999 1.483516e-02 17.273 67.4031)" class="times6" cx="42.8" cy="24.9" rx="0.9" ry="3.2"/>
		
			<ellipse transform="matrix(1.483516e-02 -0.9999 0.9999 1.483516e-02 13.4734 70.4756)" class="times6" cx="42.5" cy="28.4" rx="0.9" ry="1.7"/>
		
			<ellipse transform="matrix(1.483516e-02 -0.9999 0.9999 1.483516e-02 11.1273 72.7195)" class="times6" cx="42.5" cy="30.7" rx="0.9" ry="1.7"/>
		
			<ellipse transform="matrix(1.483516e-02 -0.9999 0.9999 1.483516e-02 8.1947 75.5244)" class="times6" cx="42.4" cy="33.6" rx="0.9" ry="1.7"/>
		
			<ellipse transform="matrix(1.483516e-02 -0.9999 0.9999 1.483516e-02 4.9689 78.6098)" class="times6" cx="42.4" cy="36.8" rx="1.7" ry="2.9"/>
		
			<ellipse transform="matrix(1.483516e-02 -0.9999 0.9999 1.483516e-02 0.8633 82.5366)" class="times6" cx="42.3" cy="40.8" rx="1.2" ry="1.7"/>
		<circle class="times6" cx="42.3" cy="43.7" r="1.2"/>
		
			<ellipse transform="matrix(1.483516e-02 -0.9999 0.9999 1.483516e-02 -5.0019 88.1464)" class="times6" cx="42.2" cy="46.6" rx="1.2" ry="2.9"/>
		
			<ellipse transform="matrix(1.483516e-02 -0.9999 0.9999 1.483516e-02 -9.1075 92.0732)" class="times6" cx="42.2" cy="50.7" rx="1.2" ry="1.7"/>
		<circle class="times6" cx="42.1" cy="55.3" r="1.7"/>
		
			<ellipse transform="matrix(1.483516e-02 -0.9999 0.9999 1.483516e-02 -17.3187 99.9268)" class="times6" cx="42.1" cy="58.8" rx="0.6" ry="1.7"/>
		
			<ellipse transform="matrix(1.483516e-02 -0.9999 0.9999 1.483516e-02 -19.6647 102.1708)" class="times6" cx="42" cy="61.1" rx="1.2" ry="2.3"/>
		<circle class="times6" cx="42" cy="64.5" r="1.2"/>
		
			<ellipse transform="matrix(1.483516e-02 -0.9999 0.9999 1.483516e-02 -26.1164 108.3415)" class="times6" cx="41.9" cy="67.4" rx="0.6" ry="1.7"/>
		
			<ellipse transform="matrix(1.483516e-02 -0.9999 0.9999 1.483516e-02 -28.4625 110.5854)" class="times6" cx="41.9" cy="69.7" rx="1.2" ry="1.7"/>
		
			<ellipse transform="matrix(1.483516e-02 -0.9999 0.9999 1.483516e-02 -31.9816 113.9512)" class="times6" cx="41.8" cy="73.2" rx="1.2" ry="2.3"/>
		
			<ellipse transform="matrix(1.483516e-02 -0.9999 0.9999 1.483516e-02 -36.0872 117.8781)" class="times6" cx="41.8" cy="77.3" rx="1.2" ry="1.7"/>
		
			<ellipse transform="matrix(1.483516e-02 -0.9999 0.9999 1.483516e-02 -39.6063 121.2439)" class="times6" cx="41.7" cy="80.7" rx="1.2" ry="1.7"/>
		
			<ellipse transform="matrix(1.483516e-02 -0.9999 0.9999 1.483516e-02 -42.5388 124.0488)" class="times6" cx="41.7" cy="83.6" rx="0.6" ry="2.3"/>
		
			<ellipse transform="matrix(1.483516e-02 -0.9999 0.9999 1.483516e-02 -46.0579 127.4146)" class="times6" cx="41.6" cy="87.1" rx="1.7" ry="1.2"/>
		
			<ellipse transform="matrix(1.483516e-02 -0.9999 0.9999 1.483516e-02 -50.7245 130.755)" class="times6" cx="41" cy="91.1" rx="1.2" ry="1.7"/>
		
			<ellipse transform="matrix(1.483516e-02 -0.9999 0.9999 1.483516e-02 -53.6826 134.7073)" class="times6" cx="41.5" cy="94.6" rx="1.2" ry="1.7"/>
		
			<ellipse transform="matrix(1.483516e-02 -0.9999 0.9999 1.483516e-02 -56.6152 137.5122)" class="times6" cx="41.5" cy="97.5" rx="1.2" ry="2.9"/>
		
			<ellipse transform="matrix(1.483516e-02 -0.9999 0.9999 1.483516e-02 -60.1343 140.8781)" class="times6" cx="41.4" cy="101" rx="1.2" ry="1.7"/>
		
			<ellipse transform="matrix(1.483516e-02 -0.9999 0.9999 1.483516e-02 -63.0669 143.6829)" class="times6" cx="41.4" cy="103.8" rx="0.6" ry="1.7"/>
		<circle class="times6" cx="41.3" cy="106.2" r="1.2"/>
		
			<ellipse transform="matrix(1.483516e-02 -0.9999 0.9999 1.483516e-02 -68.932 149.2927)" class="times6" cx="41.3" cy="109.6" rx="1.2" ry="2.3"/>
		<circle class="times6" cx="41.2" cy="113.7" r="1.2"/>
		
			<ellipse transform="matrix(1.483516e-02 -0.9999 0.9999 1.483516e-02 -75.9702 156.0244)" class="times6" cx="41.2" cy="116.6" rx="1.2" ry="1.7"/>
		
			<ellipse transform="matrix(1.483516e-02 -0.9999 0.9999 1.483516e-02 -78.9028 158.8293)" class="times6" cx="41.2" cy="119.5" rx="1.2" ry="2.9"/>
		<circle class="times6" cx="41.1" cy="123.5" r="1.7"/>
		<circle class="times6" cx="41" cy="127.5" r="1.2"/>
		
			<ellipse transform="matrix(1.483516e-02 -0.9999 0.9999 1.483516e-02 -90.0466 169.4878)" class="times6" cx="41" cy="130.4" rx="0.6" ry="1.7"/>
		
			<ellipse transform="matrix(1.483516e-02 -0.9999 0.9999 1.483516e-02 -93.5657 172.8537)" class="times6" cx="40.9" cy="133.9" rx="1.2" ry="2.9"/>
		
			<ellipse transform="matrix(1.483516e-02 -0.9999 0.9999 1.483516e-02 -101.7769 180.7073)" class="times6" cx="40.8" cy="142" rx="0.6" ry="1.2"/>
		
			<ellipse transform="matrix(1.483516e-02 -0.9999 0.9999 1.483516e-02 -105.296 184.0732)" class="times6" cx="40.8" cy="145.5" rx="1.2" ry="2.3"/>
		
			<ellipse transform="matrix(1.483516e-02 -0.9999 0.9999 1.483516e-02 -109.4016 188)" class="times6" cx="40.7" cy="149.5" rx="1.2" ry="1.7"/>
		<circle class="times6" cx="40.7" cy="152.4" r="1.2"/>
		
			<ellipse transform="matrix(1.483516e-02 -0.9999 0.9999 1.483516e-02 -115.8533 194.1707)" class="times6" cx="40.6" cy="155.9" rx="1.2" ry="2.3"/>
		<circle class="times6" cx="40.6" cy="159.3" r="1.2"/>
		
			<ellipse transform="matrix(1.483516e-02 -0.9999 0.9999 1.483516e-02 -118.327 202.1521)" class="times6" cx="43.4" cy="161.1" rx="0.6" ry="1.2"/>
		<circle class="times6" cx="52.1" cy="161.8" r="1.2"/>
		<circle class="times6" cx="60.7" cy="162.5" r="1.2"/>
		
			<ellipse transform="matrix(1.483516e-02 -0.9999 0.9999 1.483516e-02 -99.8914 224.9495)" class="times6" cx="64.2" cy="163.2" rx="0.6" ry="1.7"/>
		<circle class="times6" cx="68.2" cy="163.8" r="1.2"/>
		
			<ellipse transform="matrix(1.483516e-02 -0.9999 0.9999 1.483516e-02 -92.6243 233.7217)" class="times6" cx="72.3" cy="163.9" rx="1.2" ry="1.7"/>
		<circle class="times6" cx="77.5" cy="164.5" r="1.2"/>
		
			<ellipse transform="matrix(1.483516e-02 -0.9999 0.9999 1.483516e-02 -84.2608 244.8145)" class="times6" cx="82.1" cy="165.2" rx="1.2" ry="1.7"/>
		<circle class="times6" cx="86.2" cy="165.2" r="1.2"/>
		
			<ellipse transform="matrix(1.483516e-02 -0.9999 0.9999 1.483516e-02 -75.8717 254.7597)" class="times6" cx="91.3" cy="165.9" rx="1.2" ry="2.3"/>
		<circle class="times6" cx="97.1" cy="166.5" r="1.2"/>
		<circle class="times6" cx="101.2" cy="167.2" r="1.2"/>
		<circle class="times6" cx="105.2" cy="167.2" r="1.2"/>
		
			<ellipse transform="matrix(1.483516e-02 -0.9999 0.9999 1.483516e-02 -59.68 275.2111)" class="times6" cx="109.8" cy="167.9" rx="0.6" ry="1.7"/>
		<circle class="times6" cx="117.3" cy="168" r="1.2"/>
		
			<ellipse transform="matrix(1.483516e-02 -0.9999 0.9999 1.483516e-02 -48.486 288.0889)" class="times6" cx="122" cy="168.6" rx="1.2" ry="2.3"/>
		
			<ellipse transform="matrix(1.483516e-02 -0.9999 0.9999 1.483516e-02 -44.0238 293.9285)" class="times6" cx="127.1" cy="169.3" rx="1.2" ry="1.7"/>
		
			<ellipse transform="matrix(1.483516e-02 -0.9999 0.9999 1.483516e-02 -40.6835 298.5951)" class="times6" cx="131.2" cy="169.9" rx="0.6" ry="1.2"/>
		
			<ellipse transform="matrix(1.483516e-02 -0.9999 0.9999 1.483516e-02 -36.7566 302.7007)" class="times6" cx="135.2" cy="170" rx="1.2" ry="1.7"/>
		<circle class="times6" cx="139.9" cy="170.7" r="1.2"/>
		
			<ellipse transform="matrix(1.483516e-02 -0.9999 0.9999 1.483516e-02 -27.1434 309.229)" class="times6" cx="143.4" cy="168.4" rx="0.6" ry="1.2"/>
		
			<ellipse transform="matrix(1.483516e-02 -0.9999 0.9999 1.483516e-02 -23.6243 305.8631)" class="times6" cx="143.4" cy="164.9" rx="1.2" ry="1.7"/>
		
			<ellipse transform="matrix(1.483516e-02 -0.9999 0.9999 1.483516e-02 -20.1052 302.4973)" class="times6" cx="143.5" cy="161.5" rx="0.6" ry="2.3"/>
		
			<ellipse transform="matrix(1.483516e-02 -0.9999 0.9999 1.483516e-02 -17.1727 299.6924)" class="times6" cx="143.5" cy="158.6" rx="1.2" ry="2.3"/>
		<circle class="times6" cx="143.6" cy="154.5" r="1.2"/>
		
			<ellipse transform="matrix(1.483516e-02 -0.9999 0.9999 1.483516e-02 -10.1345 292.9607)" class="times6" cx="143.6" cy="151.6" rx="0.6" ry="1.7"/>
		
			<ellipse transform="matrix(1.483516e-02 -0.9999 0.9999 1.483516e-02 -7.7884 290.7168)" class="times6" cx="143.6" cy="149.3" rx="0.6" ry="1.7"/>
		
			<ellipse transform="matrix(1.483516e-02 -0.9999 0.9999 1.483516e-02 -3.6828 286.7899)" class="times6" cx="143.7" cy="145.3" rx="1.2" ry="2.3"/>
		
			<ellipse transform="matrix(1.483516e-02 -0.9999 0.9999 1.483516e-02 1.0093 282.3022)" class="times6" cx="143.8" cy="140.6" rx="1.2" ry="1.7"/>
		
			<ellipse transform="matrix(1.483516e-02 -0.9999 0.9999 1.483516e-02 6.8745 276.6924)" class="times6" cx="143.9" cy="134.9" rx="1.7" ry="2.9"/>
		
			<ellipse transform="matrix(1.483516e-02 -0.9999 0.9999 1.483516e-02 12.1531 271.6436)" class="times6" cx="143.9" cy="129.7" rx="1.7" ry="1.2"/>
		
			<ellipse transform="matrix(1.483516e-02 -0.9999 0.9999 1.483516e-02 16.8452 267.1558)" class="times6" cx="144" cy="125" rx="1.2" ry="1.7"/>
		<circle class="times6" cx="144" cy="122.1" r="1.2"/>
		
			<ellipse transform="matrix(1.483516e-02 -0.9999 0.9999 1.483516e-02 23.2969 260.9851)" class="times6" cx="144.1" cy="118.7" rx="1.2" ry="2.3"/>
		
			<ellipse transform="matrix(1.483516e-02 -0.9999 0.9999 1.483516e-02 27.4025 257.0583)" class="times6" cx="144.2" cy="114.6" rx="0.6" ry="1.7"/>
		<circle class="times6" cx="144.2" cy="111.7" r="1.2"/>
		
			<ellipse transform="matrix(1.483516e-02 -0.9999 0.9999 1.483516e-02 33.2676 251.4485)" class="times6" cx="144.2" cy="108.8" rx="0.6" ry="1.7"/>
		
			<ellipse transform="matrix(1.483516e-02 -0.9999 0.9999 1.483516e-02 36.7867 248.0827)" class="times6" cx="144.3" cy="105.4" rx="1.2" ry="1.7"/>
		
			<ellipse transform="matrix(1.483516e-02 -0.9999 0.9999 1.483516e-02 40.8923 244.1558)" class="times6" cx="144.3" cy="101.3" rx="1.2" ry="1.7"/>
		<circle class="times6" cx="144.4" cy="97.9" r="1.2"/>
		
			<ellipse transform="matrix(1.483516e-02 -0.9999 0.9999 1.483516e-02 47.9305 237.4241)" class="times6" cx="144.5" cy="94.4" rx="1.2" ry="2.3"/>
		
			<ellipse transform="matrix(1.483516e-02 -0.9999 0.9999 1.483516e-02 52.6227 232.9363)" class="times6" cx="144.5" cy="89.8" rx="1.2" ry="1.7"/>
		<circle class="times6" cx="144.6" cy="85.7" r="1.7"/>
		
			<ellipse transform="matrix(1.483516e-02 -0.9999 0.9999 1.483516e-02 60.2474 225.6436)" class="times6" cx="144.6" cy="82.2" rx="0.6" ry="1.7"/>
		
			<ellipse transform="matrix(1.483516e-02 -0.9999 0.9999 1.483516e-02 63.1799 222.8388)" class="times6" cx="144.7" cy="79.4" rx="1.2" ry="2.3"/>
		
			<ellipse transform="matrix(1.483516e-02 -0.9999 0.9999 1.483516e-02 67.2855 218.9119)" class="times6" cx="144.7" cy="75.3" rx="0.6" ry="1.7"/>
		<circle class="times6" cx="144.8" cy="72.4" r="1.2"/>
		
			<ellipse transform="matrix(1.483516e-02 -0.9999 0.9999 1.483516e-02 73.1507 213.3022)" class="times6" cx="144.8" cy="69.5" rx="0.6" ry="1.7"/>
		<circle class="times6" cx="144.9" cy="66.1" r="1.7"/>
		
			<ellipse transform="matrix(1.483516e-02 -0.9999 0.9999 1.483516e-02 80.7754 206.0095)" class="times6" cx="144.9" cy="62" rx="1.2" ry="1.7"/>
		
			<ellipse transform="matrix(1.483516e-02 -0.9999 0.9999 1.483516e-02 84.2945 202.6437)" class="times6" cx="145" cy="58.5" rx="0.6" ry="1.2"/>
		
			<ellipse transform="matrix(1.483516e-02 -0.9999 0.9999 1.483516e-02 87.8136 199.2778)" class="times6" cx="145" cy="55.1" rx="1.2" ry="2.9"/>
		<circle class="times6" cx="145.1" cy="51.6" r="1.2"/>
	</g>
</g>
<polygon class="times7" points="32.8,136.7 94.2,127.8 136.7,146.9 94.9,159 "/>
<g>
	
		<ellipse transform="matrix(1.483516e-02 -0.9999 0.9999 1.483516e-02 -56.2877 251.7514)" class="times7" cx="99.6" cy="154.4" rx="0.6" ry="1.7"/>
	
		<ellipse transform="matrix(1.483516e-02 -0.9999 0.9999 1.483516e-02 -58.0473 253.4343)" class="times7" cx="99.6" cy="156.2" rx="0.6" ry="1.7"/>
	
		<ellipse transform="matrix(1.483516e-02 -0.9999 0.9999 1.483516e-02 -60.2401 248.7933)" class="times7" cx="96.1" cy="155" rx="0.6" ry="1.7"/>
	
		<ellipse transform="matrix(1.483516e-02 -0.9999 0.9999 1.483516e-02 -62.5861 251.0372)" class="times7" cx="96.1" cy="157.3" rx="0.6" ry="1.7"/>
	
		<ellipse transform="matrix(1.483516e-02 -0.9999 0.9999 1.483516e-02 -62.4329 244.1522)" class="times7" cx="92.7" cy="153.8" rx="0.6" ry="1.7"/>
	
		<ellipse transform="matrix(1.483516e-02 -0.9999 0.9999 1.483516e-02 -65.9264 246.3706)" class="times7" cx="92.1" cy="156.6" rx="0.6" ry="1.7"/>
	
		<ellipse transform="matrix(1.483516e-02 -0.9999 0.9999 1.483516e-02 -65.2122 240.0721)" class="times7" cx="89.2" cy="153.1" rx="0.6" ry="1.7"/>
	
		<ellipse transform="matrix(1.483516e-02 -0.9999 0.9999 1.483516e-02 -68.1193 241.7295)" class="times7" cx="88.6" cy="155.4" rx="0.6" ry="1.7"/>
	
		<ellipse transform="matrix(1.483516e-02 -0.9999 0.9999 1.483516e-02 -66.8441 236.0176)" class="times7" cx="86.4" cy="151.9" rx="0.6" ry="1.7"/>
	
		<ellipse transform="matrix(1.483516e-02 -0.9999 0.9999 1.483516e-02 -69.0369 231.3766)" class="times7" cx="82.9" cy="150.7" rx="0.6" ry="1.7"/>
	
		<ellipse transform="matrix(1.483516e-02 -0.9999 0.9999 1.483516e-02 -70.3121 237.0885)" class="times7" cx="85.2" cy="154.2" rx="0.6" ry="1.7"/>
	
		<ellipse transform="matrix(1.483516e-02 -0.9999 0.9999 1.483516e-02 -71.9439 233.034)" class="times7" cx="82.3" cy="153" rx="0.6" ry="1.7"/>
	
		<ellipse transform="matrix(1.483516e-02 -0.9999 0.9999 1.483516e-02 -74.1368 228.3929)" class="times7" cx="78.8" cy="151.8" rx="0.6" ry="1.7"/>
	
		<ellipse transform="matrix(1.483516e-02 -0.9999 0.9999 1.483516e-02 -71.2297 226.7355)" class="times7" cx="79.4" cy="149.5" rx="0.6" ry="1.7"/>
	
		<ellipse transform="matrix(1.483516e-02 -0.9999 0.9999 1.483516e-02 -76.3296 223.7519)" class="times7" cx="75.4" cy="150.6" rx="0.6" ry="1.7"/>
	
		<ellipse transform="matrix(1.483516e-02 -0.9999 0.9999 1.483516e-02 -73.4225 222.0945)" class="times7" cx="76" cy="148.3" rx="0.6" ry="1.7"/>
	
		<ellipse transform="matrix(1.483516e-02 -0.9999 0.9999 1.483516e-02 -78.5224 219.1108)" class="times7" cx="71.9" cy="149.4" rx="0.6" ry="1.7"/>
	
		<ellipse transform="matrix(1.483516e-02 -0.9999 0.9999 1.483516e-02 -75.6154 217.4534)" class="times7" cx="72.5" cy="147.1" rx="0.6" ry="1.7"/>
	
		<ellipse transform="matrix(1.483516e-02 -0.9999 0.9999 1.483516e-02 -80.7152 214.4698)" class="times7" cx="68.5" cy="148.2" rx="0.6" ry="1.7"/>
	
		<ellipse transform="matrix(1.483516e-02 -0.9999 0.9999 1.483516e-02 -77.8082 212.8124)" class="times7" cx="69.1" cy="145.9" rx="0.6" ry="1.7"/>
	
		<ellipse transform="matrix(1.483516e-02 -0.9999 0.9999 1.483516e-02 -82.908 209.8288)" class="times7" cx="65" cy="147" rx="0.6" ry="1.7"/>
	
		<ellipse transform="matrix(1.483516e-02 -0.9999 0.9999 1.483516e-02 -79.44 208.7579)" class="times7" cx="66.2" cy="144.7" rx="0.6" ry="1.7"/>
	
		<ellipse transform="matrix(1.483516e-02 -0.9999 0.9999 1.483516e-02 -84.5399 205.7742)" class="times7" cx="62.2" cy="145.8" rx="0.6" ry="1.7"/>
	
		<ellipse transform="matrix(1.483516e-02 -0.9999 0.9999 1.483516e-02 -82.2194 204.6778)" class="times7" cx="62.8" cy="144.1" rx="0.6" ry="1.7"/>
	
		<ellipse transform="matrix(1.483516e-02 -0.9999 0.9999 1.483516e-02 -87.3192 201.6942)" class="times7" cx="58.7" cy="145.2" rx="0.6" ry="1.7"/>
	
		<ellipse transform="matrix(1.483516e-02 -0.9999 0.9999 1.483516e-02 -84.4122 200.0368)" class="times7" cx="59.3" cy="142.9" rx="0.6" ry="1.7"/>
	
		<ellipse transform="matrix(1.483516e-02 -0.9999 0.9999 1.483516e-02 -89.512 197.0531)" class="times7" cx="55.2" cy="144" rx="0.6" ry="1.7"/>
	
		<ellipse transform="matrix(1.483516e-02 -0.9999 0.9999 1.483516e-02 -86.044 195.9822)" class="times7" cx="56.4" cy="141.7" rx="0.6" ry="1.7"/>
	
		<ellipse transform="matrix(1.483516e-02 -0.9999 0.9999 1.483516e-02 -91.1439 192.9986)" class="times7" cx="52.4" cy="142.8" rx="0.6" ry="1.7"/>
	
		<ellipse transform="matrix(1.483516e-02 -0.9999 0.9999 1.483516e-02 -88.2369 191.3412)" class="times7" cx="53" cy="140.4" rx="0.6" ry="1.7"/>
	
		<ellipse transform="matrix(1.483516e-02 -0.9999 0.9999 1.483516e-02 -92.7757 188.9441)" class="times7" cx="49.5" cy="141.6" rx="0.6" ry="1.7"/>
	
		<ellipse transform="matrix(1.483516e-02 -0.9999 0.9999 1.483516e-02 -91.0162 187.2611)" class="times7" cx="49.5" cy="139.8" rx="0.6" ry="1.7"/>
	
		<ellipse transform="matrix(1.483516e-02 -0.9999 0.9999 1.483516e-02 -94.9686 184.303)" class="times7" cx="46" cy="140.3" rx="0.6" ry="1.7"/>
	
		<ellipse transform="matrix(1.483516e-02 -0.9999 0.9999 1.483516e-02 -92.0615 182.6456)" class="times7" cx="46.7" cy="138" rx="0.6" ry="1.7"/>
	
		<ellipse transform="matrix(1.483516e-02 -0.9999 0.9999 1.483516e-02 -96.5749 179.101)" class="times7" cx="42.6" cy="138.6" rx="0.6" ry="1.7"/>
	
		<ellipse transform="matrix(1.483516e-02 -0.9999 0.9999 1.483516e-02 -99.3287 173.8734)" class="times7" cx="38.6" cy="137.3" rx="0.6" ry="1.7"/>
	
		<ellipse transform="matrix(1.483516e-02 -0.9999 0.9999 1.483516e-02 -94.2288 176.8571)" class="times7" cx="42.6" cy="136.2" rx="0.6" ry="1.7"/>
	
		<ellipse transform="matrix(1.483516e-02 -0.9999 0.9999 1.483516e-02 -87.5482 186.1903)" class="times7" cx="50.7" cy="137.5" rx="0.6" ry="1.7"/>
	
		<ellipse transform="matrix(1.483516e-02 -0.9999 0.9999 1.483516e-02 -80.6888 187.491)" class="times7" cx="54.8" cy="134.7" rx="0.6" ry="1.7"/>
	
		<ellipse transform="matrix(1.483516e-02 -0.9999 0.9999 1.483516e-02 -85.2021 183.9464)" class="times7" cx="50.7" cy="135.2" rx="0.6" ry="1.7"/>
	
		<ellipse transform="matrix(1.483516e-02 -0.9999 0.9999 1.483516e-02 -89.7155 180.4017)" class="times7" cx="46.7" cy="135.7" rx="0.6" ry="1.7"/>
	
		<ellipse transform="matrix(1.483516e-02 -0.9999 0.9999 1.483516e-02 -75.1301 195.6511)" class="times7" cx="61.7" cy="136" rx="0.6" ry="1.7"/>
	
		<ellipse transform="matrix(1.483516e-02 -0.9999 0.9999 1.483516e-02 -71.6621 194.5803)" class="times7" cx="62.9" cy="133.7" rx="0.6" ry="1.7"/>
	
		<ellipse transform="matrix(1.483516e-02 -0.9999 0.9999 1.483516e-02 -76.1754 191.0356)" class="times7" cx="58.9" cy="134.2" rx="0.6" ry="1.7"/>
	
		<ellipse transform="matrix(1.483516e-02 -0.9999 0.9999 1.483516e-02 -79.6434 192.1065)" class="times7" cx="57.7" cy="136.5" rx="0.6" ry="1.7"/>
	
		<ellipse transform="matrix(1.483516e-02 -0.9999 0.9999 1.483516e-02 -83.5958 189.1484)" class="times7" cx="54.2" cy="137" rx="0.6" ry="1.7"/>
	
		<ellipse transform="matrix(1.483516e-02 -0.9999 0.9999 1.483516e-02 -58.1221 205.2142)" class="times7" cx="75.1" cy="132.1" rx="0.6" ry="1.7"/>
	
		<ellipse transform="matrix(1.483516e-02 -0.9999 0.9999 1.483516e-02 -62.1511 205.6985)" class="times7" cx="73.3" cy="134.4" rx="0.6" ry="1.7"/>
	
		<ellipse transform="matrix(1.483516e-02 -0.9999 0.9999 1.483516e-02 -62.6354 201.6695)" class="times7" cx="71" cy="132.6" rx="0.6" ry="1.7"/>
	
		<ellipse transform="matrix(1.483516e-02 -0.9999 0.9999 1.483516e-02 -66.6644 202.1539)" class="times7" cx="69.3" cy="134.9" rx="0.6" ry="1.7"/>
	
		<ellipse transform="matrix(1.483516e-02 -0.9999 0.9999 1.483516e-02 -67.1488 198.1249)" class="times7" cx="67" cy="133.1" rx="0.6" ry="1.7"/>
	
		<ellipse transform="matrix(1.483516e-02 -0.9999 0.9999 1.483516e-02 -70.6168 199.1958)" class="times7" cx="65.8" cy="135.4" rx="0.6" ry="1.7"/>
	
		<ellipse transform="matrix(1.483516e-02 -0.9999 0.9999 1.483516e-02 -43.9955 215.2871)" class="times7" cx="87.3" cy="130" rx="0.6" ry="1.7"/>
	
		<ellipse transform="matrix(1.483516e-02 -0.9999 0.9999 1.483516e-02 -48.5089 211.7424)" class="times7" cx="83.2" cy="130.5" rx="0.6" ry="1.7"/>
	
		<ellipse transform="matrix(1.483516e-02 -0.9999 0.9999 1.483516e-02 -53.6853 212.2012)" class="times7" cx="80.8" cy="133.3" rx="0.6" ry="1.7"/>
	
		<ellipse transform="matrix(1.483516e-02 -0.9999 0.9999 1.483516e-02 -53.6087 208.7588)" class="times7" cx="79.1" cy="131.6" rx="0.6" ry="1.7"/>
	
		<ellipse transform="matrix(1.483516e-02 -0.9999 0.9999 1.483516e-02 -58.1987 208.6566)" class="times7" cx="76.8" cy="133.9" rx="0.6" ry="1.7"/>
	
		<ellipse transform="matrix(1.483516e-02 -0.9999 0.9999 1.483516e-02 -40.1453 222.8351)" class="times7" cx="93" cy="131.8" rx="0.6" ry="1.7"/>
	
		<ellipse transform="matrix(1.483516e-02 -0.9999 0.9999 1.483516e-02 -38.9212 219.4182)" class="times7" cx="91.9" cy="129.5" rx="0.6" ry="1.7"/>
	
		<ellipse transform="matrix(1.483516e-02 -0.9999 0.9999 1.483516e-02 -44.0721 218.7295)" class="times7" cx="89" cy="131.7" rx="0.6" ry="1.7"/>
	
		<ellipse transform="matrix(1.483516e-02 -0.9999 0.9999 1.483516e-02 -49.172 215.7459)" class="times7" cx="84.9" cy="132.8" rx="0.6" ry="1.7"/>
	
		<ellipse transform="matrix(0.4171 -0.9089 0.9089 0.4171 -61.7949 162.6923)" class="times7" cx="95.9" cy="129.5" rx="0.6" ry="1.7"/>
	
		<ellipse transform="matrix(0.5128 -0.8585 0.8585 0.5128 -61.1878 184.6776)" class="times7" cx="132.1" cy="146.2" rx="0.6" ry="1.7"/>
	
		<ellipse transform="matrix(0.4171 -0.9089 0.9089 0.4171 -63.5875 164.5396)" class="times7" cx="96.5" cy="131.8" rx="0.6" ry="1.7"/>
	
		<ellipse transform="matrix(0.4171 -0.9089 0.9089 0.4171 -62.8744 169.2403)" class="times7" cx="100.5" cy="133.6" rx="0.6" ry="1.7"/>
	<ellipse transform="matrix(0.4171 -0.9089 0.9089 0.4171 -61.0818 167.393)" class="times7" cx="100" cy="131.3" rx="0.6" ry="1.7"/>
	
		<ellipse transform="matrix(0.4171 -0.9089 0.9089 0.4171 -59.2717 180.9647)" class="times7" cx="111.4" cy="136.7" rx="0.6" ry="1.7"/>
	
		<ellipse transform="matrix(0.4171 -0.9089 0.9089 0.4171 -61.4482 178.6417)" class="times7" cx="108.5" cy="137.2" rx="0.6" ry="1.7"/>
	
		<ellipse transform="matrix(0.4171 -0.9089 0.9089 0.4171 -59.9848 176.264)" class="times7" cx="107.4" cy="134.9" rx="0.6" ry="1.7"/>
	
		<ellipse transform="matrix(0.4171 -0.9089 0.9089 0.4171 -62.1613 173.941)" class="times7" cx="104.5" cy="135.4" rx="0.6" ry="1.7"/>
	
		<ellipse transform="matrix(0.4171 -0.9089 0.9089 0.4171 -60.6979 171.5633)" class="times7" cx="103.4" cy="133.1" rx="0.6" ry="1.7"/>
	
		<ellipse transform="matrix(0.4171 -0.9089 0.9089 0.4171 -58.0467 191.2258)" class="times7" cx="120.1" cy="140.9" rx="0.6" ry="1.7"/>
	
		<ellipse transform="matrix(0.4171 -0.9089 0.9089 0.4171 -60.5524 188.3724)" class="times7" cx="116.6" cy="141.4" rx="0.6" ry="1.7"/>
	
		<ellipse transform="matrix(0.4171 -0.9089 0.9089 0.4171 -58.5586 185.6655)" class="times7" cx="115.5" cy="138.5" rx="0.6" ry="1.7"/>
	<ellipse transform="matrix(0.4171 -0.9089 0.9089 0.4171 -60.7351 183.3424)" class="times7" cx="112.6" cy="139" rx="0.6" ry="1.7"/>
	
		<ellipse transform="matrix(0.4171 -0.9089 0.9089 0.4171 -56.6205 200.6272)" class="times7" cx="128.1" cy="144.5" rx="0.6" ry="1.7"/>
	<ellipse transform="matrix(0.4171 -0.9089 0.9089 0.4171 -59.1262 197.7738)" class="times7" cx="124.6" cy="145" rx="0.6" ry="1.7"/>
	
		<ellipse transform="matrix(0.4171 -0.9089 0.9089 0.4171 -57.3336 195.9265)" class="times7" cx="124.1" cy="142.7" rx="0.6" ry="1.7"/>
	
		<ellipse transform="matrix(0.4171 -0.9089 0.9089 0.4171 -59.8393 193.0731)" class="times7" cx="120.6" cy="143.2" rx="0.6" ry="1.7"/>
	
		<ellipse transform="matrix(1.483516e-02 -0.9999 0.9999 1.483516e-02 -38.1322 261.3399)" class="times7" cx="113.6" cy="150" rx="0.6" ry="1.7"/>
	
		<ellipse transform="matrix(1.483516e-02 -0.9999 0.9999 1.483516e-02 -42.6711 258.9428)" class="times7" cx="110.1" cy="151.1" rx="0.6" ry="1.7"/>
	
		<ellipse transform="matrix(1.483516e-02 -0.9999 0.9999 1.483516e-02 -47.2099 256.5457)" class="times7" cx="106.6" cy="152.2" rx="0.6" ry="1.7"/>
	
		<ellipse transform="matrix(1.483516e-02 -0.9999 0.9999 1.483516e-02 -51.7488 254.1485)" class="times7" cx="103.1" cy="153.3" rx="0.6" ry="1.7"/>
	
		<ellipse transform="matrix(1.483516e-02 -0.9999 0.9999 1.483516e-02 -48.4085 258.8151)" class="times7" cx="107.1" cy="154" rx="0.6" ry="1.7"/>
	
		<ellipse transform="matrix(1.483516e-02 -0.9999 0.9999 1.483516e-02 -52.9474 256.418)" class="times7" cx="103.7" cy="155.1" rx="0.6" ry="1.7"/>
	
		<ellipse transform="matrix(1.483516e-02 -0.9999 0.9999 1.483516e-02 -25.663 268.5058)" class="times7" cx="123.4" cy="147.3" rx="0.6" ry="1.7"/>
	
		<ellipse transform="matrix(1.483516e-02 -0.9999 0.9999 1.483516e-02 -30.2019 266.1087)" class="times7" cx="119.9" cy="148.4" rx="0.6" ry="1.7"/>
	
		<ellipse transform="matrix(1.483516e-02 -0.9999 0.9999 1.483516e-02 -34.1798 264.2981)" class="times7" cx="117" cy="149.5" rx="0.6" ry="1.7"/>
	
		<ellipse transform="matrix(1.483516e-02 -0.9999 0.9999 1.483516e-02 -31.4005 268.3781)" class="times7" cx="120.5" cy="150.1" rx="0.6" ry="1.7"/>
	
		<ellipse transform="matrix(1.483516e-02 -0.9999 0.9999 1.483516e-02 -35.3784 266.5675)" class="times7" cx="117.6" cy="151.2" rx="0.6" ry="1.7"/>
	
		<ellipse transform="matrix(1.483516e-02 -0.9999 0.9999 1.483516e-02 -39.3307 263.6094)" class="times7" cx="114.1" cy="151.8" rx="0.6" ry="1.7"/>
	
		<ellipse transform="matrix(1.483516e-02 -0.9999 0.9999 1.483516e-02 -43.8696 261.2122)" class="times7" cx="110.6" cy="152.9" rx="0.6" ry="1.7"/>
	
		<ellipse transform="matrix(1.483516e-02 -0.9999 0.9999 1.483516e-02 -21.1497 272.0504)" class="times7" cx="127.5" cy="146.8" rx="0.6" ry="1.7"/>
	
		<ellipse transform="matrix(1.483516e-02 -0.9999 0.9999 1.483516e-02 -22.9092 273.7334)" class="times7" cx="127.5" cy="148.5" rx="0.6" ry="1.7"/>
	
		<ellipse transform="matrix(1.483516e-02 -0.9999 0.9999 1.483516e-02 -26.8616 270.7753)" class="times7" cx="124" cy="149" rx="0.6" ry="1.7"/>
	
		<ellipse transform="matrix(1.483516e-02 -0.9999 0.9999 1.483516e-02 -18.9313 275.544)" class="times7" cx="130.4" cy="147.4" rx="0.6" ry="1.7"/>
</g>
<text transform="matrix(0.9962 8.738258e-02 -8.738258e-02 0.9962 74.3089 143.3039)" class="times8 times9 times10">TONIGHT</text>
<g>
	
		<ellipse transform="matrix(1.483516e-02 -0.9999 0.9999 1.483516e-02 205.3637 321.5881)" class="times11" cx="265.9" cy="56.6" rx="6.9" ry="8.1"/>
	
		<ellipse transform="matrix(1.483516e-02 -0.9999 0.9999 1.483516e-02 184.8357 341.2223)" class="times11" cx="265.6" cy="76.8" rx="6.9" ry="8.1"/>
	
		<ellipse transform="matrix(1.483516e-02 -0.9999 0.9999 1.483516e-02 164.3076 360.8564)" class="times11" cx="265.3" cy="97" rx="6.9" ry="8.1"/>
	
		<ellipse transform="matrix(1.483516e-02 -0.9999 0.9999 1.483516e-02 143.7796 380.4905)" class="times11" cx="265" cy="117.3" rx="6.9" ry="8.1"/>
	
		<ellipse transform="matrix(1.483516e-02 -0.9999 0.9999 1.483516e-02 119.7325 403.4905)" class="times11" cx="264.6" cy="141" rx="6.9" ry="8.1"/>
</g>
<text transform="matrix(0.9981 6.099765e-02 -6.099765e-02 0.9981 178.9691 209.1381)" class="times11 times12 times13">Central Theater</text>
<text transform="matrix(0.9911 -0.1329 0.1329 0.9911 156.3357 34.589)" class="times14 times15 times16">42nd</text>
<polygon class="times17" points="160,57.9 160.3,78.1 216.1,96.9 216.4,80.1 "/>
<g>
	
		<ellipse transform="matrix(1.483516e-02 -0.9999 0.9999 1.483516e-02 98.4162 230.1287)" class="times18" cx="166" cy="65.1" rx="0.8" ry="1.2"/>
	
		<ellipse transform="matrix(1.483516e-02 -0.9999 0.9999 1.483516e-02 98.2374 238.1611)" class="times18" cx="170" cy="69.2" rx="0.8" ry="1.2"/>
	
		<ellipse transform="matrix(1.483516e-02 -0.9999 0.9999 1.483516e-02 93.1375 235.1775)" class="times18" cx="165.9" cy="70.3" rx="0.8" ry="1.2"/>
	
		<ellipse transform="matrix(1.483516e-02 -0.9999 0.9999 1.483516e-02 95.4836 232.9336)" class="times18" cx="165.9" cy="68" rx="0.8" ry="1.2"/>
	
		<ellipse transform="matrix(1.483516e-02 -0.9999 0.9999 1.483516e-02 100.5834 235.9172)" class="times18" cx="170" cy="66.9" rx="0.8" ry="1.2"/>
	
		<ellipse transform="matrix(1.483516e-02 -0.9999 0.9999 1.483516e-02 102.9295 233.6733)" class="times18" cx="170" cy="64.6" rx="0.8" ry="1.2"/>
	
		<ellipse transform="matrix(1.483516e-02 -0.9999 0.9999 1.483516e-02 100.7622 227.8848)" class="times18" cx="166" cy="62.8" rx="0.8" ry="1.2"/>
	
		<ellipse transform="matrix(1.483516e-02 -0.9999 0.9999 1.483516e-02 90.9949 254.0728)" class="times18" cx="174.4" cy="80.9" rx="0.8" ry="1.2"/>
	
		<ellipse transform="matrix(1.483516e-02 -0.9999 0.9999 1.483516e-02 93.3409 251.8289)" class="times18" cx="174.5" cy="78.5" rx="0.8" ry="1.2"/>
	
		<ellipse transform="matrix(1.483516e-02 -0.9999 0.9999 1.483516e-02 95.687 249.585)" class="times18" cx="174.5" cy="76.2" rx="0.8" ry="1.2"/>
	
		<ellipse transform="matrix(1.483516e-02 -0.9999 0.9999 1.483516e-02 98.0331 247.3411)" class="times18" cx="174.5" cy="73.9" rx="0.8" ry="1.2"/>
	
		<ellipse transform="matrix(1.483516e-02 -0.9999 0.9999 1.483516e-02 100.9656 244.5362)" class="times18" cx="174.6" cy="71" rx="0.8" ry="1.2"/>
	
		<ellipse transform="matrix(1.483516e-02 -0.9999 0.9999 1.483516e-02 103.3117 242.2923)" class="times18" cx="174.6" cy="68.7" rx="0.8" ry="1.2"/>
	
		<ellipse transform="matrix(1.483516e-02 -0.9999 0.9999 1.483516e-02 105.6578 240.0484)" class="times18" cx="174.6" cy="66.4" rx="0.8" ry="1.2"/>
	
		<ellipse transform="matrix(1.483516e-02 -0.9999 0.9999 1.483516e-02 88.2411 248.8452)" class="times18" cx="170.4" cy="79.6" rx="0.8" ry="1.2"/>
	
		<ellipse transform="matrix(1.483516e-02 -0.9999 0.9999 1.483516e-02 84.9263 243.0311)" class="times18" cx="165.8" cy="78.4" rx="0.8" ry="1.2"/>
	
		<ellipse transform="matrix(1.483516e-02 -0.9999 0.9999 1.483516e-02 90.0262 246.0148)" class="times18" cx="169.9" cy="77.3" rx="0.8" ry="1.2"/>
	
		<ellipse transform="matrix(1.483516e-02 -0.9999 0.9999 1.483516e-02 87.8589 240.2263)" class="times18" cx="165.8" cy="75.5" rx="0.8" ry="1.2"/>
	
		<ellipse transform="matrix(1.483516e-02 -0.9999 0.9999 1.483516e-02 92.9587 243.2099)" class="times18" cx="169.9" cy="74.4" rx="0.8" ry="1.2"/>
	
		<ellipse transform="matrix(1.483516e-02 -0.9999 0.9999 1.483516e-02 95.3048 240.966)" class="times18" cx="169.9" cy="72.1" rx="0.8" ry="1.2"/>
	
		<ellipse transform="matrix(1.483516e-02 -0.9999 0.9999 1.483516e-02 90.2049 237.9823)" class="times18" cx="165.9" cy="73.2" rx="0.8" ry="1.2"/>
	
		<ellipse transform="matrix(1.483516e-02 -0.9999 0.9999 1.483516e-02 114.7602 269.5265)" class="times18" cx="194.2" cy="76.5" rx="0.8" ry="1.2"/>
	
		<ellipse transform="matrix(1.483516e-02 -0.9999 0.9999 1.483516e-02 117.1062 267.2826)" class="times18" cx="194.2" cy="74.2" rx="0.8" ry="1.2"/>
	
		<ellipse transform="matrix(1.483516e-02 -0.9999 0.9999 1.483516e-02 113.1539 264.3245)" class="times18" cx="190.7" cy="74.7" rx="0.8" ry="1.2"/>
	
		<ellipse transform="matrix(1.483516e-02 -0.9999 0.9999 1.483516e-02 115.4999 262.0806)" class="times18" cx="190.7" cy="72.4" rx="0.8" ry="1.2"/>
	
		<ellipse transform="matrix(1.483516e-02 -0.9999 0.9999 1.483516e-02 110.4001 259.0969)" class="times18" cx="186.7" cy="73.5" rx="0.8" ry="1.2"/>
	
		<ellipse transform="matrix(1.483516e-02 -0.9999 0.9999 1.483516e-02 112.7461 256.853)" class="times18" cx="186.7" cy="71.2" rx="0.8" ry="1.2"/>
	
		<ellipse transform="matrix(1.483516e-02 -0.9999 0.9999 1.483516e-02 108.2328 253.3084)" class="times18" cx="182.7" cy="71.7" rx="0.8" ry="1.2"/>
	
		<ellipse transform="matrix(1.483516e-02 -0.9999 0.9999 1.483516e-02 110.5788 251.0645)" class="times18" cx="182.7" cy="69.4" rx="0.8" ry="1.2"/>
	
		<ellipse transform="matrix(1.483516e-02 -0.9999 0.9999 1.483516e-02 105.479 248.0808)" class="times18" cx="178.6" cy="70.5" rx="0.8" ry="1.2"/>
	
		<ellipse transform="matrix(1.483516e-02 -0.9999 0.9999 1.483516e-02 108.4116 245.2759)" class="times18" cx="178.7" cy="67.6" rx="0.8" ry="1.2"/>
	
		<ellipse transform="matrix(1.483516e-02 -0.9999 0.9999 1.483516e-02 103.2086 272.7136)" class="times18" cx="190" cy="84" rx="0.8" ry="1.2"/>
	
		<ellipse transform="matrix(1.483516e-02 -0.9999 0.9999 1.483516e-02 98.6698 270.3164)" class="times18" cx="186.5" cy="85.1" rx="0.8" ry="1.2"/>
	
		<ellipse transform="matrix(1.483516e-02 -0.9999 0.9999 1.483516e-02 101.0158 268.0725)" class="times18" cx="186.5" cy="82.8" rx="0.8" ry="1.2"/>
	
		<ellipse transform="matrix(1.483516e-02 -0.9999 0.9999 1.483516e-02 96.4769 265.6754)" class="times18" cx="183.1" cy="83.9" rx="0.8" ry="1.2"/>
	
		<ellipse transform="matrix(1.483516e-02 -0.9999 0.9999 1.483516e-02 98.262 262.8449)" class="times18" cx="182.5" cy="81.6" rx="0.8" ry="1.2"/>
	
		<ellipse transform="matrix(1.483516e-02 -0.9999 0.9999 1.483516e-02 93.7231 260.4478)" class="times18" cx="179" cy="82.7" rx="0.8" ry="1.2"/>
	
		<ellipse transform="matrix(1.483516e-02 -0.9999 0.9999 1.483516e-02 96.0947 257.0564)" class="times18" cx="178.5" cy="79.8" rx="0.8" ry="1.2"/>
	
		<ellipse transform="matrix(1.483516e-02 -0.9999 0.9999 1.483516e-02 103.0554 279.5985)" class="times18" cx="193.4" cy="87.5" rx="0.8" ry="1.2"/>
	
		<ellipse transform="matrix(1.483516e-02 -0.9999 0.9999 1.483516e-02 101.4236 275.544)" class="times18" cx="190.5" cy="86.3" rx="0.8" ry="1.2"/>
	
		<ellipse transform="matrix(1.483516e-02 -0.9999 0.9999 1.483516e-02 105.9624 277.9411)" class="times18" cx="194" cy="85.2" rx="0.8" ry="1.2"/>
	
		<ellipse transform="matrix(1.483516e-02 -0.9999 0.9999 1.483516e-02 114.1727 295.9188)" class="times18" cx="207.3" cy="90" rx="0.8" ry="1.2"/>
	
		<ellipse transform="matrix(1.483516e-02 -0.9999 0.9999 1.483516e-02 109.6339 293.5216)" class="times18" cx="203.8" cy="91.1" rx="0.8" ry="1.2"/>
	
		<ellipse transform="matrix(1.483516e-02 -0.9999 0.9999 1.483516e-02 111.9799 291.2777)" class="times18" cx="203.8" cy="88.8" rx="0.8" ry="1.2"/>
	
		<ellipse transform="matrix(1.483516e-02 -0.9999 0.9999 1.483516e-02 107.441 288.8806)" class="times18" cx="200.3" cy="89.9" rx="0.8" ry="1.2"/>
	
		<ellipse transform="matrix(1.483516e-02 -0.9999 0.9999 1.483516e-02 109.7871 286.6367)" class="times18" cx="200.4" cy="87.6" rx="0.8" ry="1.2"/>
	
		<ellipse transform="matrix(1.483516e-02 -0.9999 0.9999 1.483516e-02 119.1458 278.8086)" class="times18" cx="201.1" cy="78.9" rx="0.8" ry="1.2"/>
	
		<ellipse transform="matrix(1.483516e-02 -0.9999 0.9999 1.483516e-02 121.4919 276.5647)" class="times18" cx="201.1" cy="76.6" rx="0.8" ry="1.2"/>
	
		<ellipse transform="matrix(1.483516e-02 -0.9999 0.9999 1.483516e-02 105.2482 284.2395)" class="times18" cx="196.9" cy="88.7" rx="0.8" ry="1.2"/>
	
		<ellipse transform="matrix(1.483516e-02 -0.9999 0.9999 1.483516e-02 116.953 274.1675)" class="times18" cx="197.6" cy="77.7" rx="0.8" ry="1.2"/>
	
		<ellipse transform="matrix(1.483516e-02 -0.9999 0.9999 1.483516e-02 119.299 271.9236)" class="times18" cx="197.6" cy="75.4" rx="0.8" ry="1.2"/>
	
		<ellipse transform="matrix(1.483516e-02 -0.9999 0.9999 1.483516e-02 107.5943 281.9956)" class="times18" cx="196.9" cy="86.4" rx="0.8" ry="1.2"/>
	
		<ellipse transform="matrix(1.483516e-02 -0.9999 0.9999 1.483516e-02 126.9484 289.3148)" class="times18" cx="210.3" cy="80.2" rx="0.8" ry="1.2"/>
	
		<ellipse transform="matrix(1.483516e-02 -0.9999 0.9999 1.483516e-02 111.8267 298.1627)" class="times18" cx="207.2" cy="92.3" rx="0.8" ry="1.2"/>
	
		<ellipse transform="matrix(1.483516e-02 -0.9999 0.9999 1.483516e-02 115.9323 294.2358)" class="times18" cx="207.3" cy="88.3" rx="0.8" ry="1.2"/>
	
		<ellipse transform="matrix(1.483516e-02 -0.9999 0.9999 1.483516e-02 118.2784 291.9919)" class="times18" cx="207.3" cy="86" rx="0.8" ry="1.2"/>
	
		<ellipse transform="matrix(1.483516e-02 -0.9999 0.9999 1.483516e-02 120.6244 289.748)" class="times18" cx="207.4" cy="83.7" rx="0.8" ry="1.2"/>
	
		<ellipse transform="matrix(1.483516e-02 -0.9999 0.9999 1.483516e-02 122.9705 287.5042)" class="times18" cx="207.4" cy="81.3" rx="0.8" ry="1.2"/>
	
		<ellipse transform="matrix(1.483516e-02 -0.9999 0.9999 1.483516e-02 125.3165 285.2602)" class="times18" cx="207.4" cy="79" rx="0.8" ry="1.2"/>
	
		<ellipse transform="matrix(1.483516e-02 -0.9999 0.9999 1.483516e-02 120.7777 282.8631)" class="times18" cx="203.9" cy="80.1" rx="0.8" ry="1.2"/>
	
		<ellipse transform="matrix(1.483516e-02 -0.9999 0.9999 1.483516e-02 123.1237 280.6192)" class="times18" cx="204" cy="77.8" rx="0.8" ry="1.2"/>
	
		<ellipse transform="matrix(1.483516e-02 -0.9999 0.9999 1.483516e-02 126.7951 296.1997)" class="times18" cx="213.7" cy="83.8" rx="0.8" ry="1.2"/>
	
		<ellipse transform="matrix(1.483516e-02 -0.9999 0.9999 1.483516e-02 129.1412 293.9558)" class="times18" cx="213.7" cy="81.4" rx="0.8" ry="1.2"/>
	
		<ellipse transform="matrix(1.483516e-02 -0.9999 0.9999 1.483516e-02 113.4585 302.2172)" class="times18" cx="210.1" cy="93.5" rx="0.8" ry="1.2"/>
	
		<ellipse transform="matrix(1.483516e-02 -0.9999 0.9999 1.483516e-02 115.8046 299.9733)" class="times18" cx="210.1" cy="91.2" rx="0.8" ry="1.2"/>
	
		<ellipse transform="matrix(1.483516e-02 -0.9999 0.9999 1.483516e-02 118.1507 297.7294)" class="times18" cx="210.2" cy="88.9" rx="0.8" ry="1.2"/>
	
		<ellipse transform="matrix(1.483516e-02 -0.9999 0.9999 1.483516e-02 120.4967 295.4855)" class="times18" cx="210.2" cy="86.6" rx="0.8" ry="1.2"/>
	
		<ellipse transform="matrix(1.483516e-02 -0.9999 0.9999 1.483516e-02 122.2563 293.8026)" class="times18" cx="210.2" cy="84.9" rx="0.8" ry="1.2"/>
	
		<ellipse transform="matrix(1.483516e-02 -0.9999 0.9999 1.483516e-02 124.6023 291.5587)" class="times18" cx="210.3" cy="82.5" rx="0.8" ry="1.2"/>
	
		<ellipse transform="matrix(1.483516e-02 -0.9999 0.9999 1.483516e-02 117.9974 304.6143)" class="times18" cx="213.6" cy="92.4" rx="0.8" ry="1.2"/>
	
		<ellipse transform="matrix(1.483516e-02 -0.9999 0.9999 1.483516e-02 119.757 302.9314)" class="times18" cx="213.6" cy="90.7" rx="0.8" ry="1.2"/>
	
		<ellipse transform="matrix(1.483516e-02 -0.9999 0.9999 1.483516e-02 122.103 300.6875)" class="times18" cx="213.6" cy="88.4" rx="0.8" ry="1.2"/>
	
		<ellipse transform="matrix(1.483516e-02 -0.9999 0.9999 1.483516e-02 124.4491 298.4436)" class="times18" cx="213.7" cy="86.1" rx="0.8" ry="1.2"/>
	
		<ellipse transform="matrix(1.483516e-02 -0.9999 0.9999 1.483516e-02 115.6514 306.8582)" class="times18" cx="213.5" cy="94.7" rx="0.8" ry="1.2"/>
</g>
<text transform="matrix(0.9849 -0.1733 0.1733 0.9849 175.9652 44.9317)" class="times14 times15 times16">Street</text>
<polygon class="times3" points="148.7,215.6 148.5,227.7 187.3,225.4 187.5,212.7 "/>
<polygon class="times19" points="149.1,228.9 189,226.6 278.6,229.1 188.4,230.1 "/>
<line class="times20" x1="0.5" y1="243.5" x2="330.5" y2="251"/>
<g>
	<polygon class="times21" points="551.6,167 605.3,170.7 605.7,260.6 553.4,251.7 	"/>
	<circle class="times7" cx="570" cy="167.7" r="3"/>
	<circle class="times7" cx="578.5" cy="168.5" r="3"/>
	<circle class="times7" cx="587.4" cy="169.1" r="3"/>
	<circle class="times7" cx="561.1" cy="167.2" r="3"/>
	<circle class="times7" cx="597" cy="170.3" r="3"/>
	<circle class="times7" cx="552.1" cy="177.1" r="3"/>
	<circle class="times7" cx="604.2" cy="218.9" r="3"/>
	<circle class="times7" cx="604.3" cy="208.3" r="3"/>
	<circle class="times7" cx="604.4" cy="199.2" r="3"/>
	<circle class="times7" cx="604.5" cy="190.2" r="3"/>
	<circle class="times7" cx="604.6" cy="180.7" r="3"/>
	<circle class="times7" cx="551.6" cy="212.6" r="3"/>
	<circle class="times7" cx="551.7" cy="203.5" r="3"/>
	<circle class="times7" cx="551.8" cy="194.5" r="3"/>
	<circle class="times7" cx="551.9" cy="185.4" r="3"/>
	<circle class="times7" cx="603.8" cy="248.7" r="3"/>
	<circle class="times7" cx="603.9" cy="238.5" r="3"/>
	<circle class="times7" cx="604" cy="229.4" r="3"/>
	<circle class="times7" cx="589.3" cy="258.4" r="3"/>
	<circle class="times7" cx="579.9" cy="256.6" r="3"/>
	<circle class="times7" cx="569.2" cy="255.2" r="3"/>
	<circle class="times7" cx="559.3" cy="253.4" r="3"/>
	<circle class="times7" cx="551.3" cy="239.8" r="3"/>
	<circle class="times7" cx="551.4" cy="230.7" r="3"/>
	<circle class="times7" cx="551.5" cy="221.7" r="3"/>
	<circle class="times7" cx="597.6" cy="259.6" r="3"/>
</g>
<line class="times20" x1="330.5" y1="251" x2="770.5" y2="414.5"/>
<path class="times18" d="M755.5,169.5l-134.9-5.8l3.3,105.1L759.7,299L755.5,169.5z M627.4,265.8l-2.6-94.4l121.4,5.2l3.4,116.3
	L627.4,265.8z"/>
<polygon class="times22" points="749.5,292.8 627.4,265.8 624.7,171.4 746.1,176.6 "/>
<polygon class="times23" points="749.5,292.8 627.4,265.8 624.7,171.4 746.1,176.6 "/>
<g>
	<line class="times24" x1="407.2" y1="197.7" x2="408.7" y2="229.5"/>
	<line class="times24" x1="421.3" y1="205.4" x2="408.2" y2="213.9"/>
	<line class="times24" x1="434.3" y1="213.1" x2="408.2" y2="213.9"/>
	<line class="times24" x1="423.6" y1="222.7" x2="408.2" y2="213.9"/>
	<line class="times24" x1="394.6" y1="222.4" x2="408.2" y2="213.9"/>
	<line class="times24" x1="381.7" y1="214.7" x2="408.2" y2="213.9"/>
	<line class="times24" x1="394.7" y1="206.2" x2="408.2" y2="213.9"/>
	<line class="times24" x1="397.3" y1="196.3" x2="401.2" y2="193.3"/>
	<line class="times24" x1="397.2" y1="193.4" x2="402.5" y2="196.1"/>
	<line class="times24" x1="419.6" y1="186.9" x2="416.5" y2="201.5"/>
	<line class="times24" x1="416.3" y1="194.5" x2="422.6" y2="191.5"/>
	<line class="times24" x1="410.4" y1="190.7" x2="416.3" y2="194.5"/>
	<line class="times24" x1="406.5" y1="194.8" x2="425.6" y2="194.3"/>
	<line class="times24" x1="411.8" y1="198.2" x2="416.3" y2="194.5"/>
	<line class="times24" x1="422.2" y1="198.4" x2="416.3" y2="194.5"/>
	<line class="times24" x1="399.4" y1="189.3" x2="400.3" y2="199.7"/>
</g>
<polygon class="times25" points="549.8,73.4 733.7,61.9 738.2,138.5 553.5,127 "/>
<path class="times19" d="M694.3,280.8c-0.1-3.7-1.2-20.7-1.2-20.7l2.5-0.7l-2.2-13.1c0,0,3.8,2.1,4-7.4c0,0,6.3-4.6,3.5-6.5l1.7-2.7
	l-6.8-2.6l-2.4,3.6l-3.3-3.4c0,0,0.9-3.5-4.4-6l-1.6-4.8c0,0,0.7-0.2-0.6-3.3c0,0,0-1.2,0-1.8c0,0,0-0.2,0.2-0.9l7-0.5l-7-0.4
	c0,0,0-0.4-0.3-0.9l6-2l-6.6,1.1c0,0-0.3-0.4-0.8-0.6l4.4-5.4l-5.4,4.8c0,0-0.5-0.7-1.4-0.7c-0.1,0-0.2-0.1-0.2-0.2l-0.8-8.6
	l-0.8,8.9c0,0-1.2-0.1-1.6,0.6l-5.1-4.8l4,5.4c0,0-0.2,0.5-0.2,0.9l-6.5-1.3l6,2.2c0,0-0.5,0.5-0.2,0.9l-5.1,0.2l4.9,0.6l0.1,0.3
	c0,0,0,0.4,0,1.1c0,0,0,0,0.2,0.8c0.1,0.5-0.9,2.4-0.4,3.1c0.5,0.6-2.3-1.9-2.3-1.9s1.7-1.4-0.6-3.1c0,0-1.6-2.1-1.3-3
	c0.2-0.9-2-7.9-2.5-8.1c-0.5-0.2-0.2-5.1-0.2-5.1s-0.1-3.3-1.3-3l0.7-2.2l1.5,0c0,0,0.1-3.7,0.9-4.2c0.7-0.5-1,0.3-1,0.3l0-0.7
	c0,0-1.2,0.5-1.2,0.7c0,0.2-0.3-0.7-0.8-0.2c-0.5,0.5-0.3-1.7-0.3-1.7s2.4-2.7-1.9-5.4c0,0,1,1.5-1.6,3.6c0,0-0.7,1.1,0.3,2l0.1,2
	c0,0-0.3-0.9-0.7,0c0,0-1-0.4-1-0.8c0-0.4,0,1.3,0,1.3s-1-0.4-1-0.8s-0.2,1.3,0.6,2l0.3,2.4l0.7,0l1.3,1.9c0,0-0.8-0.4-1,0.5
	c-0.2,0.9,0.9,4.4,1.6,4.1l0,1.1c0,0,0.6,1.7,0.8,1.7c0.2,0-0.7,8.2,1.6,9.8l-0.2,2.6c0,0-4.7,8.1-0.5,8.6c0,0,1.6,3.2,2.1,3.5
	c0.5,0.2,0-0.2,0-0.2l-0.4,2l0.8,0.2c0,0-1.4,2.9,0.4,3.3c0,0,0.8,1.7,1.1,1.7c0.2,0-1.5,0.7-0.4,2.9c0,0-1.4,3.8-1.1,4.9
	c0,0,2.4,3.4,1.3,8.1c-1.1,4.6,1.3,10.7,1.3,10.7s0.8,13.9-0.5,18.7"/>
<g>
	
		<ellipse transform="matrix(0.9988 -4.818214e-02 4.818214e-02 0.9988 -2.4208 29.3983)" class="times11" cx="608.6" cy="64.9" rx="10.5" ry="6.9"/>
	
		<ellipse transform="matrix(0.9988 -4.818214e-02 4.818214e-02 0.9988 -2.4182 31.0963)" class="times11" cx="643.8" cy="65.7" rx="13.6" ry="9.4"/>
	
		<ellipse transform="matrix(0.9988 -4.818214e-02 4.818214e-02 0.9988 -2.2864 32.7315)" class="times11" cx="677.8" cy="63.8" rx="10.5" ry="6.9"/>
</g>
<text transform="matrix(1.0762 -8.654743e-03 8.041584e-03 1 588.3846 106.1593)" class="times26 times27 times28">TIMES SQUARE</text>
<polygon class="times29" points="174.7,119.9 220.7,130.3 219.2,186.7 171.4,179.5 "/>
<g>
	<g>
		<path d="M178,125.1c1.9,0,1.9-3,0-3C176.1,122.1,176.1,125.1,178,125.1L178,125.1z"/>
	</g>
</g>
<g>
	<g>
		<path d="M182,125.9c1.9,0,1.9-3,0-3C180.1,122.9,180.1,125.9,182,125.9L182,125.9z"/>
	</g>
</g>
<g>
	<g>
		<path d="M186,126.6c1.9,0,1.9-3,0-3C184.1,123.6,184.1,126.6,186,126.6L186,126.6z"/>
	</g>
</g>
<g>
	<g>
		<path d="M190.1,127.1c1.9,0,1.9-3,0-3C188.1,124.1,188.1,127.1,190.1,127.1L190.1,127.1z"/>
	</g>
</g>
<g>
	<g>
		<path d="M194.6,128.2c1.9,0,1.9-3,0-3C192.7,125.2,192.7,128.2,194.6,128.2L194.6,128.2z"/>
	</g>
</g>
<g>
	<g>
		<path d="M198.9,129c1.9,0,1.9-3,0-3C197,126,197,129,198.9,129L198.9,129z"/>
	</g>
</g>
<g>
	<g>
		<path d="M202.9,129.7c1.9,0,1.9-3,0-3C201,126.7,201,129.7,202.9,129.7L202.9,129.7z"/>
	</g>
</g>
<g>
	<g>
		<path d="M207.5,130.8c1.9,0,1.9-3,0-3C205.6,127.8,205.6,130.8,207.5,130.8L207.5,130.8z"/>
	</g>
</g>
<g>
	<g>
		<path d="M211.5,131.6c1.9,0,1.9-3,0-3C209.6,128.6,209.6,131.6,211.5,131.6L211.5,131.6z"/>
	</g>
</g>
<g>
	<g>
		<path d="M215.2,132.3c1.9,0,1.9-3,0-3C213.3,129.3,213.3,132.3,215.2,132.3L215.2,132.3z"/>
	</g>
</g>
<g>
	<g>
		<path d="M218.1,133c1.9,0,1.9-3,0-3C216.2,130,216.2,133,218.1,133L218.1,133z"/>
	</g>
</g>
<g>
	<g>
		<path d="M177.6,128.7c1.9,0,1.9-3,0-3C175.6,125.7,175.6,128.7,177.6,128.7L177.6,128.7z"/>
	</g>
</g>
<g>
	<g>
		<path d="M177.4,131.7c1.9,0,1.9-3,0-3C175.5,128.7,175.5,131.7,177.4,131.7L177.4,131.7z"/>
	</g>
</g>
<g>
	<g>
		<path d="M177.3,134.7c1.9,0,1.9-3,0-3C175.4,131.7,175.4,134.7,177.3,134.7L177.3,134.7z"/>
	</g>
</g>
<g>
	<g>
		<path d="M176.6,137.9c1.9,0,1.9-3,0-3C174.7,134.9,174.7,137.9,176.6,137.9L176.6,137.9z"/>
	</g>
</g>
<g>
	<g>
		<path d="M176.5,141.2c1.9,0,1.9-3,0-3C174.6,138.2,174.6,141.2,176.5,141.2L176.5,141.2z"/>
	</g>
</g>
<g>
	<g>
		<path d="M218,136.2c1.9,0,1.9-3,0-3C216.1,133.2,216.1,136.2,218,136.2L218,136.2z"/>
	</g>
</g>
<g>
	<g>
		<path d="M217.8,139.4c1.9,0,1.9-3,0-3C215.9,136.4,215.9,139.4,217.8,139.4L217.8,139.4z"/>
	</g>
</g>
<g>
	<g>
		<path d="M217.9,143.1c1.9,0,1.9-3,0-3C216,140.1,216,143.1,217.9,143.1L217.9,143.1z"/>
	</g>
</g>
<g>
	<g>
		<path d="M217.8,147.1c1.9,0,1.9-3,0-3C215.8,144.1,215.8,147.1,217.8,147.1L217.8,147.1z"/>
	</g>
</g>
<g>
	<g>
		<path d="M217.5,150.9c1.9,0,1.9-3,0-3C215.5,147.9,215.5,150.9,217.5,150.9L217.5,150.9z"/>
	</g>
</g>
<g>
	<g>
		<path d="M217.3,155c1.9,0,1.9-3,0-3C215.3,152,215.3,155,217.3,155L217.3,155z"/>
	</g>
</g>
<g>
	<g>
		<path d="M217.2,159.4c1.9,0,1.9-3,0-3C215.3,156.4,215.3,159.4,217.2,159.4L217.2,159.4z"/>
	</g>
</g>
<g>
	<g>
		<path d="M217,163.6c1.9,0,1.9-3,0-3C215.1,160.6,215.1,163.6,217,163.6L217,163.6z"/>
	</g>
</g>
<g>
	<g>
		<path d="M216.8,168.1c1.9,0,1.9-3,0-3C214.9,165.1,214.9,168.1,216.8,168.1L216.8,168.1z"/>
	</g>
</g>
<g>
	<g>
		<path d="M216.7,172.7c1.9,0,1.9-3,0-3C214.8,169.7,214.8,172.7,216.7,172.7L216.7,172.7z"/>
	</g>
</g>
<g>
	<g>
		<path d="M216.5,176.8c1.9,0,1.9-3,0-3C214.6,173.8,214.6,176.8,216.5,176.8L216.5,176.8z"/>
	</g>
</g>
<g>
	<g>
		<path d="M216.4,180.5c1.9,0,1.9-3,0-3C214.4,177.5,214.4,180.5,216.4,180.5L216.4,180.5z"/>
	</g>
</g>
<g>
	<g>
		<path d="M215.9,183.8c1.9,0,1.9-3,0-3C214,180.8,214,183.8,215.9,183.8L215.9,183.8z"/>
	</g>
</g>
<g>
	<g>
		<path d="M215.9,186.6c1.9,0,1.9-3,0-3C214,183.6,214,186.6,215.9,186.6L215.9,186.6z"/>
	</g>
</g>
<g>
	<g>
		<path d="M176.3,145c1.9,0,1.9-3,0-3C174.3,142,174.3,145,176.3,145L176.3,145z"/>
	</g>
</g>
<g>
	<g>
		<path d="M175.8,148.7c1.9,0,1.9-3,0-3C173.9,145.7,173.9,148.7,175.8,148.7L175.8,148.7z"/>
	</g>
</g>
<g>
	<g>
		<path d="M175.7,152.3c1.9,0,1.9-3,0-3C173.7,149.3,173.7,152.3,175.7,152.3L175.7,152.3z"/>
	</g>
</g>
<g>
	<g>
		<path d="M175.2,156c1.9,0,1.9-3,0-3C173.3,153,173.3,156,175.2,156L175.2,156z"/>
	</g>
</g>
<g>
	<g>
		<path d="M175,160.3c1.9,0,1.9-3,0-3C173.1,157.3,173.1,160.3,175,160.3L175,160.3z"/>
	</g>
</g>
<g>
	<g>
		<path d="M174.6,164.9c1.9,0,1.9-3,0-3C172.7,161.9,172.6,164.9,174.6,164.9L174.6,164.9z"/>
	</g>
</g>
<g>
	<g>
		<path d="M174.4,168.9c1.9,0,1.9-3,0-3C172.5,165.9,172.5,168.9,174.4,168.9L174.4,168.9z"/>
	</g>
</g>
<g>
	<g>
		<path d="M174,172.4c1.9,0,1.9-3,0-3C172.1,169.4,172,172.4,174,172.4L174,172.4z"/>
	</g>
</g>
<g>
	<g>
		<path d="M173.8,176.5c1.9,0,1.9-3,0-3C171.9,173.5,171.9,176.5,173.8,176.5L173.8,176.5z"/>
	</g>
</g>
<g>
	<g>
		<path d="M173.4,179.7c1.9,0,1.9-3,0-3C171.5,176.7,171.5,179.7,173.4,179.7L173.4,179.7z"/>
	</g>
</g>
<g>
	<g>
		<path d="M176.6,180.3c1.9,0,1.9-3,0-3C174.7,177.3,174.7,180.3,176.6,180.3L176.6,180.3z"/>
	</g>
</g>
<g>
	<g>
		<path d="M180.3,180.7c1.9,0,1.9-3,0-3C178.4,177.7,178.4,180.7,180.3,180.7L180.3,180.7z"/>
	</g>
</g>
<g>
	<g>
		<path d="M184,181.3c1.9,0,1.9-3,0-3C182.1,178.3,182.1,181.3,184,181.3L184,181.3z"/>
	</g>
</g>
<g>
	<g>
		<path d="M187.5,181.6c1.9,0,1.9-3,0-3C185.5,178.6,185.5,181.6,187.5,181.6L187.5,181.6z"/>
	</g>
</g>
<g>
	<g>
		<path d="M190.9,182c1.9,0,1.9-3,0-3C189,179,189,182,190.9,182L190.9,182z"/>
	</g>
</g>
<g>
	<g>
		<path d="M194.8,182.6c1.9,0,1.9-3,0-3C192.9,179.6,192.9,182.6,194.8,182.6L194.8,182.6z"/>
	</g>
</g>
<g>
	<g>
		<path d="M198,183.4c1.9,0,1.9-3,0-3C196.1,180.4,196.1,183.4,198,183.4L198,183.4z"/>
	</g>
</g>
<g>
	<g>
		<path d="M201.3,184c1.9,0,1.9-3,0-3C199.3,181,199.3,184,201.3,184L201.3,184z"/>
	</g>
</g>
<g>
	<g>
		<path d="M205.2,184.4c1.9,0,1.9-3,0-3C203.2,181.4,203.2,184.4,205.2,184.4L205.2,184.4z"/>
	</g>
</g>
<g>
	<g>
		<path d="M209.3,185.3c1.9,0,1.9-3,0-3C207.3,182.3,207.3,185.3,209.3,185.3L209.3,185.3z"/>
	</g>
</g>
<g>
	<g>
		<path d="M212.9,185.6c1.9,0,1.9-3,0-3C211,182.6,211,185.6,212.9,185.6L212.9,185.6z"/>
	</g>
</g>
<g>
	<line class="times11" x1="120.1" y1="205.6" x2="119.4" y2="230.8"/>
	<line class="times11" x1="130.8" y1="212.5" x2="120" y2="218.4"/>
	<line class="times11" x1="140.6" y1="219.4" x2="120" y2="218.4"/>
	<line class="times11" x1="131.5" y1="226.3" x2="120" y2="218.4"/>
	<line class="times11" x1="108.7" y1="224.3" x2="120" y2="218.4"/>
	<line class="times11" x1="99" y1="217.5" x2="120" y2="218.4"/>
	<line class="times11" x1="109.8" y1="211.5" x2="120" y2="218.4"/>
</g>
<g>
	
		<ellipse transform="matrix(0.9964 -8.420213e-02 8.420213e-02 0.9964 -24.0509 62.1673)" class="times11" cx="725" cy="316.2" rx="1.1" ry="0.7"/>
	
		<ellipse transform="matrix(0.9964 -8.420213e-02 8.420213e-02 0.9964 -23.7681 61.8023)" class="times11" cx="720.8" cy="312.7" rx="1.1" ry="0.7"/>
	
		<ellipse transform="matrix(0.9964 -8.420213e-02 8.420213e-02 0.9964 -23.6344 62.1144)" class="times11" cx="724.6" cy="311.2" rx="1.1" ry="0.7"/>
	
		<ellipse transform="matrix(0.9964 -8.420213e-02 8.420213e-02 0.9964 -23.8195 62.1379)" class="times11" cx="724.7" cy="313.5" rx="1.1" ry="0.7"/>
	
		<ellipse transform="matrix(0.9964 -8.420213e-02 8.420213e-02 0.9964 -23.9532 61.8258)" class="times11" cx="721" cy="314.9" rx="1.1" ry="0.7"/>
	
		<ellipse transform="matrix(0.9964 -8.420213e-02 8.420213e-02 0.9964 -24.1383 61.8493)" class="times11" cx="721.2" cy="317.1" rx="1.1" ry="0.7"/>
	
		<ellipse transform="matrix(0.9964 -8.420213e-02 8.420213e-02 0.9964 -24.2359 62.1909)" class="times11" cx="725.2" cy="318.4" rx="1.1" ry="0.7"/>
	
		<ellipse transform="matrix(0.9964 -8.420213e-02 8.420213e-02 0.9964 -22.8898 61.3145)" class="times11" cx="715.4" cy="302" rx="1.1" ry="0.7"/>
	
		<ellipse transform="matrix(0.9964 -8.420213e-02 8.420213e-02 0.9964 -23.0749 61.338)" class="times11" cx="715.6" cy="304.2" rx="1.1" ry="0.7"/>
	
		<ellipse transform="matrix(0.9964 -8.420213e-02 8.420213e-02 0.9964 -23.26 61.3615)" class="times11" cx="715.8" cy="306.4" rx="1.1" ry="0.7"/>
	
		<ellipse transform="matrix(0.9964 -8.420213e-02 8.420213e-02 0.9964 -23.4451 61.3851)" class="times11" cx="716" cy="308.6" rx="1.1" ry="0.7"/>
	
		<ellipse transform="matrix(0.9964 -8.420213e-02 8.420213e-02 0.9964 -23.6764 61.4145)" class="times11" cx="716.2" cy="311.4" rx="1.1" ry="0.7"/>
	
		<ellipse transform="matrix(0.9964 -8.420213e-02 8.420213e-02 0.9964 -23.8615 61.438)" class="times11" cx="716.4" cy="313.6" rx="1.1" ry="0.7"/>
	
		<ellipse transform="matrix(0.9964 -8.420213e-02 8.420213e-02 0.9964 -24.0466 61.4615)" class="times11" cx="716.6" cy="315.8" rx="1.1" ry="0.7"/>
	
		<ellipse transform="matrix(0.9964 -8.420213e-02 8.420213e-02 0.9964 -22.9412 61.6501)" class="times11" cx="719.4" cy="302.8" rx="1.1" ry="0.7"/>
	
		<ellipse transform="matrix(0.9964 -8.420213e-02 8.420213e-02 0.9964 -22.9867 62.032)" class="times11" cx="723.9" cy="303.5" rx="1.1" ry="0.7"/>
	
		<ellipse transform="matrix(0.9964 -8.420213e-02 8.420213e-02 0.9964 -23.1204 61.7199)" class="times11" cx="720.1" cy="305" rx="1.1" ry="0.7"/>
	
		<ellipse transform="matrix(0.9964 -8.420213e-02 8.420213e-02 0.9964 -23.218 62.0615)" class="times11" cx="724.1" cy="306.3" rx="1.1" ry="0.7"/>
	
		<ellipse transform="matrix(0.9964 -8.420213e-02 8.420213e-02 0.9964 -23.3517 61.7493)" class="times11" cx="720.4" cy="307.7" rx="1.1" ry="0.7"/>
	
		<ellipse transform="matrix(0.9964 -8.420213e-02 8.420213e-02 0.9964 -23.5368 61.7729)" class="times11" cx="720.6" cy="309.9" rx="1.1" ry="0.7"/>
	
		<ellipse transform="matrix(0.9964 -8.420213e-02 8.420213e-02 0.9964 -23.4031 62.085)" class="times11" cx="724.3" cy="308.5" rx="1.1" ry="0.7"/>
	
		<ellipse transform="matrix(0.9964 -8.420213e-02 8.420213e-02 0.9964 -23.46 59.7884)" class="times11" cx="697.1" cy="308" rx="1.1" ry="0.7"/>
	
		<ellipse transform="matrix(0.9964 -8.420213e-02 8.420213e-02 0.9964 -23.645 59.8119)" class="times11" cx="697.3" cy="310.2" rx="1.1" ry="0.7"/>
	
		<ellipse transform="matrix(0.9964 -8.420213e-02 8.420213e-02 0.9964 -23.5635 60.0836)" class="times11" cx="700.5" cy="309.4" rx="1.1" ry="0.7"/>
	
		<ellipse transform="matrix(0.9964 -8.420213e-02 8.420213e-02 0.9964 -23.7486 60.1072)" class="times11" cx="700.7" cy="311.6" rx="1.1" ry="0.7"/>
	
		<ellipse transform="matrix(0.9964 -8.420213e-02 8.420213e-02 0.9964 -23.6148 60.4193)" class="times11" cx="704.5" cy="310.2" rx="1.1" ry="0.7"/>
	
		<ellipse transform="matrix(0.9964 -8.420213e-02 8.420213e-02 0.9964 -23.7999 60.4428)" class="times11" cx="704.7" cy="312.4" rx="1.1" ry="0.7"/>
	
		<ellipse transform="matrix(0.9964 -8.420213e-02 8.420213e-02 0.9964 -23.7125 60.7608)" class="times11" cx="708.5" cy="311.5" rx="1.1" ry="0.7"/>
	
		<ellipse transform="matrix(0.9964 -8.420213e-02 8.420213e-02 0.9964 -23.8976 60.7843)" class="times11" cx="708.7" cy="313.7" rx="1.1" ry="0.7"/>
	
		<ellipse transform="matrix(0.9964 -8.420213e-02 8.420213e-02 0.9964 -23.7638 61.0965)" class="times11" cx="712.4" cy="312.3" rx="1.1" ry="0.7"/>
	
		<ellipse transform="matrix(0.9964 -8.420213e-02 8.420213e-02 0.9964 -23.9952 61.1259)" class="times11" cx="712.7" cy="315" rx="1.1" ry="0.7"/>
	
		<ellipse transform="matrix(0.9964 -8.420213e-02 8.420213e-02 0.9964 -22.8173 60.0358)" class="times11" cx="700.3" cy="300.5" rx="1.1" ry="0.7"/>
	
		<ellipse transform="matrix(0.9964 -8.420213e-02 8.420213e-02 0.9964 -22.6895 60.3016)" class="times11" cx="703.5" cy="299.1" rx="1.1" ry="0.7"/>
	
		<ellipse transform="matrix(0.9964 -8.420213e-02 8.420213e-02 0.9964 -22.8745 60.3252)" class="times11" cx="703.7" cy="301.3" rx="1.1" ry="0.7"/>
	
		<ellipse transform="matrix(0.9964 -8.420213e-02 8.420213e-02 0.9964 -22.7467 60.591)" class="times11" cx="706.9" cy="300" rx="1.1" ry="0.7"/>
	
		<ellipse transform="matrix(0.9964 -8.420213e-02 8.420213e-02 0.9964 -22.9259 60.6608)" class="times11" cx="707.7" cy="302.1" rx="1.1" ry="0.7"/>
	
		<ellipse transform="matrix(0.9964 -8.420213e-02 8.420213e-02 0.9964 -22.7981 60.9267)" class="times11" cx="710.9" cy="300.7" rx="1.1" ry="0.7"/>
	
		<ellipse transform="matrix(0.9964 -8.420213e-02 8.420213e-02 0.9964 -23.0235 61.0023)" class="times11" cx="711.7" cy="303.4" rx="1.1" ry="0.7"/>
	
		<ellipse transform="matrix(0.9964 -8.420213e-02 8.420213e-02 0.9964 -22.575 59.7229)" class="times11" cx="696.7" cy="297.5" rx="1.1" ry="0.7"/>
	
		<ellipse transform="matrix(0.9964 -8.420213e-02 8.420213e-02 0.9964 -22.6381 59.966)" class="times11" cx="699.6" cy="298.4" rx="1.1" ry="0.7"/>
	
		<ellipse transform="matrix(0.9964 -8.420213e-02 8.420213e-02 0.9964 -22.7659 59.7001)" class="times11" cx="696.4" cy="299.7" rx="1.1" ry="0.7"/>
	
		<ellipse transform="matrix(0.9964 -8.420213e-02 8.420213e-02 0.9964 -22.5311 58.5889)" class="times11" cx="683.3" cy="296.4" rx="1.1" ry="0.7"/>
	
		<ellipse transform="matrix(0.9964 -8.420213e-02 8.420213e-02 0.9964 -22.4032 58.8547)" class="times11" cx="686.5" cy="295" rx="1.1" ry="0.7"/>
	
		<ellipse transform="matrix(0.9964 -8.420213e-02 8.420213e-02 0.9964 -22.5883 58.8783)" class="times11" cx="686.7" cy="297.2" rx="1.1" ry="0.7"/>
	
		<ellipse transform="matrix(0.9964 -8.420213e-02 8.420213e-02 0.9964 -22.4605 59.1441)" class="times11" cx="689.9" cy="295.8" rx="1.1" ry="0.7"/>
	
		<ellipse transform="matrix(0.9964 -8.420213e-02 8.420213e-02 0.9964 -22.6456 59.1676)" class="times11" cx="690.1" cy="298" rx="1.1" ry="0.7"/>
	
		<ellipse transform="matrix(0.9964 -8.420213e-02 8.420213e-02 0.9964 -23.3455 59.2096)" class="times11" cx="690.3" cy="306.4" rx="1.1" ry="0.7"/>
	
		<ellipse transform="matrix(0.9964 -8.420213e-02 8.420213e-02 0.9964 -23.5306 59.2331)" class="times11" cx="690.4" cy="308.6" rx="1.1" ry="0.7"/>
	
		<ellipse transform="matrix(0.9964 -8.420213e-02 8.420213e-02 0.9964 -22.5177 59.4335)" class="times11" cx="693.3" cy="296.7" rx="1.1" ry="0.7"/>
	
		<ellipse transform="matrix(0.9964 -8.420213e-02 8.420213e-02 0.9964 -23.4027 59.499)" class="times11" cx="693.7" cy="307.2" rx="1.1" ry="0.7"/>
	
		<ellipse transform="matrix(0.9964 -8.420213e-02 8.420213e-02 0.9964 -23.5878 59.5225)" class="times11" cx="693.9" cy="309.4" rx="1.1" ry="0.7"/>
	
		<ellipse transform="matrix(0.9964 -8.420213e-02 8.420213e-02 0.9964 -22.7028 59.457)" class="times11" cx="693.5" cy="298.9" rx="1.1" ry="0.7"/>
	
		<ellipse transform="matrix(0.9964 -8.420213e-02 8.420213e-02 0.9964 -23.3471 58.4575)" class="times11" cx="681.3" cy="306" rx="1.1" ry="0.7"/>
	
		<ellipse transform="matrix(0.9964 -8.420213e-02 8.420213e-02 0.9964 -22.346 58.5654)" class="times11" cx="683.1" cy="294.2" rx="1.1" ry="0.7"/>
	
		<ellipse transform="matrix(0.9964 -8.420213e-02 8.420213e-02 0.9964 -22.6699 58.6065)" class="times11" cx="683.5" cy="298.1" rx="1.1" ry="0.7"/>
	
		<ellipse transform="matrix(0.9964 -8.420213e-02 8.420213e-02 0.9964 -22.855 58.6301)" class="times11" cx="683.6" cy="300.3" rx="1.1" ry="0.7"/>
	
		<ellipse transform="matrix(0.9964 -8.420213e-02 8.420213e-02 0.9964 -23.04 58.6536)" class="times11" cx="683.8" cy="302.5" rx="1.1" ry="0.7"/>
	
		<ellipse transform="matrix(0.9964 -8.420213e-02 8.420213e-02 0.9964 -23.2251 58.6771)" class="times11" cx="684" cy="304.7" rx="1.1" ry="0.7"/>
	
		<ellipse transform="matrix(0.9964 -8.420213e-02 8.420213e-02 0.9964 -23.4102 58.7007)" class="times11" cx="684.2" cy="306.9" rx="1.1" ry="0.7"/>
	
		<ellipse transform="matrix(0.9964 -8.420213e-02 8.420213e-02 0.9964 -23.2824 58.9665)" class="times11" cx="687.4" cy="305.5" rx="1.1" ry="0.7"/>
	
		<ellipse transform="matrix(0.9964 -8.420213e-02 8.420213e-02 0.9964 -23.4674 58.99)" class="times11" cx="687.6" cy="307.7" rx="1.1" ry="0.7"/>
	
		<ellipse transform="matrix(0.9964 -8.420213e-02 8.420213e-02 0.9964 -23.1047 58.1446)" class="times11" cx="677.8" cy="303" rx="1.1" ry="0.7"/>
	
		<ellipse transform="matrix(0.9964 -8.420213e-02 8.420213e-02 0.9964 -23.2898 58.1682)" class="times11" cx="677.9" cy="305.2" rx="1.1" ry="0.7"/>
	
		<ellipse transform="matrix(0.9964 -8.420213e-02 8.420213e-02 0.9964 -22.2829 58.3223)" class="times11" cx="680.3" cy="293.3" rx="1.1" ry="0.7"/>
	
		<ellipse transform="matrix(0.9964 -8.420213e-02 8.420213e-02 0.9964 -22.4679 58.3458)" class="times11" cx="680.5" cy="295.5" rx="1.1" ry="0.7"/>
	
		<ellipse transform="matrix(0.9964 -8.420213e-02 8.420213e-02 0.9964 -22.653 58.3693)" class="times11" cx="680.6" cy="297.7" rx="1.1" ry="0.7"/>
	
		<ellipse transform="matrix(0.9964 -8.420213e-02 8.420213e-02 0.9964 -22.8381 58.3928)" class="times11" cx="680.8" cy="299.9" rx="1.1" ry="0.7"/>
	
		<ellipse transform="matrix(0.9964 -8.420213e-02 8.420213e-02 0.9964 -22.9769 58.4105)" class="times11" cx="681" cy="301.6" rx="1.1" ry="0.7"/>
	
		<ellipse transform="matrix(0.9964 -8.420213e-02 8.420213e-02 0.9964 -23.162 58.434)" class="times11" cx="681.2" cy="303.8" rx="1.1" ry="0.7"/>
	
		<ellipse transform="matrix(0.9964 -8.420213e-02 8.420213e-02 0.9964 -22.4107 58.0564)" class="times11" cx="677.1" cy="294.7" rx="1.1" ry="0.7"/>
	
		<ellipse transform="matrix(0.9964 -8.420213e-02 8.420213e-02 0.9964 -22.5495 58.074)" class="times11" cx="677.2" cy="296.4" rx="1.1" ry="0.7"/>
	
		<ellipse transform="matrix(0.9964 -8.420213e-02 8.420213e-02 0.9964 -22.7346 58.0976)" class="times11" cx="677.4" cy="298.6" rx="1.1" ry="0.7"/>
	
		<ellipse transform="matrix(0.9964 -8.420213e-02 8.420213e-02 0.9964 -22.9197 58.1211)" class="times11" cx="677.6" cy="300.8" rx="1.1" ry="0.7"/>
	
		<ellipse transform="matrix(0.9964 -8.420213e-02 8.420213e-02 0.9964 -22.2256 58.0329)" class="times11" cx="676.9" cy="292.5" rx="1.1" ry="0.7"/>
</g>
<polygon class="times17" points="729.6,321.6 727.3,302.4 672.3,290.2 673.8,306.1 "/>
<polygon class="times30" points="407.7,35.6 443.5,20.6 489.2,21.7 463.8,35.6 "/>
<polygon class="times30" points="491.5,309.7 489.2,21.7 463.8,35.6 463.8,299.3 "/>
<path class="times31" d="M457.2,57.3l-43.7-1.9l-0.1,40.3l43.4,2.9L457.2,57.3z M415.7,88.5l-0.8-30.6l39.3,1.7l-0.8,37.3L415.7,88.5z"
	/>
<polygon class="times23" points="453.6,96.6 414.9,93.7 414.9,57.9 454.2,59.6 "/>
<g>
	<circle class="times7" cx="407.4" cy="49.2" r="3.2"/>
	<circle class="times7" cx="407.4" cy="88" r="3.2"/>
	<circle class="times7" cx="407.4" cy="74.7" r="3.2"/>
	<circle class="times7" cx="407.4" cy="61.4" r="3.2"/>
	<circle class="times7" cx="407.4" cy="37.7" r="3.2"/>
	<circle class="times7" cx="407.4" cy="154.4" r="3.2"/>
	<circle class="times7" cx="407.4" cy="140.6" r="3.2"/>
	<circle class="times7" cx="407.4" cy="126.7" r="3.2"/>
	<circle class="times7" cx="407.4" cy="112.8" r="3.2"/>
	<circle class="times7" cx="407.4" cy="98.9" r="3.2"/>
	<circle class="times7" cx="463.5" cy="49.2" r="3.2"/>
	<circle class="times7" cx="463.5" cy="88" r="3.2"/>
	<circle class="times7" cx="463.5" cy="74.7" r="3.2"/>
	<circle class="times7" cx="463.5" cy="61.4" r="3.2"/>
	<circle class="times7" cx="463.5" cy="154.4" r="3.2"/>
	<circle class="times7" cx="463.5" cy="140.6" r="3.2"/>
	<circle class="times7" cx="463.5" cy="126.7" r="3.2"/>
	<circle class="times7" cx="463.5" cy="112.8" r="3.2"/>
	<circle class="times7" cx="463.5" cy="98.9" r="3.2"/>
	<circle class="times7" cx="463.5" cy="168.3" r="3.2"/>
	<circle class="times7" cx="463.5" cy="207.1" r="3.2"/>
	<circle class="times7" cx="463.5" cy="193.8" r="3.2"/>
	<circle class="times7" cx="463.5" cy="180.5" r="3.2"/>
	<circle class="times7" cx="463.5" cy="273.6" r="3.2"/>
	<circle class="times7" cx="463.5" cy="259.7" r="3.2"/>
	<circle class="times7" cx="463.5" cy="245.8" r="3.2"/>
	<circle class="times7" cx="463.5" cy="231.9" r="3.2"/>
	<circle class="times7" cx="463.5" cy="218" r="3.2"/>
	<circle class="times7" cx="408" cy="167.7" r="3.2"/>
	<circle class="times7" cx="408" cy="206.5" r="3.2"/>
	<circle class="times7" cx="408" cy="193.2" r="3.2"/>
	<circle class="times7" cx="408" cy="179.9" r="3.2"/>
	<circle class="times7" cx="408.6" cy="273" r="3.2"/>
	<circle class="times7" cx="408" cy="259.1" r="3.2"/>
	<circle class="times7" cx="408" cy="245.2" r="3.2"/>
	<circle class="times7" cx="408" cy="231.3" r="3.2"/>
	<circle class="times7" cx="408" cy="217.5" r="3.2"/>
	<circle class="times7" cx="463.5" cy="285.7" r="3.2"/>
	<circle class="times7" cx="463.5" cy="37.7" r="3.2"/>
</g>
<path class="times31" d="M457.2,107.6l-43.7-1.9l0.5,38l42.8,5.2L457.2,107.6z M415.7,138.8l-0.8-30.6l39.3,1.7l-0.8,37.3L415.7,138.8z
	"/>
<polygon class="times23" points="453.6,146.9 414.9,142.3 414.9,108.2 454.2,109.9 "/>
<path class="times31" d="M455.7,167.7l-39.8-4.7l0.5,95.4l38.8,7.9L455.7,167.7z"/>
<path class="times32" d="M452.8,172.8l-34.7-4.2l0.4,86.5l33.1,7.2L452.8,172.8z"/>
<g>
	<g>
		
			<ellipse transform="matrix(1.483516e-02 -0.9999 0.9999 1.483516e-02 21.8165 301.7083)" class="times33" cx="164" cy="139.8" rx="1.2" ry="2.3"/>
		
			<ellipse transform="matrix(1.483516e-02 -0.9999 0.9999 1.483516e-02 24.4558 299.1838)" class="times33" cx="164.1" cy="137.2" rx="0.3" ry="1.2"/>
		
			<ellipse transform="matrix(1.483516e-02 -0.9999 0.9999 1.483516e-02 27.0951 296.6595)" class="times33" cx="164.1" cy="134.6" rx="0.6" ry="1.7"/>
		
			<ellipse transform="matrix(1.483516e-02 -0.9999 0.9999 1.483516e-02 29.4412 294.4156)" class="times33" cx="164.1" cy="132.3" rx="1.2" ry="1.7"/>
		
			<ellipse transform="matrix(1.483516e-02 -0.9999 0.9999 1.483516e-02 32.3737 291.6107)" class="times33" cx="164.2" cy="129.4" rx="1.2" ry="1.7"/>
		<circle class="times33" cx="164.2" cy="125.9" r="1.2"/>
		
			<ellipse transform="matrix(1.483516e-02 -0.9999 0.9999 1.483516e-02 38.8254 285.4399)" class="times33" cx="164.3" cy="123" rx="0.6" ry="1.7"/>
		
			<ellipse transform="matrix(1.483516e-02 -0.9999 0.9999 1.483516e-02 41.1715 283.196)" class="times33" cx="164.3" cy="120.7" rx="1.2" ry="1.7"/>
		
			<ellipse transform="matrix(1.483516e-02 -0.9999 0.9999 1.483516e-02 44.1041 280.3912)" class="times33" cx="164.3" cy="117.8" rx="0.6" ry="1.2"/>
		
			<ellipse transform="matrix(1.483516e-02 -0.9999 0.9999 1.483516e-02 46.4501 278.1473)" class="times33" cx="164.4" cy="115.5" rx="0.6" ry="1.2"/>
		<circle class="times33" cx="166.2" cy="112.6" r="1.2"/>
		
			<ellipse transform="matrix(1.483516e-02 -0.9999 0.9999 1.483516e-02 53.2584 281.743)" class="times33" cx="169.6" cy="113.8" rx="0.6" ry="1.2"/>
		
			<ellipse transform="matrix(1.483516e-02 -0.9999 0.9999 1.483516e-02 56.0378 285.8231)" class="times33" cx="173.1" cy="114.5" rx="0.6" ry="1.2"/>
		
			<ellipse transform="matrix(1.483516e-02 -0.9999 0.9999 1.483516e-02 58.2306 290.4641)" class="times33" cx="176.5" cy="115.7" rx="0.6" ry="1.2"/>
		<circle class="times33" cx="180" cy="116.3" r="1.2"/>
		
			<ellipse transform="matrix(1.483516e-02 -0.9999 0.9999 1.483516e-02 63.356 292.3003)" class="times33" cx="180" cy="114" rx="0.6" ry="1.2"/>
		
			<ellipse transform="matrix(1.483516e-02 -0.9999 0.9999 1.483516e-02 65.7021 290.0564)" class="times33" cx="180" cy="111.7" rx="0.6" ry="1.2"/>
		
			<ellipse transform="matrix(1.483516e-02 -0.9999 0.9999 1.483516e-02 68.6346 287.2515)" class="times33" cx="180.1" cy="108.8" rx="1.2" ry="1.7"/>
		
			<ellipse transform="matrix(1.483516e-02 -0.9999 0.9999 1.483516e-02 72.5359 292.5046)" class="times33" cx="184.7" cy="109.4" rx="0.6" ry="1.2"/>
		
			<ellipse transform="matrix(1.483516e-02 -0.9999 0.9999 1.483516e-02 74.7287 297.1456)" class="times33" cx="188.2" cy="110.6" rx="1.2" ry="1.7"/>
		<circle class="times33" cx="192.8" cy="111.9" r="1.2"/>
		
			<ellipse transform="matrix(1.483516e-02 -0.9999 0.9999 1.483516e-02 80.2619 306.4532)" class="times33" cx="195.6" cy="112.5" rx="0.6" ry="1.2"/>
		
			<ellipse transform="matrix(1.483516e-02 -0.9999 0.9999 1.483516e-02 83.0412 310.5333)" class="times33" cx="199.1" cy="113.1" rx="1.2" ry="0.6"/>
		
			<ellipse transform="matrix(1.483516e-02 -0.9999 0.9999 1.483516e-02 85.795 315.7609)" class="times33" cx="203.1" cy="114.3" rx="1.2" ry="1.7"/>
		
			<ellipse transform="matrix(1.483516e-02 -0.9999 0.9999 1.483516e-02 89.1098 321.575)" class="times33" cx="207.7" cy="115.6" rx="0.6" ry="1.7"/>
		
			<ellipse transform="matrix(1.483516e-02 -0.9999 0.9999 1.483516e-02 93.0111 326.828)" class="times33" cx="212.4" cy="116.2" rx="0.6" ry="1.2"/>
		<circle class="times33" cx="215.8" cy="116.8" r="1.2"/>
		
			<ellipse transform="matrix(1.483516e-02 -0.9999 0.9999 1.483516e-02 93.4443 333.152)" class="times33" cx="215.8" cy="119.2" rx="0.6" ry="1.7"/>
		<circle class="times33" cx="215.8" cy="121.5" r="1.2"/>
		
			<ellipse transform="matrix(1.483516e-02 -0.9999 0.9999 1.483516e-02 87.6047 337.6143)" class="times33" cx="215.1" cy="124.4" rx="1.2" ry="1.7"/>
		
			<ellipse transform="matrix(1.483516e-02 -0.9999 0.9999 1.483516e-02 90.945 342.2809)" class="times33" cx="219.2" cy="125" rx="0.6" ry="1.2"/>
		
			<ellipse transform="matrix(1.483516e-02 -0.9999 0.9999 1.483516e-02 93.1379 346.9219)" class="times33" cx="222.6" cy="126.2" rx="0.6" ry="1.2"/>
		
			<ellipse transform="matrix(1.483516e-02 -0.9999 0.9999 1.483516e-02 97.0392 352.175)" class="times33" cx="227.2" cy="126.8" rx="1.2" ry="1.7"/>
		
			<ellipse transform="matrix(1.483516e-02 -0.9999 0.9999 1.483516e-02 95.2285 356.1529)" class="times33" cx="228.4" cy="129.8" rx="0.6" ry="1.2"/>
		
			<ellipse transform="matrix(1.483516e-02 -0.9999 0.9999 1.483516e-02 92.3215 357.8103)" class="times33" cx="227.7" cy="132.1" rx="0.6" ry="1.2"/>
		
			<ellipse transform="matrix(1.483516e-02 -0.9999 0.9999 1.483516e-02 89.3889 360.6152)" class="times33" cx="227.7" cy="134.9" rx="0.6" ry="1.2"/>
		
			<ellipse transform="matrix(1.483516e-02 -0.9999 0.9999 1.483516e-02 87.0429 362.8591)" class="times33" cx="227.7" cy="137.3" rx="1.2" ry="1.7"/>
		
			<ellipse transform="matrix(1.483516e-02 -0.9999 0.9999 1.483516e-02 84.1103 365.6639)" class="times33" cx="227.6" cy="140.1" rx="0.6" ry="1.2"/>
		<circle class="times33" cx="227.6" cy="178.3" r="1.7"/>
		<circle class="times33" cx="227.6" cy="181.8" r="1.2"/>
		
			<ellipse transform="matrix(1.483516e-02 -0.9999 0.9999 1.483516e-02 38.9486 408.859)" class="times33" cx="227" cy="184.7" rx="0.6" ry="1.7"/>
		
			<ellipse transform="matrix(1.483516e-02 -0.9999 0.9999 1.483516e-02 36.6025 411.103)" class="times33" cx="226.9" cy="187" rx="1.2" ry="1.7"/>
		
			<ellipse transform="matrix(1.483516e-02 -0.9999 0.9999 1.483516e-02 33.67 413.9078)" class="times33" cx="226.9" cy="189.9" rx="0.6" ry="1.2"/>
		
			<ellipse transform="matrix(1.483516e-02 -0.9999 0.9999 1.483516e-02 31.3239 416.1517)" class="times33" cx="226.8" cy="192.2" rx="0.6" ry="1.2"/>
		<circle class="times33" cx="223.4" cy="192.1" r="1.2"/>
		<circle class="times33" cx="220.5" cy="192.1" r="1.2"/>
		
			<ellipse transform="matrix(1.483516e-02 -0.9999 0.9999 1.483516e-02 22.3738 405.62)" class="times33" cx="217" cy="191.5" rx="0.6" ry="1.2"/>
		<circle class="times33" cx="214.1" cy="190.8" r="1.2"/>
		
			<ellipse transform="matrix(1.483516e-02 -0.9999 0.9999 1.483516e-02 18.3704 404.9568)" class="times33" cx="214.7" cy="193.2" rx="0.6" ry="1.2"/>
		
			<ellipse transform="matrix(1.483516e-02 -0.9999 0.9999 1.483516e-02 15.4633 406.6143)" class="times33" cx="214.1" cy="195.5" rx="0.6" ry="1.2"/>
		
			<ellipse transform="matrix(1.483516e-02 -0.9999 0.9999 1.483516e-02 13.0917 410.0056)" class="times33" cx="214.6" cy="198.4" rx="0.6" ry="1.2"/>
		<circle class="times33" cx="211.2" cy="197.7" r="1.2"/>
		<circle class="times33" cx="207.1" cy="197.7" r="1.2"/>
		
			<ellipse transform="matrix(1.483516e-02 -0.9999 0.9999 1.483516e-02 1.8978 397.1278)" class="times33" cx="202.5" cy="197.6" rx="0.6" ry="1.2"/>
		
			<ellipse transform="matrix(1.483516e-02 -0.9999 0.9999 1.483516e-02 -0.8816 393.0478)" class="times33" cx="199" cy="197" rx="0.6" ry="1.2"/>
		<circle class="times33" cx="195.6" cy="196.9" r="0.6"/>
		
			<ellipse transform="matrix(1.483516e-02 -0.9999 0.9999 1.483516e-02 -8.1487 384.2756)" class="times33" cx="190.9" cy="196.3" rx="1.2" ry="1.7"/>
		
			<ellipse transform="matrix(1.483516e-02 -0.9999 0.9999 1.483516e-02 -13.1975 378.9969)" class="times33" cx="185.7" cy="196.2" rx="0.6" ry="1.7"/>
		
			<ellipse transform="matrix(1.483516e-02 -0.9999 0.9999 1.483516e-02 -17.1243 374.8913)" class="times33" cx="181.7" cy="196.1" rx="0.6" ry="1.2"/>
		
			<ellipse transform="matrix(1.483516e-02 -0.9999 0.9999 1.483516e-02 -19.9036 370.8113)" class="times33" cx="178.2" cy="195.5" rx="0.6" ry="1.2"/>
		
			<ellipse transform="matrix(1.483516e-02 -0.9999 0.9999 1.483516e-02 -17.5576 368.5674)" class="times33" cx="178.3" cy="193.2" rx="0.6" ry="1.2"/>
		
			<ellipse transform="matrix(1.483516e-02 -0.9999 0.9999 1.483516e-02 -15.2371 367.4709)" class="times33" cx="178.9" cy="191.5" rx="0.6" ry="1.7"/>
		<circle class="times33" cx="178.9" cy="188.6" r="1.2"/>
		
			<ellipse transform="matrix(1.483516e-02 -0.9999 0.9999 1.483516e-02 -16.2058 359.413)" class="times33" cx="174.3" cy="187.9" rx="0.6" ry="1.2"/>
		<circle class="times33" cx="170.3" cy="187.3" r="1.2"/>
		
			<ellipse transform="matrix(1.483516e-02 -0.9999 0.9999 1.483516e-02 -24.0339 350.0543)" class="times33" cx="165.6" cy="187.2" rx="1.2" ry="1.7"/>
		
			<ellipse transform="matrix(1.483516e-02 -0.9999 0.9999 1.483516e-02 -23.3452 344.9034)" class="times33" cx="163.4" cy="184.3" rx="0.6" ry="1.7"/>
		
			<ellipse transform="matrix(1.483516e-02 -0.9999 0.9999 1.483516e-02 -20.4126 342.0985)" class="times33" cx="163.4" cy="181.4" rx="0.6" ry="1.2"/>
		<circle class="times33" cx="163.4" cy="179.1" r="1.2"/>
		
			<ellipse transform="matrix(1.483516e-02 -0.9999 0.9999 1.483516e-02 -15.134 337.0497)" class="times33" cx="163.5" cy="176.2" rx="0.6" ry="1.7"/>
		
			<ellipse transform="matrix(1.483516e-02 -0.9999 0.9999 1.483516e-02 -13.3489 334.2193)" class="times33" cx="162.9" cy="173.9" rx="0.6" ry="2.3"/>
		<circle class="times33" cx="163.6" cy="171" r="1.2"/>
		
			<ellipse transform="matrix(1.483516e-02 -0.9999 0.9999 1.483516e-02 -6.9228 329.196)" class="times33" cx="163.6" cy="168.1" rx="0.6" ry="1.2"/>
		
			<ellipse transform="matrix(1.483516e-02 -0.9999 0.9999 1.483516e-02 -5.1377 326.3656)" class="times33" cx="163.1" cy="165.8" rx="0.6" ry="1.7"/>
		
			<ellipse transform="matrix(1.483516e-02 -0.9999 0.9999 1.483516e-02 -1.6441 324.1472)" class="times33" cx="163.7" cy="162.9" rx="1.2" ry="1.7"/>
		
			<ellipse transform="matrix(1.483516e-02 -0.9999 0.9999 1.483516e-02 1.2884 321.3424)" class="times33" cx="163.7" cy="160" rx="1.2" ry="0.6"/>
		
			<ellipse transform="matrix(1.483516e-02 -0.9999 0.9999 1.483516e-02 4.221 318.5375)" class="times33" cx="163.8" cy="157.1" rx="0.6" ry="1.2"/>
		
			<ellipse transform="matrix(1.483516e-02 -0.9999 0.9999 1.483516e-02 7.1536 315.7326)" class="times33" cx="163.8" cy="154.2" rx="1.2" ry="1.7"/>
		
			<ellipse transform="matrix(1.483516e-02 -0.9999 0.9999 1.483516e-02 9.8057 312.6345)" class="times33" cx="163.6" cy="151.3" rx="0.6" ry="0.9"/>
		
			<ellipse transform="matrix(1.483516e-02 -0.9999 0.9999 1.483516e-02 12.1517 310.3906)" class="times33" cx="163.6" cy="149" rx="0.6" ry="0.9"/>
		
			<ellipse transform="matrix(1.483516e-02 -0.9999 0.9999 1.483516e-02 15.0715 308.1595)" class="times33" cx="163.9" cy="146.4" rx="0.9" ry="1.7"/>
		
			<ellipse transform="matrix(1.483516e-02 -0.9999 0.9999 1.483516e-02 18.5651 305.9411)" class="times33" cx="164.5" cy="143.5" rx="0.9" ry="1.2"/>
	</g>
	
		<ellipse transform="matrix(1.483516e-02 -0.9999 0.9999 1.483516e-02 81.493 368.6736)" class="times33" cx="227.8" cy="143" rx="1.1" ry="1.6"/>
	
		<ellipse transform="matrix(4.606828e-02 -0.9989 0.9989 4.606828e-02 72.5884 367.5943)" class="times33" cx="228.8" cy="145.8" rx="0.6" ry="1.2"/>
	<circle class="times33" cx="228.1" cy="148.7" r="1.2"/>
	
		<ellipse transform="matrix(4.606828e-02 -0.9989 0.9989 4.606828e-02 65.9623 373.3623)" class="times33" cx="228.5" cy="152.1" rx="0.6" ry="1.2"/>
	
		<ellipse transform="matrix(4.606828e-02 -0.9989 0.9989 4.606828e-02 63.854 375.1976)" class="times33" cx="228.4" cy="154.2" rx="0.3" ry="1.2"/>
	<circle class="times33" cx="228.3" cy="156.2" r="0.6"/>
	<circle class="times33" cx="227.9" cy="158.8" r="0.9"/>
	
		<ellipse transform="matrix(4.606828e-02 -0.9989 0.9989 4.606828e-02 55.4988 381.4119)" class="times33" cx="227.5" cy="161.6" rx="0.9" ry="1.7"/>
	
		<ellipse transform="matrix(4.606828e-02 -0.9989 0.9989 4.606828e-02 52.6711 385.4616)" class="times33" cx="228.2" cy="165.2" rx="0.9" ry="1.4"/>
	
		<ellipse transform="matrix(4.606828e-02 -0.9989 0.9989 4.606828e-02 49.0568 388.6078)" class="times33" cx="228" cy="168.6" rx="1.4" ry="2"/>
	
		<ellipse transform="matrix(4.606828e-02 -0.9989 0.9989 4.606828e-02 45.4036 392.3174)" class="times33" cx="228.1" cy="172.4" rx="0.6" ry="1.7"/>
	
		<ellipse transform="matrix(4.606828e-02 -0.9989 0.9989 4.606828e-02 42.4307 394.3758)" class="times33" cx="227.7" cy="175" rx="0.9" ry="2"/>
</g>
<g>
	<circle class="times11" cx="564.3" cy="131.9" r="1.7"/>
	<circle class="times11" cx="557.1" cy="131.2" r="1.7"/>
	<circle class="times11" cx="572.9" cy="132.2" r="1.7"/>
	<circle class="times11" cx="580.7" cy="133.2" r="1.7"/>
	<circle class="times11" cx="587.9" cy="133.6" r="1.7"/>
	<circle class="times11" cx="595.6" cy="134.1" r="1.7"/>
	<circle class="times11" cx="602.3" cy="134.5" r="1.7"/>
	<circle class="times11" cx="609.5" cy="134.9" r="1.7"/>
	<circle class="times11" cx="617.2" cy="135.4" r="1.7"/>
	<circle class="times11" cx="623.9" cy="136.3" r="1.7"/>
	<circle class="times11" cx="631.1" cy="136.7" r="1.7"/>
	<circle class="times11" cx="638.8" cy="137.2" r="1.7"/>
	<circle class="times11" cx="647.2" cy="137.6" r="1.7"/>
	<circle class="times11" cx="654.4" cy="138" r="1.7"/>
	<circle class="times11" cx="662.1" cy="138.5" r="1.7"/>
	<circle class="times11" cx="669.4" cy="139.4" r="1.7"/>
	<circle class="times11" cx="676.6" cy="139.8" r="1.7"/>
	<circle class="times11" cx="684.3" cy="140.3" r="1.7"/>
	<circle class="times11" cx="692.6" cy="140.7" r="1.7"/>
	<circle class="times11" cx="699.8" cy="141.1" r="1.7"/>
	<circle class="times11" cx="707.6" cy="141.6" r="1.7"/>
	<circle class="times11" cx="715.9" cy="142.5" r="1.7"/>
	<circle class="times11" cx="723.1" cy="142.9" r="1.7"/>
	<circle class="times11" cx="730.8" cy="143.4" r="1.7"/>
</g>
<polygon class="times1" points="733.9,62 739.9,58.5 744,133.2 738,138.3 "/>
<polygon class="times1" points="759.5,299.2 765,292.6 762.2,164.2 755.6,169.1 "/>
<polygon class="times1" points="622.6,163.6 629.8,157.5 762,164.2 757.6,169.1 "/>
<polygon class="times1" points="245.8,153.8 239.6,151.2 239.5,40.1 245.6,45 "/>
<polygon class="times1" points="139.9,172.1 132.1,178.1 32.5,166.5 41.4,161.2 "/>
<polygon class="times1" points="160.4,78.7 156.5,75.6 156.6,59.4 159.6,57.8 "/>
<line class="times34" x1="259" y1="271" x2="295.2" y2="271.1"/>
<line class="times34" x1="23" y1="270" x2="59.2" y2="270.1"/>
<line class="times34" x1="106" y1="271" x2="142.2" y2="271.1"/>
<line class="times34" x1="182" y1="271" x2="218.2" y2="271.1"/>
<line class="times34" x1="330" y1="274" x2="361" y2="285"/>
<line class="times34" x1="386" y1="296" x2="417" y2="307"/>
<line class="times34" x1="440" y1="317" x2="471" y2="328"/>
<line class="times34" x1="498" y1="339" x2="529" y2="350"/>
<line class="times34" x1="564" y1="365" x2="595" y2="376"/>
<line class="times34" x1="632" y1="391" x2="663" y2="402"/>
<line class="times34" x1="696" y1="414" x2="727" y2="425"/>
<line class="times34" x1="755" y1="436" x2="771" y2="442"/>
</svg>
