<?xml version="1.0" encoding="utf-8"?>
<!-- Generator: Adobe Illustrator 23.0.3, SVG Export Plug-In . SVG Version: 6.00 Build 0)  -->
<svg version="1.1" xmlns="http://www.w3.org/2000/svg" xmlns:xlink="http://www.w3.org/1999/xlink" x="0px" y="0px"
	 viewBox="0 0 769 478" style="enable-background:new 0 0 769 478;" xml:space="preserve">
<style type="text/css">
	.times0{fill:#42423E;}
	.times1{fill:#333333;stroke:#C8C7BD;stroke-width:2;stroke-miterlimit:10;}
	.times2{fill:#30302E;}
	.times3{fill:#F25898;stroke:#00FF00;stroke-miterlimit:10;}
	.times4{fill:none;}
	.times5{fill:#00E7FC;}
	.times6{fill:#C8C7BD;stroke:#F3FF00;stroke-miterlimit:10;}
	.times7{fill:#F7FA00;}
	.times8{font-family:'AcierBATText-Gris';}
	.times9{font-size:8.0947px;}
	.times10{fill:#F3FF00;}
	.times11{font-family:'Kinescope';}
	.times12{font-size:10.4071px;}
	.times13{fill:#00F3D2;}
	.times14{font-family:'Shelby';}
	.times15{font-size:19.6585px;}
	.times16{fill:none;stroke:#000000;stroke-miterlimit:10;}
	.times17{fill:none;stroke:#C8C7BD;stroke-width:3;stroke-miterlimit:10;}
	.times18{fill:#282825;stroke:#F3FF00;stroke-miterlimit:10;}
	.times19{fill:none;stroke:#C8C7BD;stroke-miterlimit:10;}
	.times20{stroke:#C8C7BD;stroke-miterlimit:10;}
	.times21{fill:#44212F;stroke:#FF0080;stroke-width:4;stroke-miterlimit:10;}
	.times22{fill:#C8C7BD;}
	.times23{fill:#F4FF00;}
	.times24{font-family:'Krungthep';}
	.times25{font-size:12.7294px;}
	.times26{fill:#1A1A1A;stroke:#C8C7BD;stroke-width:2;stroke-miterlimit:10;}
	.times27{fill:#FF0000;}
	.times28{fill:none;stroke:#C8C7BD;stroke-width:2;stroke-miterlimit:10;}
	.times29{stroke:#C8C7BD;stroke-width:2;stroke-miterlimit:10;}
	.times30{fill:#FF00DF;}
	.times31{fill:#00FF00;}
	.times32{fill:none;stroke:#F3FF00;stroke-miterlimit:10;}
</style>
<g id="Lag_1">
	<polygon class="times0" points="216.2,97.5 210.4,98.3 156.8,80.3 156.5,75.6 	"/>
	<polygon class="times0" points="43.7,161.9 29.5,156 33.6,16.7 47.9,13.3 	"/>
	<polygon class="times0" points="285.9,37 279.8,32.1 239.5,40.1 245.6,45 	"/>
	<polygon class="times0" points="549.8,73.9 554.7,67.8 739.9,58.5 733.9,62 	"/>
	<polygon class="times0" points="605.6,260.5 613.4,253.3 613.4,165.3 605.6,170.8 	"/>
	<polygon class="times0" points="551.6,166.9 559.4,161.4 613.6,165.3 605.9,170.8 	"/>
	<polygon class="times1" points="464.3,299.3 436.6,288.9 408.3,280.2 408.8,35.6 464.3,35.6 	"/>
	<polygon class="times2" points="187.5,212.7 280.5,218.7 280.4,226.2 187.3,225.4 	"/>
	<polygon class="times3" points="245.8,44.7 285.8,37.2 282.7,152.5 246.1,153.5 	"/>
	<g>
		<line class="times4" x1="302.4" y1="106.6" x2="302.5" y2="138.4"/>
		<line class="times4" x1="316.2" y1="114.9" x2="302.8" y2="122.8"/>
		<line class="times4" x1="328.8" y1="123.1" x2="302.8" y2="122.8"/>
		<line class="times4" x1="317.7" y1="132.2" x2="302.8" y2="122.8"/>
		<line class="times4" x1="288.8" y1="130.6" x2="302.8" y2="122.8"/>
		<line class="times4" x1="276.2" y1="122.4" x2="302.8" y2="122.8"/>
		<line class="times4" x1="289.6" y1="114.5" x2="302.8" y2="122.8"/>
		<line class="times4" x1="292.6" y1="104.7" x2="296.7" y2="101.8"/>
		<line class="times4" x1="292.7" y1="101.8" x2="297.8" y2="104.8"/>
		<line class="times4" x1="311.9" y1="94" x2="311.6" y2="110.7"/>
		<line class="times4" x1="311.7" y1="103.8" x2="318.1" y2="101"/>
		<line class="times4" x1="306" y1="99.7" x2="311.7" y2="103.8"/>
		<line class="times4" x1="301.9" y1="103.7" x2="321" y2="103.9"/>
		<line class="times4" x1="307.1" y1="107.2" x2="311.7" y2="103.8"/>
		<line class="times4" x1="317.4" y1="107.9" x2="311.7" y2="103.8"/>
		<line class="times4" x1="295" y1="97.8" x2="295.5" y2="108.2"/>
	</g>
	<g>
		<circle class="times5" cx="48" cy="161.8" r="1.7"/>
		
			<ellipse transform="matrix(1.483501e-02 -0.9999 0.9999 1.483501e-02 -107.1515 216.2343)" class="times5" cx="56.2" cy="162.5" rx="1.2" ry="1.7"/>
		<circle class="times5" cx="113.9" cy="168" r="1.2"/>
		<g>
			
				<ellipse transform="matrix(1.483501e-02 -0.9999 0.9999 1.483501e-02 26.3963 57.577)" class="times5" cx="42.4" cy="15.4" rx="1.2" ry="2"/>
			
				<ellipse transform="matrix(1.483501e-02 -0.9999 0.9999 1.483501e-02 35.3865 66.875)" class="times5" cx="51.6" cy="15.5" rx="1.2" ry="2"/>
			
				<ellipse transform="matrix(1.483501e-02 -0.9999 0.9999 1.483501e-02 32.3821 60.7911)" class="times5" cx="47" cy="14" rx="0.9" ry="1.4"/>
			<circle class="times5" cx="55.7" cy="17" r="0.9"/>
			
				<ellipse transform="matrix(1.483501e-02 -0.9999 0.9999 1.483501e-02 40.9084 78.0218)" class="times5" cx="60" cy="18.3" rx="0.9" ry="1.7"/>
			
				<ellipse transform="matrix(1.483501e-02 -0.9999 0.9999 1.483501e-02 43.5557 85.4231)" class="times5" cx="65.1" cy="20.6" rx="0.9" ry="2.9"/>
			<circle class="times5" cx="69.8" cy="22.2" r="1.2"/>
			<circle class="times5" cx="73.2" cy="23.9" r="1.2"/>
			
				<ellipse transform="matrix(1.483501e-02 -0.9999 0.9999 1.483501e-02 51.3121 101.1563)" class="times5" cx="77" cy="24.5" rx="1.2" ry="1.4"/>
			
				<ellipse transform="matrix(1.483501e-02 -0.9999 0.9999 1.483501e-02 54.029 106.9618)" class="times5" cx="81.3" cy="26.1" rx="1.4" ry="2.3"/>
			<circle class="times5" cx="85.3" cy="27.6" r="1.2"/>
			
				<ellipse transform="matrix(1.483501e-02 -0.9999 0.9999 1.483501e-02 59.1847 118.8604)" class="times5" cx="89.9" cy="29.4" rx="1.7" ry="2.3"/>
			
				<ellipse transform="matrix(1.483501e-02 -0.9999 0.9999 1.483501e-02 61.6416 126.0848)" class="times5" cx="94.8" cy="31.8" rx="1.2" ry="2"/>
			
				<ellipse transform="matrix(1.483501e-02 -0.9999 0.9999 1.483501e-02 65.1285 133.388)" class="times5" cx="100.3" cy="33.6" rx="1.2" ry="2.3"/>
			
				<ellipse transform="matrix(1.483501e-02 -0.9999 0.9999 1.483501e-02 67.8548 139.7593)" class="times5" cx="104.9" cy="35.4" rx="1.7" ry="1.2"/>
			<circle class="times5" cx="109.5" cy="36.6" r="1.7"/>
			
				<ellipse transform="matrix(1.483501e-02 -0.9999 0.9999 1.483501e-02 73.6867 152.1175)" class="times5" cx="114" cy="38.7" rx="1.4" ry="1.7"/>
			
				<ellipse transform="matrix(1.483501e-02 -0.9999 0.9999 1.483501e-02 77.1553 158.2892)" class="times5" cx="118.9" cy="40" rx="1.4" ry="2"/>
			<circle class="times5" cx="123" cy="41.2" r="1.4"/>
			
				<ellipse transform="matrix(1.483501e-02 -0.9999 0.9999 1.483501e-02 84.6517 175.4412)" class="times5" cx="131.4" cy="44.8" rx="1.4" ry="2.3"/>
			<circle class="times5" cx="126.4" cy="42.9" r="1.4"/>
			
				<ellipse transform="matrix(1.483501e-02 -0.9999 0.9999 1.483501e-02 87.647 180.9594)" class="times5" cx="135.7" cy="46" rx="0.9" ry="1.4"/>
			<circle class="times5" cx="139.4" cy="47.5" r="1.2"/>
			<circle class="times5" cx="143.7" cy="49" r="1.4"/>
			
				<ellipse transform="matrix(1.483501e-02 -0.9999 0.9999 1.483501e-02 23.1456 61.3001)" class="times5" cx="42.7" cy="18.9" rx="1.2" ry="1.7"/>
			
				<ellipse transform="matrix(1.483501e-02 -0.9999 0.9999 1.483501e-02 20.2657 64.0728)" class="times5" cx="42.6" cy="21.8" rx="1.2" ry="1.7"/>
			
				<ellipse transform="matrix(1.483501e-02 -0.9999 0.9999 1.483501e-02 17.1964 67.407)" class="times5" cx="42.8" cy="25" rx="0.9" ry="3.2"/>
			
				<ellipse transform="matrix(1.483501e-02 -0.9999 0.9999 1.483501e-02 13.4725 70.4762)" class="times5" cx="42.5" cy="28.4" rx="0.9" ry="1.7"/>
			
				<ellipse transform="matrix(1.483501e-02 -0.9999 0.9999 1.483501e-02 11.1491 72.6741)" class="times5" cx="42.5" cy="30.7" rx="0.9" ry="1.7"/>
			
				<ellipse transform="matrix(1.483501e-02 -0.9999 0.9999 1.483501e-02 8.1676 75.5439)" class="times5" cx="42.4" cy="33.6" rx="0.9" ry="1.7"/>
			
				<ellipse transform="matrix(1.483501e-02 -0.9999 0.9999 1.483501e-02 5.0094 78.6042)" class="times5" cx="42.4" cy="36.8" rx="1.7" ry="2.9"/>
			
				<ellipse transform="matrix(1.483501e-02 -0.9999 0.9999 1.483501e-02 0.8178 82.5222)" class="times5" cx="42.3" cy="40.8" rx="1.2" ry="1.7"/>
			<circle class="times5" cx="42.3" cy="43.7" r="1.2"/>
			
				<ellipse transform="matrix(1.483501e-02 -0.9999 0.9999 1.483501e-02 -5.0437 88.1648)" class="times5" cx="42.2" cy="46.6" rx="1.2" ry="2.9"/>
			
				<ellipse transform="matrix(1.483501e-02 -0.9999 0.9999 1.483501e-02 -9.0368 92.0873)" class="times5" cx="42.2" cy="50.6" rx="1.2" ry="1.7"/>
			<circle class="times5" cx="42.1" cy="55.3" r="1.7"/>
			
				<ellipse transform="matrix(1.483501e-02 -0.9999 0.9999 1.483501e-02 -17.2214 99.9278)" class="times5" cx="42.1" cy="58.7" rx="0.6" ry="1.7"/>
			
				<ellipse transform="matrix(1.483501e-02 -0.9999 0.9999 1.483501e-02 -19.6463 102.2229)" class="times5" cx="42.1" cy="61.1" rx="1.2" ry="2.3"/>
			<circle class="times5" cx="42" cy="64.5" r="1.2"/>
			
				<ellipse transform="matrix(1.483501e-02 -0.9999 0.9999 1.483501e-02 -26.1613 108.3389)" class="times5" cx="41.9" cy="67.4" rx="0.6" ry="1.7"/>
			
				<ellipse transform="matrix(1.483501e-02 -0.9999 0.9999 1.483501e-02 -28.4847 110.5368)" class="times5" cx="41.9" cy="69.7" rx="1.2" ry="1.7"/>
			
				<ellipse transform="matrix(1.483501e-02 -0.9999 0.9999 1.483501e-02 -32.0226 113.9814)" class="times5" cx="41.8" cy="73.2" rx="1.2" ry="2.3"/>
			
				<ellipse transform="matrix(1.483501e-02 -0.9999 0.9999 1.483501e-02 -36.0158 117.9039)" class="times5" cx="41.8" cy="77.2" rx="1.2" ry="1.7"/>
			
				<ellipse transform="matrix(1.483501e-02 -0.9999 0.9999 1.483501e-02 -39.6508 121.2471)" class="times5" cx="41.7" cy="80.7" rx="1.2" ry="1.7"/>
			
				<ellipse transform="matrix(1.483501e-02 -0.9999 0.9999 1.483501e-02 -42.5307 124.02)" class="times5" cx="41.7" cy="83.6" rx="0.6" ry="2.3"/>
			
				<ellipse transform="matrix(1.483501e-02 -0.9999 0.9999 1.483501e-02 -46.0687 127.4646)" class="times5" cx="41.7" cy="87.1" rx="1.7" ry="1.2"/>
			
				<ellipse transform="matrix(1.483501e-02 -0.9999 0.9999 1.483501e-02 -50.7338 130.7291)" class="times5" cx="41" cy="91.1" rx="1.2" ry="1.7"/>
			
				<ellipse transform="matrix(1.483501e-02 -0.9999 0.9999 1.483501e-02 -53.6969 134.7303)" class="times5" cx="41.5" cy="94.6" rx="1.2" ry="1.7"/>
			
				<ellipse transform="matrix(1.483501e-02 -0.9999 0.9999 1.483501e-02 -56.5769 137.5031)" class="times5" cx="41.5" cy="97.5" rx="1.2" ry="2.9"/>
			
				<ellipse transform="matrix(1.483501e-02 -0.9999 0.9999 1.483501e-02 -60.1149 140.9478)" class="times5" cx="41.5" cy="101" rx="1.2" ry="1.7"/>
			
				<ellipse transform="matrix(1.483501e-02 -0.9999 0.9999 1.483501e-02 -63.0918 143.619)" class="times5" cx="41.3" cy="103.8" rx="0.6" ry="1.7"/>
			<circle class="times5" cx="41.3" cy="106.2" r="1.2"/>
			
				<ellipse transform="matrix(1.483501e-02 -0.9999 0.9999 1.483501e-02 -68.9532 149.2617)" class="times5" cx="41.3" cy="109.6" rx="1.2" ry="2.3"/>
			<circle class="times5" cx="41.2" cy="113.7" r="1.2"/>
			
				<ellipse transform="matrix(1.483501e-02 -0.9999 0.9999 1.483501e-02 -75.9278 156.054)" class="times5" cx="41.2" cy="116.6" rx="1.2" ry="1.7"/>
			
				<ellipse transform="matrix(1.483501e-02 -0.9999 0.9999 1.483501e-02 -78.8078 158.8268)" class="times5" cx="41.2" cy="119.4" rx="1.2" ry="2.9"/>
			<circle class="times5" cx="41.1" cy="123.5" r="1.7"/>
			<circle class="times5" cx="41" cy="127.5" r="1.2"/>
			
				<ellipse transform="matrix(1.483501e-02 -0.9999 0.9999 1.483501e-02 -90.0709 169.4356)" class="times5" cx="40.9" cy="130.4" rx="0.6" ry="1.7"/>
			
				<ellipse transform="matrix(1.483501e-02 -0.9999 0.9999 1.483501e-02 -93.609 172.8803)" class="times5" cx="40.9" cy="133.9" rx="1.2" ry="2.9"/>
			
				<ellipse transform="matrix(1.483501e-02 -0.9999 0.9999 1.483501e-02 -101.7937 180.7208)" class="times5" cx="40.8" cy="142" rx="0.6" ry="1.2"/>
			
				<ellipse transform="matrix(1.483501e-02 -0.9999 0.9999 1.483501e-02 -105.2303 184.0685)" class="times5" cx="40.8" cy="145.4" rx="1.2" ry="2.3"/>
			
				<ellipse transform="matrix(1.483501e-02 -0.9999 0.9999 1.483501e-02 -109.4218 187.9865)" class="times5" cx="40.7" cy="149.5" rx="1.2" ry="1.7"/>
			<circle class="times5" cx="40.7" cy="152.4" r="1.2"/>
			
				<ellipse transform="matrix(1.483501e-02 -0.9999 0.9999 1.483501e-02 -115.8398 194.2039)" class="times5" cx="40.6" cy="155.9" rx="1.2" ry="2.3"/>
			<circle class="times5" cx="40.6" cy="159.3" r="1.2"/>
			
				<ellipse transform="matrix(1.483501e-02 -0.9999 0.9999 1.483501e-02 -118.3718 202.1517)" class="times5" cx="43.4" cy="161.1" rx="0.6" ry="1.2"/>
			<circle class="times5" cx="52.1" cy="161.8" r="1.2"/>
			<circle class="times5" cx="60.7" cy="162.5" r="1.2"/>
			
				<ellipse transform="matrix(1.483501e-02 -0.9999 0.9999 1.483501e-02 -99.8674 224.9939)" class="times5" cx="64.2" cy="163.2" rx="0.6" ry="1.7"/>
			<circle class="times5" cx="68.2" cy="163.8" r="1.2"/>
			
				<ellipse transform="matrix(1.483501e-02 -0.9999 0.9999 1.483501e-02 -92.5835 233.7535)" class="times5" cx="72.3" cy="163.9" rx="1.2" ry="1.7"/>
			<circle class="times5" cx="77.5" cy="164.5" r="1.2"/>
			
				<ellipse transform="matrix(1.483501e-02 -0.9999 0.9999 1.483501e-02 -84.2332 244.8547)" class="times5" cx="82.1" cy="165.2" rx="1.2" ry="1.7"/>
			<circle class="times5" cx="86.2" cy="165.2" r="1.2"/>
			
				<ellipse transform="matrix(1.483501e-02 -0.9999 0.9999 1.483501e-02 -75.901 254.8245)" class="times5" cx="91.4" cy="165.9" rx="1.2" ry="2.3"/>
			<circle class="times5" cx="97.1" cy="166.5" r="1.2"/>
			<circle class="times5" cx="101.2" cy="167.2" r="1.2"/>
			<circle class="times5" cx="105.2" cy="167.2" r="1.2"/>
			
				<ellipse transform="matrix(1.483501e-02 -0.9999 0.9999 1.483501e-02 -59.6917 275.2419)" class="times5" cx="109.8" cy="167.9" rx="0.6" ry="1.7"/>
			<circle class="times5" cx="117.3" cy="168" r="1.2"/>
			
				<ellipse transform="matrix(1.483501e-02 -0.9999 0.9999 1.483501e-02 -48.4852 287.9947)" class="times5" cx="121.9" cy="168.6" rx="1.2" ry="2.3"/>
			
				<ellipse transform="matrix(1.483278e-02 -0.9999 0.9999 1.483278e-02 -44.0753 293.9716)" class="times5" cx="127.1" cy="169.4" rx="1.2" ry="1.7"/>
			
				<ellipse transform="matrix(1.483501e-02 -0.9999 0.9999 1.483501e-02 -40.7097 298.5393)" class="times5" cx="131.1" cy="169.9" rx="0.6" ry="1.2"/>
			
				<ellipse transform="matrix(1.483501e-02 -0.9999 0.9999 1.483501e-02 -36.7916 302.731)" class="times5" cx="135.2" cy="170" rx="1.2" ry="1.7"/>
			<circle class="times5" cx="139.9" cy="170.7" r="1.2"/>
			
				<ellipse transform="matrix(1.483501e-02 -0.9999 0.9999 1.483501e-02 -27.0828 309.1956)" class="times5" cx="143.4" cy="168.3" rx="0.6" ry="1.2"/>
			
				<ellipse transform="matrix(1.483501e-02 -0.9999 0.9999 1.483501e-02 -23.6462 305.8479)" class="times5" cx="143.4" cy="164.9" rx="1.2" ry="1.7"/>
			
				<ellipse transform="matrix(1.483501e-02 -0.9999 0.9999 1.483501e-02 -20.0112 302.5048)" class="times5" cx="143.5" cy="161.4" rx="0.6" ry="2.3"/>
			
				<ellipse transform="matrix(1.483501e-02 -0.9999 0.9999 1.483501e-02 -17.1313 299.7319)" class="times5" cx="143.5" cy="158.6" rx="1.2" ry="2.3"/>
			<circle class="times5" cx="143.6" cy="154.5" r="1.2"/>
			
				<ellipse transform="matrix(1.483501e-02 -0.9999 0.9999 1.483501e-02 -10.1567 292.9396)" class="times5" cx="143.6" cy="151.6" rx="0.6" ry="1.7"/>
			
				<ellipse transform="matrix(1.483501e-02 -0.9999 0.9999 1.483501e-02 -7.8333 290.7417)" class="times5" cx="143.6" cy="149.3" rx="0.6" ry="1.7"/>
			
				<ellipse transform="matrix(1.483501e-02 -0.9999 0.9999 1.483501e-02 -3.6416 286.8235)" class="times5" cx="143.7" cy="145.3" rx="1.2" ry="2.3"/>
			
				<ellipse transform="matrix(1.483501e-02 -0.9999 0.9999 1.483501e-02 1.0094 282.2293)" class="times5" cx="143.7" cy="140.6" rx="1.2" ry="1.7"/>
			
				<ellipse transform="matrix(1.483501e-02 -0.9999 0.9999 1.483501e-02 6.9678 276.6881)" class="times5" cx="143.9" cy="134.8" rx="1.7" ry="2.9"/>
			
				<ellipse transform="matrix(1.483501e-02 -0.9999 0.9999 1.483501e-02 12.1712 271.7173)" class="times5" cx="144" cy="129.7" rx="1.7" ry="1.2"/>
			
				<ellipse transform="matrix(1.483501e-02 -0.9999 0.9999 1.483501e-02 16.8223 267.123)" class="times5" cx="144" cy="125" rx="1.2" ry="1.7"/>
			<circle class="times5" cx="144" cy="122.1" r="1.2"/>
			
				<ellipse transform="matrix(1.483501e-02 -0.9999 0.9999 1.483501e-02 23.3373 261.007)" class="times5" cx="144.1" cy="118.7" rx="1.2" ry="2.3"/>
			
				<ellipse transform="matrix(1.483501e-02 -0.9999 0.9999 1.483501e-02 27.4319 256.9875)" class="times5" cx="144.1" cy="114.6" rx="0.6" ry="1.7"/>
			<circle class="times5" cx="144.2" cy="111.7" r="1.2"/>
			
				<ellipse transform="matrix(1.483501e-02 -0.9999 0.9999 1.483501e-02 33.1918 251.4419)" class="times5" cx="144.2" cy="108.9" rx="0.6" ry="1.7"/>
			
				<ellipse transform="matrix(1.483501e-02 -0.9999 0.9999 1.483501e-02 36.8268 248.0987)" class="times5" cx="144.3" cy="105.4" rx="1.2" ry="1.7"/>
			
				<ellipse transform="matrix(1.483501e-02 -0.9999 0.9999 1.483501e-02 40.82 244.1762)" class="times5" cx="144.3" cy="101.4" rx="1.2" ry="1.7"/>
			<circle class="times5" cx="144.4" cy="97.9" r="1.2"/>
			
				<ellipse transform="matrix(1.483501e-02 -0.9999 0.9999 1.483501e-02 47.993 237.3883)" class="times5" cx="144.5" cy="94.3" rx="1.2" ry="2.3"/>
			
				<ellipse transform="matrix(1.483501e-02 -0.9999 0.9999 1.483501e-02 52.6398 232.9925)" class="times5" cx="144.6" cy="89.8" rx="1.2" ry="1.7"/>
			<circle class="times5" cx="144.6" cy="85.7" r="1.7"/>
			
				<ellipse transform="matrix(1.483501e-02 -0.9999 0.9999 1.483501e-02 60.171 225.6254)" class="times5" cx="144.6" cy="82.3" rx="0.6" ry="1.7"/>
			
				<ellipse transform="matrix(1.483501e-02 -0.9999 0.9999 1.483501e-02 63.2492 222.857)" class="times5" cx="144.7" cy="79.3" rx="1.2" ry="2.3"/>
			
				<ellipse transform="matrix(1.483501e-02 -0.9999 0.9999 1.483501e-02 67.2425 218.9344)" class="times5" cx="144.7" cy="75.3" rx="0.6" ry="1.7"/>
			<circle class="times5" cx="144.8" cy="72.4" r="1.2"/>
			
				<ellipse transform="matrix(1.483501e-02 -0.9999 0.9999 1.483501e-02 73.1038 213.2919)" class="times5" cx="144.8" cy="69.5" rx="0.6" ry="1.7"/>
			<circle class="times5" cx="144.9" cy="66.1" r="1.7"/>
			
				<ellipse transform="matrix(1.483501e-02 -0.9999 0.9999 1.483501e-02 80.732 206.0262)" class="times5" cx="144.9" cy="62" rx="1.2" ry="1.7"/>
			
				<ellipse transform="matrix(1.483501e-02 -0.9999 0.9999 1.483501e-02 84.2699 202.5816)" class="times5" cx="144.9" cy="58.5" rx="0.6" ry="1.2"/>
			
				<ellipse transform="matrix(1.483501e-02 -0.9999 0.9999 1.483501e-02 87.8036 199.3354)" class="times5" cx="145.1" cy="55.1" rx="1.2" ry="2.9"/>
			<circle class="times5" cx="145.1" cy="51.6" r="1.2"/>
		</g>
	</g>
	<polygon class="times6" points="32.8,136.7 94.2,127.8 136.7,146.9 94.9,159 	"/>
	<text transform="matrix(0.9962 8.738258e-02 -8.738258e-02 0.9962 74.3089 143.3039)" class="times7 times8 times9">TONIGHT</text>
	<text transform="matrix(0.9981 6.099996e-02 -6.099996e-02 0.9981 178.9695 209.1384)" class="times10 times11 times12">Central Theater</text>
	<text transform="matrix(0.9911 -0.1329 0.1329 0.9911 156.3357 34.589)" class="times13 times14 times15">42nd</text>
	<polygon class="times16" points="160,57.9 160.3,78.1 216.1,96.9 216.4,80.1 	"/>
	<text transform="matrix(0.9849 -0.1733 0.1733 0.9849 175.9653 44.9317)" class="times13 times14 times15">Street</text>
	<polygon class="times2" points="148.7,215.6 148.5,227.7 187.3,225.4 187.5,212.7 	"/>
	<polygon class="times2" points="149.1,228.9 189,226.6 278.6,229.1 188.4,230.1 	"/>
	<line class="times17" x1="0.5" y1="243.5" x2="330.5" y2="251"/>
	<polygon class="times18" points="551.6,167 605.3,170.7 605.7,260.6 553.4,251.7 	"/>
	<line class="times17" x1="330.5" y1="251" x2="770.5" y2="414.5"/>
	<polygon class="times19" points="749.5,292.8 627.4,265.8 624.7,171.4 746.1,176.6 	"/>
	<polygon class="times20" points="749.5,292.8 627.4,265.8 624.7,171.4 746.1,176.6 	"/>
	<g>
		<line class="times4" x1="407.2" y1="197.7" x2="408.7" y2="229.5"/>
		<line class="times4" x1="421.3" y1="205.4" x2="408.2" y2="213.9"/>
		<line class="times4" x1="434.3" y1="213.1" x2="408.2" y2="213.9"/>
		<line class="times4" x1="423.6" y1="222.7" x2="408.2" y2="213.9"/>
		<line class="times4" x1="394.6" y1="222.4" x2="408.2" y2="213.9"/>
		<line class="times4" x1="381.7" y1="214.7" x2="408.2" y2="213.9"/>
		<line class="times4" x1="394.7" y1="206.2" x2="408.2" y2="213.9"/>
		<line class="times4" x1="397.3" y1="196.3" x2="401.2" y2="193.3"/>
		<line class="times4" x1="397.2" y1="193.4" x2="402.5" y2="196.1"/>
		<line class="times4" x1="419.6" y1="186.9" x2="416.5" y2="201.5"/>
		<line class="times4" x1="416.3" y1="194.5" x2="422.6" y2="191.5"/>
		<line class="times4" x1="410.4" y1="190.7" x2="416.3" y2="194.5"/>
		<line class="times4" x1="406.5" y1="194.8" x2="425.6" y2="194.3"/>
		<line class="times4" x1="411.8" y1="198.2" x2="416.3" y2="194.5"/>
		<line class="times4" x1="422.2" y1="198.4" x2="416.3" y2="194.5"/>
		<line class="times4" x1="399.4" y1="189.3" x2="400.3" y2="199.7"/>
	</g>
	<polygon class="times21" points="549.8,73.4 733.7,61.9 738.2,138.5 553.5,127 	"/>
	<path class="times22" d="M694.3,280.8c-0.1-3.7-1.2-20.7-1.2-20.7l2.5-0.7l-2.2-13.1c0,0,3.8,2.1,4-7.4c0,0,6.3-4.6,3.5-6.5l1.7-2.7
		l-6.8-2.6l-2.4,3.6l-3.3-3.4c0,0,0.9-3.5-4.4-6l-1.6-4.8c0,0,0.7-0.2-0.6-3.3c0,0,0-1.2,0-1.8c0,0,0-0.2,0.2-0.9l7-0.5l-7-0.4
		c0,0,0-0.4-0.3-0.9l6-2l-6.6,1.1c0,0-0.3-0.4-0.8-0.6l4.4-5.4l-5.4,4.8c0,0-0.5-0.7-1.4-0.7c-0.1,0-0.2-0.1-0.2-0.2l-0.8-8.6
		l-0.8,8.9c0,0-1.2-0.1-1.6,0.6l-5.1-4.8l4,5.4c0,0-0.2,0.5-0.2,0.9l-6.5-1.3l6,2.2c0,0-0.5,0.5-0.2,0.9l-5.1,0.2l4.9,0.6l0.1,0.3
		c0,0,0,0.4,0,1.1c0,0,0,0,0.2,0.8c0.1,0.5-0.9,2.4-0.4,3.1c0.5,0.6-2.3-1.9-2.3-1.9s1.7-1.4-0.6-3.1c0,0-1.6-2.1-1.3-3
		c0.2-0.9-2-7.9-2.5-8.1c-0.5-0.2-0.2-5.1-0.2-5.1s-0.1-3.3-1.3-3l0.7-2.2h1.5c0,0,0.1-3.7,0.9-4.2c0.7-0.5-1,0.3-1,0.3V185
		c0,0-1.2,0.5-1.2,0.7s-0.3-0.7-0.8-0.2s-0.3-1.7-0.3-1.7s2.4-2.7-1.9-5.4c0,0,1,1.5-1.6,3.6c0,0-0.7,1.1,0.3,2l0.1,2
		c0,0-0.3-0.9-0.7,0c0,0-1-0.4-1-0.8c0-0.4,0,1.3,0,1.3s-1-0.4-1-0.8s-0.2,1.3,0.6,2l0.3,2.4h0.7l1.3,1.9c0,0-0.8-0.4-1,0.5
		s0.9,4.4,1.6,4.1v1.1c0,0,0.6,1.7,0.8,1.7s-0.7,8.2,1.6,9.8l-0.2,2.6c0,0-4.7,8.1-0.5,8.6c0,0,1.6,3.2,2.1,3.5c0.5,0.2,0-0.2,0-0.2
		l-0.4,2l0.8,0.2c0,0-1.4,2.9,0.4,3.3c0,0,0.8,1.7,1.1,1.7c0.2,0-1.5,0.7-0.4,2.9c0,0-1.4,3.8-1.1,4.9c0,0,2.4,3.4,1.3,8.1
		c-1.1,4.6,1.3,10.7,1.3,10.7s0.8,13.9-0.5,18.7"/>
	<text transform="matrix(1.0762 -8.654464e-03 8.041324e-03 1 588.3847 106.1596)" class="times23 times24 times25">TIMES SQUARE</text>
	<g>
		<g>
			<path d="M178,125.1c1.9,0,1.9-3,0-3S176.1,125.1,178,125.1L178,125.1z"/>
		</g>
	</g>
	<g>
		<g>
			<path d="M182,125.9c1.9,0,1.9-3,0-3S180.1,125.9,182,125.9L182,125.9z"/>
		</g>
	</g>
	<g>
		<g>
			<path d="M186,126.6c1.9,0,1.9-3,0-3S184.1,126.6,186,126.6L186,126.6z"/>
		</g>
	</g>
	<g>
		<g>
			<path d="M190.1,127.1c1.9,0,1.9-3,0-3C188.1,124.1,188.1,127.1,190.1,127.1L190.1,127.1z"/>
		</g>
	</g>
	<g>
		<g>
			<path d="M194.6,128.2c1.9,0,1.9-3,0-3C192.7,125.2,192.7,128.2,194.6,128.2L194.6,128.2z"/>
		</g>
	</g>
	<g>
		<g>
			<path d="M198.9,129c1.9,0,1.9-3,0-3S197,129,198.9,129L198.9,129z"/>
		</g>
	</g>
	<g>
		<g>
			<path d="M202.9,129.7c1.9,0,1.9-3,0-3S201,129.7,202.9,129.7L202.9,129.7z"/>
		</g>
	</g>
	<g>
		<g>
			<path d="M207.5,130.8c1.9,0,1.9-3,0-3S205.6,130.8,207.5,130.8L207.5,130.8z"/>
		</g>
	</g>
	<g>
		<g>
			<path d="M211.5,131.6c1.9,0,1.9-3,0-3S209.6,131.6,211.5,131.6L211.5,131.6z"/>
		</g>
	</g>
	<g>
		<g>
			<path d="M215.2,132.3c1.9,0,1.9-3,0-3S213.3,132.3,215.2,132.3L215.2,132.3z"/>
		</g>
	</g>
	<g>
		<g>
			<path d="M218.1,133c1.9,0,1.9-3,0-3C216.2,130,216.2,133,218.1,133L218.1,133z"/>
		</g>
	</g>
	<g>
		<g>
			<path d="M177.6,128.7c1.9,0,1.9-3,0-3C175.6,125.7,175.6,128.7,177.6,128.7L177.6,128.7z"/>
		</g>
	</g>
	<g>
		<g>
			<path d="M177.4,131.7c1.9,0,1.9-3,0-3S175.5,131.7,177.4,131.7L177.4,131.7z"/>
		</g>
	</g>
	<g>
		<g>
			<path d="M177.3,134.7c1.9,0,1.9-3,0-3C175.4,131.7,175.4,134.7,177.3,134.7L177.3,134.7z"/>
		</g>
	</g>
	<g>
		<g>
			<path d="M176.6,137.9c1.9,0,1.9-3,0-3C174.7,134.9,174.7,137.9,176.6,137.9L176.6,137.9z"/>
		</g>
	</g>
	<g>
		<g>
			<path d="M176.5,141.2c1.9,0,1.9-3,0-3S174.6,141.2,176.5,141.2L176.5,141.2z"/>
		</g>
	</g>
	<g>
		<g>
			<path d="M218,136.2c1.9,0,1.9-3,0-3S216.1,136.2,218,136.2L218,136.2z"/>
		</g>
	</g>
	<g>
		<g>
			<path d="M217.8,139.4c1.9,0,1.9-3,0-3C215.9,136.4,215.9,139.4,217.8,139.4L217.8,139.4z"/>
		</g>
	</g>
	<g>
		<g>
			<path d="M217.9,143.1c1.9,0,1.9-3,0-3S216,143.1,217.9,143.1L217.9,143.1z"/>
		</g>
	</g>
	<g>
		<g>
			<path d="M217.8,147.1c1.9,0,1.9-3,0-3C215.8,144.1,215.8,147.1,217.8,147.1L217.8,147.1z"/>
		</g>
	</g>
	<g>
		<g>
			<path d="M217.5,150.9c1.9,0,1.9-3,0-3C215.5,147.9,215.5,150.9,217.5,150.9L217.5,150.9z"/>
		</g>
	</g>
	<g>
		<g>
			<path d="M217.3,155c1.9,0,1.9-3,0-3C215.3,152,215.3,155,217.3,155L217.3,155z"/>
		</g>
	</g>
	<g>
		<g>
			<path d="M217.2,159.4c1.9,0,1.9-3,0-3S215.3,159.4,217.2,159.4L217.2,159.4z"/>
		</g>
	</g>
	<g>
		<g>
			<path d="M217,163.6c1.9,0,1.9-3,0-3S215.1,163.6,217,163.6L217,163.6z"/>
		</g>
	</g>
	<g>
		<g>
			<path d="M216.8,168.1c1.9,0,1.9-3,0-3C214.9,165.1,214.9,168.1,216.8,168.1L216.8,168.1z"/>
		</g>
	</g>
	<g>
		<g>
			<path d="M216.7,172.7c1.9,0,1.9-3,0-3S214.8,172.7,216.7,172.7L216.7,172.7z"/>
		</g>
	</g>
	<g>
		<g>
			<path d="M216.5,176.8c1.9,0,1.9-3,0-3S214.6,176.8,216.5,176.8L216.5,176.8z"/>
		</g>
	</g>
	<g>
		<g>
			<path d="M216.4,180.5c1.9,0,1.9-3,0-3C214.4,177.5,214.4,180.5,216.4,180.5L216.4,180.5z"/>
		</g>
	</g>
	<g>
		<g>
			<path d="M215.9,183.8c1.9,0,1.9-3,0-3S214,183.8,215.9,183.8L215.9,183.8z"/>
		</g>
	</g>
	<g>
		<g>
			<path d="M215.9,186.6c1.9,0,1.9-3,0-3S214,186.6,215.9,186.6L215.9,186.6z"/>
		</g>
	</g>
	<g>
		<g>
			<path d="M176.3,145c1.9,0,1.9-3,0-3C174.3,142,174.3,145,176.3,145L176.3,145z"/>
		</g>
	</g>
	<g>
		<g>
			<path d="M175.8,148.7c1.9,0,1.9-3,0-3C173.9,145.7,173.9,148.7,175.8,148.7L175.8,148.7z"/>
		</g>
	</g>
	<g>
		<g>
			<path d="M175.7,152.3c1.9,0,1.9-3,0-3C173.7,149.3,173.7,152.3,175.7,152.3L175.7,152.3z"/>
		</g>
	</g>
	<g>
		<g>
			<path d="M175.2,156c1.9,0,1.9-3,0-3S173.3,156,175.2,156L175.2,156z"/>
		</g>
	</g>
	<g>
		<g>
			<path d="M175,160.3c1.9,0,1.9-3,0-3S173.1,160.3,175,160.3L175,160.3z"/>
		</g>
	</g>
	<g>
		<g>
			<path d="M174.6,164.9c1.9,0,1.9-3,0-3C172.7,161.9,172.6,164.9,174.6,164.9L174.6,164.9z"/>
		</g>
	</g>
	<g>
		<g>
			<path d="M174.4,168.9c1.9,0,1.9-3,0-3S172.5,168.9,174.4,168.9L174.4,168.9z"/>
		</g>
	</g>
	<g>
		<g>
			<path d="M174,172.4c1.9,0,1.9-3,0-3S172,172.4,174,172.4L174,172.4z"/>
		</g>
	</g>
	<g>
		<g>
			<path d="M173.8,176.5c1.9,0,1.9-3,0-3C171.9,173.5,171.9,176.5,173.8,176.5L173.8,176.5z"/>
		</g>
	</g>
	<g>
		<g>
			<path d="M173.4,179.7c1.9,0,1.9-3,0-3S171.5,179.7,173.4,179.7L173.4,179.7z"/>
		</g>
	</g>
	<g>
		<g>
			<path d="M176.6,180.3c1.9,0,1.9-3,0-3C174.7,177.3,174.7,180.3,176.6,180.3L176.6,180.3z"/>
		</g>
	</g>
	<g>
		<g>
			<path d="M180.3,180.7c1.9,0,1.9-3,0-3C178.4,177.7,178.4,180.7,180.3,180.7L180.3,180.7z"/>
		</g>
	</g>
	<g>
		<g>
			<path d="M184,181.3c1.9,0,1.9-3,0-3S182.1,181.3,184,181.3L184,181.3z"/>
		</g>
	</g>
	<g>
		<g>
			<path d="M187.5,181.6c1.9,0,1.9-3,0-3C185.5,178.6,185.5,181.6,187.5,181.6L187.5,181.6z"/>
		</g>
	</g>
	<g>
		<g>
			<path d="M190.9,182c1.9,0,1.9-3,0-3S189,182,190.9,182L190.9,182z"/>
		</g>
	</g>
	<g>
		<g>
			<path d="M194.8,182.6c1.9,0,1.9-3,0-3C192.9,179.6,192.9,182.6,194.8,182.6L194.8,182.6z"/>
		</g>
	</g>
	<g>
		<g>
			<path d="M198,183.4c1.9,0,1.9-3,0-3S196.1,183.4,198,183.4L198,183.4z"/>
		</g>
	</g>
	<g>
		<g>
			<path d="M201.3,184c1.9,0,1.9-3,0-3C199.3,181,199.3,184,201.3,184L201.3,184z"/>
		</g>
	</g>
	<g>
		<g>
			<path d="M205.2,184.4c1.9,0,1.9-3,0-3C203.2,181.4,203.2,184.4,205.2,184.4L205.2,184.4z"/>
		</g>
	</g>
	<g>
		<g>
			<path d="M209.3,185.3c1.9,0,1.9-3,0-3C207.3,182.3,207.3,185.3,209.3,185.3L209.3,185.3z"/>
		</g>
	</g>
	<g>
		<g>
			<path d="M212.9,185.6c1.9,0,1.9-3,0-3S211,185.6,212.9,185.6L212.9,185.6z"/>
		</g>
	</g>
	<g>
		<line class="times4" x1="120.1" y1="205.6" x2="119.4" y2="230.8"/>
		<line class="times4" x1="130.8" y1="212.5" x2="120" y2="218.4"/>
		<line class="times4" x1="140.6" y1="219.4" x2="120" y2="218.4"/>
		<line class="times4" x1="131.5" y1="226.3" x2="120" y2="218.4"/>
		<line class="times4" x1="108.7" y1="224.3" x2="120" y2="218.4"/>
		<line class="times4" x1="99" y1="217.5" x2="120" y2="218.4"/>
		<line class="times4" x1="109.8" y1="211.5" x2="120" y2="218.4"/>
	</g>
	<polygon class="times16" points="729.6,321.6 727.3,302.4 672.3,290.2 673.8,306.1 	"/>
	<polygon class="times26" points="407.7,35.6 443.5,20.6 489.2,21.7 463.8,35.6 	"/>
	<polygon class="times26" points="491.5,309.7 489.2,21.7 463.8,35.6 463.8,299.3 	"/>
	<path class="times27" d="M457.2,57.3l-43.7-1.9l-0.1,40.3l43.4,2.9L457.2,57.3z M415.7,88.5l-0.8-30.6l39.3,1.7l-0.8,37.3L415.7,88.5z
		"/>
	<path class="times27" d="M457.2,107.6l-43.7-1.9l0.5,38l42.8,5.2L457.2,107.6z M415.7,138.8l-0.8-30.6l39.3,1.7l-0.8,37.3L415.7,138.8
		z"/>
	<path class="times27" d="M455.7,167.7l-39.8-4.7l0.5,95.4l38.8,7.9L455.7,167.7z"/>
	<polygon class="times0" points="733.9,62 739.9,58.5 744,133.2 738,138.3 	"/>
	<polygon class="times0" points="759.5,299.2 765,292.6 762.2,164.2 755.6,169.1 	"/>
	<polygon class="times0" points="622.6,163.6 629.8,157.5 762,164.2 757.6,169.1 	"/>
	<polygon class="times0" points="245.8,153.8 239.6,151.2 239.5,40.1 245.6,45 	"/>
	<polygon class="times0" points="139.9,172.1 132.1,178.1 32.5,166.5 41.4,161.2 	"/>
	<polygon class="times0" points="160.4,78.7 156.5,75.6 156.6,59.4 159.6,57.8 	"/>
	<line class="times28" x1="259" y1="271" x2="295.2" y2="271.1"/>
	<line class="times28" x1="23" y1="270" x2="59.2" y2="270.1"/>
	<line class="times28" x1="106" y1="271" x2="142.2" y2="271.1"/>
	<line class="times28" x1="182" y1="271" x2="218.2" y2="271.1"/>
	<line class="times28" x1="330" y1="274" x2="361" y2="285"/>
	<line class="times28" x1="386" y1="296" x2="417" y2="307"/>
	<line class="times28" x1="440" y1="317" x2="471" y2="328"/>
	<line class="times28" x1="498" y1="339" x2="529" y2="350"/>
	<line class="times28" x1="564" y1="365" x2="595" y2="376"/>
	<line class="times28" x1="632" y1="391" x2="663" y2="402"/>
	<line class="times28" x1="696" y1="414" x2="727" y2="425"/>
	<line class="times28" x1="755" y1="436" x2="771" y2="442"/>
</g>
<g id="screens">
	<path class="times29" d="M452.8,172.8l-34.7-4.2l0.4,86.5l33.1,7.2L452.8,172.8z"/>
	<polygon class="times20" points="453.6,146.9 414.9,142.3 414.9,108.2 454.2,109.9 	"/>
	<polygon class="times20" points="453.6,96.6 414.9,93.7 414.9,57.9 454.2,59.6 	"/>
</g>
<g id="screen">
	<polygon class="times30" points="174.7,119.9 220.7,130.3 219.2,186.7 171.4,179.5 	"/>
</g>
<g id="pink">
	<g>
		
			<ellipse transform="matrix(1.483501e-02 -0.9999 0.9999 1.483501e-02 205.4099 321.5888)" class="times10" cx="265.9" cy="56.6" rx="6.9" ry="8.1"/>
		
			<ellipse transform="matrix(1.483501e-02 -0.9999 0.9999 1.483501e-02 184.8488 341.188)" class="times10" cx="265.6" cy="76.8" rx="6.9" ry="8.1"/>
		
			<ellipse transform="matrix(1.483501e-02 -0.9999 0.9999 1.483501e-02 164.2876 360.7871)" class="times10" cx="265.2" cy="97" rx="6.9" ry="8.1"/>
		
			<ellipse transform="matrix(1.483501e-02 -0.9999 0.9999 1.483501e-02 143.8237 380.4877)" class="times10" cx="265" cy="117.3" rx="6.9" ry="8.1"/>
		
			<ellipse transform="matrix(1.483501e-02 -0.9999 0.9999 1.483501e-02 119.7246 403.5315)" class="times10" cx="264.6" cy="141" rx="6.9" ry="8.1"/>
	</g>
</g>
<g id="trekant">
	<g>
		
			<ellipse transform="matrix(1.483501e-02 -0.9999 0.9999 1.483501e-02 -56.3377 251.7241)" class="times6" cx="99.6" cy="154.5" rx="0.6" ry="1.7"/>
		
			<ellipse transform="matrix(1.483501e-02 -0.9999 0.9999 1.483501e-02 -58.0075 253.4485)" class="times6" cx="99.6" cy="156.2" rx="0.6" ry="1.7"/>
		
			<ellipse transform="matrix(1.483501e-02 -0.9999 0.9999 1.483501e-02 -60.2419 248.8624)" class="times6" cx="96.2" cy="155" rx="0.6" ry="1.7"/>
		
			<ellipse transform="matrix(1.483501e-02 -0.9999 0.9999 1.483501e-02 -62.5652 251.0604)" class="times6" cx="96.1" cy="157.3" rx="0.6" ry="1.7"/>
		
			<ellipse transform="matrix(1.483501e-02 -0.9999 0.9999 1.483501e-02 -62.3749 244.1791)" class="times6" cx="92.7" cy="153.7" rx="0.6" ry="1.7"/>
		
			<ellipse transform="matrix(1.483501e-02 -0.9999 0.9999 1.483501e-02 -65.9267 246.2939)" class="times6" cx="92" cy="156.6" rx="0.6" ry="1.7"/>
		
			<ellipse transform="matrix(1.483501e-02 -0.9999 0.9999 1.483501e-02 -65.2629 240.0663)" class="times6" cx="89.2" cy="153.2" rx="0.6" ry="1.7"/>
		
			<ellipse transform="matrix(1.483501e-02 -0.9999 0.9999 1.483501e-02 -68.1612 241.7075)" class="times6" cx="88.6" cy="155.4" rx="0.6" ry="1.7"/>
		
			<ellipse transform="matrix(1.483501e-02 -0.9999 0.9999 1.483501e-02 -66.8211 235.9395)" class="times6" cx="86.3" cy="151.9" rx="0.6" ry="1.7"/>
		
			<ellipse transform="matrix(1.483501e-02 -0.9999 0.9999 1.483501e-02 -69.0556 231.3533)" class="times6" cx="82.9" cy="150.7" rx="0.6" ry="1.7"/>
		
			<ellipse transform="matrix(1.483501e-02 -0.9999 0.9999 1.483501e-02 -70.2942 237.0243)" class="times6" cx="85.1" cy="154.2" rx="0.6" ry="1.7"/>
		
			<ellipse transform="matrix(1.483501e-02 -0.9999 0.9999 1.483501e-02 -71.9538 232.9948)" class="times6" cx="82.3" cy="153" rx="0.6" ry="1.7"/>
		
			<ellipse transform="matrix(1.483501e-02 -0.9999 0.9999 1.483501e-02 -74.1883 228.4084)" class="times6" cx="78.8" cy="151.9" rx="0.6" ry="1.7"/>
		
			<ellipse transform="matrix(1.483501e-02 -0.9999 0.9999 1.483501e-02 -71.29 226.7671)" class="times6" cx="79.4" cy="149.6" rx="0.6" ry="1.7"/>
		
			<ellipse transform="matrix(1.483501e-02 -0.9999 0.9999 1.483501e-02 -76.3213 223.7252)" class="times6" cx="75.4" cy="150.6" rx="0.6" ry="1.7"/>
		
			<ellipse transform="matrix(1.483501e-02 -0.9999 0.9999 1.483501e-02 -73.423 222.0839)" class="times6" cx="76" cy="148.3" rx="0.6" ry="1.7"/>
		
			<ellipse transform="matrix(1.483501e-02 -0.9999 0.9999 1.483501e-02 -78.5557 219.1389)" class="times6" cx="71.9" cy="149.4" rx="0.6" ry="1.7"/>
		
			<ellipse transform="matrix(1.483501e-02 -0.9999 0.9999 1.483501e-02 -75.6575 217.4975)" class="times6" cx="72.5" cy="147.1" rx="0.6" ry="1.7"/>
		
			<ellipse transform="matrix(1.483501e-02 -0.9999 0.9999 1.483501e-02 -80.6887 214.4557)" class="times6" cx="68.5" cy="148.2" rx="0.6" ry="1.7"/>
		
			<ellipse transform="matrix(1.483501e-02 -0.9999 0.9999 1.483501e-02 -77.7905 212.8143)" class="times6" cx="69.1" cy="145.9" rx="0.6" ry="1.7"/>
		
			<ellipse transform="matrix(1.483501e-02 -0.9999 0.9999 1.483501e-02 -82.9232 209.8695)" class="times6" cx="65" cy="147" rx="0.6" ry="1.7"/>
		
			<ellipse transform="matrix(1.483501e-02 -0.9999 0.9999 1.483501e-02 -79.4501 208.7847)" class="times6" cx="66.2" cy="144.7" rx="0.6" ry="1.7"/>
		
			<ellipse transform="matrix(1.483501e-02 -0.9999 0.9999 1.483501e-02 -84.4813 205.7427)" class="times6" cx="62.2" cy="145.7" rx="0.6" ry="1.7"/>
		
			<ellipse transform="matrix(1.483501e-02 -0.9999 0.9999 1.483501e-02 -82.1397 204.6762)" class="times6" cx="62.8" cy="144" rx="0.6" ry="1.7"/>
		
			<ellipse transform="matrix(1.483501e-02 -0.9999 0.9999 1.483501e-02 -87.2724 201.7314)" class="times6" cx="58.7" cy="145.2" rx="0.6" ry="1.7"/>
		
			<ellipse transform="matrix(1.483501e-02 -0.9999 0.9999 1.483501e-02 -84.3742 200.09)" class="times6" cx="59.4" cy="142.9" rx="0.6" ry="1.7"/>
		
			<ellipse transform="matrix(1.483501e-02 -0.9999 0.9999 1.483501e-02 -89.5068 197.1451)" class="times6" cx="55.3" cy="144" rx="0.6" ry="1.7"/>
		
			<ellipse transform="matrix(1.483501e-02 -0.9999 0.9999 1.483501e-02 -86.0337 196.0603)" class="times6" cx="56.5" cy="141.7" rx="0.6" ry="1.7"/>
		
			<ellipse transform="matrix(1.483501e-02 -0.9999 0.9999 1.483501e-02 -91.065 193.0184)" class="times6" cx="52.4" cy="142.7" rx="0.6" ry="1.7"/>
		
			<ellipse transform="matrix(1.483501e-02 -0.9999 0.9999 1.483501e-02 -88.2639 191.2756)" class="times6" cx="52.9" cy="140.4" rx="0.6" ry="1.7"/>
		
			<ellipse transform="matrix(1.483501e-02 -0.9999 0.9999 1.483501e-02 -92.7247 188.9889)" class="times6" cx="49.5" cy="141.5" rx="0.6" ry="1.7"/>
		
			<ellipse transform="matrix(1.483501e-02 -0.9999 0.9999 1.483501e-02 -91.0548 187.2642)" class="times6" cx="49.5" cy="139.8" rx="0.6" ry="1.7"/>
		
			<ellipse transform="matrix(1.483501e-02 -0.9999 0.9999 1.483501e-02 -95.0561 184.301)" class="times6" cx="46" cy="140.4" rx="0.6" ry="1.7"/>
		
			<ellipse transform="matrix(1.483501e-02 -0.9999 0.9999 1.483501e-02 -92.0564 182.5627)" class="times6" cx="46.6" cy="138" rx="0.6" ry="1.7"/>
		
			<ellipse transform="matrix(1.483501e-02 -0.9999 0.9999 1.483501e-02 -96.5356 179.1444)" class="times6" cx="42.6" cy="138.6" rx="0.6" ry="1.7"/>
		
			<ellipse transform="matrix(1.483501e-02 -0.9999 0.9999 1.483501e-02 -99.3404 173.803)" class="times6" cx="38.5" cy="137.3" rx="0.6" ry="1.7"/>
		
			<ellipse transform="matrix(1.483501e-02 -0.9999 0.9999 1.483501e-02 -94.3092 176.845)" class="times6" cx="42.6" cy="136.3" rx="0.6" ry="1.7"/>
		
			<ellipse transform="matrix(1.483501e-02 -0.9999 0.9999 1.483501e-02 -87.5819 186.1795)" class="times6" cx="50.7" cy="137.5" rx="0.6" ry="1.7"/>
		
			<ellipse transform="matrix(1.483501e-02 -0.9999 0.9999 1.483501e-02 -80.6824 187.5012)" class="times6" cx="54.8" cy="134.7" rx="0.6" ry="1.7"/>
		
			<ellipse transform="matrix(1.483501e-02 -0.9999 0.9999 1.483501e-02 -85.2585 183.9816)" class="times6" cx="50.7" cy="135.3" rx="0.6" ry="1.7"/>
		
			<ellipse transform="matrix(1.483501e-02 -0.9999 0.9999 1.483501e-02 -89.7331 180.3647)" class="times6" cx="46.7" cy="135.7" rx="0.6" ry="1.7"/>
		
			<ellipse transform="matrix(1.483501e-02 -0.9999 0.9999 1.483501e-02 -75.1046 195.7225)" class="times6" cx="61.8" cy="136" rx="0.6" ry="1.7"/>
		
			<ellipse transform="matrix(1.483501e-02 -0.9999 0.9999 1.483501e-02 -71.6317 194.6378)" class="times6" cx="63" cy="133.7" rx="0.6" ry="1.7"/>
		
			<ellipse transform="matrix(1.483501e-02 -0.9999 0.9999 1.483501e-02 -76.1062 191.021)" class="times6" cx="58.9" cy="134.1" rx="0.6" ry="1.7"/>
		
			<ellipse transform="matrix(1.483501e-02 -0.9999 0.9999 1.483501e-02 -79.5793 192.1058)" class="times6" cx="57.7" cy="136.4" rx="0.6" ry="1.7"/>
		
			<ellipse transform="matrix(1.483501e-02 -0.9999 0.9999 1.483501e-02 -83.5806 189.1427)" class="times6" cx="54.2" cy="137" rx="0.6" ry="1.7"/>
		
			<ellipse transform="matrix(1.483501e-02 -0.9999 0.9999 1.483501e-02 -58.1019 205.1926)" class="times6" cx="75.1" cy="132.1" rx="0.6" ry="1.7"/>
		
			<ellipse transform="matrix(1.483501e-02 -0.9999 0.9999 1.483501e-02 -62.1498 205.7207)" class="times6" cx="73.3" cy="134.4" rx="0.6" ry="1.7"/>
		
			<ellipse transform="matrix(1.483501e-02 -0.9999 0.9999 1.483501e-02 -62.6779 201.6728)" class="times6" cx="71" cy="132.6" rx="0.6" ry="1.7"/>
		
			<ellipse transform="matrix(1.483501e-02 -0.9999 0.9999 1.483501e-02 -66.6244 202.104)" class="times6" cx="69.3" cy="134.9" rx="0.6" ry="1.7"/>
		
			<ellipse transform="matrix(1.483501e-02 -0.9999 0.9999 1.483501e-02 -67.1526 198.056)" class="times6" cx="66.9" cy="133.1" rx="0.6" ry="1.7"/>
		
			<ellipse transform="matrix(1.483501e-02 -0.9999 0.9999 1.483501e-02 -70.6257 199.1408)" class="times6" cx="65.7" cy="135.4" rx="0.6" ry="1.7"/>
		
			<ellipse transform="matrix(1.483501e-02 -0.9999 0.9999 1.483501e-02 -43.9184 215.274)" class="times6" cx="87.3" cy="129.9" rx="0.6" ry="1.7"/>
		
			<ellipse transform="matrix(1.483501e-02 -0.9999 0.9999 1.483501e-02 -48.4945 211.7541)" class="times6" cx="83.2" cy="130.5" rx="0.6" ry="1.7"/>
		
			<ellipse transform="matrix(1.483501e-02 -0.9999 0.9999 1.483501e-02 -53.7707 212.1992)" class="times6" cx="80.8" cy="133.4" rx="0.6" ry="1.7"/>
		
			<ellipse transform="matrix(1.483501e-02 -0.9999 0.9999 1.483501e-02 -53.6272 208.8094)" class="times6" cx="79.2" cy="131.6" rx="0.6" ry="1.7"/>
		
			<ellipse transform="matrix(1.483501e-02 -0.9999 0.9999 1.483501e-02 -58.1485 208.6838)" class="times6" cx="76.8" cy="133.9" rx="0.6" ry="1.7"/>
		
			<ellipse transform="matrix(1.483501e-02 -0.9999 0.9999 1.483501e-02 -40.144 222.8554)" class="times6" cx="93" cy="131.8" rx="0.6" ry="1.7"/>
		
			<ellipse transform="matrix(1.483501e-02 -0.9999 0.9999 1.483501e-02 -38.8689 219.4473)" class="times6" cx="91.9" cy="129.4" rx="0.6" ry="1.7"/>
		
			<ellipse transform="matrix(1.483501e-02 -0.9999 0.9999 1.483501e-02 -44.062 218.6638)" class="times6" cx="88.9" cy="131.7" rx="0.6" ry="1.7"/>
		
			<ellipse transform="matrix(1.483501e-02 -0.9999 0.9999 1.483501e-02 -49.1948 215.7189)" class="times6" cx="84.9" cy="132.8" rx="0.6" ry="1.7"/>
		
			<ellipse transform="matrix(0.4171 -0.9089 0.9089 0.4171 -61.8317 162.6799)" class="times6" cx="95.9" cy="129.5" rx="0.6" ry="1.7"/>
		
			<ellipse transform="matrix(0.5128 -0.8585 0.8585 0.5128 -61.2069 184.6274)" class="times6" cx="132.1" cy="146.2" rx="0.6" ry="1.7"/>
		
			<ellipse transform="matrix(0.4171 -0.9089 0.9089 0.4171 -63.5674 164.4962)" class="times6" cx="96.5" cy="131.8" rx="0.6" ry="1.7"/>
		
			<ellipse transform="matrix(0.4171 -0.9089 0.9089 0.4171 -62.8759 169.2061)" class="times6" cx="100.5" cy="133.6" rx="0.6" ry="1.7"/>
		
			<ellipse transform="matrix(0.4171 -0.9089 0.9089 0.4171 -61.0333 167.3748)" class="times6" cx="100" cy="131.3" rx="0.6" ry="1.7"/>
		
			<ellipse transform="matrix(0.4171 -0.9089 0.9089 0.4171 -59.3102 180.9865)" class="times6" cx="111.4" cy="136.7" rx="0.6" ry="1.7"/>
		
			<ellipse transform="matrix(0.4171 -0.9089 0.9089 0.4171 -61.493 178.6259)" class="times6" cx="108.5" cy="137.3" rx="0.6" ry="1.7"/>
		
			<ellipse transform="matrix(0.4171 -0.9089 0.9089 0.4171 -60.0017 176.2766)" class="times6" cx="107.4" cy="134.9" rx="0.6" ry="1.7"/>
		
			<ellipse transform="matrix(0.4171 -0.9089 0.9089 0.4171 -62.1844 173.916)" class="times6" cx="104.5" cy="135.4" rx="0.6" ry="1.7"/>
		
			<ellipse transform="matrix(0.4171 -0.9089 0.9089 0.4171 -60.6932 171.5667)" class="times6" cx="103.4" cy="133.1" rx="0.6" ry="1.7"/>
		
			<ellipse transform="matrix(0.4171 -0.9089 0.9089 0.4171 -57.987 191.2606)" class="times6" cx="120.1" cy="140.8" rx="0.6" ry="1.7"/>
		
			<ellipse transform="matrix(0.4171 -0.9089 0.9089 0.4171 -60.5211 188.3821)" class="times6" cx="116.6" cy="141.4" rx="0.6" ry="1.7"/>
		
			<ellipse transform="matrix(0.4171 -0.9089 0.9089 0.4171 -58.5119 185.6814)" class="times6" cx="115.5" cy="138.5" rx="0.6" ry="1.7"/>
		
			<ellipse transform="matrix(0.4171 -0.9089 0.9089 0.4171 -60.6946 183.3208)" class="times6" cx="112.6" cy="139" rx="0.6" ry="1.7"/>
		
			<ellipse transform="matrix(0.4171 -0.9089 0.9089 0.4171 -56.604 200.6806)" class="times6" cx="128.1" cy="144.5" rx="0.6" ry="1.7"/>
		
			<ellipse transform="matrix(0.4171 -0.9089 0.9089 0.4171 -59.1382 197.8019)" class="times6" cx="124.6" cy="145" rx="0.6" ry="1.7"/>
		
			<ellipse transform="matrix(0.4171 -0.9089 0.9089 0.4171 -57.2955 195.9705)" class="times6" cx="124.1" cy="142.7" rx="0.6" ry="1.7"/>
		
			<ellipse transform="matrix(0.4171 -0.9089 0.9089 0.4171 -59.8296 193.092)" class="times6" cx="120.6" cy="143.2" rx="0.6" ry="1.7"/>
		
			<ellipse transform="matrix(1.483501e-02 -0.9999 0.9999 1.483501e-02 -38.1063 261.2772)" class="times6" cx="113.5" cy="150" rx="0.6" ry="1.7"/>
		
			<ellipse transform="matrix(1.483501e-02 -0.9999 0.9999 1.483501e-02 -42.6642 258.8889)" class="times6" cx="110" cy="151.1" rx="0.6" ry="1.7"/>
		
			<ellipse transform="matrix(1.483501e-02 -0.9999 0.9999 1.483501e-02 -47.222 256.5007)" class="times6" cx="106.6" cy="152.2" rx="0.6" ry="1.7"/>
		
			<ellipse transform="matrix(1.483501e-02 -0.9999 0.9999 1.483501e-02 -51.7798 254.1124)" class="times6" cx="103.1" cy="153.3" rx="0.6" ry="1.7"/>
		
			<ellipse transform="matrix(1.483501e-02 -0.9999 0.9999 1.483501e-02 -48.4183 258.8788)" class="times6" cx="107.2" cy="154" rx="0.6" ry="1.7"/>
		
			<ellipse transform="matrix(1.483501e-02 -0.9999 0.9999 1.483501e-02 -52.8748 256.3935)" class="times6" cx="103.7" cy="155" rx="0.6" ry="1.7"/>
		
			<ellipse transform="matrix(1.483501e-02 -0.9999 0.9999 1.483501e-02 -25.6656 268.5575)" class="times6" cx="123.5" cy="147.3" rx="0.6" ry="1.7"/>
		
			<ellipse transform="matrix(1.483501e-02 -0.9999 0.9999 1.483501e-02 -30.2235 266.1692)" class="times6" cx="120" cy="148.4" rx="0.6" ry="1.7"/>
		
			<ellipse transform="matrix(1.483501e-02 -0.9999 0.9999 1.483501e-02 -34.2065 264.3375)" class="times6" cx="117" cy="149.5" rx="0.6" ry="1.7"/>
		
			<ellipse transform="matrix(1.483501e-02 -0.9999 0.9999 1.483501e-02 -31.4155 268.3488)" class="times6" cx="120.5" cy="150.1" rx="0.6" ry="1.7"/>
		
			<ellipse transform="matrix(1.483501e-02 -0.9999 0.9999 1.483501e-02 -35.3985 266.5171)" class="times6" cx="117.6" cy="151.2" rx="0.6" ry="1.7"/>
		
			<ellipse transform="matrix(1.483501e-02 -0.9999 0.9999 1.483501e-02 -39.3027 263.6555)" class="times6" cx="114.1" cy="151.8" rx="0.6" ry="1.7"/>
		
			<ellipse transform="matrix(1.483501e-02 -0.9999 0.9999 1.483501e-02 -43.8604 261.2671)" class="times6" cx="110.7" cy="152.9" rx="0.6" ry="1.7"/>
		
			<ellipse transform="matrix(1.483373e-02 -0.9999 0.9999 1.483373e-02 -21.0894 272.0773)" class="times6" cx="127.5" cy="146.7" rx="0.6" ry="1.7"/>
		
			<ellipse transform="matrix(1.483373e-02 -0.9999 0.9999 1.483373e-02 -22.8562 273.7005)" class="times6" cx="127.5" cy="148.4" rx="0.6" ry="1.7"/>
		
			<ellipse transform="matrix(1.483501e-02 -0.9999 0.9999 1.483501e-02 -26.8577 270.7372)" class="times6" cx="124" cy="149" rx="0.6" ry="1.7"/>
		
			<ellipse transform="matrix(1.483501e-02 -0.9999 0.9999 1.483501e-02 -18.8734 275.532)" class="times6" cx="130.4" cy="147.3" rx="0.6" ry="1.7"/>
	</g>
</g>
<g id="dioder2">
	<g>
		
			<ellipse transform="matrix(1.483501e-02 -0.9999 0.9999 1.483501e-02 98.4062 230.0992)" class="times31" cx="166" cy="65.1" rx="0.8" ry="1.2"/>
		
			<ellipse transform="matrix(1.483501e-02 -0.9999 0.9999 1.483501e-02 98.2341 238.1118)" class="times31" cx="170" cy="69.2" rx="0.8" ry="1.2"/>
		
			<ellipse transform="matrix(1.483501e-02 -0.9999 0.9999 1.483501e-02 93.1013 235.1669)" class="times31" cx="165.9" cy="70.3" rx="0.8" ry="1.2"/>
		
			<ellipse transform="matrix(1.483501e-02 -0.9999 0.9999 1.483501e-02 95.4248 232.969)" class="times31" cx="165.9" cy="68.1" rx="0.8" ry="1.2"/>
		
			<ellipse transform="matrix(1.483501e-02 -0.9999 0.9999 1.483501e-02 100.5574 235.9138)" class="times31" cx="170" cy="66.9" rx="0.8" ry="1.2"/>
		
			<ellipse transform="matrix(1.483501e-02 -0.9999 0.9999 1.483501e-02 102.8809 233.7159)" class="times31" cx="170" cy="64.6" rx="0.8" ry="1.2"/>
		
			<ellipse transform="matrix(1.483501e-02 -0.9999 0.9999 1.483501e-02 100.7295 227.9012)" class="times31" cx="166" cy="62.8" rx="0.8" ry="1.2"/>
		
			<ellipse transform="matrix(1.483501e-02 -0.9999 0.9999 1.483501e-02 91.0042 254.1453)" class="times31" cx="174.5" cy="80.9" rx="0.8" ry="1.2"/>
		
			<ellipse transform="matrix(1.483501e-02 -0.9999 0.9999 1.483501e-02 93.332 251.7488)" class="times31" cx="174.4" cy="78.5" rx="0.8" ry="1.2"/>
		
			<ellipse transform="matrix(1.483501e-02 -0.9999 0.9999 1.483501e-02 95.6554 249.5509)" class="times31" cx="174.5" cy="76.2" rx="0.8" ry="1.2"/>
		
			<ellipse transform="matrix(1.483501e-02 -0.9999 0.9999 1.483501e-02 97.9788 247.353)" class="times31" cx="174.5" cy="74" rx="0.8" ry="1.2"/>
		
			<ellipse transform="matrix(1.483501e-02 -0.9999 0.9999 1.483501e-02 100.9602 244.4831)" class="times31" cx="174.5" cy="71" rx="0.8" ry="1.2"/>
		
			<ellipse transform="matrix(1.483501e-02 -0.9999 0.9999 1.483501e-02 103.2836 242.2852)" class="times31" cx="174.6" cy="68.7" rx="0.8" ry="1.2"/>
		
			<ellipse transform="matrix(1.483501e-02 -0.9999 0.9999 1.483501e-02 105.607 240.0873)" class="times31" cx="174.6" cy="66.5" rx="0.8" ry="1.2"/>
		
			<ellipse transform="matrix(1.483501e-02 -0.9999 0.9999 1.483501e-02 88.1994 248.8039)" class="times31" cx="170.4" cy="79.6" rx="0.8" ry="1.2"/>
		
			<ellipse transform="matrix(1.483501e-02 -0.9999 0.9999 1.483501e-02 84.9167 243.0074)" class="times31" cx="165.8" cy="78.4" rx="0.8" ry="1.2"/>
		
			<ellipse transform="matrix(1.483501e-02 -0.9999 0.9999 1.483501e-02 90.0493 245.9524)" class="times31" cx="169.8" cy="77.3" rx="0.8" ry="1.2"/>
		
			<ellipse transform="matrix(1.483501e-02 -0.9999 0.9999 1.483501e-02 87.7966 240.2347)" class="times31" cx="165.8" cy="75.6" rx="0.8" ry="1.2"/>
		
			<ellipse transform="matrix(1.483501e-02 -0.9999 0.9999 1.483501e-02 92.9293 243.1795)" class="times31" cx="169.9" cy="74.4" rx="0.8" ry="1.2"/>
		
			<ellipse transform="matrix(1.483501e-02 -0.9999 0.9999 1.483501e-02 95.2527 240.9816)" class="times31" cx="169.9" cy="72.2" rx="0.8" ry="1.2"/>
		
			<ellipse transform="matrix(1.483501e-02 -0.9999 0.9999 1.483501e-02 90.2214 237.9396)" class="times31" cx="165.9" cy="73.2" rx="0.8" ry="1.2"/>
		
			<ellipse transform="matrix(1.483501e-02 -0.9999 0.9999 1.483501e-02 114.7812 269.4584)" class="times31" cx="194.1" cy="76.5" rx="0.8" ry="1.2"/>
		
			<ellipse transform="matrix(1.483501e-02 -0.9999 0.9999 1.483501e-02 117.1045 267.2604)" class="times31" cx="194.2" cy="74.2" rx="0.8" ry="1.2"/>
		
			<ellipse transform="matrix(1.483501e-02 -0.9999 0.9999 1.483501e-02 113.1033 264.2973)" class="times31" cx="190.7" cy="74.8" rx="0.8" ry="1.2"/>
		
			<ellipse transform="matrix(1.483501e-02 -0.9999 0.9999 1.483501e-02 115.4266 262.0993)" class="times31" cx="190.7" cy="72.5" rx="0.8" ry="1.2"/>
		
			<ellipse transform="matrix(1.483501e-02 -0.9999 0.9999 1.483501e-02 110.3955 259.0574)" class="times31" cx="186.7" cy="73.5" rx="0.8" ry="1.2"/>
		
			<ellipse transform="matrix(1.483501e-02 -0.9999 0.9999 1.483501e-02 112.7188 256.8594)" class="times31" cx="186.7" cy="71.2" rx="0.8" ry="1.2"/>
		
			<ellipse transform="matrix(1.483501e-02 -0.9999 0.9999 1.483501e-02 108.2441 253.2427)" class="times31" cx="182.6" cy="71.7" rx="0.8" ry="1.2"/>
		
			<ellipse transform="matrix(1.483501e-02 -0.9999 0.9999 1.483501e-02 110.5675 251.0447)" class="times31" cx="182.7" cy="69.4" rx="0.8" ry="1.2"/>
		
			<ellipse transform="matrix(1.483501e-02 -0.9999 0.9999 1.483501e-02 105.4349 248.0999)" class="times31" cx="178.6" cy="70.5" rx="0.8" ry="1.2"/>
		
			<ellipse transform="matrix(1.483501e-02 -0.9999 0.9999 1.483501e-02 108.4163 245.23)" class="times31" cx="178.7" cy="67.6" rx="0.8" ry="1.2"/>
		
			<ellipse transform="matrix(1.483501e-02 -0.9999 0.9999 1.483501e-02 103.2304 272.7309)" class="times31" cx="190" cy="84" rx="0.8" ry="1.2"/>
		
			<ellipse transform="matrix(1.483501e-02 -0.9999 0.9999 1.483501e-02 98.6727 270.3426)" class="times31" cx="186.5" cy="85.1" rx="0.8" ry="1.2"/>
		
			<ellipse transform="matrix(1.483501e-02 -0.9999 0.9999 1.483501e-02 100.996 268.1446)" class="times31" cx="186.6" cy="82.8" rx="0.8" ry="1.2"/>
		
			<ellipse transform="matrix(1.483501e-02 -0.9999 0.9999 1.483501e-02 96.5396 265.6593)" class="times31" cx="183.1" cy="83.8" rx="0.8" ry="1.2"/>
		
			<ellipse transform="matrix(1.483501e-02 -0.9999 0.9999 1.483501e-02 98.2882 262.9047)" class="times31" cx="182.6" cy="81.6" rx="0.8" ry="1.2"/>
		
			<ellipse transform="matrix(1.483501e-02 -0.9999 0.9999 1.483501e-02 93.7303 260.5164)" class="times31" cx="179.1" cy="82.7" rx="0.8" ry="1.2"/>
		
			<ellipse transform="matrix(1.483501e-02 -0.9999 0.9999 1.483501e-02 96.1369 257.09)" class="times31" cx="178.5" cy="79.8" rx="0.8" ry="1.2"/>
		
			<ellipse transform="matrix(1.483501e-02 -0.9999 0.9999 1.483501e-02 103.0401 279.6121)" class="times31" cx="193.4" cy="87.5" rx="0.8" ry="1.2"/>
		
			<ellipse transform="matrix(1.483501e-02 -0.9999 0.9999 1.483501e-02 101.3806 275.5825)" class="times31" cx="190.5" cy="86.3" rx="0.8" ry="1.2"/>
		
			<ellipse transform="matrix(1.483501e-02 -0.9999 0.9999 1.483501e-02 105.9384 277.9707)" class="times31" cx="194" cy="85.2" rx="0.8" ry="1.2"/>
		
			<ellipse transform="matrix(1.483501e-02 -0.9999 0.9999 1.483501e-02 114.1998 295.8561)" class="times31" cx="207.2" cy="90" rx="0.8" ry="1.2"/>
		
			<ellipse transform="matrix(1.483501e-02 -0.9999 0.9999 1.483501e-02 109.6421 293.4679)" class="times31" cx="203.7" cy="91.1" rx="0.8" ry="1.2"/>
		
			<ellipse transform="matrix(1.483501e-02 -0.9999 0.9999 1.483501e-02 111.9655 291.2699)" class="times31" cx="203.8" cy="88.8" rx="0.8" ry="1.2"/>
		
			<ellipse transform="matrix(1.483501e-02 -0.9999 0.9999 1.483501e-02 107.4076 288.8816)" class="times31" cx="200.3" cy="89.9" rx="0.8" ry="1.2"/>
		
			<ellipse transform="matrix(1.483501e-02 -0.9999 0.9999 1.483501e-02 109.8324 286.5867)" class="times31" cx="200.4" cy="87.6" rx="0.8" ry="1.2"/>
		
			<ellipse transform="matrix(1.483501e-02 -0.9999 0.9999 1.483501e-02 119.1486 278.7279)" class="times31" cx="201" cy="78.9" rx="0.8" ry="1.2"/>
		
			<ellipse transform="matrix(1.483501e-02 -0.9999 0.9999 1.483501e-02 121.472 276.53)" class="times31" cx="201.1" cy="76.6" rx="0.8" ry="1.2"/>
		
			<ellipse transform="matrix(1.483501e-02 -0.9999 0.9999 1.483501e-02 105.2746 284.1983)" class="times31" cx="196.9" cy="88.7" rx="0.8" ry="1.2"/>
		
			<ellipse transform="matrix(1.483501e-02 -0.9999 0.9999 1.483501e-02 116.9142 274.1416)" class="times31" cx="197.6" cy="77.7" rx="0.8" ry="1.2"/>
		
			<ellipse transform="matrix(1.483501e-02 -0.9999 0.9999 1.483501e-02 119.2375 271.9436)" class="times31" cx="197.6" cy="75.5" rx="0.8" ry="1.2"/>
		
			<ellipse transform="matrix(1.483501e-02 -0.9999 0.9999 1.483501e-02 107.598 282.0004)" class="times31" cx="196.9" cy="86.4" rx="0.8" ry="1.2"/>
		
			<ellipse transform="matrix(1.483501e-02 -0.9999 0.9999 1.483501e-02 126.9242 289.2725)" class="times31" cx="210.3" cy="80.2" rx="0.8" ry="1.2"/>
		
			<ellipse transform="matrix(1.483501e-02 -0.9999 0.9999 1.483501e-02 111.7751 298.1512)" class="times31" cx="207.2" cy="92.4" rx="0.8" ry="1.2"/>
		
			<ellipse transform="matrix(1.483501e-02 -0.9999 0.9999 1.483501e-02 115.9667 294.233)" class="times31" cx="207.3" cy="88.3" rx="0.8" ry="1.2"/>
		
			<ellipse transform="matrix(1.483501e-02 -0.9999 0.9999 1.483501e-02 118.2902 292.0351)" class="times31" cx="207.3" cy="86" rx="0.8" ry="1.2"/>
		
			<ellipse transform="matrix(1.483501e-02 -0.9999 0.9999 1.483501e-02 120.7149 289.7401)" class="times31" cx="207.4" cy="83.6" rx="0.8" ry="1.2"/>
		
			<ellipse transform="matrix(1.483501e-02 -0.9999 0.9999 1.483501e-02 122.9412 287.4409)" class="times31" cx="207.3" cy="81.3" rx="0.8" ry="1.2"/>
		
			<ellipse transform="matrix(1.483501e-02 -0.9999 0.9999 1.483501e-02 125.2646 285.2428)" class="times31" cx="207.4" cy="79.1" rx="0.8" ry="1.2"/>
		
			<ellipse transform="matrix(1.483501e-02 -0.9999 0.9999 1.483501e-02 120.7068 282.8546)" class="times31" cx="203.9" cy="80.2" rx="0.8" ry="1.2"/>
		
			<ellipse transform="matrix(1.483501e-02 -0.9999 0.9999 1.483501e-02 123.1316 280.5596)" class="times31" cx="203.9" cy="77.8" rx="0.8" ry="1.2"/>
		
			<ellipse transform="matrix(1.483501e-02 -0.9999 0.9999 1.483501e-02 126.8309 296.2551)" class="times31" cx="213.8" cy="83.8" rx="0.8" ry="1.2"/>
		
			<ellipse transform="matrix(1.483501e-02 -0.9999 0.9999 1.483501e-02 129.0573 293.9557)" class="times31" cx="213.7" cy="81.5" rx="0.8" ry="1.2"/>
		
			<ellipse transform="matrix(1.483501e-02 -0.9999 0.9999 1.483501e-02 113.4347 302.1808)" class="times31" cx="210.1" cy="93.5" rx="0.8" ry="1.2"/>
		
			<ellipse transform="matrix(1.483501e-02 -0.9999 0.9999 1.483501e-02 115.7581 299.9828)" class="times31" cx="210.1" cy="91.2" rx="0.8" ry="1.2"/>
		
			<ellipse transform="matrix(1.483501e-02 -0.9999 0.9999 1.483501e-02 118.1829 297.6879)" class="times31" cx="210.2" cy="88.9" rx="0.8" ry="1.2"/>
		
			<ellipse transform="matrix(1.483501e-02 -0.9999 0.9999 1.483501e-02 120.5062 295.4899)" class="times31" cx="210.2" cy="86.6" rx="0.8" ry="1.2"/>
		
			<ellipse transform="matrix(1.483501e-02 -0.9999 0.9999 1.483501e-02 122.2731 293.8669)" class="times31" cx="210.3" cy="84.9" rx="0.8" ry="1.2"/>
		
			<ellipse transform="matrix(1.483501e-02 -0.9999 0.9999 1.483501e-02 124.6008 291.4704)" class="times31" cx="210.2" cy="82.5" rx="0.8" ry="1.2"/>
		
			<ellipse transform="matrix(1.483501e-02 -0.9999 0.9999 1.483501e-02 117.9926 304.569)" class="times31" cx="213.6" cy="92.4" rx="0.8" ry="1.2"/>
		
			<ellipse transform="matrix(1.483501e-02 -0.9999 0.9999 1.483501e-02 119.7594 302.946)" class="times31" cx="213.6" cy="90.7" rx="0.8" ry="1.2"/>
		
			<ellipse transform="matrix(1.483501e-02 -0.9999 0.9999 1.483501e-02 122.0827 300.748)" class="times31" cx="213.7" cy="88.4" rx="0.8" ry="1.2"/>
		
			<ellipse transform="matrix(1.483501e-02 -0.9999 0.9999 1.483501e-02 124.5075 298.4531)" class="times31" cx="213.7" cy="86" rx="0.8" ry="1.2"/>
		
			<ellipse transform="matrix(1.483501e-02 -0.9999 0.9999 1.483501e-02 115.5678 306.864)" class="times31" cx="213.5" cy="94.8" rx="0.8" ry="1.2"/>
	</g>
</g>
<g id="central">
	<g>
		<g>
			
				<ellipse transform="matrix(1.483501e-02 -0.9999 0.9999 1.483501e-02 21.8187 301.7422)" class="times32" cx="164" cy="139.8" rx="1.2" ry="2.3"/>
			
				<ellipse transform="matrix(1.483501e-02 -0.9999 0.9999 1.483501e-02 24.5219 299.1597)" class="times32" cx="164.1" cy="137.1" rx="0.3" ry="1.2"/>
			
				<ellipse transform="matrix(1.483501e-02 -0.9999 0.9999 1.483501e-02 27.1235 296.6743)" class="times32" cx="164.1" cy="134.6" rx="0.6" ry="1.7"/>
			
				<ellipse transform="matrix(1.483501e-02 -0.9999 0.9999 1.483501e-02 29.4469 294.4764)" class="times32" cx="164.2" cy="132.3" rx="1.2" ry="1.7"/>
			
				<ellipse transform="matrix(1.483501e-02 -0.9999 0.9999 1.483501e-02 32.4283 291.6065)" class="times32" cx="164.2" cy="129.3" rx="1.2" ry="1.7"/>
			<circle class="times32" cx="164.2" cy="125.9" r="1.2"/>
			
				<ellipse transform="matrix(1.483501e-02 -0.9999 0.9999 1.483501e-02 38.8463 285.3891)" class="times32" cx="164.3" cy="123" rx="0.6" ry="1.7"/>
			
				<ellipse transform="matrix(1.483501e-02 -0.9999 0.9999 1.483501e-02 41.1697 283.1912)" class="times32" cx="164.3" cy="120.7" rx="1.2" ry="1.7"/>
			
				<ellipse transform="matrix(1.483501e-02 -0.9999 0.9999 1.483501e-02 44.0497 280.4185)" class="times32" cx="164.3" cy="117.9" rx="0.6" ry="1.2"/>
			
				<ellipse transform="matrix(1.483501e-02 -0.9999 0.9999 1.483501e-02 46.4744 278.1235)" class="times32" cx="164.4" cy="115.5" rx="0.6" ry="1.2"/>
			<circle class="times32" cx="166.2" cy="112.6" r="1.2"/>
			
				<ellipse transform="matrix(1.483501e-02 -0.9999 0.9999 1.483501e-02 53.2119 281.7037)" class="times32" cx="169.6" cy="113.8" rx="0.6" ry="1.2"/>
			
				<ellipse transform="matrix(1.483501e-02 -0.9999 0.9999 1.483501e-02 56.1 285.8166)" class="times32" cx="173.1" cy="114.4" rx="0.6" ry="1.2"/>
			
				<ellipse transform="matrix(1.483501e-02 -0.9999 0.9999 1.483501e-02 58.233 290.4998)" class="times32" cx="176.5" cy="115.7" rx="0.6" ry="1.2"/>
			<circle class="times32" cx="180" cy="116.3" r="1.2"/>
			
				<ellipse transform="matrix(1.483501e-02 -0.9999 0.9999 1.483501e-02 63.3474 292.3133)" class="times32" cx="180" cy="114" rx="0.6" ry="1.2"/>
			
				<ellipse transform="matrix(1.483501e-02 -0.9999 0.9999 1.483501e-02 65.6709 290.1154)" class="times32" cx="180.1" cy="111.7" rx="0.6" ry="1.2"/>
			
				<ellipse transform="matrix(1.483501e-02 -0.9999 0.9999 1.483501e-02 68.6522 287.2455)" class="times32" cx="180.1" cy="108.8" rx="1.2" ry="1.7"/>
			
				<ellipse transform="matrix(1.483501e-02 -0.9999 0.9999 1.483501e-02 72.4915 292.4671)" class="times32" cx="184.7" cy="109.4" rx="0.6" ry="1.2"/>
			
				<ellipse transform="matrix(1.483501e-02 -0.9999 0.9999 1.483501e-02 74.726 297.0533)" class="times32" cx="188.1" cy="110.6" rx="1.2" ry="1.7"/>
			<circle class="times32" cx="192.8" cy="111.9" r="1.2"/>
			
				<ellipse transform="matrix(1.483501e-02 -0.9999 0.9999 1.483501e-02 80.2206 306.503)" class="times32" cx="195.7" cy="112.5" rx="0.6" ry="1.2"/>
			
				<ellipse transform="matrix(1.483501e-02 -0.9999 0.9999 1.483501e-02 83.0116 310.5144)" class="times32" cx="199.1" cy="113.1" rx="1.2" ry="0.6"/>
			
				<ellipse transform="matrix(1.483501e-02 -0.9999 0.9999 1.483501e-02 85.7194 315.7543)" class="times32" cx="203.1" cy="114.4" rx="1.2" ry="1.7"/>
			
				<ellipse transform="matrix(1.483501e-02 -0.9999 0.9999 1.483501e-02 89.0991 321.6523)" class="times32" cx="207.8" cy="115.6" rx="0.6" ry="1.7"/>
			
				<ellipse transform="matrix(1.483501e-02 -0.9999 0.9999 1.483501e-02 93.0399 326.7768)" class="times32" cx="212.4" cy="116.2" rx="0.6" ry="1.2"/>
			<circle class="times32" cx="215.8" cy="116.8" r="1.2"/>
			
				<ellipse transform="matrix(1.483501e-02 -0.9999 0.9999 1.483501e-02 93.5031 333.1845)" class="times32" cx="215.8" cy="119.1" rx="0.6" ry="1.7"/>
			<circle class="times32" cx="215.8" cy="121.5" r="1.2"/>
			
				<ellipse transform="matrix(1.483501e-02 -0.9999 0.9999 1.483501e-02 87.6235 337.6957)" class="times32" cx="215.2" cy="124.4" rx="1.2" ry="1.7"/>
			
				<ellipse transform="matrix(1.483501e-02 -0.9999 0.9999 1.483501e-02 90.9893 342.2637)" class="times32" cx="219.2" cy="125" rx="0.6" ry="1.2"/>
			
				<ellipse transform="matrix(1.483501e-02 -0.9999 0.9999 1.483501e-02 93.1224 346.947)" class="times32" cx="222.6" cy="126.2" rx="0.6" ry="1.2"/>
			
				<ellipse transform="matrix(1.483501e-02 -0.9999 0.9999 1.483501e-02 96.9617 352.1686)" class="times32" cx="227.2" cy="126.9" rx="1.2" ry="1.7"/>
			
				<ellipse transform="matrix(1.483501e-02 -0.9999 0.9999 1.483501e-02 95.3284 356.156)" class="times32" cx="228.4" cy="129.7" rx="0.6" ry="1.2"/>
			
				<ellipse transform="matrix(1.483501e-02 -0.9999 0.9999 1.483501e-02 92.3288 357.8944)" class="times32" cx="227.8" cy="132.1" rx="0.6" ry="1.2"/>
			
				<ellipse transform="matrix(1.483501e-02 -0.9999 0.9999 1.483501e-02 89.3517 360.5657)" class="times32" cx="227.7" cy="134.9" rx="0.6" ry="1.2"/>
			
				<ellipse transform="matrix(1.483501e-02 -0.9999 0.9999 1.483501e-02 87.1255 362.8652)" class="times32" cx="227.7" cy="137.2" rx="1.2" ry="1.7"/>
			
				<ellipse transform="matrix(1.483501e-02 -0.9999 0.9999 1.483501e-02 84.0471 365.6335)" class="times32" cx="227.6" cy="140.2" rx="0.6" ry="1.2"/>
			<circle class="times32" cx="227.6" cy="178.3" r="1.7"/>
			<circle class="times32" cx="227.6" cy="181.8" r="1.2"/>
			
				<ellipse transform="matrix(1.483501e-02 -0.9999 0.9999 1.483501e-02 39.0287 408.8556)" class="times32" cx="227" cy="184.6" rx="0.6" ry="1.7"/>
			
				<ellipse transform="matrix(1.483501e-02 -0.9999 0.9999 1.483501e-02 36.6038 411.1506)" class="times32" cx="226.9" cy="187" rx="1.2" ry="1.7"/>
			
				<ellipse transform="matrix(1.483501e-02 -0.9999 0.9999 1.483501e-02 33.724 413.9234)" class="times32" cx="226.9" cy="189.8" rx="0.6" ry="1.2"/>
			
				<ellipse transform="matrix(1.483501e-02 -0.9999 0.9999 1.483501e-02 31.2991 416.2184)" class="times32" cx="226.9" cy="192.2" rx="0.6" ry="1.2"/>
			<circle class="times32" cx="223.4" cy="192.1" r="1.2"/>
			<circle class="times32" cx="220.5" cy="192.1" r="1.2"/>
			
				<ellipse transform="matrix(1.483501e-02 -0.9999 0.9999 1.483501e-02 22.392 405.692)" class="times32" cx="217.1" cy="191.5" rx="0.6" ry="1.2"/>
			<circle class="times32" cx="214.1" cy="190.8" r="1.2"/>
			
				<ellipse transform="matrix(1.483501e-02 -0.9999 0.9999 1.483501e-02 18.4274 404.9917)" class="times32" cx="214.7" cy="193.1" rx="0.6" ry="1.2"/>
			
				<ellipse transform="matrix(1.483501e-02 -0.9999 0.9999 1.483501e-02 15.529 406.6331)" class="times32" cx="214.1" cy="195.4" rx="0.6" ry="1.2"/>
			
				<ellipse transform="matrix(1.483501e-02 -0.9999 0.9999 1.483501e-02 13.1225 410.0594)" class="times32" cx="214.7" cy="198.4" rx="0.6" ry="1.2"/>
			<circle class="times32" cx="211.2" cy="197.7" r="1.2"/>
			<circle class="times32" cx="207.1" cy="197.7" r="1.2"/>
			
				<ellipse transform="matrix(1.483501e-02 -0.9999 0.9999 1.483501e-02 1.9206 397.1083)" class="times32" cx="202.5" cy="197.6" rx="0.6" ry="1.2"/>
			
				<ellipse transform="matrix(1.483501e-02 -0.9999 0.9999 1.483501e-02 -0.8706 393.0969)" class="times32" cx="199.1" cy="197" rx="0.6" ry="1.2"/>
			<circle class="times32" cx="195.6" cy="196.9" r="0.6"/>
			
				<ellipse transform="matrix(1.483501e-02 -0.9999 0.9999 1.483501e-02 -8.1545 384.3373)" class="times32" cx="191" cy="196.3" rx="1.2" ry="1.7"/>
			
				<ellipse transform="matrix(1.483501e-02 -0.9999 0.9999 1.483501e-02 -13.2222 379.0324)" class="times32" cx="185.7" cy="196.2" rx="0.6" ry="1.7"/>
			
				<ellipse transform="matrix(1.483501e-02 -0.9999 0.9999 1.483501e-02 -17.1402 374.8409)" class="times32" cx="181.7" cy="196.1" rx="0.6" ry="1.2"/>
			
				<ellipse transform="matrix(1.483501e-02 -0.9999 0.9999 1.483501e-02 -19.9313 370.8296)" class="times32" cx="178.2" cy="195.5" rx="0.6" ry="1.2"/>
			
				<ellipse transform="matrix(1.483501e-02 -0.9999 0.9999 1.483501e-02 -17.5066 368.5345)" class="times32" cx="178.3" cy="193.2" rx="0.6" ry="1.2"/>
			
				<ellipse transform="matrix(1.483501e-02 -0.9999 0.9999 1.483501e-02 -15.1648 367.4679)" class="times32" cx="178.9" cy="191.4" rx="0.6" ry="1.7"/>
			<circle class="times32" cx="178.9" cy="188.6" r="1.2"/>
			
				<ellipse transform="matrix(1.483501e-02 -0.9999 0.9999 1.483501e-02 -16.2213 359.3722)" class="times32" cx="174.3" cy="187.9" rx="0.6" ry="1.2"/>
			<circle class="times32" cx="170.3" cy="187.3" r="1.2"/>
			
				<ellipse transform="matrix(1.483501e-02 -0.9999 0.9999 1.483501e-02 -24.08 350.056)" class="times32" cx="165.6" cy="187.2" rx="1.2" ry="1.7"/>
			
				<ellipse transform="matrix(1.483501e-02 -0.9999 0.9999 1.483501e-02 -23.2966 344.8629)" class="times32" cx="163.4" cy="184.3" rx="0.6" ry="1.7"/>
			
				<ellipse transform="matrix(1.483501e-02 -0.9999 0.9999 1.483501e-02 -20.4166 342.0901)" class="times32" cx="163.4" cy="181.4" rx="0.6" ry="1.2"/>
			<circle class="times32" cx="163.4" cy="179.1" r="1.2"/>
			
				<ellipse transform="matrix(1.483501e-02 -0.9999 0.9999 1.483501e-02 -15.1118 337.0223)" class="times32" cx="163.5" cy="176.2" rx="0.6" ry="1.7"/>
			
				<ellipse transform="matrix(1.483501e-02 -0.9999 0.9999 1.483501e-02 -13.3633 334.2678)" class="times32" cx="163" cy="173.9" rx="0.6" ry="2.3"/>
			<circle class="times32" cx="163.6" cy="171" r="1.2"/>
			
				<ellipse transform="matrix(1.483501e-02 -0.9999 0.9999 1.483501e-02 -6.9271 329.1817)" class="times32" cx="163.6" cy="168.1" rx="0.6" ry="1.2"/>
			
				<ellipse transform="matrix(1.483501e-02 -0.9999 0.9999 1.483501e-02 -5.0771 326.3302)" class="times32" cx="163.1" cy="165.7" rx="0.6" ry="1.7"/>
			
				<ellipse transform="matrix(1.483501e-02 -0.9999 0.9999 1.483501e-02 -1.6222 324.114)" class="times32" cx="163.7" cy="162.9" rx="1.2" ry="1.7"/>
			
				<ellipse transform="matrix(1.483501e-02 -0.9999 0.9999 1.483501e-02 1.2576 321.3412)" class="times32" cx="163.7" cy="160" rx="1.2" ry="0.6"/>
			
				<ellipse transform="matrix(1.483501e-02 -0.9999 0.9999 1.483501e-02 4.2391 318.4714)" class="times32" cx="163.7" cy="157.1" rx="0.6" ry="1.2"/>
			
				<ellipse transform="matrix(1.483501e-02 -0.9999 0.9999 1.483501e-02 7.1191 315.6986)" class="times32" cx="163.8" cy="154.2" rx="1.2" ry="1.7"/>
			
				<ellipse transform="matrix(1.483501e-02 -0.9999 0.9999 1.483501e-02 9.8131 312.5505)" class="times32" cx="163.5" cy="151.3" rx="0.6" ry="0.9"/>
			
				<ellipse transform="matrix(1.483501e-02 -0.9999 0.9999 1.483501e-02 12.1364 310.3525)" class="times32" cx="163.6" cy="149" rx="0.6" ry="0.9"/>
			
				<ellipse transform="matrix(1.483501e-02 -0.9999 0.9999 1.483501e-02 15.0254 308.1455)" class="times32" cx="163.9" cy="146.4" rx="0.9" ry="1.7"/>
			
				<ellipse transform="matrix(1.483501e-02 -0.9999 0.9999 1.483501e-02 18.4803 305.9293)" class="times32" cx="164.5" cy="143.6" rx="0.9" ry="1.2"/>
		</g>
		
			<ellipse transform="matrix(1.483501e-02 -0.9999 0.9999 1.483501e-02 81.4758 368.7292)" class="times32" cx="227.9" cy="143" rx="1.1" ry="1.6"/>
		
			<ellipse transform="matrix(4.607004e-02 -0.9989 0.9989 4.607004e-02 72.6211 367.573)" class="times32" cx="228.8" cy="145.8" rx="0.6" ry="1.2"/>
		<circle class="times32" cx="228.1" cy="148.7" r="1.2"/>
		
			<ellipse transform="matrix(4.607004e-02 -0.9989 0.9989 4.607004e-02 65.9391 373.2915)" class="times32" cx="228.4" cy="152.1" rx="0.6" ry="1.2"/>
		
			<ellipse transform="matrix(4.607004e-02 -0.9989 0.9989 4.607004e-02 63.8948 375.2146)" class="times32" cx="228.4" cy="154.2" rx="0.3" ry="1.2"/>
		<circle class="times32" cx="228.3" cy="156.2" r="0.6"/>
		<circle class="times32" cx="227.9" cy="158.8" r="0.9"/>
		
			<ellipse transform="matrix(4.607004e-02 -0.9989 0.9989 4.607004e-02 55.49 381.3217)" class="times32" cx="227.4" cy="161.6" rx="0.9" ry="1.7"/>
		
			<ellipse transform="matrix(4.607004e-02 -0.9989 0.9989 4.607004e-02 52.7411 385.4757)" class="times32" cx="228.2" cy="165.1" rx="0.9" ry="1.4"/>
		
			<ellipse transform="matrix(4.607004e-02 -0.9989 0.9989 4.607004e-02 49.0254 388.59)" class="times32" cx="228" cy="168.6" rx="1.4" ry="2"/>
		
			<ellipse transform="matrix(4.607004e-02 -0.9989 0.9989 4.607004e-02 45.3851 392.3474)" class="times32" cx="228.1" cy="172.4" rx="0.6" ry="1.7"/>
		
			<ellipse transform="matrix(4.607004e-02 -0.9989 0.9989 4.607004e-02 42.4341 394.4127)" class="times32" cx="227.7" cy="175" rx="0.9" ry="2"/>
	</g>
</g>
<g id="screenlight">
	<g>
		<circle class="times6" cx="407.4" cy="49.2" r="3.2"/>
		<circle class="times6" cx="407.4" cy="88" r="3.2"/>
		<circle class="times6" cx="407.4" cy="74.7" r="3.2"/>
		<circle class="times6" cx="407.4" cy="61.4" r="3.2"/>
		<circle class="times6" cx="407.4" cy="37.7" r="3.2"/>
		<circle class="times6" cx="407.4" cy="154.4" r="3.2"/>
		<circle class="times6" cx="407.4" cy="140.6" r="3.2"/>
		<circle class="times6" cx="407.4" cy="126.7" r="3.2"/>
		<circle class="times6" cx="407.4" cy="112.8" r="3.2"/>
		<circle class="times6" cx="407.4" cy="98.9" r="3.2"/>
		<circle class="times6" cx="463.5" cy="49.2" r="3.2"/>
		<circle class="times6" cx="463.5" cy="88" r="3.2"/>
		<circle class="times6" cx="463.5" cy="74.7" r="3.2"/>
		<circle class="times6" cx="463.5" cy="61.4" r="3.2"/>
		<circle class="times6" cx="463.5" cy="154.4" r="3.2"/>
		<circle class="times6" cx="463.5" cy="140.6" r="3.2"/>
		<circle class="times6" cx="463.5" cy="126.7" r="3.2"/>
		<circle class="times6" cx="463.5" cy="112.8" r="3.2"/>
		<circle class="times6" cx="463.5" cy="98.9" r="3.2"/>
		<circle class="times6" cx="463.5" cy="168.3" r="3.2"/>
		<circle class="times6" cx="463.5" cy="207.1" r="3.2"/>
		<circle class="times6" cx="463.5" cy="193.8" r="3.2"/>
		<circle class="times6" cx="463.5" cy="180.5" r="3.2"/>
		<circle class="times6" cx="463.5" cy="273.6" r="3.2"/>
		<circle class="times6" cx="463.5" cy="259.7" r="3.2"/>
		<circle class="times6" cx="463.5" cy="245.8" r="3.2"/>
		<circle class="times6" cx="463.5" cy="231.9" r="3.2"/>
		<circle class="times6" cx="463.5" cy="218" r="3.2"/>
		<circle class="times6" cx="408" cy="167.7" r="3.2"/>
		<circle class="times6" cx="408" cy="206.5" r="3.2"/>
		<circle class="times6" cx="408" cy="193.2" r="3.2"/>
		<circle class="times6" cx="408" cy="179.9" r="3.2"/>
		<circle class="times6" cx="408.6" cy="273" r="3.2"/>
		<circle class="times6" cx="408" cy="259.1" r="3.2"/>
		<circle class="times6" cx="408" cy="245.2" r="3.2"/>
		<circle class="times6" cx="408" cy="231.3" r="3.2"/>
		<circle class="times6" cx="408" cy="217.5" r="3.2"/>
		<circle class="times6" cx="463.5" cy="285.7" r="3.2"/>
		<circle class="times6" cx="463.5" cy="37.7" r="3.2"/>
	</g>
</g>
<g id="Lag_6">
	<g>
		
			<ellipse transform="matrix(0.9988 -4.818400e-02 4.818400e-02 0.9988 -2.4201 29.399)" class="times10" cx="608.6" cy="64.9" rx="10.5" ry="6.9"/>
		
			<ellipse transform="matrix(0.9988 -4.818400e-02 4.818400e-02 0.9988 -2.4178 31.096)" class="times10" cx="643.8" cy="65.7" rx="13.6" ry="9.4"/>
		
			<ellipse transform="matrix(0.9988 -4.818400e-02 4.818400e-02 0.9988 -2.2867 32.732)" class="times10" cx="677.8" cy="63.8" rx="10.5" ry="6.9"/>
	</g>
</g>
<g id="dioder">
	<g>
		
			<ellipse transform="matrix(0.9964 -8.420622e-02 8.420622e-02 0.9964 -24.0497 62.1694)" class="times10" cx="725" cy="316.2" rx="1.1" ry="0.7"/>
		
			<ellipse transform="matrix(0.9964 -8.420622e-02 8.420622e-02 0.9964 -23.77 61.8036)" class="times10" cx="720.8" cy="312.7" rx="1.1" ry="0.7"/>
		
			<ellipse transform="matrix(0.9964 -8.420622e-02 8.420622e-02 0.9964 -23.63 62.1177)" class="times10" cx="724.6" cy="311.2" rx="1.1" ry="0.7"/>
		
			<ellipse transform="matrix(0.9964 -8.420622e-02 8.420622e-02 0.9964 -23.8239 62.135)" class="times10" cx="724.7" cy="313.5" rx="1.1" ry="0.7"/>
		
			<ellipse transform="matrix(0.9964 -8.420622e-02 8.420622e-02 0.9964 -23.9544 61.8282)" class="times10" cx="721" cy="314.9" rx="1.1" ry="0.7"/>
		
			<ellipse transform="matrix(0.9964 -8.420622e-02 8.420622e-02 0.9964 -24.1389 61.8528)" class="times10" cx="721.2" cy="317.1" rx="1.1" ry="0.7"/>
		
			<ellipse transform="matrix(0.9964 -8.420622e-02 8.420622e-02 0.9964 -24.2342 62.194)" class="times10" cx="725.2" cy="318.4" rx="1.1" ry="0.7"/>
		
			<ellipse transform="matrix(0.9964 -8.420622e-02 8.420622e-02 0.9964 -22.8886 61.3106)" class="times10" cx="715.4" cy="302" rx="1.1" ry="0.7"/>
		
			<ellipse transform="matrix(0.9964 -8.420622e-02 8.420622e-02 0.9964 -23.0731 61.3352)" class="times10" cx="715.6" cy="304.2" rx="1.1" ry="0.7"/>
		
			<ellipse transform="matrix(0.9964 -8.420622e-02 8.420622e-02 0.9964 -23.2575 61.3598)" class="times10" cx="715.8" cy="306.4" rx="1.1" ry="0.7"/>
		
			<ellipse transform="matrix(0.9964 -8.420622e-02 8.420622e-02 0.9964 -23.442 61.3844)" class="times10" cx="716" cy="308.6" rx="1.1" ry="0.7"/>
		
			<ellipse transform="matrix(0.9964 -8.420622e-02 8.420622e-02 0.9964 -23.6772 61.4116)" class="times10" cx="716.2" cy="311.4" rx="1.1" ry="0.7"/>
		
			<ellipse transform="matrix(0.9964 -8.420622e-02 8.420622e-02 0.9964 -23.8617 61.4362)" class="times10" cx="716.4" cy="313.6" rx="1.1" ry="0.7"/>
		
			<ellipse transform="matrix(0.9964 -8.420622e-02 8.420622e-02 0.9964 -24.0461 61.4608)" class="times10" cx="716.6" cy="315.8" rx="1.1" ry="0.7"/>
		
			<ellipse transform="matrix(0.9964 -8.420622e-02 8.420622e-02 0.9964 -22.9414 61.6504)" class="times10" cx="719.4" cy="302.8" rx="1.1" ry="0.7"/>
		
			<ellipse transform="matrix(0.9964 -8.420622e-02 8.420622e-02 0.9964 -22.9845 62.0316)" class="times10" cx="723.9" cy="303.5" rx="1.1" ry="0.7"/>
		
			<ellipse transform="matrix(0.9964 -8.420622e-02 8.420622e-02 0.9964 -23.1244 61.7175)" class="times10" cx="720.1" cy="305" rx="1.1" ry="0.7"/>
		
			<ellipse transform="matrix(0.9964 -8.420622e-02 8.420622e-02 0.9964 -23.2197 62.0587)" class="times10" cx="724.1" cy="306.3" rx="1.1" ry="0.7"/>
		
			<ellipse transform="matrix(0.9964 -8.420622e-02 8.420622e-02 0.9964 -23.3503 61.7519)" class="times10" cx="720.4" cy="307.7" rx="1.1" ry="0.7"/>
		
			<ellipse transform="matrix(0.9964 -8.420622e-02 8.420622e-02 0.9964 -23.5347 61.7765)" class="times10" cx="720.6" cy="309.9" rx="1.1" ry="0.7"/>
		
			<ellipse transform="matrix(0.9964 -8.420622e-02 8.420622e-02 0.9964 -23.4042 62.0833)" class="times10" cx="724.3" cy="308.5" rx="1.1" ry="0.7"/>
		
			<ellipse transform="matrix(0.9964 -8.420622e-02 8.420622e-02 0.9964 -23.4583 59.791)" class="times10" cx="697.1" cy="308" rx="1.1" ry="0.7"/>
		
			<ellipse transform="matrix(0.9964 -8.420622e-02 8.420622e-02 0.9964 -23.6427 59.8156)" class="times10" cx="697.3" cy="310.2" rx="1.1" ry="0.7"/>
		
			<ellipse transform="matrix(0.9964 -8.420622e-02 8.420622e-02 0.9964 -23.5644 60.0825)" class="times10" cx="700.5" cy="309.4" rx="1.1" ry="0.7"/>
		
			<ellipse transform="matrix(0.9964 -8.420622e-02 8.420622e-02 0.9964 -23.7489 60.1071)" class="times10" cx="700.7" cy="311.6" rx="1.1" ry="0.7"/>
		
			<ellipse transform="matrix(0.9964 -8.420622e-02 8.420622e-02 0.9964 -23.6172 60.4223)" class="times10" cx="704.5" cy="310.2" rx="1.1" ry="0.7"/>
		
			<ellipse transform="matrix(0.9964 -8.420622e-02 8.420622e-02 0.9964 -23.8017 60.4469)" class="times10" cx="704.7" cy="312.4" rx="1.1" ry="0.7"/>
		
			<ellipse transform="matrix(0.9964 -8.420622e-02 8.420622e-02 0.9964 -23.7125 60.7635)" class="times10" cx="708.5" cy="311.5" rx="1.1" ry="0.7"/>
		
			<ellipse transform="matrix(0.9964 -8.420622e-02 8.420622e-02 0.9964 -23.897 60.7881)" class="times10" cx="708.7" cy="313.7" rx="1.1" ry="0.7"/>
		
			<ellipse transform="matrix(0.9964 -8.420622e-02 8.420622e-02 0.9964 -23.7664 61.0949)" class="times10" cx="712.4" cy="312.3" rx="1.1" ry="0.7"/>
		
			<ellipse transform="matrix(0.9964 -8.420622e-02 8.420622e-02 0.9964 -23.9922 61.1293)" class="times10" cx="712.7" cy="315" rx="1.1" ry="0.7"/>
		
			<ellipse transform="matrix(0.9964 -8.420622e-02 8.420622e-02 0.9964 -22.8158 60.0338)" class="times10" cx="700.3" cy="300.5" rx="1.1" ry="0.7"/>
		
			<ellipse transform="matrix(0.9964 -8.420622e-02 8.420622e-02 0.9964 -22.6867 60.2982)" class="times10" cx="703.5" cy="299.1" rx="1.1" ry="0.7"/>
		
			<ellipse transform="matrix(0.9964 -8.420622e-02 8.420622e-02 0.9964 -22.8711 60.3228)" class="times10" cx="703.7" cy="301.3" rx="1.1" ry="0.7"/>
		
			<ellipse transform="matrix(0.9964 -8.420622e-02 8.420622e-02 0.9964 -22.7503 60.5882)" class="times10" cx="706.9" cy="300" rx="1.1" ry="0.7"/>
		
			<ellipse transform="matrix(0.9964 -8.420622e-02 8.420622e-02 0.9964 -22.9239 60.6626)" class="times10" cx="707.7" cy="302.1" rx="1.1" ry="0.7"/>
		
			<ellipse transform="matrix(0.9964 -8.420622e-02 8.420622e-02 0.9964 -22.7948 60.927)" class="times10" cx="710.9" cy="300.7" rx="1.1" ry="0.7"/>
		
			<ellipse transform="matrix(0.9964 -8.420622e-02 8.420622e-02 0.9964 -23.0192 61.0038)" class="times10" cx="711.7" cy="303.4" rx="1.1" ry="0.7"/>
		
			<ellipse transform="matrix(0.9964 -8.420622e-02 8.420622e-02 0.9964 -22.576 59.7203)" class="times10" cx="696.7" cy="297.5" rx="1.1" ry="0.7"/>
		
			<ellipse transform="matrix(0.9964 -8.420622e-02 8.420622e-02 0.9964 -22.6412 59.9678)" class="times10" cx="699.6" cy="298.4" rx="1.1" ry="0.7"/>
		
			<ellipse transform="matrix(0.9964 -8.420622e-02 8.420622e-02 0.9964 -22.7619 59.7024)" class="times10" cx="696.4" cy="299.7" rx="1.1" ry="0.7"/>
		
			<ellipse transform="matrix(0.9964 -8.420622e-02 8.420622e-02 0.9964 -22.5309 58.588)" class="times10" cx="683.3" cy="296.4" rx="1.1" ry="0.7"/>
		
			<ellipse transform="matrix(0.9964 -8.420622e-02 8.420622e-02 0.9964 -22.4017 58.8523)" class="times10" cx="686.5" cy="295" rx="1.1" ry="0.7"/>
		
			<ellipse transform="matrix(0.9964 -8.420622e-02 8.420622e-02 0.9964 -22.5862 58.8769)" class="times10" cx="686.7" cy="297.2" rx="1.1" ry="0.7"/>
		
			<ellipse transform="matrix(0.9964 -8.420622e-02 8.420622e-02 0.9964 -22.4571 59.1413)" class="times10" cx="689.9" cy="295.8" rx="1.1" ry="0.7"/>
		
			<ellipse transform="matrix(0.9964 -8.420622e-02 8.420622e-02 0.9964 -22.6415 59.1659)" class="times10" cx="690.1" cy="298" rx="1.1" ry="0.7"/>
		
			<ellipse transform="matrix(0.9964 -8.420622e-02 8.420622e-02 0.9964 -23.3477 59.2131)" class="times10" cx="690.3" cy="306.4" rx="1.1" ry="0.7"/>
		
			<ellipse transform="matrix(0.9964 -8.420622e-02 8.420622e-02 0.9964 -23.5332 59.2293)" class="times10" cx="690.4" cy="308.6" rx="1.1" ry="0.7"/>
		
			<ellipse transform="matrix(0.9964 -8.420622e-02 8.420622e-02 0.9964 -22.5207 59.4313)" class="times10" cx="693.3" cy="296.7" rx="1.1" ry="0.7"/>
		
			<ellipse transform="matrix(0.9964 -8.420622e-02 8.420622e-02 0.9964 -23.403 59.5021)" class="times10" cx="693.7" cy="307.2" rx="1.1" ry="0.7"/>
		
			<ellipse transform="matrix(0.9964 -8.420622e-02 8.420622e-02 0.9964 -23.5874 59.5267)" class="times10" cx="693.9" cy="309.4" rx="1.1" ry="0.7"/>
		
			<ellipse transform="matrix(0.9964 -8.420622e-02 8.420622e-02 0.9964 -22.7052 59.4559)" class="times10" cx="693.5" cy="298.9" rx="1.1" ry="0.7"/>
		
			<ellipse transform="matrix(0.9964 -8.420622e-02 8.420622e-02 0.9964 -23.3466 58.4536)" class="times10" cx="681.3" cy="306" rx="1.1" ry="0.7"/>
		
			<ellipse transform="matrix(0.9964 -8.420622e-02 8.420622e-02 0.9964 -22.3464 58.5634)" class="times10" cx="683.1" cy="294.2" rx="1.1" ry="0.7"/>
		
			<ellipse transform="matrix(0.9964 -8.420622e-02 8.420622e-02 0.9964 -22.6728 58.6111)" class="times10" cx="683.5" cy="298.1" rx="1.1" ry="0.7"/>
		
			<ellipse transform="matrix(0.9964 -8.420622e-02 8.420622e-02 0.9964 -22.8584 58.6274)" class="times10" cx="683.6" cy="300.3" rx="1.1" ry="0.7"/>
		
			<ellipse transform="matrix(0.9964 -8.420622e-02 8.420622e-02 0.9964 -23.0428 58.652)" class="times10" cx="683.8" cy="302.5" rx="1.1" ry="0.7"/>
		
			<ellipse transform="matrix(0.9964 -8.420622e-02 8.420622e-02 0.9964 -23.2272 58.6766)" class="times10" cx="684" cy="304.7" rx="1.1" ry="0.7"/>
		
			<ellipse transform="matrix(0.9964 -8.420622e-02 8.420622e-02 0.9964 -23.4117 58.7012)" class="times10" cx="684.2" cy="306.9" rx="1.1" ry="0.7"/>
		
			<ellipse transform="matrix(0.9964 -8.420622e-02 8.420622e-02 0.9964 -23.2825 58.9655)" class="times10" cx="687.4" cy="305.5" rx="1.1" ry="0.7"/>
		
			<ellipse transform="matrix(0.9964 -8.420622e-02 8.420622e-02 0.9964 -23.467 58.9901)" class="times10" cx="687.6" cy="307.7" rx="1.1" ry="0.7"/>
		
			<ellipse transform="matrix(0.9964 -8.420622e-02 8.420622e-02 0.9964 -23.1057 58.1484)" class="times10" cx="677.8" cy="303" rx="1.1" ry="0.7"/>
		
			<ellipse transform="matrix(0.9964 -8.420622e-02 8.420622e-02 0.9964 -23.2912 58.1646)" class="times10" cx="677.9" cy="305.2" rx="1.1" ry="0.7"/>
		
			<ellipse transform="matrix(0.9964 -8.420622e-02 8.420622e-02 0.9964 -22.2802 58.3241)" class="times10" cx="680.3" cy="293.3" rx="1.1" ry="0.7"/>
		
			<ellipse transform="matrix(0.9964 -8.420622e-02 8.420622e-02 0.9964 -22.4647 58.3488)" class="times10" cx="680.5" cy="295.5" rx="1.1" ry="0.7"/>
		
			<ellipse transform="matrix(0.9964 -8.420622e-02 8.420622e-02 0.9964 -22.6502 58.365)" class="times10" cx="680.6" cy="297.7" rx="1.1" ry="0.7"/>
		
			<ellipse transform="matrix(0.9964 -8.420622e-02 8.420622e-02 0.9964 -22.8346 58.3896)" class="times10" cx="680.8" cy="299.9" rx="1.1" ry="0.7"/>
		
			<ellipse transform="matrix(0.9964 -8.420622e-02 8.420622e-02 0.9964 -22.9766 58.4128)" class="times10" cx="681" cy="301.6" rx="1.1" ry="0.7"/>
		
			<ellipse transform="matrix(0.9964 -8.420622e-02 8.420622e-02 0.9964 -23.1611 58.4374)" class="times10" cx="681.2" cy="303.8" rx="1.1" ry="0.7"/>
		
			<ellipse transform="matrix(0.9964 -8.420622e-02 8.420622e-02 0.9964 -22.4094 58.0598)" class="times10" cx="677.1" cy="294.7" rx="1.1" ry="0.7"/>
		
			<ellipse transform="matrix(0.9964 -8.420622e-02 8.420622e-02 0.9964 -22.5524 58.0746)" class="times10" cx="677.2" cy="296.4" rx="1.1" ry="0.7"/>
		
			<ellipse transform="matrix(0.9964 -8.420622e-02 8.420622e-02 0.9964 -22.7369 58.0992)" class="times10" cx="677.4" cy="298.6" rx="1.1" ry="0.7"/>
		
			<ellipse transform="matrix(0.9964 -8.420622e-02 8.420622e-02 0.9964 -22.9213 58.1238)" class="times10" cx="677.6" cy="300.8" rx="1.1" ry="0.7"/>
		
			<ellipse transform="matrix(0.9964 -8.420622e-02 8.420622e-02 0.9964 -22.2249 58.0352)" class="times10" cx="676.9" cy="292.5" rx="1.1" ry="0.7"/>
	</g>
</g>
<g id="ramme">
	<path class="times31" d="M755.5,169.5l-134.9-5.8l3.3,105.1L759.7,299L755.5,169.5z M627.4,265.8l-2.6-94.4l121.4,5.2l3.4,116.3
		L627.4,265.8z"/>
</g>
<g id="spejl">
	<g>
		<circle class="times6" cx="570" cy="167.7" r="3"/>
		<circle class="times6" cx="578.5" cy="168.5" r="3"/>
		<circle class="times6" cx="587.4" cy="169.1" r="3"/>
		<circle class="times6" cx="561.1" cy="167.2" r="3"/>
		<circle class="times6" cx="597" cy="170.3" r="3"/>
		<circle class="times6" cx="552.1" cy="177.1" r="3"/>
		<circle class="times6" cx="604.2" cy="218.9" r="3"/>
		<circle class="times6" cx="604.3" cy="208.3" r="3"/>
		<circle class="times6" cx="604.4" cy="199.2" r="3"/>
		<circle class="times6" cx="604.5" cy="190.2" r="3"/>
		<circle class="times6" cx="604.6" cy="180.7" r="3"/>
		<circle class="times6" cx="551.6" cy="212.6" r="3"/>
		<circle class="times6" cx="551.7" cy="203.5" r="3"/>
		<circle class="times6" cx="551.8" cy="194.5" r="3"/>
		<circle class="times6" cx="551.9" cy="185.4" r="3"/>
		<circle class="times6" cx="603.8" cy="248.7" r="3"/>
		<circle class="times6" cx="603.9" cy="238.5" r="3"/>
		<circle class="times6" cx="604" cy="229.4" r="3"/>
		<circle class="times6" cx="589.3" cy="258.4" r="3"/>
		<circle class="times6" cx="579.9" cy="256.6" r="3"/>
		<circle class="times6" cx="569.2" cy="255.2" r="3"/>
		<circle class="times6" cx="559.3" cy="253.4" r="3"/>
		<circle class="times6" cx="551.3" cy="239.8" r="3"/>
		<circle class="times6" cx="551.4" cy="230.7" r="3"/>
		<circle class="times6" cx="551.5" cy="221.7" r="3"/>
		<circle class="times6" cx="597.6" cy="259.6" r="3"/>
	</g>
</g>
<g id="times">
	<g>
		<circle class="times10" cx="564.3" cy="131.9" r="1.7"/>
		<circle class="times10" cx="557.1" cy="131.2" r="1.7"/>
		<circle class="times10" cx="572.9" cy="132.2" r="1.7"/>
		<circle class="times10" cx="580.7" cy="133.2" r="1.7"/>
		<circle class="times10" cx="587.9" cy="133.6" r="1.7"/>
		<circle class="times10" cx="595.6" cy="134.1" r="1.7"/>
		<circle class="times10" cx="602.3" cy="134.5" r="1.7"/>
		<circle class="times10" cx="609.5" cy="134.9" r="1.7"/>
		<circle class="times10" cx="617.2" cy="135.4" r="1.7"/>
		<circle class="times10" cx="623.9" cy="136.3" r="1.7"/>
		<circle class="times10" cx="631.1" cy="136.7" r="1.7"/>
		<circle class="times10" cx="638.8" cy="137.2" r="1.7"/>
		<circle class="times10" cx="647.2" cy="137.6" r="1.7"/>
		<circle class="times10" cx="654.4" cy="138" r="1.7"/>
		<circle class="times10" cx="662.1" cy="138.5" r="1.7"/>
		<circle class="times10" cx="669.4" cy="139.4" r="1.7"/>
		<circle class="times10" cx="676.6" cy="139.8" r="1.7"/>
		<circle class="times10" cx="684.3" cy="140.3" r="1.7"/>
		<circle class="times10" cx="692.6" cy="140.7" r="1.7"/>
		<circle class="times10" cx="699.8" cy="141.1" r="1.7"/>
		<circle class="times10" cx="707.6" cy="141.6" r="1.7"/>
		<circle class="times10" cx="715.9" cy="142.5" r="1.7"/>
		<circle class="times10" cx="723.1" cy="142.9" r="1.7"/>
		<circle class="times10" cx="730.8" cy="143.4" r="1.7"/>
	</g>
</g>
</svg>
