<?xml version="1.0" encoding="utf-8"?>
<!-- Generator: Adobe Illustrator 23.0.3, SVG Export Plug-In . SVG Version: 6.00 Build 0)  -->
<svg version="1.1" id="Lag_1" xmlns="http://www.w3.org/2000/svg" xmlns:xlink="http://www.w3.org/1999/xlink" x="0px" y="0px"
	 viewBox="0 0 138 333.4" style="enable-background:new 0 0 138 333.4;" xml:space="preserve">
<style type="text/css">
	.st0{fill:#2E2E2E;stroke:#000000;stroke-width:4;stroke-miterlimit:10;}
	.st1{fill:#BB2627;}
	.st2{fill:#D29F2B;}
	.st3{fill:#29944B;}
	.st4{fill:#E6222E;}
	.st5{fill:#FCBD34;}
	.st6{fill:#39B15D;}
</style>
<path class="st0" d="M2,52.4c0-3.4,0.6-6.7,1.7-9.9C8.6,29.3,25.1-1.6,74,2.3c62,5,62,46,62,46v230c0,0,2,54.8-66.6,53
	c-0.2,0-0.5,0-0.7,0c-5.2,0.1-67.6,0.5-66.7-57C2.9,219.9,2.2,78.3,2,52.4z"/>
<circle class="st1" cx="69" cy="67.3" r="36"/>
<circle class="st2" cx="69.5" cy="166.8" r="36"/>
<circle class="st3" cx="68.5" cy="268.8" r="36"/>
<circle class="st4" cx="62" cy="62.3" r="29.5"/>
<circle class="st5" cx="63" cy="161.3" r="29.5"/>
<circle class="st6" cx="64" cy="264.3" r="31.5"/>
</svg>
